<svg width="1200" height="900" viewBox="0 0 1200 900" fill="none" xmlns="http://www.w3.org/2000/svg">
<rect width="1200" height="900" fill="url(#paint0_linear_1_7)"/>
<path d="M545 420.4L477 353.6V418H458V278H477V341.8L536.6 277.4L549.4 289.2L494.8 346L558.2 406.8L545 420.4Z" fill="#0D0202"/>
<path d="M603.6 583.571C606 587.571 609.333 590.838 613.6 593.371C618 596.038 623.067 597.371 628.8 597.371C634.667 597.371 640.533 595.638 646.4 592.171C652.4 588.838 657.4 584.638 661.4 579.571L664.2 582.371C654.467 597.571 641.267 607.971 624.6 613.571C613.133 613.571 603.733 610.638 596.4 604.771C589.067 598.905 583.867 591.371 580.8 582.171C577.867 572.971 576.4 561.638 576.4 548.171C576.4 534.705 578.067 521.971 581.4 509.971C584.867 497.838 590.8 486.971 599.2 477.371C607.6 467.638 618.067 460.971 630.6 457.371C644.067 457.371 657.8 458.638 671.8 461.171L671.6 465.571C668.133 465.571 664.933 466.171 662 467.371C658.667 475.238 656.467 484.638 655.4 495.571H650.4C649.2 489.305 648.6 483.305 648.6 477.571C641.533 473.705 633.733 471.771 625.2 471.771C616.8 471.771 609.867 474.305 604.4 479.371C597.6 493.105 594.2 510.771 594.2 532.371C594.2 556.505 597.333 573.571 603.6 583.571Z" fill="#0F0404"/>
<defs>
<linearGradient id="paint0_linear_1_7" x1="1164" y1="865.714" x2="-69.853" y2="433.866" gradientUnits="userSpaceOnUse">
<stop stop-color="#D8FA0C"/>
<stop offset="1" stop-color="#F11C76"/>
</linearGradient>
</defs>
</svg>
