<svg version="1.1"
  xmlns="http://www.w3.org/2000/svg" viewBox="0 0 1307.999999999999 1063" width="2615.999999999998" height="2126">
  <!-- svg-source:excalidraw -->

  <defs>
    <style class="style-fonts">
      @font-face {
        font-family: "Virgil";
        src: url("https://excalidraw.com/Virgil.woff2");
      }
      @font-face {
        font-family: "Cascadia";
        src: url("https://excalidraw.com/Cascadia.woff2");
      }
    </style>
  </defs>
  <rect x="0" y="0" width="1307.999999999999" height="1063" fill="#e3fafc"></rect>
  <g stroke-linecap="round" transform="translate(276 10) rotate(0 284.9999999999998 118)">
    <path d="M35.18 2.16 L538.15 0.5 L554.04 5.66 L558.86 9.5 L572.43 26.49 L573.01 207.12 L570.4 218.73 L560.62 231.95 L535.97 237.52 L32.68 236.68 L18.05 234.05 L2.58 226.52 L-3.46 209.6 L0.67 34.79 L4.25 17.49 L4.74 11.34 L21.92 0.11 L33.5 -3.92" stroke="none" stroke-width="0" fill="#12b886"></path>
    <path d="M32 0 M32 0 C172.87 4.26, 316.91 3.19, 538 0 M32 0 C185.07 -2.69, 339.47 -3.45, 538 0 M538 0 C562.02 3.65, 567.69 10.84, 570 32 M538 0 C557.06 3.32, 573.37 12.23, 570 32 M570 32 C565.45 94.34, 570.03 163.1, 570 204 M570 32 C567.53 96.28, 565.25 160.33, 570 204 M570 204 C566.82 223.72, 559.24 235.73, 538 236 M570 204 C569.21 222.04, 555.8 238.67, 538 236 M538 236 C420.13 234.6, 298.91 233.47, 32 236 M538 236 C359.55 235.68, 180.67 235.17, 32 236 M32 236 C8.97 232.55, -3.34 224.9, 0 204 M32 236 C11.87 232.22, 1.27 223.93, 0 204 M0 204 C4.68 168.01, 4.1 133.5, 0 32 M0 204 C2.6 159.83, 0.06 116.43, 0 32 M0 32 C1.15 10.71, 8.37 0.15, 32 0 M0 32 C-3.35 8.73, 8.16 1.44, 32 0" stroke="#000" stroke-width="4" fill="none"></path>
  </g>
  <g transform="translate(286.5 104) rotate(0 274.5 21.5)">
    <text x="274.5" y="35" font-family="Cascadia, Segoe UI Emoji" font-size="36px" fill="#000" text-anchor="middle" style="white-space: pre;" direction="ltr">ctx := context.Backgroud()</text>
  </g>
  <g stroke-linecap="round">
    <g transform="translate(536 255.9999999999999) rotate(0 -136.8352302934975 74.72677152484658)">
      <path d="M2.48 -0.31 C-43.46 24.67, -230.07 124.66, -276.15 149.91 M0.38 -2.95 C-44.64 22.32, -224.88 126.27, -270.92 152.4" stroke="#000" stroke-width="4" fill="none"></path>
    </g>
    <g transform="translate(536 255.9999999999999) rotate(0 -136.8352302934975 74.72677152484658)">
      <path d="M-251.99 126.41 C-260 136.28, -263.68 141.21, -274.37 153.75 M-252.56 128.51 C-256.26 136.5, -263.77 142.38, -269.72 154.39" stroke="#000" stroke-width="4" fill="none"></path>
    </g>
    <g transform="translate(536 255.9999999999999) rotate(0 -136.8352302934975 74.72677152484658)">
      <path d="M-241.8 144.22 C-252.68 149.24, -259.24 149.15, -274.37 153.75 M-242.37 146.32 C-248.8 149.61, -259.11 150.58, -269.72 154.39" stroke="#000" stroke-width="4" fill="none"></path>
    </g>
  </g>
  <mask></mask>
  <g stroke-linecap="round" transform="translate(10 413.9999999999999) rotate(0 210 92.99999999999994)">
    <path d="M33.42 0.45 L386.79 0.42 L402.53 5.88 L415.47 10.8 L418.81 21.33 L422.52 157.43 L420.16 168.01 L405.35 179.51 L387.53 187.08 L31.44 185.16 L21.93 182.63 L1.86 173.94 L-1.55 159.71 L-1.81 20.86 L10.21 8.26 L20.62 4.35 L31.42 -3.78" stroke="none" stroke-width="0" fill="#12b886"></path>
    <path d="M32 0 M32 0 C122.03 -3.16, 218.57 -1.51, 388 0 M32 0 C158.52 -0.87, 282.61 -1.17, 388 0 M388 0 C405.37 -2.08, 420.52 8.03, 420 32 M388 0 C412.47 -3.15, 422.41 11.24, 420 32 M420 32 C413.96 64.89, 421.93 92.94, 420 154 M420 32 C421.59 65.66, 422.18 99, 420 154 M420 154 C418.82 174.36, 406.43 187.79, 388 186 M420 154 C423.94 174.05, 410.49 185.52, 388 186 M388 186 C247.84 186.44, 110.92 183.18, 32 186 M388 186 C277.85 181.45, 165.93 183.42, 32 186 M32 186 C7.28 182.41, -0.14 178.98, 0 154 M32 186 C14.75 189.5, 4.12 179.24, 0 154 M0 154 C-2.36 127.33, -5.43 100.88, 0 32 M0 154 C1.36 125.7, 2.37 98.95, 0 32 M0 32 C3.94 9.06, 13.18 0.74, 32 0 M0 32 C1.91 7.71, 13.91 2.17, 32 0" stroke="#000" stroke-width="4" fill="none"></path>
  </g>
  <g transform="translate(21.500000000000227 500.4999999999998) rotate(0 169.4999999999999 21.5)">
    <text x="169.5" y="35" font-family="Cascadia, Segoe UI Emoji" font-size="36px" fill="#000" text-anchor="middle" style="white-space: pre;" direction="ltr">ctx.WithCancel()</text>
  </g>
  <g stroke-linecap="round" transform="translate(877.9999999999995 420.99999999999966) rotate(0 209.99999999999977 92.99999999999994)">
    <path d="M31.86 3.3 L387.42 -2.25 L405.61 -1.45 L414.53 11.36 L418.29 22.23 L417.7 156.98 L419.39 166.01 L406.4 182.77 L388.34 184.57 L35.03 188.98 L19.54 182.69 L6.43 174.4 L0.29 161.18 L2.9 28.38 L6.84 8.95 L16.14 2.85 L31.38 3.94" stroke="none" stroke-width="0" fill="#12b886"></path>
    <path d="M32 0 M32 0 C119.56 -5.36, 207.39 -3.22, 388 0 M32 0 C131.29 2.68, 231 2.85, 388 0 M388 0 C412.38 -1.67, 423.88 10.8, 420 32 M388 0 C411.84 -0.12, 424.51 15.12, 420 32 M420 32 C417.31 68.04, 415.67 98.74, 420 154 M420 32 C421.47 79.7, 421.36 123.87, 420 154 M420 154 C418.63 178.52, 409.92 188.66, 388 186 M420 154 C415.49 176.11, 408.29 188.64, 388 186 M388 186 C292.67 187.82, 199.4 187.58, 32 186 M388 186 C298.57 184.45, 210.88 186.68, 32 186 M32 186 C14.01 188.05, -2.86 175.78, 0 154 M32 186 C8.8 187.24, 2.52 171.5, 0 154 M0 154 C0.88 123.28, -1.65 92.24, 0 32 M0 154 C-2.65 106.98, -0.92 61.1, 0 32 M0 32 C-2.11 10.15, 11.01 0.25, 32 0 M0 32 C-1.87 14.89, 12.25 -1.14, 32 0" stroke="#000" stroke-width="4" fill="none"></path>
  </g>
  <g transform="translate(941.4999999999995 496.4999999999998) rotate(0 158.5 21.5)">
    <text x="158.5" y="35" font-family="Cascadia, Segoe UI Emoji" font-size="36px" fill="#000" text-anchor="middle" style="white-space: pre;" direction="ltr">ctx.WithValue()</text>
  </g>
  <g stroke-linecap="round">
    <g transform="translate(596.8352302934973 251.27322847515336) rotate(0 230.11668004166313 80.29667115140705)">
      <path d="M-2.39 0.8 C73.9 27.91, 380.56 135.17, 457.55 161.82 M1.51 -1.23 C78.66 25.16, 386.62 130.23, 462.62 157.8" stroke="#000" stroke-width="4" fill="none"></path>
    </g>
    <g transform="translate(596.8352302934973 251.27322847515336) rotate(0 230.11668004166313 80.29667115140705)">
      <path d="M433.77 154.66 C444.03 157.95, 451.25 155.6, 461.44 155.38 M432.8 156.69 C442.65 156.6, 453.57 157.72, 462.96 157.24" stroke="#000" stroke-width="4" fill="none"></path>
    </g>
    <g transform="translate(596.8352302934973 251.27322847515336) rotate(0 230.11668004166313 80.29667115140705)">
      <path d="M440.56 135.3 C448.71 144.14, 453.95 147.48, 461.44 155.38 M439.58 137.32 C446.86 143.58, 455.58 151, 462.96 157.24" stroke="#000" stroke-width="4" fill="none"></path>
    </g>
  </g>
  <mask></mask>
  <g stroke-linecap="round">
    <g transform="translate(558 251.9999999999999) rotate(0 1.0208916519700324 250.24217979282133)">
      <path d="M-1.24 1.9 C-0.99 85.28, 1.9 414.22, 2.25 497.66 M3.28 0.47 C3.29 84.35, 1.86 417.03, 1.23 500.01" stroke="#000" stroke-width="4" fill="none"></path>
    </g>
    <g transform="translate(558 251.9999999999999) rotate(0 1.0208916519700324 250.24217979282133)">
      <path d="M-6.15 474.97 C-9.44 482.26, 0.83 493.28, -0.89 499.23 M-10.09 471.71 C-4.91 477.44, -2.69 487.99, 1.61 499.73" stroke="#000" stroke-width="4" fill="none"></path>
    </g>
    <g transform="translate(558 251.9999999999999) rotate(0 1.0208916519700324 250.24217979282133)">
      <path d="M14.37 475.09 C4.37 482.15, 7.93 493.14, -0.89 499.23 M10.43 471.83 C10.3 477.57, 7.21 488.09, 1.61 499.73" stroke="#000" stroke-width="4" fill="none"></path>
    </g>
  </g>
  <mask></mask>
  <g stroke-linecap="round" transform="translate(352.00000000000045 755) rotate(0 209.99999999999977 93)">
    <path d="M33.01 -2.89 L384.6 -1.64 L398.73 0.82 L411.29 5.18 L421.97 24.96 L416.53 152.11 L417.78 164.11 L409.88 180.66 L390.27 182.76 L29 187.32 L21.62 186.34 L7.07 169.99 L-1.96 159.25 L-0.14 28.02 L5.85 4.78 L19.71 2.18 L34.4 -1.81" stroke="none" stroke-width="0" fill="#12b886"></path>
    <path d="M32 0 M32 0 C119.54 5.01, 207.65 3.27, 388 0 M32 0 C137.8 1.86, 243.4 2.94, 388 0 M388 0 C407.67 3.48, 418.56 10.74, 420 32 M388 0 C411.79 -1.29, 422.97 11.24, 420 32 M420 32 C417.79 66.63, 419.21 93.19, 420 154 M420 32 C420.63 69.7, 423.66 101.4, 420 154 M420 154 C417.2 172.65, 407.88 188.79, 388 186 M420 154 C420.1 177.34, 411.92 181.49, 388 186 M388 186 C306.2 184.32, 223.93 184.65, 32 186 M388 186 C252.13 184.51, 117.43 185.66, 32 186 M32 186 C12.9 182.48, -0.47 176.95, 0 154 M32 186 C13.36 184.98, 3.31 172.16, 0 154 M0 154 C-0.52 115.6, 0.34 81.2, 0 32 M0 154 C-2.95 109.55, -2.42 67.71, 0 32 M0 32 C-1.01 13.36, 7.08 -0.36, 32 0 M0 32 C3.16 10.43, 9.39 3.37, 32 0" stroke="#000" stroke-width="4" fill="none"></path>
  </g>
  <g transform="translate(383.50000000000045 830.5) rotate(0 190.5 21.5)">
    <text x="190.5" y="35" font-family="Cascadia, Segoe UI Emoji" font-size="36px" fill="#000" text-anchor="middle" style="white-space: pre;" direction="ltr">ctx.WithDeadline()</text>
  </g>
  <g stroke-linecap="round">
    <g transform="translate(566.97910834803 255.7578202071785) rotate(0 223.31457600604722 301.8011039261892)">
      <path d="M-2.38 -0.18 C71.88 101.02, 368.81 506.07, 443.8 606.35 M1.52 -2.75 C76.81 97.79, 374.83 501.61, 449.01 602.62" stroke="#000" stroke-width="4" fill="none"></path>
    </g>
    <g transform="translate(566.97910834803 255.7578202071785) rotate(0 223.31457600604722 301.8011039261892)">
      <path d="M423.77 582.87 C433.21 592.6, 432.25 593.84, 450.63 604.96 M423.96 587.18 C430.39 591.42, 437.02 596.47, 448.74 603.71" stroke="#000" stroke-width="4" fill="none"></path>
    </g>
    <g transform="translate(566.97910834803 255.7578202071785) rotate(0 223.31457600604722 301.8011039261892)">
      <path d="M440.29 570.7 C445.74 583.03, 440.86 587.15, 450.63 604.96 M440.48 575 C442.49 582.4, 444.53 590.83, 448.74 603.71" stroke="#000" stroke-width="4" fill="none"></path>
    </g>
  </g>
  <mask></mask>
  <g stroke-linecap="round" transform="translate(869.9999999999991 867) rotate(0 210 93)">
    <path d="M35.16 0.86 L390.01 -1.12 L402.74 1.21 L409.45 11.18 L421.89 22.9 L420.14 152.6 L421.7 167.49 L408.13 184.2 L387.19 189.58 L30.43 185.13 L20.35 183.84 L2.48 171.09 L2.07 163 L-2.85 22.34 L4.19 9.87 L14.75 3.72 L32.52 2.29" stroke="none" stroke-width="0" fill="#12b886"></path>
    <path d="M32 0 M32 0 C152.55 2.33, 271.55 1.6, 388 0 M32 0 C149.04 -0.83, 264.01 0.37, 388 0 M388 0 C412.52 1.93, 417.36 14.42, 420 32 M388 0 C410.5 1.39, 423.62 9.79, 420 32 M420 32 C418.11 67.1, 419.37 100.89, 420 154 M420 32 C423.98 64.58, 421.1 101.06, 420 154 M420 154 C423.91 171.69, 408.56 187.31, 388 186 M420 154 C416.09 178.26, 410.39 188.2, 388 186 M388 186 C248.85 182.02, 109.26 181.98, 32 186 M388 186 C271.08 187.54, 155.51 186.37, 32 186 M32 186 C11.78 188.7, 2.96 176.88, 0 154 M32 186 C15.16 185.78, 2.12 172.02, 0 154 M0 154 C-3.11 130.13, -2.34 99.33, 0 32 M0 154 C0.5 125.53, -1.34 98.21, 0 32 M0 32 C-2.78 10.5, 8.63 -1.32, 32 0 M0 32 C-0.37 10.85, 8.85 -1.63, 32 0" stroke="#000" stroke-width="4" fill="none"></path>
  </g>
  <g transform="translate(911.9999999999991 942.5) rotate(0 180 21.5)">
    <text x="180" y="35" font-family="Cascadia, Segoe UI Emoji" font-size="36px" fill="#000" text-anchor="middle" style="white-space: pre;" direction="ltr">ctx.WithTimeout()</text>
  </g>
</svg>