<svg version="1.1" xmlns="http://www.w3.org/2000/svg" viewBox="0 0 1391.5666666666662 1017.9999999999997" width="2783.1333333333323" height="2035.9999999999993" filter="invert(93%) hue-rotate(180deg)">
  <!-- svg-source:excalidraw -->
  
  <defs>
    <style class="style-fonts">
      @font-face {
        font-family: "Virgil";
        src: url("https://excalidraw.com/Virgil.woff2");
      }
      @font-face {
        font-family: "Cascadia";
        src: url("https://excalidraw.com/Cascadia.woff2");
      }
    </style>
  </defs>
  <rect x="0" y="0" width="1391.5666666666662" height="1017.9999999999997" fill="#e3fafc"></rect><g stroke-linecap="round" transform="translate(191.5666666666666 10) rotate(0 557.9999999999998 332.99999999999994)"><path d="M28.52 3.54 L1082.24 -0.66 L1104.7 7.75 L1114.52 11.74 L1112.72 28.65 L1113.26 637.61 L1107.52 654.09 L1106.79 663.41 L1086.81 663.19 L34.21 662.89 L16.05 659.3 L-0.17 644.52 L-0.55 637.02 L0.74 30.04 L0.46 20.7 L4.27 11.92 L17.29 1.96 L32.51 -2.1" stroke="none" stroke-width="0" fill="#868e96"></path><path d="M32 0 M32 0 C331.98 9, 631.95 6.68, 1084 0 M1084 0 C1104.64 -2.99, 1114.98 10.19, 1116 32 M1116 32 C1114.39 219.86, 1115.82 407.64, 1116 634 M1116 634 C1119.65 658.61, 1101.91 665.97, 1084 666 M1084 666 C771.11 660.49, 460.56 659.48, 32 666 M32 666 C14.51 667.14, -2.71 655.89, 0 634 M0 634 C-0.81 432.9, -2.21 235.5, 0 32 M0 32 C3.49 11.75, 12.53 -3.93, 32 0" stroke="#000000" stroke-width="4.5" fill="none" stroke-dasharray="1.5 10"></path></g><g stroke-linecap="round" transform="translate(405.5666666666666 98) rotate(0 366.9999999999998 60.99999999999994)"><path d="M-3.66 2.4 L734.43 1.24 L734.81 122.63 L0.74 125.61" stroke="none" stroke-width="0" fill="#228be6"></path><path d="M0.44 -0.8 C212.01 4.15, 421.58 3.93, 735.55 0.18 M-0.37 -0.4 C240.09 1.4, 478.62 1.63, 733.65 0.5 M730.85 2.05 C732.4 35.68, 730.04 77.03, 732.35 125.97 M732.38 1.01 C736.42 46.72, 735.56 94.14, 733.2 123.14 M734.77 121.56 C568.79 123.5, 401.57 122.73, -0.48 123.16 M734.55 122.39 C549.59 123.07, 365.75 122.21, 0.26 121.55 M-0.39 118.2 C-2.01 77.96, -2.08 26.44, -3.3 1.97 M0.19 123 C-1.81 74.51, 0.81 31.29, -1.66 1.18" stroke="#000000" stroke-width="4" fill="none"></path></g><g transform="translate(619.5666666666671 129.6756756756754) rotate(0 142 35)"><text x="142" y="49" font-family="Virgil, Segoe UI Emoji" font-size="55.45945945945947px" fill="#000000" text-anchor="middle" style="white-space: pre;" direction="ltr">Application</text></g><g stroke-linecap="round" transform="translate(390.56666666666706 402.9999999999999) rotate(0 366.9999999999998 60.999999999999886)"><path d="M3.52 -2.6 L730.33 -2.76 L734.4 125.1 L-3.52 123.83" stroke="none" stroke-width="0" fill="#12b886"></path><path d="M-1.08 1.01 C149.35 1.21, 299.07 1.77, 734.5 -1.1 M0.54 0.06 C255.04 -4.58, 509.17 -3.81, 733.55 0.79 M732.15 3.69 C730.66 46.26, 730.83 90.5, 733.01 119.1 M733.68 1.83 C734.19 24.94, 734.75 51.9, 735.98 121.77 M732.95 121.77 C557.81 121.2, 377.94 120.85, -0.77 122.85 M734.67 122.61 C531.29 127.08, 328.49 127.63, -0.14 122.45 M1.91 124.01 C2.63 80.86, 0.65 39.84, 0.05 3.17 M0.99 121.66 C0.55 81.76, -0.09 38.79, -0.92 0.26" stroke="#000000" stroke-width="4" fill="none"></path></g><g transform="translate(593.0666666666671 434.6756756756753) rotate(0 153.5 35)"><text x="153.5" y="49" font-family="Virgil, Segoe UI Emoji" font-size="55.45945945945947px" fill="#000000" text-anchor="middle" style="white-space: pre;" direction="ltr">Go Runtime</text></g><g stroke-linecap="round" transform="translate(187.5666666666666 823.9999999999997) rotate(0 596.9999999999998 92)"><path d="M30.86 -2.08 L1167.66 1.03 L1189.52 5.4 L1189.83 21.74 L1193.9 162.6 L1182.48 177.83 L1172.72 183.64 L1161.21 181.53 L22.94 184.36 L11.84 172.8 L2.76 157.37 L0.46 33.39 L5.63 21.03 L9.89 10.28 L14.77 1.95 L35.73 3.69" stroke="none" stroke-width="0" fill="#fab005"></path><path d="M32 0 M32 0 C332.1 -0.3, 633.6 -0.4, 1162 0 M32 0 C462.17 -0.81, 893.53 0.17, 1162 0 M1162 0 C1186.29 2.93, 1190.7 9.18, 1194 32 M1162 0 C1184.23 -2.11, 1190.3 10.28, 1194 32 M1194 32 C1195.74 76.88, 1193.04 119.21, 1194 152 M1194 32 C1194.24 77.98, 1196.56 125.61, 1194 152 M1194 152 C1197.07 171.81, 1185.72 187.09, 1162 184 M1194 152 C1191.46 168.89, 1182.8 182.83, 1162 184 M1162 184 C787.08 180.55, 412.77 181.9, 32 184 M1162 184 C889.99 176.72, 618.13 177.16, 32 184 M32 184 C12.72 181.51, 3.05 173.42, 0 152 M32 184 C7.73 187.05, -1.58 177.58, 0 152 M0 152 C-0.4 122.8, 0.66 84.16, 0 32 M0 152 C-1.19 123.4, -1.37 96.07, 0 32 M0 32 C0.67 8.61, 14.64 1.15, 32 0 M0 32 C1.18 14.82, 9.36 -1.83, 32 0" stroke="#000000" stroke-width="4" fill="none"></path></g><g transform="translate(558.5666666666666 849.5068493150683) rotate(0 221.99999999999977 68.42465753424642)"><text x="221.99999999999972" y="94.8493150684929" font-family="Virgil, Segoe UI Emoji" font-size="109.47945205479436px" fill="#000000" text-anchor="middle" style="white-space: pre;" direction="ltr">Hadware</text></g><g stroke-linecap="round"><g transform="translate(733.5666666666666 223.9999999999999) rotate(0 2.340626735985097 80.60928576387465)"><path d="M-1.49 0.19 C-0.18 27.26, 5.61 136.61, 6.18 163.4 M2.89 -2.18 C4.18 23.97, 4.33 131.55, 5.12 159.15" stroke="#000000" stroke-width="4" fill="none"></path></g><g transform="translate(733.5666666666666 223.9999999999999) rotate(0 2.340626735985097 80.60928576387465)"><path d="M-5.27 134.21 C-0.79 134.92, -1.8 147.34, 7.95 156.5 M-6.42 130.49 C-2.86 139.6, -0.42 146.05, 6.77 158.82" stroke="#000000" stroke-width="4" fill="none"></path></g><g transform="translate(733.5666666666666 223.9999999999999) rotate(0 2.340626735985097 80.60928576387465)"><path d="M15.25 133.93 C14.83 134.49, 8.93 146.97, 7.95 156.5 M14.1 130.2 C11.95 139.77, 8.69 146.31, 6.77 158.82" stroke="#000000" stroke-width="4" fill="none"></path></g></g><mask></mask><g stroke-linecap="round"><g transform="translate(753.5666666666662 531.9999999999999) rotate(0 -1.570120782703043 143.24387864835546)"><path d="M-1.5 -1.01 C-1.91 47.82, -3.03 242.79, -3.86 290.51 M2.89 -4.02 C2.24 44.29, -5.38 238.36, -6.03 286.86" stroke="#000000" stroke-width="4" fill="none"></path></g><g transform="translate(753.5666666666662 531.9999999999999) rotate(0 -1.570120782703043 143.24387864835546)"><path d="M-16.94 258.59 C-10.04 262.08, -15.05 270.14, -9.12 285.44 M-16.89 256.49 C-12.49 267.47, -9.92 275.12, -7.61 285.14" stroke="#000000" stroke-width="4" fill="none"></path></g><g transform="translate(753.5666666666662 531.9999999999999) rotate(0 -1.570120782703043 143.24387864835546)"><path d="M3.58 259.16 C5.35 262.29, -4.8 270.21, -9.12 285.44 M3.62 257.06 C1.53 268.2, -2.41 275.67, -7.61 285.14" stroke="#000000" stroke-width="4" fill="none"></path></g></g><mask></mask><g transform="translate(10 287.9999999999999) rotate(0 63.0333333333333 46.5)"><text x="63.03333333333334" y="64.99999999999997" font-family="Virgil, Segoe UI Emoji" font-size="74.4px" fill="#000000" text-anchor="middle" style="white-space: pre;" direction="ltr">app</text></g></svg>