<svg version="1.1" xmlns="http://www.w3.org/2000/svg" viewBox="0 0 940.9999999999995 1239.9999999999995" width="940.9999999999995" height="1239.9999999999995" filter="invert(93%) hue-rotate(180deg)">
  <!-- svg-source:excalidraw -->
  
  <defs>
    <style class="style-fonts">
      @font-face {
        font-family: "Virgil";
        src: url("https://excalidraw.com/Virgil.woff2");
      }
      @font-face {
        font-family: "Cascadia";
        src: url("https://excalidraw.com/Cascadia.woff2");
      }
    </style>
  </defs>
  <rect x="0" y="0" width="940.9999999999995" height="1239.9999999999995" fill="#e3fafc"></rect><g stroke-linecap="round" transform="translate(789.9999999999995 288) rotate(0 63 66)"><path d="M114.14 26.7 C120.52 33.8, 124.19 46.36, 125.68 56.12 C127.17 65.88, 125.91 75.84, 123.08 85.26 C120.25 94.69, 115.55 105.15, 108.71 112.66 C101.88 120.17, 91.49 127.11, 82.07 130.3 C72.65 133.5, 61.61 134.19, 52.17 131.81 C42.74 129.44, 33.25 122.36, 25.48 116.04 C17.71 109.71, 9.65 102.82, 5.54 93.88 C1.43 84.94, 0.25 73.01, 0.81 62.39 C1.38 51.77, 4.13 38.82, 8.95 30.18 C13.77 21.54, 21.43 15.8, 29.76 10.54 C38.09 5.29, 48.82 -0.44, 58.94 -1.36 C69.06 -2.27, 79.55 -6.93, 90.46 5.07 C101.37 17.07, 121.81 52.81, 124.41 70.64 C127.01 88.48, 106.94 112.41, 106.08 112.08 M72.49 -0.22 C80.94 0.16, 91.73 5.67, 99.57 12.61 C107.42 19.54, 115.08 31.97, 119.53 41.4 C123.99 50.83, 126.96 59.04, 126.29 69.17 C125.63 79.3, 120.73 93.79, 115.54 102.18 C110.35 110.57, 103.6 114.8, 95.13 119.51 C86.67 124.21, 74.46 129.76, 64.76 130.42 C55.06 131.09, 45.13 127.74, 36.94 123.49 C28.75 119.25, 21.99 112.82, 15.63 104.94 C9.28 97.06, 0.53 85.9, -1.19 76.21 C-2.9 66.52, 2.08 56.73, 5.36 46.81 C8.64 36.9, 12.05 24.43, 18.5 16.71 C24.95 9, 34.91 2.65, 44.07 0.53 C53.22 -1.59, 68.57 3.86, 73.43 4 C78.29 4.13, 73.72 1, 73.23 1.33" stroke="none" stroke-width="0" fill="#868e96"></path><path d="M20.11 19.94 C26.55 12.85, 37.55 5.6, 47.21 2.75 C56.86 -0.09, 68.99 0.85, 78.04 2.86 C87.09 4.88, 94.5 8.77, 101.53 14.85 C108.57 20.93, 116.33 30.07, 120.26 39.33 C124.19 48.58, 125.57 60.33, 125.1 70.4 C124.64 80.47, 122.53 90.65, 117.48 99.76 C112.43 108.87, 103.84 119.98, 94.79 125.06 C85.75 130.14, 73.38 130.19, 63.2 130.25 C53.01 130.31, 41.91 129.46, 33.68 125.43 C25.45 121.41, 19.52 114.43, 13.81 106.11 C8.1 97.8, 1.28 85.5, -0.58 75.57 C-2.43 65.64, -3.59 58.01, 2.66 46.55 C8.9 35.09, 28.37 14.22, 36.9 6.8 C45.43 -0.62, 53.79 0.78, 53.85 2.03 M19.87 20.86 C25.42 13.07, 34.46 7.82, 43.28 4.79 C52.1 1.76, 62.99 0.85, 72.79 2.68 C82.6 4.5, 94.29 10.36, 102.1 15.74 C109.91 21.12, 115.63 26.31, 119.65 34.94 C123.67 43.57, 126.82 56.99, 126.22 67.54 C125.63 78.09, 120.55 89.04, 116.08 98.22 C111.61 107.39, 107.08 116.85, 99.4 122.59 C91.72 128.33, 80.17 132.11, 69.98 132.67 C59.8 133.23, 47.28 130.09, 38.3 125.94 C29.31 121.8, 22.31 115.27, 16.09 107.79 C9.87 100.32, 3.11 91.22, 0.97 81.12 C-1.17 71.02, 0.18 57.71, 3.24 47.21 C6.3 36.72, 16.95 22.19, 19.34 18.17 C21.73 14.15, 17.4 21.96, 17.59 23.08" stroke="#000000" stroke-width="4" fill="none"></path></g><g transform="translate(838.4999999999995 331.5) rotate(0 14.5 22.5)"><text x="14.5" y="32" font-family="Virgil, Segoe UI Emoji" font-size="36px" fill="#000000" text-anchor="middle" style="white-space: pre;" direction="ltr">G</text></g><g stroke-linecap="round" transform="translate(237 26) rotate(0 63 66)"><path d="M80.34 1.66 C89.68 3.69, 99.96 13.31, 107.15 20.38 C114.34 27.44, 120.64 34.91, 123.49 44.06 C126.35 53.21, 126.15 65.09, 124.28 75.28 C122.41 85.47, 117.75 96.76, 112.28 105.21 C106.82 113.66, 100.24 121.69, 91.48 125.99 C82.72 130.29, 69.51 131.56, 59.71 131.02 C49.91 130.48, 41.36 127.96, 32.68 122.75 C24.01 117.53, 13.24 108.36, 7.66 99.73 C2.08 91.1, -0.06 80.68, -0.78 70.96 C-1.51 61.24, -0.49 51.03, 3.33 41.42 C7.15 31.8, 14.45 19.67, 22.14 13.26 C29.83 6.85, 38.53 4.3, 49.47 2.96 C60.42 1.62, 80.78 4.13, 87.81 5.23 C94.83 6.33, 92.34 8.64, 91.6 9.55 M112.33 27.2 C118.02 35.05, 121.1 48.78, 122.85 59.59 C124.6 70.4, 125.69 82.77, 122.83 92.07 C119.96 101.38, 112.72 108.7, 105.65 115.43 C98.57 122.17, 90.49 129.83, 80.39 132.5 C70.29 135.16, 55.23 134.78, 45.05 131.39 C34.87 128.01, 25.98 119.3, 19.3 112.2 C12.61 105.09, 8.04 97.49, 4.95 88.77 C1.87 80.04, -0.34 70.05, 0.78 59.86 C1.89 49.68, 6.03 35.98, 11.66 27.65 C17.3 19.33, 25.99 14.8, 34.61 9.93 C43.23 5.06, 53.51 -1.18, 63.39 -1.55 C73.26 -1.93, 84.82 2.7, 93.87 7.69 C102.93 12.68, 113.96 24.51, 117.72 28.38 C121.47 32.24, 117.27 30.4, 116.4 30.88" stroke="none" stroke-width="0" fill="#868e96"></path><path d="M75.08 3.5 C84.28 4.77, 94.02 9.97, 101.9 16.51 C109.78 23.06, 118.36 33.4, 122.35 42.76 C126.34 52.13, 126.8 62.81, 125.84 72.72 C124.88 82.62, 121.72 93.52, 116.58 102.19 C111.44 110.86, 103.34 119.77, 95 124.73 C86.66 129.69, 76.75 131.83, 66.53 131.95 C56.31 132.06, 42.81 130.09, 33.67 125.39 C24.54 120.69, 17.25 111.78, 11.72 103.75 C6.19 95.71, 1.71 86.96, 0.47 77.2 C-0.77 67.43, 0.9 55.11, 4.26 45.15 C7.62 35.19, 13.72 24.4, 20.62 17.44 C27.52 10.48, 30.3 2.02, 45.67 3.4 C61.04 4.77, 99.54 14.61, 112.86 25.71 C126.18 36.81, 126.48 69.03, 125.58 69.98 M15.05 21.32 C20.9 13.61, 32.85 9.58, 42.7 6.35 C52.54 3.13, 64.25 0.64, 74.1 1.94 C83.95 3.25, 94 8.33, 101.79 14.18 C109.58 20.03, 116.39 28.26, 120.85 37.04 C125.3 45.82, 129.1 56.45, 128.52 66.86 C127.94 77.27, 122.5 90.34, 117.38 99.48 C112.25 108.63, 105.4 116.16, 97.77 121.73 C90.15 127.3, 81.01 131.54, 71.61 132.88 C62.21 134.23, 51.18 133.73, 41.37 129.8 C31.56 125.88, 19.11 117.3, 12.77 109.34 C6.42 101.37, 4.91 92.08, 3.3 82.02 C1.69 71.96, 1.26 59.26, 3.09 48.96 C4.92 38.66, 11.61 24.79, 14.28 20.24 C16.95 15.69, 18.34 20.35, 19.1 21.65" stroke="#000000" stroke-width="4" fill="none"></path></g><g transform="translate(285.5 69.5) rotate(0 14.5 22.5)"><text x="14.5" y="32" font-family="Virgil, Segoe UI Emoji" font-size="36px" fill="#000000" text-anchor="middle" style="white-space: pre;" direction="ltr">G</text></g><g stroke-linecap="round" transform="translate(79 142) rotate(0 63 66)"><path d="M73.11 0.21 C81.84 0.73, 92.55 6.36, 100.33 13.09 C108.12 19.81, 115.54 31.18, 119.84 40.57 C124.14 49.96, 126.8 59.28, 126.16 69.44 C125.52 79.6, 121.14 92.99, 116 101.5 C110.85 110.01, 103.71 115.6, 95.29 120.5 C86.86 125.4, 75.16 130.26, 65.44 130.91 C55.73 131.56, 45.43 128.62, 37.01 124.39 C28.58 120.16, 21.13 113.47, 14.89 105.53 C8.65 97.59, 1.28 86.58, -0.45 76.77 C-2.18 66.96, 1.37 56.53, 4.52 46.66 C7.68 36.8, 11.88 25.14, 18.48 17.58 C25.08 10.03, 32.99 3.2, 44.13 1.35 C55.27 -0.5, 76.77 4.92, 85.31 6.47 C93.86 8.02, 95.98 10.11, 95.4 10.63 M15.52 26.72 C20.23 18.71, 27.73 13.48, 36.61 8.62 C45.49 3.76, 58.76 -2.27, 68.78 -2.43 C78.79 -2.59, 89.19 1.84, 96.69 7.66 C104.19 13.49, 108.96 23.48, 113.77 32.52 C118.58 41.56, 124.07 51.83, 125.57 61.92 C127.07 72.01, 126.78 83.66, 122.78 93.06 C118.78 102.46, 109.17 112, 101.58 118.3 C93.99 124.6, 87 128.87, 77.25 130.89 C67.49 132.9, 52.8 132.96, 43.04 130.41 C33.27 127.86, 25.41 122.6, 18.66 115.6 C11.91 108.6, 5.25 98.13, 2.52 88.38 C-0.2 78.64, 0.73 67.3, 2.3 57.14 C3.87 46.98, 9.85 32.8, 11.94 27.41 C14.02 22.03, 13.28 24.22, 14.82 24.83" stroke="none" stroke-width="0" fill="#868e96"></path><path d="M18.98 20.79 C24.58 13.03, 34.09 7.51, 43.04 4.38 C52 1.25, 62.98 0.31, 72.73 2.04 C82.48 3.78, 93.72 9.19, 101.54 14.8 C109.37 20.41, 115.57 26.88, 119.66 35.7 C123.76 44.52, 126.64 57.3, 126.14 67.73 C125.64 78.17, 121.24 89.24, 116.66 98.32 C112.08 107.41, 106.49 116.55, 98.63 122.23 C90.78 127.9, 79.55 131.69, 69.52 132.36 C59.49 133.03, 47.45 130.35, 38.46 126.27 C29.47 122.2, 21.79 115.52, 15.57 107.92 C9.34 100.31, 3.21 90.72, 1.11 80.66 C-1 70.59, -4.1 60.61, 2.94 47.53 C9.98 34.44, 32.04 9.58, 43.34 2.14 C54.64 -5.3, 70.76 1.6, 70.73 2.88 M90.93 8.52 C99.68 11.56, 109.24 19.5, 115.1 27.65 C120.96 35.81, 124.78 47.82, 126.09 57.44 C127.4 67.06, 125.79 76.14, 122.95 85.38 C120.12 94.62, 115.91 105.27, 109.08 112.88 C102.24 120.49, 91.43 127.82, 81.94 131.04 C72.45 134.26, 61.48 134.9, 52.14 132.2 C42.81 129.51, 33.7 121.25, 25.91 114.88 C18.13 108.51, 9.54 102.76, 5.42 93.99 C1.3 85.22, 0.58 73.08, 1.19 62.26 C1.79 51.44, 4.29 37.63, 9.04 29.07 C13.79 20.51, 21.35 16.09, 29.69 10.9 C38.04 5.7, 48.81 -1.1, 59.11 -2.11 C69.42 -3.12, 86.92 3.11, 91.54 4.83 C96.16 6.55, 87.77 6.88, 86.83 8.21" stroke="#000000" stroke-width="4" fill="none"></path></g><g transform="translate(127.5 185.5) rotate(0 14.5 22.5)"><text x="14.5" y="32" font-family="Virgil, Segoe UI Emoji" font-size="36px" fill="#000000" text-anchor="middle" style="white-space: pre;" direction="ltr">G</text></g><g stroke-linecap="round" transform="translate(437 22) rotate(0 63 66)"><path d="M21.27 18.42 C27.42 10.97, 35.93 4.47, 45.27 1.59 C54.61 -1.3, 68 -0.92, 77.31 1.1 C86.62 3.13, 94 7.21, 101.13 13.75 C108.27 20.29, 116.32 30.43, 120.12 40.34 C123.93 50.24, 124.85 63.2, 123.97 73.16 C123.1 83.13, 120.03 91.47, 114.88 100.11 C109.73 108.75, 101.3 119.7, 93.07 125.01 C84.83 130.32, 75.34 131.94, 65.48 131.99 C55.62 132.05, 43.04 129.88, 33.93 125.34 C24.81 120.8, 15.99 113.02, 10.78 104.73 C5.58 96.45, 4.06 85.92, 2.7 75.62 C1.35 65.32, -1.42 54.02, 2.65 42.94 C6.73 31.86, 21.06 15.07, 27.15 9.14 C33.24 3.21, 38.17 6.03, 39.18 7.37 M56.02 1.57 C64.48 -0.97, 77.07 -1.24, 86.6 2.58 C96.12 6.39, 106.75 15.63, 113.17 24.47 C119.59 33.31, 123.37 45.62, 125.12 55.62 C126.87 65.61, 126.41 74.58, 123.65 84.43 C120.89 94.28, 115.46 107.59, 108.58 114.73 C101.71 121.86, 91.57 124.54, 82.4 127.25 C73.23 129.96, 62.75 132.55, 53.57 130.99 C44.39 129.44, 34.89 123.93, 27.33 117.94 C19.77 111.94, 12.31 104.45, 8.22 95.04 C4.12 85.62, 2.36 71.77, 2.75 61.44 C3.14 51.12, 6.32 41.17, 10.58 33.07 C14.83 24.98, 20.05 17.87, 28.28 12.86 C36.51 7.86, 55.21 4.9, 59.98 3.06 C64.75 1.22, 56.9 1.19, 56.91 1.84" stroke="none" stroke-width="0" fill="#868e96"></path><path d="M79.25 3 C88.65 4.34, 99.73 9.88, 106.58 16.49 C113.43 23.1, 117.25 33.3, 120.35 42.66 C123.45 52.03, 126.11 62.31, 125.17 72.69 C124.22 83.07, 120.04 96.16, 114.7 104.93 C109.35 113.7, 101.6 120.87, 93.1 125.32 C84.61 129.78, 73.72 131.64, 63.73 131.68 C53.74 131.71, 41.95 130.26, 33.16 125.53 C24.37 120.81, 16.26 111.79, 10.97 103.31 C5.68 94.83, 2.66 84.53, 1.4 74.66 C0.14 64.79, 0.42 53.84, 3.43 44.12 C6.44 34.4, 11.91 23.49, 19.48 16.32 C27.04 9.14, 34.38 0.62, 48.82 1.07 C63.27 1.51, 93.66 10.96, 106.13 18.97 C118.61 26.98, 124.2 48.2, 123.67 49.12 M104.97 14.58 C112.33 20.09, 116.3 32.2, 119.71 41.73 C123.13 51.25, 125.7 61.67, 125.46 71.73 C125.23 81.79, 123.16 93.17, 118.31 102.09 C113.46 111.02, 105.52 120.27, 96.38 125.27 C87.24 130.27, 73.2 131.84, 63.49 132.11 C53.77 132.37, 46.35 131.29, 38.11 126.88 C29.86 122.46, 20.56 114.15, 14.01 105.62 C7.47 97.1, 0.34 85.87, -1.18 75.73 C-2.7 65.58, 1.88 53.91, 4.88 44.74 C7.88 35.58, 10.34 28.11, 16.8 20.74 C23.27 13.38, 33.8 3.97, 43.66 0.55 C53.52 -2.88, 66.04 -2.04, 75.95 0.2 C85.87 2.43, 99.1 11.31, 103.13 13.97 C107.16 16.62, 100.47 14.99, 100.15 16.11" stroke="#000000" stroke-width="4" fill="none"></path></g><g transform="translate(485.5 65.5) rotate(0 14.5 22.5)"><text x="14.5" y="32" font-family="Virgil, Segoe UI Emoji" font-size="36px" fill="#000000" text-anchor="middle" style="white-space: pre;" direction="ltr">G</text></g><g stroke-linecap="round" transform="translate(626.9999999999995 10) rotate(0 63 66)"><path d="M45.72 0.46 C54.33 -3.49, 65.23 -1.68, 74.81 0.49 C84.38 2.65, 95.18 6.96, 103.15 13.47 C111.13 19.97, 119.15 29.96, 122.67 39.52 C126.18 49.07, 125.11 60.36, 124.27 70.79 C123.42 81.22, 122.64 93.6, 117.6 102.08 C112.56 110.57, 102.82 117, 94.03 121.71 C85.23 126.42, 74.7 129.39, 64.83 130.33 C54.97 131.26, 43.71 131.62, 34.85 127.31 C26 123, 17.68 113.2, 11.69 104.46 C5.7 95.73, 0.6 84.77, -1.08 74.91 C-2.77 65.06, -1.99 54.54, 1.6 45.31 C5.2 36.08, 7.32 26.71, 20.47 19.53 C33.62 12.36, 65.66 1.66, 80.5 2.23 C95.34 2.81, 110.21 21.75, 109.52 22.99 M29.52 10.17 C37.76 4.12, 50.99 1.16, 60.68 0.48 C70.37 -0.2, 78.66 2.05, 87.67 6.09 C96.67 10.14, 108.76 16.66, 114.7 24.76 C120.64 32.85, 121.85 44.2, 123.28 54.67 C124.72 65.14, 125.92 77.63, 123.31 87.6 C120.69 97.58, 114.2 107.23, 107.6 114.54 C101.01 121.85, 93.16 128.41, 83.74 131.46 C74.32 134.51, 60.81 135.31, 51.08 132.87 C41.35 130.43, 32.37 123.11, 25.33 116.83 C18.29 110.55, 12.56 104.49, 8.83 95.19 C5.1 85.88, 2.93 71.3, 2.97 61.02 C3.01 50.74, 4.57 41.61, 9.08 33.5 C13.59 25.39, 26.12 16.4, 30.02 12.37 C33.91 8.34, 31.63 9.28, 32.44 9.34" stroke="none" stroke-width="0" fill="#868e96"></path><path d="M114.09 26.74 C120.11 34.24, 122.52 45.86, 124.17 56.16 C125.82 66.46, 126.87 78.76, 123.99 88.55 C121.11 98.34, 114.35 108.14, 106.9 114.89 C99.46 121.63, 88.71 126.45, 79.31 129 C69.92 131.56, 60.06 132.15, 50.54 130.22 C41.01 128.3, 29.71 124.08, 22.17 117.43 C14.63 110.79, 8.69 100.24, 5.28 90.35 C1.87 80.45, 0.94 67.96, 1.71 58.06 C2.48 48.15, 4.95 39.23, 9.9 30.91 C14.85 22.6, 22.7 13.04, 31.43 8.16 C40.15 3.27, 52.05 1.66, 62.26 1.59 C72.47 1.51, 81.79 -3.81, 92.66 7.7 C103.54 19.22, 124.58 53.66, 127.49 70.67 C130.41 87.69, 111.16 110.09, 110.13 109.81 M42.51 5.73 C50.78 1.81, 62.91 1.39, 72.82 2.05 C82.72 2.71, 94.19 3.72, 101.96 9.7 C109.72 15.67, 115.23 28.14, 119.41 37.87 C123.58 47.6, 127.27 58.47, 127.01 68.07 C126.76 77.67, 122.94 86.37, 117.88 95.48 C112.81 104.58, 104.79 117.02, 96.61 122.68 C88.42 128.34, 77.92 128.89, 68.77 129.45 C59.63 130, 51.03 129.29, 41.73 126.03 C32.44 122.76, 19.87 117.29, 13.01 109.86 C6.15 102.44, 2.49 91.86, 0.58 81.5 C-1.34 71.15, -1.25 57.27, 1.49 47.73 C4.24 38.18, 10.18 31.84, 17.03 24.23 C23.87 16.62, 38.62 5.63, 42.57 2.07 C46.51 -1.48, 40.73 1.71, 40.68 2.9" stroke="#000000" stroke-width="4" fill="none"></path></g><g transform="translate(675.4999999999995 53.5) rotate(0 14.5 22.5)"><text x="14.5" y="32" font-family="Virgil, Segoe UI Emoji" font-size="36px" fill="#000000" text-anchor="middle" style="white-space: pre;" direction="ltr">G</text></g><g stroke-linecap="round" transform="translate(764.9999999999995 148) rotate(0 63 66)"><path d="M21.57 16.18 C28.16 9.09, 39.81 1.77, 49.49 -0.2 C59.17 -2.17, 70.06 1.22, 79.66 4.35 C89.27 7.49, 100.23 11.81, 107.14 18.63 C114.04 25.44, 118.37 35.64, 121.1 45.24 C123.82 54.85, 124.49 66.24, 123.5 76.25 C122.51 86.26, 120.88 97.33, 115.15 105.28 C109.41 113.23, 98.4 119.8, 89.06 123.94 C79.72 128.08, 68.62 130.15, 59.12 130.11 C49.61 130.07, 40.04 128.43, 32.05 123.71 C24.06 118.99, 16.49 110.27, 11.16 101.79 C5.82 93.3, 0.78 83.39, 0.04 72.79 C-0.7 62.19, 2.23 48.39, 6.7 38.18 C11.17 27.97, 23.41 15.82, 26.84 11.54 C30.26 7.27, 26.82 11.41, 27.25 12.51 M105.49 19.27 C112.99 24.84, 118.46 32.09, 122.01 41.23 C125.56 50.36, 127.57 63.77, 126.8 74.11 C126.04 84.44, 122.79 94.59, 117.41 103.22 C112.03 111.84, 103.16 121.27, 94.51 125.86 C85.85 130.45, 75.34 130.89, 65.48 130.75 C55.63 130.6, 44.71 129.05, 35.38 124.98 C26.04 120.91, 15.06 114.37, 9.47 106.32 C3.89 98.26, 3.04 87.24, 1.87 76.65 C0.7 66.06, -0.98 52.76, 2.43 42.77 C5.85 32.77, 14.36 23.16, 22.38 16.67 C30.41 10.18, 41.54 6, 50.58 3.84 C59.61 1.67, 67.98 1.54, 76.57 3.69 C85.17 5.84, 97.39 14.79, 102.14 16.74 C106.89 18.69, 104.87 14.94, 105.08 15.38" stroke="none" stroke-width="0" fill="#868e96"></path><path d="M29.33 11.65 C36.72 5.22, 48.2 0.92, 57.68 -0.03 C67.16 -0.97, 77.35 2.09, 86.23 5.97 C95.12 9.86, 104.46 15.53, 111 23.28 C117.54 31.04, 123.45 42.23, 125.47 52.5 C127.49 62.77, 126.14 75.2, 123.12 84.9 C120.11 94.6, 113.76 103.61, 107.37 110.7 C100.98 117.79, 93.75 123.85, 84.78 127.43 C75.81 131.01, 63.11 133.21, 53.55 132.16 C43.99 131.11, 35.12 127.04, 27.42 121.13 C19.73 115.22, 11.71 105.98, 7.37 96.69 C3.03 87.4, 1.16 75.6, 1.38 65.39 C1.59 55.19, 1.15 46.11, 8.67 35.48 C16.18 24.85, 36.71 7.35, 46.47 1.63 C56.23 -4.1, 66.84 -0.24, 67.22 1.14 M86.37 6.04 C95.24 8.92, 107.68 18.44, 114.3 26.39 C120.91 34.34, 124.93 44.08, 126.05 53.74 C127.18 63.39, 123.83 74.64, 121.04 84.33 C118.25 94.02, 116.21 104.09, 109.29 111.87 C102.36 119.64, 89.32 128.2, 79.47 131.01 C69.63 133.81, 59.33 131.05, 50.24 128.69 C41.15 126.34, 32.27 122.91, 24.93 116.87 C17.59 110.82, 10.59 101.5, 6.2 92.43 C1.81 83.37, -2.33 72.41, -1.38 62.47 C-0.44 52.53, 6.88 41.83, 11.88 32.78 C16.88 23.73, 21.09 13.85, 28.61 8.17 C36.13 2.48, 47.1 -1.35, 57 -1.32 C66.9 -1.3, 82.72 7.08, 88.02 8.34 C93.32 9.6, 89.33 5.31, 88.82 6.24" stroke="#000000" stroke-width="4" fill="none"></path></g><g transform="translate(813.4999999999995 191.5) rotate(0 14.5 22.5)"><text x="14.5" y="32" font-family="Virgil, Segoe UI Emoji" font-size="36px" fill="#000000" text-anchor="middle" style="white-space: pre;" direction="ltr">G</text></g><g stroke-linecap="round" transform="translate(262 493.9999999999998) rotate(0 221.99999999999977 71)"><path d="M29.43 -2.19 L408.56 2.18 L422.94 0.79 L433.98 4.24 L445.96 23.54 L441.94 112.13 L444.34 125.38 L428.9 133.57 L410.2 141.41 L34.62 143.02 L14.88 141.45 L5.55 128.17 L3 116.09 L1.94 26 L8.4 4.65 L19.76 -1.3 L29.2 0.22" stroke="none" stroke-width="0" fill="#228be6"></path><path d="M32 0 M32 0 C117.86 1.53, 209.44 3.8, 412 0 M32 0 C183.05 2.16, 335.98 2.93, 412 0 M412 0 C434.53 -2.51, 447.22 13.72, 444 32 M412 0 C437.13 -2.77, 442.55 8.19, 444 32 M444 32 C439.08 60.83, 440.49 83.45, 444 110 M444 32 C446 55.99, 444 80.02, 444 110 M444 110 C442.87 128.41, 432.65 139.26, 412 142 M444 110 C442.49 134.28, 434.95 140.1, 412 142 M412 142 C302.26 143.29, 189.93 145.25, 32 142 M412 142 C317.99 140.53, 225.75 138.65, 32 142 M32 142 C7.84 139.72, 3.14 130.09, 0 110 M32 142 C9.08 138.09, -3.88 131.04, 0 110 M0 110 C-2.76 79.65, -2.96 54.75, 0 32 M0 110 C-2.65 82.93, -0.23 54.56, 0 32 M0 32 C3.42 14.22, 9.92 -3.8, 32 0 M0 32 C-3.02 11.1, 7.11 -2.03, 32 0" stroke="#000000" stroke-width="4" fill="none"></path></g><g transform="translate(339 539.9999999999998) rotate(0 155.80000000000018 28.5)"><text x="155.8000000000003" y="40.00000000000009" font-family="Virgil, Segoe UI Emoji" font-size="45.60000000000009px" fill="#000000" text-anchor="middle" style="white-space: pre;" direction="ltr">Go scheduler </text></g><g stroke-linecap="round"><g transform="translate(162 282) rotate(0 115.75918145626792 107.04807550460094)"><path d="M2.21 1.7 C40.46 37.4, 191.08 177.6, 229.31 212.39" stroke="#000000" stroke-width="4.5" fill="none" stroke-dasharray="8 12"></path></g><g transform="translate(162 282) rotate(0 115.75918145626792 107.04807550460094)"><path d="M204.06 196.98 C210.14 203.2, 215.52 210.68, 227.05 210.71" stroke="#000000" stroke-width="4.5" fill="none"></path></g><g transform="translate(162 282) rotate(0 115.75918145626792 107.04807550460094)"><path d="M217.97 181.9 C219.78 192.75, 221.09 204.64, 227.05 210.71" stroke="#000000" stroke-width="4.5" fill="none"></path></g></g><mask></mask><g stroke-linecap="round"><g transform="translate(332 160) rotate(0 30.8199042841793 158.79970161467776)"><path d="M-0.52 -2.66 C9.44 50.3, 51.77 266.69, 62.16 320.26" stroke="#000000" stroke-width="4.5" fill="none" stroke-dasharray="8 12"></path></g><g transform="translate(332 160) rotate(0 30.8199042841793 158.79970161467776)"><path d="M42.9 291.93 C53.49 301.43, 57.31 316.24, 60.49 322.63" stroke="#000000" stroke-width="4.5" fill="none"></path></g><g transform="translate(332 160) rotate(0 30.8199042841793 158.79970161467776)"><path d="M63.04 288 C65.94 298.94, 61.99 315.27, 60.49 322.63" stroke="#000000" stroke-width="4.5" fill="none"></path></g></g><mask></mask><g stroke-linecap="round"><g transform="translate(498 158) rotate(0 -43.814359788596676 166.0386446520685)"><path d="M-0.24 2.76 C-15.01 57.61, -72.53 274.68, -87.39 329.32" stroke="#000000" stroke-width="4.5" fill="none" stroke-dasharray="8 12"></path></g><g transform="translate(498 158) rotate(0 -43.814359788596676 166.0386446520685)"><path d="M-86.06 300.31 C-90.03 307.72, -87.36 322.61, -85.08 329.05" stroke="#000000" stroke-width="4.5" fill="none"></path></g><g transform="translate(498 158) rotate(0 -43.814359788596676 166.0386446520685)"><path d="M-66.23 305.62 C-77.02 311.18, -81.16 324.24, -85.08 329.05" stroke="#000000" stroke-width="4.5" fill="none"></path></g></g><mask></mask><g stroke-linecap="round"><g transform="translate(676 134) rotate(0 -118.82270710915327 176.50513406246887)"><path d="M1.49 -0.86 C-38.58 58.23, -199.45 294.15, -239.13 353.87" stroke="#000000" stroke-width="4.5" fill="none" stroke-dasharray="8 12"></path></g><g transform="translate(676 134) rotate(0 -118.82270710915327 176.50513406246887)"><path d="M-233.1 323.14 C-237.57 336.88, -235 348.19, -238.8 351.69" stroke="#000000" stroke-width="4.5" fill="none"></path></g><g transform="translate(676 134) rotate(0 -118.82270710915327 176.50513406246887)"><path d="M-216.09 334.61 C-226.39 344.57, -229.7 351.91, -238.8 351.69" stroke="#000000" stroke-width="4.5" fill="none"></path></g></g><mask></mask><g stroke-linecap="round"><g transform="translate(763.9999999999995 234) rotate(0 -154.77072055786834 129.94795113056887)"><path d="M2.48 -0.5 C-49.43 42.67, -259.59 216.6, -312.02 260.39" stroke="#000000" stroke-width="4.5" fill="none" stroke-dasharray="8 12"></path></g><g transform="translate(763.9999999999995 234) rotate(0 -154.77072055786834 129.94795113056887)"><path d="M-297.6 237.31 C-300.3 244.74, -301.87 250.65, -311.03 260.28" stroke="#000000" stroke-width="4.5" fill="none"></path></g><g transform="translate(763.9999999999995 234) rotate(0 -154.77072055786834 129.94795113056887)"><path d="M-284.49 253.09 C-291.01 256.34, -296.25 257.84, -311.03 260.28" stroke="#000000" stroke-width="4.5" fill="none"></path></g></g><mask></mask><g stroke-linecap="round"><g transform="translate(787.9999999999995 378) rotate(0 -151.6517092034219 58.14504161328068)"><path d="M-1.17 2.56 C-51.52 21.53, -251.45 95.18, -302.13 113.73" stroke="#000000" stroke-width="4.5" fill="none" stroke-dasharray="8 12"></path></g><g transform="translate(787.9999999999995 378) rotate(0 -151.6517092034219 58.14504161328068)"><path d="M-275.56 97.04 C-286.46 98.17, -293.09 107.82, -304.85 115.57" stroke="#000000" stroke-width="4.5" fill="none"></path></g><g transform="translate(787.9999999999995 378) rotate(0 -151.6517092034219 58.14504161328068)"><path d="M-268.48 116.31 C-281.48 111.62, -290.23 115.51, -304.85 115.57" stroke="#000000" stroke-width="4.5" fill="none"></path></g></g><mask></mask><g stroke-linecap="round" transform="translate(10 812) rotate(0 91 76)"><path d="M32.17 -3.6 L146.49 -2.17 L163.57 2.19 L177.92 10.02 L177.35 17.76 L180.51 30.29 L179.87 124.93 L171.73 146.38 L160.72 152.29 L150.3 148.72 L31.77 150.17 L20.22 152.54 L4.12 143.65 L-1.29 133.78 L3.62 116.07 L-1.24 23.65 L5.38 7.51 L20.58 4.11 L29.76 -3.2" stroke="none" stroke-width="0" fill="#fa5252"></path><path d="M32 0 M32 0 C72.79 -2.29, 120.93 -0.99, 150 0 M150 0 C173.33 -3.69, 178.35 11.58, 182 32 M182 32 C183.22 62.64, 178.92 92.88, 182 120 M182 120 C184.86 139.92, 168.7 155.35, 150 152 M150 152 C124.45 149.24, 97.41 148.7, 32 152 M32 152 C8.03 150.16, 1.01 138.33, 0 120 M0 120 C-2.82 84.86, -2.71 50.51, 0 32 M0 32 C3.97 7.72, 14.22 -0.29, 32 0" stroke="#000000" stroke-width="4.5" fill="none" stroke-dasharray="8 12"></path></g><g transform="translate(86.5 865.5) rotate(0 14.5 22.5)"><text x="14.5" y="32" font-family="Virgil, Segoe UI Emoji" font-size="36px" fill="#000000" text-anchor="middle" style="white-space: pre;" direction="ltr">M</text></g><g stroke-linecap="round" transform="translate(297 972) rotate(0 91 76)"><path d="M31.77 -1.83 L152.22 2.54 L160.12 1.65 L170.71 7.78 L183.62 14.07 L180.26 31.15 L178.88 127.01 L176.58 146.11 L161.76 146.8 L152.67 152.87 L30.37 149.52 L14.75 152.38 L6.05 146 L-1.69 130.35 L0.91 121.32 L2.57 27.74 L8.31 9.33 L14.01 4.25 L34.86 -1.41" stroke="none" stroke-width="0" fill="#fa5252"></path><path d="M32 0 M32 0 C56.09 0.75, 86.52 0.17, 150 0 M150 0 C168.31 -2.49, 179.36 8.83, 182 32 M182 32 C181.02 60.75, 178 89.18, 182 120 M182 120 C179.43 142, 175.3 149.05, 150 152 M150 152 C101.84 152.22, 59.31 150.54, 32 152 M32 152 C13.86 149.56, -0.62 144.69, 0 120 M0 120 C3.13 102.37, 0.22 77.43, 0 32 M0 32 C3.27 12.26, 9.43 -1.18, 32 0" stroke="#000000" stroke-width="4.5" fill="none" stroke-dasharray="8 12"></path></g><g transform="translate(373.5 1025.5) rotate(0 14.5 22.5)"><text x="14.5" y="32" font-family="Virgil, Segoe UI Emoji" font-size="36px" fill="#000000" text-anchor="middle" style="white-space: pre;" direction="ltr">M</text></g><g stroke-linecap="round" transform="translate(520.9999999999995 1077.9999999999995) rotate(0 91 76)"><path d="M31.65 -3.29 L149.78 3.62 L160.07 0.26 L173.15 5.38 L179.51 20.58 L184.11 29.76 L178.3 130.17 L174.87 142.37 L161.52 146.75 L152.38 150.05 L34 148.31 L14.35 150.91 L9.32 146.07 L5.24 134.31 L1.33 116.01 L2.75 27.36 L6.59 5.37 L21.35 -1.6 L28.45 -1.37" stroke="none" stroke-width="0" fill="#fa5252"></path><path d="M32 0 M32 0 C62.64 -0.85, 96.43 2.79, 150 0 M150 0 C168.33 3.95, 182.34 10.8, 182 32 M182 32 C182.64 56.48, 179.02 76.58, 182 120 M182 120 C181.71 144.99, 169.07 150.06, 150 152 M150 152 C108.94 153.27, 76.12 151.29, 32 152 M32 152 C10.56 155.92, 3.08 144.38, 0 120 M0 120 C2.13 91.98, -0.64 67.33, 0 32 M0 32 C-2.74 11.93, 12.27 -1.77, 32 0" stroke="#000000" stroke-width="4.5" fill="none" stroke-dasharray="8 12"></path></g><g transform="translate(597.4999999999995 1131.4999999999995) rotate(0 14.5 22.5)"><text x="14.5" y="32" font-family="Virgil, Segoe UI Emoji" font-size="36px" fill="#000000" text-anchor="middle" style="white-space: pre;" direction="ltr">M</text></g><g stroke-linecap="round" transform="translate(748.9999999999995 885.9999999999998) rotate(0 91 76)"><path d="M29.51 -2.17 L147.33 -2.56 L167.53 0.24 L177.02 11.43 L181.1 20.56 L182.01 32.98 L182.92 128.89 L174.89 145.32 L162.44 148.6 L150.99 148.93 L32.88 155.29 L20.38 151.54 L8.19 141.82 L-0.09 136.13 L2.57 121.79 L3.64 23.43 L4.99 8.05 L18.42 -0.57 L35.16 -1.29" stroke="none" stroke-width="0" fill="#fa5252"></path><path d="M32 0 M32 0 C76.89 -1.52, 119.19 3.57, 150 0 M150 0 C171.25 -2.89, 182.63 9.08, 182 32 M182 32 C182.01 59.68, 184.01 87.48, 182 120 M182 120 C178.34 144.59, 169.48 152.37, 150 152 M150 152 C109.39 149.62, 74.42 149.29, 32 152 M32 152 C7.17 155.51, 3.65 137.33, 0 120 M0 120 C1.27 89.72, -1.34 53.94, 0 32 M0 32 C-2.82 13.95, 9.54 3.95, 32 0" stroke="#000000" stroke-width="4.5" fill="none" stroke-dasharray="8 12"></path></g><g transform="translate(825.4999999999995 939.4999999999998) rotate(0 14.5 22.5)"><text x="14.5" y="32" font-family="Virgil, Segoe UI Emoji" font-size="36px" fill="#000000" text-anchor="middle" style="white-space: pre;" direction="ltr">M</text></g><g stroke-linecap="round"><g transform="translate(510 646) rotate(0 -199.12737729996456 82.17035341709857)"><path d="M0.36 2.26 C-65.96 29.08, -332.17 134.94, -398.62 162.08" stroke="#000000" stroke-width="4.5" fill="none" stroke-dasharray="8 12"></path></g><g transform="translate(510 646) rotate(0 -199.12737729996456 82.17035341709857)"><path d="M-373.07 141.16 C-385.04 147.18, -386.83 153.06, -400.99 164.22" stroke="#000000" stroke-width="4.5" fill="none"></path></g><g transform="translate(510 646) rotate(0 -199.12737729996456 82.17035341709857)"><path d="M-365.41 160.2 C-379.65 160.97, -383.56 161.59, -400.99 164.22" stroke="#000000" stroke-width="4.5" fill="none"></path></g></g><mask></mask><g stroke-linecap="round"><g transform="translate(510 648) rotate(0 -56.70520008057338 164.68691063374274)"><path d="M-1.81 0.9 C-20.16 55.24, -92.59 273.57, -111.6 328.47" stroke="#000000" stroke-width="4.5" fill="none" stroke-dasharray="8 12"></path></g><g transform="translate(510 648) rotate(0 -56.70520008057338 164.68691063374274)"><path d="M-111 301.91 C-110.92 303.19, -108.11 314.23, -112.42 327.69" stroke="#000000" stroke-width="4.5" fill="none"></path></g><g transform="translate(510 648) rotate(0 -56.70520008057338 164.68691063374274)"><path d="M-91.56 308.48 C-96.38 307.89, -98.35 317.32, -112.42 327.69" stroke="#000000" stroke-width="4.5" fill="none"></path></g></g><mask></mask><g stroke-linecap="round"><g transform="translate(514 646) rotate(0 50.54718415290108 212.92624469250427)"><path d="M-1.15 -0.23 C16.2 71.19, 84.91 355.32, 102.25 426.08" stroke="#000000" stroke-width="4.5" fill="none" stroke-dasharray="8 12"></path></g><g transform="translate(514 646) rotate(0 50.54718415290108 212.92624469250427)"><path d="M85.29 398.61 C89.18 405.47, 90.52 413.46, 102.87 427.95" stroke="#000000" stroke-width="4.5" fill="none"></path></g><g transform="translate(514 646) rotate(0 50.54718415290108 212.92624469250427)"><path d="M105.23 393.76 C104.37 401.59, 101.05 410.71, 102.87 427.95" stroke="#000000" stroke-width="4.5" fill="none"></path></g></g><mask></mask><g stroke-linecap="round"><g transform="translate(506 640) rotate(0 159.791428633034 125.65154519528153)"><path d="M2.02 1.84 C55.33 43.38, 265.45 208.53, 317.56 249.47" stroke="#000000" stroke-width="4.5" fill="none" stroke-dasharray="8 12"></path></g><g transform="translate(506 640) rotate(0 159.791428633034 125.65154519528153)"><path d="M291.68 242.35 C297.41 239.92, 300.78 240.79, 313.86 251.9" stroke="#000000" stroke-width="4.5" fill="none"></path></g><g transform="translate(506 640) rotate(0 159.791428633034 125.65154519528153)"><path d="M304.36 226.21 C307.34 227.5, 307.93 231.91, 313.86 251.9" stroke="#000000" stroke-width="4.5" fill="none"></path></g></g><mask></mask></svg>