<svg version="1.1" xmlns="http://www.w3.org/2000/svg" viewBox="0 0 1341 711.9424051669907" width="2682" height="1423.8848103339815" filter="invert(93%) hue-rotate(180deg)">
  <!-- svg-source:excalidraw -->
  
  <defs>
    <style class="style-fonts">
      @font-face {
        font-family: "Virgil";
        src: url("https://excalidraw.com/Virgil.woff2");
      }
      @font-face {
        font-family: "Cascadia";
        src: url("https://excalidraw.com/Cascadia.woff2");
      }
    </style>
  </defs>
  <rect x="0" y="0" width="1341" height="711.9424051669907" fill="#e3fafc"></rect><g stroke-linecap="round" transform="translate(10 230.80448767360951) rotate(0 161 126.99999999999994)"><path d="M34.17 -0.25 L293.69 0.9 L305.63 3.87 L311.16 10.35 L320.4 15.8 L322.88 33.05 L324.07 221.75 L319.83 237.86 L314.97 247.2 L305.71 250.89 L288.19 254.89 L28.98 253.49 L19.55 254.79 L6.83 246.26 L3.65 236.15 L3.24 225.06 L4.3 23.92 L4.91 7 L14.09 -1.64 L29.29 0.43" stroke="none" stroke-width="0" fill="#12b886"></path><path d="M32 0 M32 0 C93.15 4.48, 153.07 4.96, 290 0 M290 0 C310.77 -0.1, 323.17 13.21, 322 32 M322 32 C325.9 92.77, 323.63 149.68, 322 222 M322 222 C321.41 245.22, 309.27 253.19, 290 254 M290 254 C205.99 256.5, 126.95 257.36, 32 254 M32 254 C14.34 250.4, 0.71 245.26, 0 222 M0 222 C0.46 179.49, 0.49 127, 0 32 M0 32 C0.93 12.89, 12.77 -0.49, 32 0" stroke="#000000" stroke-width="4.5" fill="none" stroke-dasharray="8 12"></path></g><g transform="translate(76.37777777777774 322.8044876736094) rotate(0 96 35.5)"><text x="96" y="50" font-family="Virgil, Segoe UI Emoji" font-size="56.79999999999988px" fill="#000000" text-anchor="middle" style="white-space: pre;" direction="ltr">Running</text></g><g stroke-linecap="round" transform="translate(527 229.80448767360951) rotate(0 161 126.99999999999994)"><path d="M28.38 -3 L291.59 0.88 L300.26 3.13 L312.85 7.84 L318.14 21.97 L320.76 35.95 L324.64 222.1 L318.56 233.18 L313.61 244.86 L304.72 254.23 L290.15 254.31 L28.98 254.55 L14.62 255.31 L8.31 242.36 L4.63 233.42 L-3.05 222.61 L-2.48 27.48 L10.38 7.01 L21.91 1.08 L29.32 0.01" stroke="none" stroke-width="0" fill="#fab005"></path><path d="M32 0 M32 0 C90.06 1.73, 144.34 0.99, 290 0 M290 0 C308.75 3.35, 320.64 7.97, 322 32 M322 32 C318.98 75.73, 317.35 114.46, 322 222 M322 222 C325.85 239.94, 310.39 253.95, 290 254 M290 254 C203.88 255.62, 119.15 253.82, 32 254 M32 254 C11.05 253.62, 0.17 239.69, 0 222 M0 222 C-2.17 146.98, -6.55 72.78, 0 32 M0 32 C-2.19 12.2, 12.63 -1.54, 32 0" stroke="#000000" stroke-width="4.5" fill="none" stroke-dasharray="8 12"></path></g><g transform="translate(562.3777777777777 320.8044876736094) rotate(0 119 35.5)"><text x="119" y="50" font-family="Virgil, Segoe UI Emoji" font-size="56.79999999999988px" fill="#000000" text-anchor="middle" style="white-space: pre;" direction="ltr">Runnable</text></g><g stroke-linecap="round" transform="translate(1009 247.8044876736093) rotate(0 161 126.99999999999994)"><path d="M28.48 -1.72 L292.69 -1.38 L307.47 -1.02 L315.93 11.85 L316.61 17.06 L321.95 33.24 L322.84 223.37 L319.07 236.25 L313.88 244.02 L304.39 251.62 L290.17 250.36 L35.72 257.34 L16.94 253.01 L7.66 242.63 L2.13 233.81 L1.53 223.97 L-1.04 26.37 L5.42 7.09 L21.37 3.54 L30.16 -3.03" stroke="none" stroke-width="0" fill="#fa5252"></path><path d="M32 0 M32 0 C104.96 3.2, 174.48 5.39, 290 0 M290 0 C312.54 -2.53, 322.58 9.71, 322 32 M322 32 C322.7 106.37, 326.48 179.85, 322 222 M322 222 C320.22 242.99, 310.66 250.96, 290 254 M290 254 C203.47 258.26, 112.58 258.05, 32 254 M32 254 C10.98 256, 1.68 241.12, 0 222 M0 222 C2.14 167.94, 1.97 122.75, 0 32 M0 32 C1.8 12.27, 7.73 -0.27, 32 0" stroke="#000000" stroke-width="4.5" fill="none" stroke-dasharray="8 12"></path></g><g transform="translate(1067.3777777777777 339.8044876736094) rotate(0 104 35.5)"><text x="104" y="50" font-family="Virgil, Segoe UI Emoji" font-size="56.79999999999988px" fill="#000000" text-anchor="middle" style="white-space: pre;" direction="ltr">Blocked</text></g><g stroke-linecap="round"><g transform="translate(190 220.80448767360951) rotate(0 495.30773388974376 -101.77272886609984)"><path d="M0.46 2.78 C74.69 -32.17, 279.97 -211.26, 445.45 -210.8 C610.93 -210.35, 901.75 -30.56, 993.36 5.5 M-2.74 1.82 C72.32 -32.62, 284.81 -208.52, 450.47 -207.61 C616.13 -206.7, 900.24 -28.49, 991.2 7.26" stroke="#000000" stroke-width="4" fill="none"></path></g><g transform="translate(190 220.80448767360951) rotate(0 495.30773388974376 -101.77272886609984)"><path d="M965.35 0.34 C969.21 3.96, 975.8 7.39, 987.73 6 M962.49 5.44 C975.11 7.07, 985.79 7.21, 989.42 6.65" stroke="#000000" stroke-width="4" fill="none"></path></g><g transform="translate(190 220.80448767360951) rotate(0 495.30773388974376 -101.77272886609984)"><path d="M974.44 -18.06 C975.4 -8.86, 979.25 0.13, 987.73 6 M971.58 -12.97 C980.73 -4.09, 987.81 3.36, 989.42 6.65" stroke="#000000" stroke-width="4" fill="none"></path></g></g><mask></mask><g stroke-linecap="round"><g transform="translate(648 494.8044876736094) rotate(0 -242.13704930409767 76.24365535663287)"><path d="M-2.39 -1.44 C-40.77 23.97, -149.76 147.74, -230.26 150.18 C-310.76 152.62, -442.47 35.52, -485.39 13.2 M1.51 3.95 C-37.09 30.07, -150.35 152.1, -231.56 153.9 C-312.78 155.71, -443.19 37.28, -485.78 14.79" stroke="#000000" stroke-width="4" fill="none"></path></g><g transform="translate(648 494.8044876736094) rotate(0 -242.13704930409767 76.24365535663287)"><path d="M-458.81 24.85 C-465.1 23.33, -478.06 17.61, -485.45 15.32 M-457.41 23.49 C-466.99 21.04, -474.87 19.84, -486.38 13.37" stroke="#000000" stroke-width="4" fill="none"></path></g><g transform="translate(648 494.8044876736094) rotate(0 -242.13704930409767 76.24365535663287)"><path d="M-470.47 41.74 C-472.98 35.34, -482.45 24.55, -485.45 15.32 M-469.07 40.37 C-474.92 32.4, -479.09 25.84, -486.38 13.37" stroke="#000000" stroke-width="4" fill="none"></path></g></g><mask></mask><g stroke-linecap="round"><g transform="translate(1186 512.8044876736094) rotate(0 -254.72748931154638 84.96363612120274)"><path d="M-1.05 0.75 C-31.02 31.25, -93.65 188.99, -178.61 185.66 C-263.57 182.34, -455.99 14.75, -510.79 -19.21 M3.58 -1.32 C-26.75 30.83, -93.99 191.68, -180.09 189.11 C-266.2 186.53, -457.36 17.35, -513.03 -16.76" stroke="#000000" stroke-width="4" fill="none"></path></g><g transform="translate(1186 512.8044876736094) rotate(0 -254.72748931154638 84.96363612120274)"><path d="M-483.18 -6.33 C-494.79 -12.57, -505.94 -10.7, -513.17 -16.65 M-484.71 -8.89 C-489.99 -9.95, -498.02 -13.52, -514.21 -16.73" stroke="#000000" stroke-width="4" fill="none"></path></g><g transform="translate(1186 512.8044876736094) rotate(0 -254.72748931154638 84.96363612120274)"><path d="M-495.34 10.2 C-503.09 -1.63, -510.05 -5.45, -513.17 -16.65 M-496.87 7.63 C-499.73 3.1, -505.1 -4.09, -514.21 -16.73" stroke="#000000" stroke-width="4" fill="none"></path></g></g><mask></mask></svg>