<svg xmlns="http://www.w3.org/2000/svg" width="2460" height="1663.333" filter="invert(93%) hue-rotate(180deg)" version="1.1" viewBox="0 0 1230 831.667"><defs><style class="style-fonts">@font-face{font-family:&quot;Virgil&quot;;src:url(https://excalidraw.com/Virgil.woff2)}@font-face{font-family:&quot;Cascadia&quot;;src:url(https://excalidraw.com/Cascadia.woff2)}</style></defs><rect width="1230" height="831.667" x="0" y="0" fill="#e3fafc"/><g stroke-linecap="round"><path fill="#12b886" stroke="none" stroke-width="0" d="M30.62 1.77 L193.41 2.42 L205.99 4.15 L216.86 18.18 L218.24 29.89 L220.1 557.49 L210.05 577.09 L199.69 591.39 L183.51 590.77 L23.57 589.9 L11.58 589.41 L-0.26 571.96 L3.3 560.41 L-2.73 28.43 L0.27 18.61 L9.95 5.13 L14.82 3.81 L32.14 2.31" transform="translate(10 96.33333333333485) rotate(0 108.33333333333303 295)"/><path fill="none" stroke="#000" stroke-dasharray="8 12" stroke-width="4.5" d="M32 0 M32 0 C85.94 2.05, 134.54 2.61, 184.67 0 M184.67 0 C205.82 1.11, 212.89 6.99, 216.67 32 M216.67 32 C220.89 207.91, 218.93 381.32, 216.67 558 M216.67 558 C219.38 581.2, 207.36 591.69, 184.67 590 M184.67 590 C137.48 589.05, 83.41 585.75, 32 590 M32 590 C12.91 589.77, 0.63 577.36, 0 558 M0 558 C3.52 415.54, 0.81 276.69, 0 32 M0 32 C1.91 14.09, 11.81 1.37, 32 0" transform="translate(10 96.33333333333485) rotate(0 108.33333333333303 295)"/></g><g stroke-linecap="round"><path fill="#ced4da" stroke="none" stroke-width="0" d="M93.22 24.49 C98.9 31.43, 103.88 43.11, 105.67 53.38 C107.47 63.65, 105.81 75.77, 103.99 86.12 C102.16 96.46, 99.74 107.54, 94.72 115.46 C89.7 123.39, 81.63 130.41, 73.85 133.67 C66.07 136.94, 56.77 136.67, 48.04 135.06 C39.32 133.46, 28.76 129.82, 21.52 124.04 C14.28 118.26, 8.12 109.44, 4.61 100.36 C1.11 91.29, 0.23 80.51, 0.49 69.57 C0.75 58.62, 2.23 44.67, 6.2 34.72 C10.16 24.76, 17.13 15.74, 24.28 9.82 C31.42 3.9, 41.19 0.29, 49.06 -0.79 C56.93 -1.88, 61.8 -7.19, 71.5 3.32 C81.19 13.82, 102.78 45.77, 107.24 62.23 C111.69 78.7, 99.28 102.28, 98.23 102.12 M49.81 0.98 C57.18 -1.2, 67.91 0.37, 75.67 4.86 C83.42 9.35, 90.87 18.97, 96.33 27.91 C101.79 36.85, 106.85 48.47, 108.43 58.51 C110.01 68.55, 108.78 78.58, 105.82 88.16 C102.85 97.75, 96.79 108.63, 90.65 116 C84.51 123.37, 76.98 129.16, 68.95 132.37 C60.93 135.58, 50.45 136.47, 42.49 135.24 C34.53 134.01, 27.88 131.63, 21.22 124.98 C14.55 118.34, 5.79 105.74, 2.52 95.38 C-0.75 85.02, 0.82 73.41, 1.61 62.83 C2.4 52.24, 3.33 40.44, 7.26 31.88 C11.19 23.32, 17.56 17.09, 25.19 11.47 C32.81 5.85, 48.59 0.03, 53.02 -1.83 C57.44 -3.69, 52.21 -1.32, 51.73 0.29" transform="translate(60 143.0000000000009) rotate(0 53.5 68.5)"/><path fill="none" stroke="#000" stroke-width="4" d="M10.4 28.27 C14.36 19.36, 23.53 12.18, 30.58 7.44 C37.63 2.69, 44.61 -0.58, 52.7 -0.2 C60.79 0.17, 71.7 4.62, 79.1 9.7 C86.5 14.77, 92.58 21.73, 97.1 30.24 C101.61 38.76, 105.2 49.97, 106.18 60.77 C107.16 71.57, 106.06 85.19, 102.97 95.05 C99.89 104.92, 93.53 113.1, 87.66 119.97 C81.78 126.84, 75.8 134.1, 67.71 136.29 C59.61 138.49, 47.54 135.88, 39.08 133.14 C30.63 130.41, 22.75 126.88, 16.97 119.86 C11.18 112.85, 7.38 100.89, 4.36 91.05 C1.34 81.21, -3.06 72.45, -1.17 60.82 C0.72 49.2, 11.44 29.49, 15.68 21.3 C19.92 13.11, 23.64 10.96, 24.28 11.67 M81.96 11.44 C88.94 15.16, 92.67 22.01, 97 31.49 C101.33 40.98, 107.03 57.12, 107.95 68.36 C108.88 79.59, 106.05 90.2, 102.54 98.92 C99.04 107.63, 94.01 114.1, 86.91 120.64 C79.81 127.18, 68.09 135.84, 59.93 138.15 C51.77 140.46, 45.25 138.07, 37.96 134.5 C30.67 130.92, 21.69 124.86, 16.18 116.71 C10.67 108.55, 7.11 95.75, 4.9 85.56 C2.69 75.38, 1.98 65.94, 2.93 55.6 C3.88 45.26, 5.39 31.89, 10.6 23.5 C15.81 15.12, 26.27 9.43, 34.21 5.31 C42.16 1.18, 50.46 -1.89, 58.28 -1.26 C66.1 -0.62, 77.25 6.5, 81.14 9.12 C85.03 11.73, 82.37 13.63, 81.62 14.44" transform="translate(60 143.0000000000009) rotate(0 53.5 68.5)"/></g><g><text x="14.5" y="32" fill="#000" direction="ltr" font-family="Virgil, Segoe UI Emoji" font-size="36" text-anchor="middle" style="white-space:pre" transform="translate(99 189.0000000000009) rotate(0 14.5 22.5)">G</text></g><g stroke-linecap="round"><path fill="#ced4da" stroke="none" stroke-width="0" d="M78.18 4.53 C86.48 6.9, 93.74 14.67, 100.13 22.53 C106.53 30.4, 113.65 41.41, 116.54 51.71 C119.43 62.02, 119.47 74.4, 117.48 84.36 C115.5 94.32, 111.02 103.61, 104.65 111.48 C98.27 119.35, 88.13 127.29, 79.26 131.6 C70.39 135.9, 60.16 138.01, 51.42 137.33 C42.67 136.64, 34.17 133.64, 26.78 127.46 C19.39 121.29, 11.44 110.19, 7.09 100.29 C2.75 90.39, 0.64 78.64, 0.72 68.05 C0.8 57.46, 3.92 46.16, 7.59 36.75 C11.27 27.33, 15.58 17.65, 22.76 11.57 C29.94 5.48, 36.76 -2.45, 50.65 0.24 C64.54 2.94, 95.31 16.73, 106.09 27.72 C116.87 38.71, 116.13 65.04, 115.33 66.2 M98.08 16.69 C105.22 22.86, 110.72 36.19, 114.17 46.74 C117.61 57.3, 119.89 69.91, 118.76 80.02 C117.63 90.14, 113.15 99.34, 107.41 107.44 C101.67 115.54, 92.65 123.95, 84.29 128.62 C75.93 133.28, 66.42 135.53, 57.24 135.44 C48.07 135.35, 37.03 132.43, 29.26 128.06 C21.49 123.69, 15.82 118.11, 10.64 109.2 C5.45 100.29, -1 85.83, -1.83 74.6 C-2.67 63.38, 2 51.68, 5.62 41.82 C9.24 31.96, 13.36 21.86, 19.87 15.46 C26.37 9.05, 35.29 5.92, 44.64 3.39 C54 0.86, 66.91 -1.93, 76.01 0.29 C85.11 2.51, 95.82 13.45, 99.26 16.71 C102.7 19.96, 97.93 18.84, 96.62 19.81" transform="translate(459.9999999999982 684.6666666666697) rotate(0 58.5 68.5)"/><path fill="none" stroke="#000" stroke-width="4" d="M62.89 -0.19 C71.22 -0.59, 79.34 3.48, 86.96 9.16 C94.59 14.84, 103.74 24.8, 108.62 33.9 C113.51 42.99, 115.74 53.41, 116.26 63.74 C116.77 74.07, 115.31 85.89, 111.73 95.89 C108.15 105.89, 101.96 117.12, 94.8 123.75 C87.63 130.38, 77.3 133.72, 68.77 135.67 C60.23 137.61, 52.31 138.7, 43.58 135.4 C34.85 132.1, 23.31 123.4, 16.39 115.86 C9.46 108.32, 4.48 100.18, 2.05 90.15 C-0.38 80.13, 0.4 66.08, 1.78 55.71 C3.16 45.35, 5 35.98, 10.33 27.96 C15.66 19.94, 22.12 11.84, 33.78 7.61 C45.43 3.39, 70.08 1.04, 80.25 2.6 C90.43 4.17, 95.12 15.87, 94.81 17 M93.52 13.52 C100.83 19.57, 109.76 35, 113.74 45.47 C117.72 55.95, 118.27 66.68, 117.42 76.36 C116.56 86.05, 114.08 94.56, 108.61 103.58 C103.14 112.61, 92.54 124.77, 84.63 130.5 C76.72 136.24, 69.63 138, 61.14 138.01 C52.65 138.02, 41.57 135.8, 33.69 130.57 C25.81 125.34, 19.06 115.2, 13.86 106.61 C8.65 98.01, 4.43 89.45, 2.44 79 C0.45 68.55, -1.09 54.06, 1.91 43.9 C4.92 33.74, 13.49 25.2, 20.47 18.03 C27.45 10.85, 35.46 3.85, 43.77 0.87 C52.08 -2.1, 61.56 -2.85, 70.34 0.17 C79.12 3.18, 92.67 16.5, 96.46 18.95 C100.24 21.41, 93.42 14.25, 93.04 14.91" transform="translate(459.9999999999982 684.6666666666697) rotate(0 58.5 68.5)"/></g><g><text x="14.5" y="32" fill="#000" direction="ltr" font-family="Virgil, Segoe UI Emoji" font-size="36" text-anchor="middle" style="white-space:pre" transform="translate(503.9999999999982 730.6666666666697) rotate(0 14.5 22.5)">G</text></g><g stroke-linecap="round"><path fill="#868e96" stroke="none" stroke-width="0" d="M28.15 2.19 L235.68 2.07 L249.89 11.43 L257.49 15.89 L259.59 33.03 L263.39 520.18 L256.27 539.91 L242.4 550.41 L231.91 551.08 L31.96 556.64 L14.91 546.1 L-1.57 533.61 L0.61 523.28 L-2.87 28.82 L3.81 18.14 L10.31 9.83 L14.22 2.27 L33.16 2.26" transform="translate(959.9999999999982 112.99999999999909) rotate(0 130 276.66666666666697)"/><path fill="none" stroke="#000" stroke-width="4" d="M32 0 M32 0 C77.15 -3.6, 116.39 1.51, 228 0 M32 0 C108.71 -3.12, 182.29 -0.01, 228 0 M228 0 C251.2 1.36, 261.69 11.68, 260 32 M228 0 C253.61 -3.05, 262.84 11.9, 260 32 M260 32 C257.62 155.22, 256.9 277.38, 260 521.33 M260 32 C259.42 153.81, 260.59 277.37, 260 521.33 M260 521.33 C263.43 543.81, 250.7 551.96, 228 553.33 M260 521.33 C262.02 542.89, 250.67 550.29, 228 553.33 M228 553.33 C167.79 557.05, 103.08 552.61, 32 553.33 M228 553.33 C180.97 551.35, 134.39 550.67, 32 553.33 M32 553.33 C8.03 554.75, -3.8 545.58, 0 521.33 M32 553.33 C7.88 549.89, -3.2 543.66, 0 521.33 M0 521.33 C-0.17 383.77, 0.14 251.09, 0 32 M0 521.33 C0.76 338, 0.91 155.78, 0 32 M0 32 C3.06 13.69, 12.35 -1.07, 32 0 M0 32 C-0.97 9.13, 10.06 -2.38, 32 0" transform="translate(959.9999999999982 112.99999999999909) rotate(0 130 276.66666666666697)"/></g><g stroke-linecap="round"><path fill="#ced4da" stroke="none" stroke-width="0" d="M103.68 23.94 C109.87 30.13, 113.27 40.43, 116.03 50.63 C118.8 60.84, 120.81 73.61, 120.27 85.18 C119.72 96.74, 116.95 110.17, 112.74 120.02 C108.54 129.88, 102.71 138.13, 95.03 144.31 C87.34 150.49, 75.91 155.44, 66.61 157.11 C57.31 158.78, 47.51 158.33, 39.24 154.33 C30.97 150.33, 23.15 141.22, 16.98 133.11 C10.81 125, 5.08 116.11, 2.22 105.67 C-0.63 95.22, -1.06 81.89, -0.14 70.45 C0.79 59, 3.46 46.65, 7.78 36.97 C12.09 27.29, 17.9 18.19, 25.76 12.37 C33.62 6.56, 45.97 3.35, 54.93 2.07 C63.88 0.79, 69.69 -1.69, 79.5 4.7 C89.32 11.09, 107.23 30.4, 113.84 40.4 C120.44 50.41, 119.78 63.75, 119.13 64.75 M84.16 6.42 C92 9.63, 99.42 17.64, 105.14 26.5 C110.85 35.37, 115.56 48.74, 118.45 59.59 C121.34 70.44, 124.25 80.32, 122.46 91.58 C120.68 102.84, 113.65 117.8, 107.72 127.16 C101.79 136.51, 94.63 142.87, 86.87 147.72 C79.1 152.58, 69.38 155.42, 61.14 156.27 C52.91 157.13, 45.61 157.15, 37.47 152.86 C29.34 148.57, 18.48 139.73, 12.36 130.53 C6.24 121.32, 2.45 109.29, 0.74 97.65 C-0.98 86.01, 0.23 71.37, 2.05 60.7 C3.87 50.03, 7.05 42.4, 11.66 33.62 C16.28 24.84, 21.42 13.87, 29.75 8.04 C38.07 2.21, 52.33 -1.33, 61.6 -1.36 C70.88 -1.4, 81.49 5.86, 85.39 7.84 C89.29 9.81, 85.94 9.35, 85 10.5" transform="translate(1013.3333333333321 481.33333333333303) rotate(0 60.5 78.5)"/><path fill="none" stroke="#000" stroke-width="4" d="M106.09 27.72 C112.54 35.2, 118.24 46.69, 120.61 57.49 C122.99 68.29, 122.21 81.34, 120.35 92.52 C118.48 103.7, 114.36 115.53, 109.43 124.56 C104.51 133.6, 98.57 141.05, 90.8 146.72 C83.04 152.39, 71.7 158.19, 62.83 158.59 C53.96 158.99, 45.91 154.07, 37.59 149.13 C29.27 144.19, 18.78 137.13, 12.91 128.93 C7.05 120.72, 4.61 110.99, 2.39 99.9 C0.17 88.82, -2.11 73.74, -0.4 62.43 C1.32 51.12, 7.06 40.78, 12.67 32.05 C18.29 23.32, 26.04 15.37, 33.31 10.07 C40.57 4.76, 47.61 0.6, 56.26 0.2 C64.9 -0.21, 75.91 0.66, 85.19 7.63 C94.48 14.6, 106.65 33.83, 111.97 42 C117.29 50.17, 118.07 56.54, 117.12 56.63 M81.24 5.55 C88.52 7.46, 94.05 12.55, 100.43 20.56 C106.82 28.57, 116 42.33, 119.54 53.59 C123.08 64.86, 122.83 76.64, 121.68 88.16 C120.53 99.68, 117.77 112.97, 112.65 122.71 C107.53 132.45, 98.34 141.22, 90.96 146.6 C83.59 151.98, 77.03 153.7, 68.39 155 C59.75 156.3, 47.58 157.78, 39.14 154.41 C30.7 151.04, 23.95 143.19, 17.77 134.76 C11.58 126.34, 5.17 114.61, 2.02 103.86 C-1.13 93.1, -2.77 81.77, -1.14 70.21 C0.48 58.66, 7.32 43.91, 11.78 34.52 C16.25 25.14, 18.46 19.13, 25.64 13.89 C32.82 8.65, 45.61 4.54, 54.85 3.11 C64.08 1.68, 77.06 4.64, 81.05 5.3 C85.03 5.96, 79.21 5.86, 78.76 7.08" transform="translate(1013.3333333333321 481.33333333333303) rotate(0 60.5 78.5)"/></g><g><text x="14.5" y="32" fill="#000" direction="ltr" font-family="Virgil, Segoe UI Emoji" font-size="36" text-anchor="middle" style="white-space:pre" transform="translate(1059.3333333333321 537.333333333333) rotate(0 14.5 22.5)">G</text></g><g stroke-linecap="round"><path fill="#be4bdb" stroke="none" stroke-width="0" d="M33.57 -2.11 L141.43 -0.51 L149.89 1.59 L163.03 11.39 L166.84 18.77 L169.07 32.4 L168.58 109.41 L159.74 121.96 L155.3 130.41 L135.27 126.43 L30.27 130.61 L19.95 125.13 L4.82 123.81 L0.64 107.81 L2.33 20.72 L8.27 9.16 L20.26 -1.01 L34.82 -0.18" transform="translate(999.9999999999964 146.33333333333303) rotate(0 85 65)"/><path fill="none" stroke="#000" stroke-width="4" d="M32 0 M32 0 C68.08 5.43, 102.45 3.35, 138 0 M32 0 C69.66 2.45, 105.28 2.37, 138 0 M138 0 C160.34 3.72, 167.35 13.14, 170 32 M138 0 C160.57 -2.24, 167.44 13.24, 170 32 M170 32 C168.94 49.43, 170.34 74.4, 170 98 M170 32 C169.89 47.89, 169.51 61.04, 170 98 M170 98 C168.62 121.09, 159.53 131.16, 138 130 M170 98 C166.96 120.56, 162.9 132.32, 138 130 M138 130 C93.42 129.37, 53.4 129.12, 32 130 M138 130 C102.48 130.57, 68.05 129.99, 32 130 M32 130 C13.58 127.58, -2.99 116.55, 0 98 M32 130 C11.66 128.97, -0.27 116.7, 0 98 M0 98 C5.03 82.8, 0.61 62.82, 0 32 M0 98 C1.59 79.41, 2.04 58.6, 0 32 M0 32 C-1.07 9.83, 9.33 -0.53, 32 0 M0 32 C-2.38 8.68, 9.72 1.17, 32 0" transform="translate(999.9999999999964 146.33333333333303) rotate(0 85 65)"/></g><g><text x="30" y="69" fill="#000" direction="ltr" font-family="Virgil, Segoe UI Emoji" font-size="77.379" text-anchor="middle" style="white-space:pre" transform="translate(1046.6666666666642 158.6091954022986) rotate(0 30 49)">M</text></g><g stroke-linecap="round"><path fill="#fa5252" stroke="none" stroke-width="0" d="M100.58 1.84 C114.12 -0.75, 131.41 -0.82, 145.34 2.06 C159.28 4.93, 172.88 12.22, 184.19 19.09 C195.51 25.97, 206.35 34.22, 213.2 43.3 C220.06 52.37, 224.17 63.13, 225.32 73.54 C226.47 83.96, 223.8 95.42, 220.09 105.76 C216.37 116.1, 211.95 127.37, 203.02 135.56 C194.1 143.76, 179.62 150.39, 166.55 154.93 C153.49 159.47, 138.89 161.71, 124.61 162.81 C110.34 163.9, 94.51 164.16, 80.89 161.5 C67.28 158.84, 54.06 153.76, 42.94 146.85 C31.83 139.94, 21.33 129.64, 14.19 120.05 C7.05 110.46, 1.7 99.79, 0.12 89.29 C-1.47 78.8, 0.51 67.05, 4.65 57.09 C8.8 47.12, 15.64 37.12, 24.97 29.51 C34.29 21.89, 37.37 14.9, 60.6 11.39 C83.83 7.88, 139.24 3.45, 164.35 8.45 C189.46 13.45, 211.94 40.17, 211.25 41.38 M85.51 3.51 C98.03 -0.53, 115.76 -0.49, 130.53 0.54 C145.29 1.57, 161.67 3.75, 174.1 9.71 C186.54 15.68, 197.31 27.56, 205.14 36.35 C212.96 45.14, 217.16 52.87, 221.04 62.44 C224.91 72.01, 230.18 83.15, 228.38 93.77 C226.58 104.39, 218.29 116.65, 210.25 126.15 C202.21 135.66, 192.43 144.72, 180.16 150.79 C167.9 156.85, 151.27 160.16, 136.64 162.54 C122.01 164.92, 106.44 167.38, 92.38 165.09 C78.31 162.8, 63.62 154.42, 52.26 148.81 C40.9 143.2, 32.4 139.67, 24.21 131.41 C16.03 123.15, 7.17 109.25, 3.16 99.25 C-0.85 89.26, -1.8 81.2, 0.17 71.46 C2.13 61.72, 7.02 50.45, 14.94 40.8 C22.85 31.16, 35.1 19.63, 47.67 13.59 C60.24 7.54, 83.36 6.54, 90.33 4.54 C97.31 2.53, 89.27 0.42, 89.52 1.56" transform="translate(416.66666666666424 62.33333333333485) rotate(0 113.5 82)"/><path fill="none" stroke="#000" stroke-width="4" d="M142.7 2.22 C156.2 3.54, 170.54 10.02, 182.33 16.23 C194.13 22.44, 206.19 30.12, 213.45 39.51 C220.72 48.89, 224.09 62.21, 225.93 72.53 C227.77 82.85, 228.46 91.75, 224.49 101.45 C220.52 111.15, 211.02 122, 202.11 130.72 C193.21 139.44, 183.5 148.62, 171.06 153.78 C158.62 158.93, 141.7 160.38, 127.46 161.65 C113.21 162.92, 99.17 163.62, 85.59 161.39 C72.02 159.15, 58.02 154.54, 46.03 148.23 C34.03 141.91, 21.01 132.5, 13.61 123.5 C6.21 114.5, 3.53 104.4, 1.63 94.25 C-0.27 84.1, -1.35 72.8, 2.21 62.59 C5.77 52.38, 14.32 41.85, 23.01 32.97 C31.7 24.1, 41.73 14.44, 54.35 9.36 C66.98 4.28, 80.28 2.47, 98.77 2.5 C117.26 2.53, 151.01 7, 165.29 9.56 C179.57 12.12, 185.6 16.52, 184.43 17.85 M165.37 11.57 C177.93 15.02, 188.06 23.12, 197.51 30.34 C206.97 37.56, 217.52 44.97, 222.11 54.88 C226.69 64.78, 226.25 79.02, 225.01 89.78 C223.77 100.53, 221.15 110.5, 214.67 119.4 C208.18 128.3, 197.28 136.42, 186.09 143.18 C174.9 149.94, 160.59 156.97, 147.53 159.98 C134.47 162.99, 122.33 161.74, 107.74 161.22 C93.15 160.7, 73.12 160.71, 59.98 156.86 C46.85 153, 37.83 146.11, 28.93 138.08 C20.03 130.05, 11.5 118.83, 6.56 108.68 C1.62 98.54, -1.68 87.68, -0.72 77.22 C0.24 66.77, 5.94 55.37, 12.3 45.94 C18.67 36.52, 26.11 27.38, 37.45 20.66 C48.78 13.94, 65.75 8.82, 80.31 5.63 C94.86 2.44, 110.35 1.35, 124.79 1.54 C139.23 1.72, 160.75 5.41, 166.93 6.76 C173.11 8.11, 163.44 7.89, 161.89 9.61" transform="translate(416.66666666666424 62.33333333333485) rotate(0 113.5 82)"/></g><g><text x="37.5" y="99" fill="#000" direction="ltr" font-family="Virgil, Segoe UI Emoji" font-size="111.745" text-anchor="middle" style="white-space:pre" transform="translate(489.16666666666424 79.34432234432006) rotate(0 37.5 71)">P</text></g><g stroke-linecap="round"><g><path fill="none" stroke="#000" stroke-dasharray="8 12" stroke-width="4.5" d="M-0.64 2.74 C28.65 2.68, 145.15 0.14, 175.09 -0.03" transform="translate(230 163.0000000000009) rotate(0 87.22138936979081 1.3529358360915467)"/></g></g><g stroke-linecap="round"><path fill="none" stroke="#12b886" stroke-width="2" d="M7.86 8.16 C7.86 8.16, 7.86 8.16, 7.86 8.16 M7.86 8.16 C7.86 8.16, 7.86 8.16, 7.86 8.16 M8.78 31.49 C13.37 23.25, 19.25 11.58, 34.37 2.05 M8.78 31.49 C14.82 24.77, 20.01 18.22, 34.37 2.05 M8.39 56.32 C26.23 35.85, 40.76 23.27, 55.63 1.98 M8.39 56.32 C23.24 37.07, 40.38 18.62, 55.63 1.98 M8.66 80.4 C33.6 54.55, 52.37 25.34, 76.89 1.91 M8.66 80.4 C33.13 53.43, 55.36 30.41, 76.89 1.91 M4.99 109.01 C24.33 85.41, 43.81 61.69, 98.15 1.85 M4.99 109.01 C31.89 81.99, 57.24 50.33, 98.15 1.85 M11.82 125.55 C40.75 92.45, 69.75 59.38, 119.41 1.78 M11.82 125.55 C41.03 89.03, 72.04 54.87, 119.41 1.78 M25.2 134.54 C57.06 97.23, 86.38 61.72, 140.67 1.71 M25.2 134.54 C45.08 105.87, 70.78 78.53, 140.67 1.71 M42.53 139 C77.55 102.72, 114.27 61.17, 157.34 6.92 M42.53 139 C78.46 96.98, 116.32 53.9, 157.34 6.92 M63.79 138.93 C102.52 93.1, 137.47 47.77, 168.76 18.17 M63.79 138.93 C102.8 99.33, 139.91 55.17, 168.76 18.17 M85.05 138.86 C112.16 102.37, 141.97 69.62, 174.27 36.22 M85.05 138.86 C108.56 110.44, 130.91 83.94, 174.27 36.22 M106.31 138.79 C120.98 116.15, 142.24 96.17, 174.54 60.3 M106.31 138.79 C131.18 108.85, 157.31 82.22, 174.54 60.3 M127.57 138.72 C141.74 123.62, 156.32 109.4, 174.15 85.14 M127.57 138.72 C141.65 122.4, 151.68 109.67, 174.15 85.14 M7.94 121.95 C7.94 121.95, 7.94 121.95, 7.94 121.95 M7.94 121.95 C7.94 121.95, 7.94 121.95, 7.94 121.95 M35.8 124.96 C24.78 118.86, 15.97 109.83, 6.36 99.38 M35.8 124.96 C28.9 119.82, 19.68 111.43, 6.36 99.38 M60.63 125.35 C49.62 109.65, 35.1 100.43, 6.29 78.12 M60.63 125.35 C49.63 116.86, 35.17 103.96, 6.29 78.12 M84.72 125.09 C55.63 102.76, 29.05 82.1, 6.23 56.86 M84.72 125.09 C66.67 109.94, 46.61 92.6, 6.23 56.86 M109.55 125.48 C83.5 99.81, 45.51 75.18, 6.16 35.6 M109.55 125.48 C73.92 96.05, 36.51 65.97, 6.16 35.6 M138.16 129.15 C95 95.3, 52.11 54.25, 7.6 15.65 M138.16 129.15 C102.69 97.7, 65.42 65.09, 7.6 15.65 M156.21 123.63 C119.26 91.84, 88.85 64.98, 14.32 0.29 M156.21 123.63 C105.01 77.93, 58.36 36.89, 14.32 0.29 M168.97 113.52 C124.39 66.88, 72.14 22.66, 34.63 -3.25 M168.97 113.52 C124.09 74.42, 79.93 39.44, 34.63 -3.25 M175.69 98.17 C147.89 70.56, 109.55 40.04, 59.47 -2.86 M175.69 98.17 C144.17 71.5, 114.86 43.62, 59.47 -2.86 M175.62 76.91 C154.41 55.39, 133.44 39.46, 83.55 -3.13 M175.62 76.91 C148.11 55.14, 117.35 30.08, 83.55 -3.13 M176.31 56.3 C149.26 35.86, 123.48 15.62, 107.63 -3.4 M176.31 56.3 C152.13 34.51, 127.39 12.6, 107.63 -3.4 M170.96 30.45 C161.73 25.31, 156.95 18.45, 132.46 -3.01 M170.96 30.45 C159.7 20.92, 150.05 13.18, 132.46 -3.01" transform="translate(439.2129629629617 381) rotate(0 85 65)"/><path fill="none" stroke="#000" stroke-width="4" d="M32 0 M32 0 C67.6 -0.31, 102.38 1.42, 138 0 M32 0 C60.69 -2.2, 90.67 -0.41, 138 0 M138 0 C158.96 -0.57, 173.79 10.5, 170 32 M138 0 C154.81 3.93, 170.83 9.01, 170 32 M170 32 C170.25 53.19, 169.36 67.12, 170 98 M170 32 C170.43 54.53, 168.66 79.63, 170 98 M170 98 C169.17 117.45, 158.42 128.1, 138 130 M170 98 C167.06 117.49, 161.53 130.93, 138 130 M138 130 C113.52 131.11, 85.82 125.89, 32 130 M138 130 C105.69 132.39, 76.68 132.38, 32 130 M32 130 C9.08 132.84, -0.62 117.34, 0 98 M32 130 C10.77 128.38, 0.86 115.54, 0 98 M0 98 C2.98 78.53, 1.68 50.42, 0 32 M0 98 C0.64 81.54, -0.38 65.29, 0 32 M0 32 C0.42 6.77, 8.9 1.88, 32 0 M0 32 C-4.11 10.41, 11.65 1.23, 32 0" transform="translate(439.2129629629617 381) rotate(0 85 65)"/></g><g><text x="41.167" y="88.759" fill="#000" direction="ltr" font-family="Virgil, Segoe UI Emoji" font-size="102.207" text-anchor="middle" style="white-space:pre" transform="translate(476.37962962962956 377.2413793103442) rotate(0 41.16666666666697 63.8793103448279)">M</text></g><g stroke-linecap="round"><g><path fill="none" stroke="#000" stroke-width="4" d="M0.48 1.73 C1.06 26.7, -0.06 126.14, 0.77 150.67 M-2.71 0.2 C-1.04 24.19, 4.53 120.82, 5.78 146.02" transform="translate(524.2129629629617 232.66666666666788) rotate(0 1.5365916530290633 75.43349831391106)"/></g></g><g stroke-linecap="round"><g><path fill="none" stroke="#000" stroke-width="4" d="M2.77 -1.93 C3.46 29.02, 4.45 155.32, 5.51 187.04 M0.83 3.2 C0.92 34.54, 1.34 160.77, 2.65 190.88" transform="translate(520.8796296296296 509.3333333333321) rotate(0 3.1701153930398505 94.47425390498074)"/></g></g><g stroke-linecap="round"><g><path fill="none" stroke="#000" stroke-width="4" d="M1.05 -2.24 C0.92 33.46, -2.34 177.64, -2.56 214 M-1.82 2.71 C-0.96 38.67, 2.51 180.2, 2.45 216.18" transform="translate(1090.8796296296314 282.66666666666606) rotate(0 -0.05401508625163842 106.96772553936853)"/></g></g><g><text x="136.963" y="50.667" fill="#000" direction="ltr" font-family="Virgil, Segoe UI Emoji" font-size="57.333" text-anchor="middle" style="white-space:pre" transform="translate(922.953703703708 10) rotate(0 136.96296296296168 35.83333333333303)">In syscall</text></g></svg>