<svg version="1.1"
    xmlns="http://www.w3.org/2000/svg" viewBox="0 0 1234.6296296296305 993.9999999999982" width="2469.259259259261" height="1987.9999999999964" filter="invert(93%) hue-rotate(180deg)">
    <!-- svg-source:excalidraw -->

    <defs>
        <style class="style-fonts">
      @font-face {
        font-family: "Virgil";
        src: url("https://excalidraw.com/Virgil.woff2");
      }
      @font-face {
        font-family: "Cascadia";
        src: url("https://excalidraw.com/Cascadia.woff2");
      }
        </style>
    </defs>
    <rect x="0" y="0" width="1234.6296296296305" height="993.9999999999982" fill="#e3fafc"></rect>
    <g stroke-linecap="round" transform="translate(10 43.99999999999909) rotate(0 108.33333333333348 295)">
        <path d="M29.72 -3.77 L192.35 0.7 L211.87 11.81 L217.85 20.43 L214.65 32.46 L213.67 561.14 L215.51 574.02 L198.57 591.23 L188.18 588.42 L27.57 587.13 L10.15 582.15 L0.63 575.37 L3.83 559.74 L-0.36 31.53 L1.1 18.31 L4.1 11.25 L21.43 1.03 L30.96 1.72" stroke="none" stroke-width="0" fill="#12b886"></path>
        <path d="M32 0 M32 0 C88.22 0.81, 155.92 -0.72, 184.67 0 M184.67 0 C204.05 -1.48, 216.38 12, 216.67 32 M216.67 32 C214.82 197.77, 214.65 364.3, 216.67 558 M216.67 558 C214.28 583.2, 202.02 589.89, 184.67 590 M184.67 590 C134.58 589.89, 87.44 590.06, 32 590 M32 590 C9.9 591.96, 1.6 582.35, 0 558 M0 558 C2.26 428.77, 4.44 299.51, 0 32 M0 32 C0.58 7.8, 9.85 -0.79, 32 0" stroke="#000000" stroke-width="4.5" fill="none" stroke-dasharray="8 12"></path>
    </g>
    <g stroke-linecap="round" transform="translate(60 90.66666666666606) rotate(0 53.5 68.5)">
        <path d="M24.1 13.45 C29.9 6.82, 39.6 0.53, 47.5 -0.72 C55.4 -1.97, 63.53 2.09, 71.5 5.96 C79.47 9.84, 89.82 14.77, 95.34 22.53 C100.87 30.3, 102.94 41.81, 104.64 52.57 C106.34 63.33, 107.58 76.51, 105.53 87.1 C103.48 97.68, 97.82 108.25, 92.35 116.08 C86.87 123.9, 80.43 130.79, 72.67 134.04 C64.91 137.3, 54.12 137.22, 45.76 135.58 C37.4 133.94, 28.94 130.38, 22.5 124.2 C16.06 118.02, 10.7 107.96, 7.12 98.49 C3.54 89.02, 1.38 78, 1.01 67.4 C0.65 56.81, -2.85 46.32, 4.92 34.92 C12.7 23.52, 36.73 3.83, 47.66 -1.02 C58.59 -5.87, 70.52 4.57, 70.52 5.84 M8.2 28.69 C12.43 20.4, 21.7 15.36, 28.61 10.11 C35.53 4.87, 41.13 -2.71, 49.67 -2.78 C58.21 -2.85, 71.66 5.02, 79.85 9.7 C88.04 14.39, 94.85 16.96, 98.79 25.34 C102.73 33.73, 102.75 49.34, 103.49 59.99 C104.24 70.64, 104.98 79.64, 103.24 89.26 C101.5 98.87, 99.35 109.71, 93.04 117.69 C86.74 125.66, 73.83 134.11, 65.41 137.08 C56.98 140.06, 49.92 138.24, 42.51 135.54 C35.1 132.84, 27.49 128.08, 20.96 120.87 C14.42 113.66, 6.33 102.05, 3.31 92.26 C0.28 82.47, 1.78 72.12, 2.8 62.11 C3.83 52.11, 8.59 37.26, 9.47 32.24 C10.35 27.21, 7.41 31.16, 8.06 31.96" stroke="none" stroke-width="0" fill="#ced4da"></path>
        <path d="M35.86 2.53 C42.62 -1.64, 52.45 -1.5, 60.64 0.29 C68.84 2.09, 78.48 6.75, 85.04 13.3 C91.59 19.85, 96.63 30.07, 99.98 39.57 C103.34 49.08, 105.34 59.72, 105.16 70.34 C104.99 80.96, 102.84 93.99, 98.92 103.3 C94.99 112.61, 88.04 120.34, 81.62 126.21 C75.19 132.08, 68.11 137.79, 60.37 138.51 C52.63 139.24, 42.78 134.96, 35.17 130.54 C27.55 126.12, 20.21 120.14, 14.69 112 C9.17 103.85, 4.03 91.95, 2.03 81.68 C0.03 71.42, 0.53 60.46, 2.69 50.41 C4.84 40.37, 7.18 29.69, 14.98 21.42 C22.78 13.14, 41.25 3.85, 49.49 0.76 C57.73 -2.34, 64.6 1.8, 64.43 2.85 M78.29 6.24 C86.41 9.69, 95.68 19.91, 100.52 29 C105.36 38.1, 107.34 50.24, 107.34 60.82 C107.34 71.41, 103.53 82.51, 100.51 92.53 C97.5 102.54, 95.52 113.98, 89.22 120.89 C82.92 127.81, 71.34 131.62, 62.72 133.99 C54.1 136.36, 45.12 137.25, 37.5 135.13 C29.88 133, 22.9 128.19, 17 121.24 C11.1 114.29, 5.11 104.01, 2.1 93.43 C-0.9 82.84, -2.71 68.59, -1.05 57.72 C0.61 46.86, 7.03 36.35, 12.05 28.24 C17.07 20.13, 21.53 14.23, 29.07 9.07 C36.6 3.9, 48.88 -2.45, 57.26 -2.75 C65.65 -3.04, 75.99 4.8, 79.38 7.31 C82.77 9.81, 78.45 10.82, 77.6 12.3" stroke="#000000" stroke-width="4" fill="none"></path>
    </g>
    <g transform="translate(99 136.66666666666606) rotate(0 14.5 22.5)">
        <text x="14.5" y="32" font-family="Virgil, Segoe UI Emoji" font-size="36px" fill="#000000" text-anchor="middle" style="white-space: pre;" direction="ltr">G</text>
    </g>
    <g stroke-linecap="round" transform="translate(53.33333333333394 265.66666666666697) rotate(0 58.5 68.5)">
        <path d="M33.89 6.39 C41.51 1.05, 52.29 0.49, 61.3 0.71 C70.31 0.93, 80.43 2.75, 87.96 7.72 C95.49 12.69, 101.71 21.35, 106.46 30.53 C111.2 39.71, 115.57 52.06, 116.42 62.82 C117.26 73.57, 114.94 85.66, 111.54 95.06 C108.14 104.45, 102.89 112.47, 96 119.2 C89.12 125.93, 79.24 133.2, 70.23 135.45 C61.22 137.7, 50.51 135.54, 41.93 132.7 C33.36 129.86, 25.29 125.59, 18.76 118.39 C12.23 111.2, 6.05 99.78, 2.75 89.53 C-0.54 79.29, -2.34 67.38, -1 56.92 C0.33 46.46, 2.78 35.85, 10.75 26.77 C18.73 17.7, 38.84 7.01, 46.84 2.47 C54.84 -2.07, 58.37 -1.75, 58.75 -0.47 M99.07 16.44 C106.24 23.34, 108.78 37.5, 111.58 47.16 C114.37 56.81, 116.24 64.29, 115.84 74.38 C115.45 84.48, 114.23 98.31, 109.21 107.73 C104.19 117.15, 94.22 126.16, 85.73 130.91 C77.23 135.67, 67.71 136.12, 58.24 136.25 C48.76 136.38, 36.88 136.38, 28.87 131.71 C20.86 127.04, 14.77 117.66, 10.19 108.25 C5.62 98.84, 2.47 85.91, 1.39 75.28 C0.32 64.64, 0.37 54.33, 3.77 44.44 C7.17 34.54, 15.1 22.71, 21.79 15.9 C28.48 9.09, 35.05 5.63, 43.9 3.57 C52.76 1.52, 65.58 1.78, 74.92 3.57 C84.27 5.36, 96.65 12.15, 99.95 14.31 C103.26 16.47, 96.1 15.19, 94.76 16.52" stroke="none" stroke-width="0" fill="#ced4da"></path>
        <path d="M13.94 25.24 C18.54 17.14, 26.43 11.65, 34.69 7.74 C42.96 3.83, 54.81 1.13, 63.52 1.77 C72.24 2.42, 79.63 6.34, 86.96 11.62 C94.29 16.9, 102.84 24.57, 107.52 33.43 C112.2 42.29, 114.35 54.19, 115.04 64.79 C115.74 75.39, 115.14 87.51, 111.68 97.01 C108.21 106.51, 101.21 115.29, 94.26 121.79 C87.31 128.3, 78.79 134.3, 70 136.05 C61.21 137.79, 50.28 135.21, 41.52 132.24 C32.76 129.28, 24.21 125.25, 17.44 118.25 C10.67 111.25, 3.78 100.8, 0.89 90.26 C-1.99 79.73, -5.25 69, 0.14 55.01 C5.52 41.03, 23.81 15.42, 33.22 6.38 C42.63 -2.66, 56.7 -0.25, 56.6 0.79 M79.1 2.99 C87.47 6.22, 97.16 15.84, 103.66 24.12 C110.16 32.39, 115.88 42.54, 118.11 52.66 C120.34 62.77, 120.01 74.08, 117.06 84.79 C114.11 95.51, 106.94 109.01, 100.41 116.95 C93.89 124.89, 85.98 128.78, 77.92 132.43 C69.86 136.08, 61.48 140.27, 52.06 138.85 C42.65 137.43, 29.3 130.8, 21.43 123.94 C13.55 117.07, 7.97 107.57, 4.83 97.65 C1.68 87.73, 1.85 75.07, 2.54 64.42 C3.22 53.78, 4.56 42.92, 8.94 33.77 C13.31 24.61, 21.08 15.12, 28.79 9.48 C36.51 3.83, 46.48 0.22, 55.23 -0.1 C63.98 -0.41, 77.19 6.8, 81.31 7.57 C85.42 8.35, 80.79 3.63, 79.92 4.58" stroke="#000000" stroke-width="4" fill="none"></path>
    </g>
    <g transform="translate(97.33333333333394 311.66666666666697) rotate(0 14.5 22.5)">
        <text x="14.5" y="32" font-family="Virgil, Segoe UI Emoji" font-size="36px" fill="#000000" text-anchor="middle" style="white-space: pre;" direction="ltr">G</text>
    </g>
    <g stroke-linecap="round" transform="translate(406.66666666666697 430.66666666666424) rotate(0 129.99999999999955 276.66666666666697)">
        <path d="M31.25 1.21 L238.42 0.25 L252.01 9.04 L257.23 21.71 L260.02 32.25 L260.47 520.37 L256.68 543.36 L239.11 548.7 L225.48 549.83 L33.65 550.64 L15.47 548.57 L-1.32 531.73 L-0.24 520.06 L2.83 35.09 L0.02 18.92 L10.82 8.81 L17.98 0.68 L33.39 -0.11" stroke="none" stroke-width="0" fill="#868e96"></path>
        <path d="M32 0 M32 0 C111.7 2.81, 191.31 6.25, 228 0 M32 0 C103.2 -4.77, 173.01 -2.27, 228 0 M228 0 C250.42 -0.46, 263.85 10.56, 260 32 M228 0 C245.05 -0.66, 258.18 10.09, 260 32 M260 32 C256.16 203.32, 255.28 372.5, 260 521.33 M260 32 C260.42 177.64, 258.89 324.73, 260 521.33 M260 521.33 C259.21 540.58, 245.92 555.15, 228 553.33 M260 521.33 C263.64 547.19, 249.35 551.92, 228 553.33 M228 553.33 C155.31 545.75, 82.08 549.87, 32 553.33 M228 553.33 C184.71 554.99, 138.67 552.98, 32 553.33 M32 553.33 C12.9 550.19, -0.53 540.18, 0 521.33 M32 553.33 C7.52 550.61, -1.58 544.96, 0 521.33 M0 521.33 C3.47 333.4, 2.32 141.62, 0 32 M0 521.33 C-2.68 410.06, -2.53 298.81, 0 32 M0 32 C3.7 7.71, 11.14 -2.1, 32 0 M0 32 C3.04 13.03, 6.09 -2.65, 32 0" stroke="#000000" stroke-width="4" fill="none"></path>
    </g>
    <g stroke-linecap="round" transform="translate(460 798.9999999999982) rotate(0 60.5 78.5)">
        <path d="M30.35 12.15 C37.1 6.03, 46.19 2.8, 55 1.88 C63.8 0.96, 75.01 2.91, 83.17 6.62 C91.34 10.33, 98.17 16.1, 103.99 24.14 C109.81 32.19, 115.17 44.14, 118.1 54.91 C121.03 65.68, 122.67 77.58, 121.58 88.78 C120.49 99.99, 116.94 112.75, 111.57 122.16 C106.21 131.57, 97.13 139.72, 89.41 145.25 C81.7 150.77, 74.1 154.27, 65.29 155.32 C56.48 156.37, 44.8 155.54, 36.55 151.55 C28.3 147.55, 21.74 139.92, 15.77 131.37 C9.8 122.82, 3.59 111, 0.74 100.23 C-2.11 89.45, -2.66 77.52, -1.33 66.71 C0 55.89, -3.43 46.51, 8.72 35.33 C20.87 24.15, 55.73 0.42, 71.56 -0.38 C87.4 -1.19, 103.74 28.71, 103.73 30.49 M13.58 26.03 C19.24 16.63, 31.13 9.92, 38.86 6.02 C46.6 2.12, 51.66 2.14, 59.96 2.62 C68.27 3.11, 80.26 4.17, 88.72 8.94 C97.17 13.72, 105.62 22.59, 110.69 31.27 C115.76 39.95, 117.3 49.86, 119.12 61.02 C120.94 72.18, 123.56 86.66, 121.61 98.21 C119.67 109.75, 113.81 121.64, 107.48 130.31 C101.14 138.97, 91.7 145.42, 83.6 150.2 C75.51 154.99, 67.61 159.47, 58.89 159.01 C50.16 158.56, 38.81 152.68, 31.27 147.49 C23.73 142.31, 18.41 136.44, 13.64 127.89 C8.88 119.34, 5.13 108.04, 2.69 96.2 C0.25 84.37, -2.64 68.55, -0.98 56.87 C0.68 45.19, 9.93 30.59, 12.64 26.14 C15.34 21.69, 14.26 29.28, 15.22 30.19" stroke="none" stroke-width="0" fill="#ced4da"></path>
        <path d="M47.24 3.16 C54.87 -0.1, 65.26 0.05, 73.73 2.89 C82.2 5.72, 91.29 12.85, 98.06 20.18 C104.83 27.52, 110.27 36.52, 114.35 46.9 C118.42 57.28, 122.24 71.47, 122.5 82.48 C122.77 93.49, 119.89 103.33, 115.95 112.97 C112.02 122.61, 106.03 133.54, 98.89 140.32 C91.75 147.1, 81.86 151.33, 73.1 153.65 C64.33 155.96, 54.77 156.84, 46.3 154.21 C37.84 151.59, 29.19 145.09, 22.3 137.92 C15.4 130.76, 8.61 121.48, 4.94 111.23 C1.27 100.99, 0.27 87.89, 0.27 76.45 C0.27 65.01, 0.8 53.01, 4.94 42.59 C9.08 32.18, 15.63 21.19, 25.08 13.96 C34.53 6.74, 54.02 0.79, 61.66 -0.76 C69.29 -2.3, 71.28 3.2, 70.91 4.7 M42.68 4.07 C50.32 -0.38, 57.77 -2.25, 65.92 -0.71 C74.07 0.82, 83.86 6.43, 91.56 13.28 C99.27 20.14, 107.45 30.44, 112.16 40.42 C116.86 50.4, 119.19 62.45, 119.77 73.17 C120.35 83.89, 118.21 94.45, 115.64 104.74 C113.08 115.02, 110.53 126.52, 104.4 134.89 C98.26 143.26, 87.02 151.85, 78.83 154.96 C70.63 158.08, 63.8 155.58, 55.22 153.58 C46.65 151.57, 35.34 148.28, 27.37 142.95 C19.4 137.62, 12.35 130.85, 7.41 121.61 C2.47 112.37, -1.39 98.84, -2.26 87.53 C-3.12 76.21, -0.94 64.21, 2.22 53.7 C5.38 43.2, 10.22 32.64, 16.7 24.49 C23.18 16.34, 36.47 7.99, 41.1 4.79 C45.73 1.6, 44.36 4.6, 44.46 5.34" stroke="#000000" stroke-width="4" fill="none"></path>
    </g>
    <g transform="translate(506 854.9999999999982) rotate(0 14.5 22.5)">
        <text x="14.5" y="32" font-family="Virgil, Segoe UI Emoji" font-size="36px" fill="#000000" text-anchor="middle" style="white-space: pre;" direction="ltr">G</text>
    </g>
    <g stroke-linecap="round" transform="translate(446.66666666666606 463.9999999999982) rotate(0 85 65)">
        <path d="M34.47 -2.19 L138.84 -3.14 L152.72 5.28 L159.44 5.98 L165.3 21.43 L171.52 33.8 L171.55 106.53 L159.48 123.04 L148.9 131.76 L141.78 133.35 L35.83 126.25 L14.92 131.34 L8.89 122.06 L3.98 108.04 L-1.32 22.19 L8.1 5.4 L19.87 2.59 L29.49 -0.65" stroke="none" stroke-width="0" fill="#be4bdb"></path>
        <path d="M32 0 M32 0 C68.38 3.38, 103.91 1.59, 138 0 M32 0 C66.05 -1.76, 101.05 0.5, 138 0 M138 0 C160.26 -3.08, 170.8 10.59, 170 32 M138 0 C162.62 0.22, 170.02 9.62, 170 32 M170 32 C168.06 50.32, 172.58 74.36, 170 98 M170 32 C168.61 49.68, 169.94 68.52, 170 98 M170 98 C167.44 116.95, 161.94 128.21, 138 130 M170 98 C166.27 116.39, 155.45 133.52, 138 130 M138 130 C99.47 132.74, 70.6 130.74, 32 130 M138 130 C112.1 127.79, 85.75 130.13, 32 130 M32 130 C9.47 130, 1.91 121.17, 0 98 M32 130 C14.03 129.58, -0.9 120.12, 0 98 M0 98 C-1.57 84.43, 1.94 69, 0 32 M0 98 C0.09 83.44, 0.57 62.98, 0 32 M0 32 C0.03 10.58, 7.6 -3.87, 32 0 M0 32 C0.44 8.34, 7.55 1.6, 32 0" stroke="#000000" stroke-width="4" fill="none"></path>
    </g>
    <g transform="translate(493.33333333333394 476.27586206896376) rotate(0 30 49)">
        <text x="30" y="69" font-family="Virgil, Segoe UI Emoji" font-size="77.37931034482833px" fill="#000000" text-anchor="middle" style="white-space: pre;" direction="ltr">M</text>
    </g>
    <g stroke-linecap="round" transform="translate(416.66666666666515 10) rotate(0 113.5 82)">
        <path d="M20.79 35.98 C27.47 27.12, 41.99 18.41, 53.97 12.52 C65.95 6.63, 78.55 2.52, 92.66 0.66 C106.77 -1.21, 124.41 -1.25, 138.64 1.31 C152.87 3.87, 166.43 10.24, 178.04 16.01 C189.65 21.78, 200.14 27.05, 208.31 35.93 C216.48 44.82, 224.66 58.81, 227.08 69.32 C229.51 79.84, 226.16 88.87, 222.86 99.03 C219.55 109.19, 215.57 121.38, 207.27 130.3 C198.96 139.22, 185.33 147.08, 173.03 152.56 C160.72 158.04, 147.68 161.77, 133.44 163.17 C119.21 164.58, 101.96 163.24, 87.62 161 C73.29 158.77, 58.97 155.42, 47.44 149.76 C35.92 144.09, 25.88 136.14, 18.46 127.02 C11.05 117.9, 5.84 105.34, 2.93 95.04 C0.03 84.74, -5.52 77.58, 1.01 65.22 C7.54 52.86, 31.37 30.35, 42.1 20.86 C52.84 11.38, 64.34 7.69, 65.43 8.3 M113.65 2.44 C127.99 0.99, 148.4 3.93, 161.81 7.28 C175.23 10.62, 184.34 15.15, 194.15 22.5 C203.96 29.85, 214.89 40.77, 220.68 51.37 C226.47 61.96, 229.69 75.59, 228.9 86.08 C228.11 96.57, 221.87 105.18, 215.93 114.3 C209.99 123.43, 203.9 133.51, 193.28 140.82 C182.66 148.12, 166.13 154.6, 152.22 158.13 C138.3 161.66, 123.9 162.06, 109.79 162 C95.68 161.93, 80.33 161.53, 67.55 157.74 C54.77 153.96, 42.91 146.76, 33.11 139.27 C23.32 131.78, 14.08 122.46, 8.77 112.82 C3.47 103.19, 0.93 91.88, 1.26 81.46 C1.59 71.05, 5.08 60.11, 10.77 50.35 C16.45 40.59, 25.02 30.3, 35.36 22.92 C45.7 15.53, 59.74 9.8, 72.81 6.05 C85.88 2.3, 107.09 1.32, 113.78 0.41 C120.47 -0.49, 113.02 -0.54, 112.96 0.62" stroke="none" stroke-width="0" fill="#fa5252"></path>
        <path d="M122.97 -1.68 C136.91 -2.24, 152.12 3.74, 164.51 8.84 C176.91 13.94, 188.17 21.3, 197.34 28.92 C206.51 36.54, 214.33 44.65, 219.54 54.55 C224.76 64.45, 229.23 77.89, 228.64 88.32 C228.06 98.75, 222.96 107.86, 216.03 117.14 C209.1 126.42, 197.94 136.56, 187.04 144 C176.14 151.44, 164.02 158.31, 150.6 161.79 C137.19 165.28, 121.21 166.1, 106.57 164.93 C91.93 163.75, 76.2 159.79, 62.74 154.77 C49.28 149.75, 35.21 142.68, 25.79 134.81 C16.37 126.93, 10.27 117.15, 6.21 107.5 C2.16 97.85, 0.27 87.3, 1.46 76.89 C2.66 66.48, 6.96 54.8, 13.37 45.04 C19.79 35.28, 29.25 25.19, 39.96 18.31 C50.67 11.44, 57.37 5.64, 77.64 3.77 C97.9 1.9, 142.08 3.51, 161.57 7.1 C181.06 10.68, 195.09 23.73, 194.56 25.27 M144.68 4.44 C158.35 5.73, 174.19 11.91, 185.27 18.04 C196.34 24.18, 204.28 32.4, 211.14 41.24 C218.01 50.09, 224.77 60.15, 226.46 71.11 C228.15 82.07, 225.11 96.67, 221.3 106.99 C217.49 117.32, 212.54 125.57, 203.59 133.09 C194.64 140.61, 180.68 147.32, 167.6 152.11 C154.52 156.91, 138.84 160.78, 125.11 161.86 C111.37 162.95, 98.9 160.72, 85.19 158.61 C71.47 156.51, 54.94 154.99, 42.84 149.23 C30.73 143.47, 19.86 133.52, 12.56 124.06 C5.25 114.6, -0.06 102.94, -0.99 92.46 C-1.93 81.98, 2.7 71, 6.95 61.18 C11.2 51.35, 16.03 41.79, 24.52 33.52 C33.01 25.25, 45.75 16.93, 57.89 11.56 C70.02 6.19, 82.54 2.71, 97.32 1.33 C112.11 -0.05, 138.91 2.66, 146.57 3.29 C154.23 3.92, 144.07 3.64, 143.28 5.12" stroke="#000000" stroke-width="4" fill="none"></path>
    </g>
    <g transform="translate(489.16666666666515 27.010989010986123) rotate(0 37.5 71)">
        <text x="37.5" y="99" font-family="Virgil, Segoe UI Emoji" font-size="111.74505494505577px" fill="#000000" text-anchor="middle" style="white-space: pre;" direction="ltr">P</text>
    </g>
    <g stroke-linecap="round">
        <g transform="translate(676.6666666666661 701.6808204816698) rotate(0 257.39974870948436 3.4822775183288286)">
            <path d="M-0.12 1.09 C86.29 2.28, 432.33 7.15, 518.42 7.75 M-3.62 -0.78 C82.45 -0.42, 430.21 2.54, 516.44 3.88" stroke="#000000" stroke-width="4" fill="none"></path>
        </g>
        <g transform="translate(676.6666666666661 701.6808204816698) rotate(0 257.39974870948436 3.4822775183288286)">
            <path d="M29.77 -8.12 C22.75 -8.05, 9.84 -2.69, -1.62 1.7 M27.43 -7.7 C21.17 -6.31, 13.89 -4.35, -0.76 1.07" stroke="#000000" stroke-width="4" fill="none"></path>
        </g>
        <g transform="translate(676.6666666666661 701.6808204816698) rotate(0 257.39974870948436 3.4822775183288286)">
            <path d="M29.49 12.4 C22.46 6.31, 9.64 5.51, -1.62 1.7 M27.16 12.82 C21.19 9.34, 13.97 6.43, -0.76 1.07" stroke="#000000" stroke-width="4" fill="none"></path>
        </g>
    </g>
    <mask></mask>
    <g transform="translate(720.6296296296305 754.6666666666661) rotate(0 252 45.5)">
        <text x="252" y="64" font-family="Virgil, Segoe UI Emoji" font-size="71.84716732542837px" fill="#000000" text-anchor="middle" style="white-space: pre;" direction="ltr">In system call</text>
    </g>
    <g stroke-linecap="round">
        <g transform="translate(530 187.33333333333212) rotate(0 -2.0716923648992633 117.80452063569192)">
            <path d="M1.15 -2.46 C0.59 36.49, -3.19 195.36, -4.33 235.22 M-1.67 2.37 C-2.3 41.54, -4.42 198.49, -5.29 238.07" stroke="#000000" stroke-width="4" fill="none"></path>
        </g>
    </g>
    <mask></mask>
    <g stroke-linecap="round">
        <g transform="translate(230 110.66666666666606) rotate(0 89.91331838828864 -1.7414122726768255)">
            <path d="M1.5 -2.02 C30.82 -1.9, 148.78 -1.71, 178.33 -1.46" stroke="#000000" stroke-width="4.5" fill="none" stroke-dasharray="8 12"></path>
        </g>
    </g>
    <mask></mask>
    <g stroke-linecap="round">
        <g transform="translate(516.6666666666661 600.6666666666633) rotate(0 0.8862989426033892 106.541419819358)">
            <path d="M-1.35 0.39 C-1.24 35.89, 1.16 179.86, 2.36 214.96 M3.12 -1.87 C2.6 32.65, -0.79 175.05, -0.4 210.83" stroke="#000000" stroke-width="4" fill="none"></path>
        </g>
    </g>
    <mask></mask>
</svg>