<svg version="1.1"
    xmlns="http://www.w3.org/2000/svg" viewBox="0 0 1849.5587534614497 1600.0070098698934" width="3699.1175069228993" height="3200.014019739787" filter="invert(93%) hue-rotate(180deg)">
    <!-- svg-source:excalidraw -->

    <defs>
        <style class="style-fonts">
      @font-face {
        font-family: "Virgil";
        src: url("https://excalidraw.com/Virgil.woff2");
      }
      @font-face {
        font-family: "Cascadia";
        src: url("https://excalidraw.com/Cascadia.woff2");
      }
        </style>
    </defs>
    <rect x="0" y="0" width="1849.5587534614497" height="1600.0070098698934" fill="#e3fafc"></rect>
    <g stroke-linecap="round" transform="translate(263.09960204131676 725.8183186968304) rotate(0 67.18030430434192 54.071952244957856)">
        <path d="M29.39 -1.89 L115.17 1.35 L128.61 3.03 L132.89 12.63 L134.03 26.16 L130.8 91.08 L129.78 104.33 L121.92 103.27 L109.74 107.11 L22.08 106.87 L3.09 102.72 L0.6 89.21 L2.37 23.85 L9.45 7.49 L14.55 -1.87 L23.59 1.03" stroke="none" stroke-width="0" fill="#be4bdb"></path>
        <path d="M27.04 0 M27.04 0 C45.02 -2.9, 70.04 -1.94, 107.32 0 M27.04 0 C47.43 -1.58, 66.86 -0.71, 107.32 0 M107.32 0 C125.05 -3.46, 132.34 10.84, 134.36 27.04 M107.32 0 C123.69 -0.69, 137.97 5.74, 134.36 27.04 M134.36 27.04 C136.08 51.48, 135.43 65.74, 134.36 81.11 M134.36 27.04 C134.36 46.89, 133.54 61.56, 134.36 81.11 M134.36 81.11 C130.86 95.18, 126.52 108.76, 107.32 108.14 M134.36 81.11 C132.49 96.66, 125.07 110.34, 107.32 108.14 M107.32 108.14 C81.25 109.03, 50.45 111.17, 27.04 108.14 M107.32 108.14 C90.16 109.73, 71.09 110.46, 27.04 108.14 M27.04 108.14 C6.76 104.62, 0.12 97.28, 0 81.11 M27.04 108.14 C12.16 107.51, -4.56 101.35, 0 81.11 M0 81.11 C1.11 58.4, -2.32 40.07, 0 27.04 M0 81.11 C1.52 70.59, -1.13 56.63, 0 27.04 M0 27.04 C-2.81 6.91, 9.89 0.85, 27.04 0 M0 27.04 C4.19 5.97, 13.11 1.73, 27.04 0" stroke="#000000" stroke-width="4" fill="none"></path>
    </g>
    <g transform="translate(318.7799063456587 761.3902709417885) rotate(0 11.5 18.5)">
        <text x="11.5" y="26" font-family="Virgil, Segoe UI Emoji" font-size="29.071311103328608px" fill="#000000" text-anchor="middle" style="white-space: pre;" direction="ltr">M</text>
    </g>
    <g stroke-linecap="round">
        <g transform="translate(312.98393188922273 844.3124848696057) rotate(0 -0.694427449034265 75.9741482069328)">
            <path d="M-2.2 2.55 C-2.03 27.55, 0.24 125.64, 0.81 149.4" stroke="#000000" stroke-width="4.5" fill="none" stroke-dasharray="8 12"></path>
        </g>
        <g transform="translate(312.98393188922273 844.3124848696057) rotate(0 -0.694427449034265 75.9741482069328)">
            <path d="M-6.46 123.63 C-4.1 132.55, -7.04 140.35, -0.23 150.78" stroke="#000000" stroke-width="4.5" fill="none"></path>
        </g>
        <g transform="translate(312.98393188922273 844.3124848696057) rotate(0 -0.694427449034265 75.9741482069328)">
            <path d="M14.05 123.16 C10.43 131.89, 1.5 139.83, -0.23 150.78" stroke="#000000" stroke-width="4.5" fill="none"></path>
        </g>
    </g>
    <mask></mask>
    <g stroke-linecap="round" transform="translate(246.980529016947 507.28812674879237) rotate(0 61.445400278361376 61.445400278361376)">
        <path d="M97.29 9.1 C104.84 13.27, 109.43 23.16, 113.54 31.91 C117.65 40.67, 121.52 52.46, 121.95 61.64 C122.38 70.82, 120.06 78.53, 116.11 86.97 C112.16 95.42, 106.27 106.28, 98.28 112.32 C90.28 118.35, 77.7 122.35, 68.12 123.2 C58.54 124.04, 49.73 121.01, 40.8 117.38 C31.87 113.75, 21.31 108.25, 14.57 101.41 C7.82 94.57, 2.51 85.11, 0.3 76.35 C-1.91 67.6, -1.24 58.3, 1.31 48.9 C3.85 39.5, 9.65 27.6, 15.59 19.95 C21.53 12.3, 28.43 6.21, 36.94 3.02 C45.44 -0.18, 53.07 -5.25, 66.63 0.76 C80.2 6.76, 109.54 26.88, 118.34 39.04 C127.14 51.21, 120.3 73.56, 119.42 73.73 M59.99 2.87 C68.84 1.78, 79.73 4.49, 87.59 8.31 C95.45 12.14, 101.23 18.6, 107.15 25.81 C113.08 33.01, 120.57 42.91, 123.14 51.57 C125.72 60.23, 126.02 68.44, 122.62 77.75 C119.22 87.05, 110.41 100.59, 102.75 107.4 C95.08 114.21, 85.19 116.28, 76.62 118.63 C68.05 120.99, 60.67 123.05, 51.34 121.52 C42 120, 27.82 115.58, 20.62 109.5 C13.41 103.41, 11.56 93.67, 8.13 85 C4.69 76.32, 0.22 66.34, 0.01 57.45 C-0.21 48.55, 2.29 39.41, 6.83 31.62 C11.37 23.83, 18.82 15.57, 27.23 10.71 C35.63 5.85, 52.37 4.18, 57.28 2.47 C62.18 0.75, 56.61 -0.28, 56.67 0.43" stroke="none" stroke-width="0" fill="#228be6"></path>
        <path d="M100.16 14.84 C107.89 19.41, 113.88 27.28, 117.74 35.97 C121.6 44.65, 123.94 57, 123.32 66.95 C122.7 76.9, 119 87.45, 114 95.66 C109.01 103.88, 101.69 111.77, 93.33 116.24 C84.96 120.72, 73.88 122.73, 63.8 122.53 C53.73 122.33, 41.43 119.23, 32.89 115.03 C24.35 110.82, 17.9 104.88, 12.55 97.3 C7.21 89.71, 2.63 79.16, 0.81 69.54 C-1.01 59.92, -1.47 48.6, 1.63 39.57 C4.72 30.53, 12.3 21.37, 19.36 15.31 C26.43 9.26, 34.72 5.63, 44 3.23 C53.27 0.83, 62.11 -6.97, 74.99 0.92 C87.87 8.82, 115.16 35.01, 121.27 50.59 C127.38 66.18, 112.78 94.16, 111.64 94.45 M90.85 4.14 C100.01 7.04, 108.79 14.79, 113.81 23.13 C118.84 31.48, 119.64 44.22, 120.99 54.2 C122.33 64.17, 125.28 74.16, 121.88 82.99 C118.49 91.83, 107.82 100.76, 100.61 107.21 C93.41 113.67, 87.44 118.86, 78.66 121.73 C69.88 124.6, 57.65 126.96, 47.92 124.45 C38.19 121.95, 27.94 113.81, 20.28 106.71 C12.63 99.6, 5.18 90.27, 1.99 81.84 C-1.2 73.42, 0.02 65.43, 1.14 56.18 C2.27 46.93, 3.7 34.15, 8.72 26.33 C13.73 18.52, 22.48 14.08, 31.22 9.28 C39.95 4.47, 51.85 -2.21, 61.12 -2.5 C70.4 -2.79, 82.19 6.06, 86.88 7.54 C91.57 9.01, 88.95 6, 89.26 6.35" stroke="#000000" stroke-width="4" fill="none"></path>
    </g>
    <g transform="translate(298.4259292953084 550.2335270271537) rotate(0 10 18.5)">
        <text x="10" y="26" font-family="Virgil, Segoe UI Emoji" font-size="29.029063000300123px" fill="#000000" text-anchor="middle" style="white-space: pre;" direction="ltr">P</text>
    </g>
    <g stroke-linecap="round" transform="translate(10 510.7517269343666) rotate(0 69.63812031547604 259.0268515834032)">
        <path d="M34.18 2.94 L117.55 -2.68 L133.69 6.96 L140.16 23.65 L135.61 487.39 L134.95 507.32 L128.72 516.7 L117.47 518.28 L23.84 513.99 L4.55 511.09 L-0.86 493.73 L-2.58 28.62 L-1.94 18.28 L5.02 6.37 L19.87 3.57 L31.17 -1.91" stroke="none" stroke-width="0" fill="#12b886"></path>
        <path d="M32 0 M32 0 C44.3 -1.9, 65.35 -1.33, 107.28 0 M107.28 0 C128.01 3.14, 136.44 14.38, 139.28 32 M139.28 32 C139.03 138.41, 135.71 243.68, 139.28 486.05 M139.28 486.05 C140.44 508.79, 127.98 522.01, 107.28 518.05 M107.28 518.05 C85 517.91, 71.25 515.11, 32 518.05 M32 518.05 C8.51 517.81, 1.91 509.21, 0 486.05 M0 486.05 C3.15 387.37, 4.17 288.61, 0 32 M0 32 C3.08 11.67, 13.01 2.38, 32 0" stroke="#000000" stroke-width="4.5" fill="none" stroke-dasharray="1.5 10"></path>
    </g>
    <g stroke-linecap="round">
        <g transform="translate(169.96896066806767 576.106975060557) rotate(0 34.674644761448235 -0.024960715497172714)">
            <path d="M0.93 0.12 C12.43 0.5, 57.01 -0.3, 68.42 -0.28" stroke="#000000" stroke-width="4.5" fill="none" stroke-dasharray="8 12"></path>
        </g>
    </g>
    <mask></mask>
    <g stroke-linecap="round">
        <g transform="translate(324.786961595938 621.3038336752625) rotate(0 1.5938519764104058 48.38639953273059)">
            <path d="M0.12 1.24 C1.06 17, 2.49 80.1, 3.07 95.54" stroke="#000000" stroke-width="4.5" fill="none" stroke-dasharray="8 12"></path>
        </g>
    </g>
    <mask></mask>
    <g stroke-linecap="round" transform="translate(254.52310147902153 999.479817896748) rotate(0 44.167076406409706 39.7503687657686)">
        <path d="M61.82 2.36 C68.59 5, 75.74 11.59, 80.12 18.15 C84.5 24.71, 87.86 34.69, 88.11 41.74 C88.36 48.78, 86.34 54.89, 81.64 60.42 C76.93 65.94, 67.55 71.74, 59.9 74.9 C52.26 78.06, 43.27 80.04, 35.76 79.39 C28.26 78.73, 20.79 75.56, 14.86 70.97 C8.93 66.37, 2.18 58.95, 0.18 51.8 C-1.82 44.65, 0.23 35.03, 2.86 28.06 C5.49 21.1, 9.84 14.42, 15.96 10 C22.08 5.57, 30.83 2.21, 39.59 1.53 C48.34 0.85, 63.27 5.18, 68.5 5.92 C73.73 6.67, 71.44 5.37, 70.97 6.01 M54.34 3.75 C60.89 5.19, 68.73 6.91, 74.53 11.86 C80.34 16.81, 87.94 26.11, 89.16 33.44 C90.39 40.77, 84.86 49.48, 81.87 55.85 C78.89 62.22, 77.49 67.71, 71.25 71.67 C65.02 75.63, 53.25 78.92, 44.44 79.59 C35.64 80.25, 25.58 79.16, 18.4 75.67 C11.23 72.18, 4.55 65.11, 1.41 58.64 C-1.73 52.17, -1.71 44.42, -0.44 36.83 C0.83 29.24, 3.85 18.88, 9.02 13.11 C14.18 7.34, 22.31 3.85, 30.54 2.22 C38.77 0.58, 53.8 3.49, 58.39 3.32 C62.98 3.15, 58.74 1.03, 58.08 1.18" stroke="none" stroke-width="0" fill="#ced4da"></path>
        <path d="M6.58 18.67 C10.36 12.87, 19.97 6.25, 27.24 2.92 C34.51 -0.41, 42.47 -2.49, 50.19 -1.31 C57.9 -0.14, 67.73 5.06, 73.53 9.97 C79.34 14.88, 82.72 21.34, 85.01 28.15 C87.29 34.95, 89.38 43.56, 87.26 50.83 C85.13 58.1, 78.75 66.73, 72.26 71.77 C65.78 76.8, 56.41 80.53, 48.34 81.04 C40.27 81.54, 30.59 77.95, 23.84 74.83 C17.09 71.71, 11.69 68.58, 7.86 62.32 C4.04 56.05, 0.46 45.09, 0.91 37.24 C1.35 29.38, 8.35 19.4, 10.56 15.2 C12.77 10.99, 13.37 11.85, 14.16 11.98 M19.65 7.69 C25.71 3.55, 33.34 -1.45, 41.12 -1.58 C48.89 -1.72, 59 3.41, 66.3 6.88 C73.6 10.35, 81.55 12.87, 84.92 19.23 C88.28 25.59, 87.32 37.66, 86.5 45.03 C85.69 52.41, 84.23 58.45, 80.03 63.49 C75.82 68.52, 68.65 72.65, 61.28 75.24 C53.9 77.84, 43.72 80.15, 35.8 79.07 C27.88 78, 19.51 73.65, 13.77 68.79 C8.03 63.93, 3.41 57.68, 1.38 49.9 C-0.65 42.13, -1.33 29.46, 1.58 22.11 C4.49 14.77, 15.56 8.28, 18.86 5.84 C22.15 3.4, 21.41 6.45, 21.33 7.47" stroke="#000000" stroke-width="4" fill="none"></path>
    </g>
    <g transform="translate(288.1901778854308 1022.7301866625171) rotate(0 10.5 16.5)">
        <text x="10.5" y="23" font-family="Virgil, Segoe UI Emoji" font-size="25.63663182964986px" fill="#000000" text-anchor="middle" style="white-space: pre;" direction="ltr">G</text>
    </g>
    <g stroke-linecap="round" transform="translate(245 10) rotate(0 746.2499999999995 121.25)">
        <path d="M31.7 -3.46 L1465.98 2.32 L1483.06 7.4 L1495.14 21.66 L1495.71 215.3 L1482.86 236.95 L1477.71 242.3 L1456.73 243.72 L25.66 243.4 L7.37 238.45 L-1.76 215.55 L-3.5 28.05 L3.17 18.61 L6.38 5.85 L17.76 3.91 L33.83 -3.36" stroke="none" stroke-width="0" fill="#ced4da"></path>
        <path d="M32 0 M32 0 C383.48 -3.43, 734.91 -3.75, 1460.5 0 M1460.5 0 C1482.83 2.34, 1494.88 11.51, 1492.5 32 M1492.5 32 C1490.61 100.78, 1493.23 172.7, 1492.5 210.5 M1492.5 210.5 C1488.54 233.76, 1483.79 238.71, 1460.5 242.5 M1460.5 242.5 C965.92 230.21, 472.6 230.78, 32 242.5 M32 242.5 C10.25 244.53, 1.82 228.56, 0 210.5 M0 210.5 C3.39 172.3, 6.14 129.76, 0 32 M0 32 C3.57 12.17, 11.55 -0.22, 32 0" stroke="#000000" stroke-width="4.5" fill="none" stroke-dasharray="8 12"></path>
    </g>
    <g stroke-linecap="round" transform="translate(470 57.5) rotate(0 436.24999999999955 75)">
        <path d="M28.54 -2.02 L849.82 -0.94 L863.9 11.14 L869.16 28.21 L869.3 123.86 L866.95 145.21 L856.3 144.23 L841.72 151.16 L25.9 148.87 L11.95 139.74 L-1.95 122 L-3.95 33.17 L2.61 16.38 L5.85 7.76 L19.91 3.83 L28.64 -2.14" stroke="none" stroke-width="0" fill="#4c6ef5"></path>
        <path d="M32 0 M32 0 C310.15 1.06, 586.43 2.61, 840.5 0 M840.5 0 C864.17 2.38, 873.34 14.49, 872.5 32 M872.5 32 C869.13 55.7, 870.43 69.97, 872.5 118 M872.5 118 C874.43 141.29, 858.04 151.81, 840.5 150 M840.5 150 C594.95 143.17, 351.29 144.42, 32 150 M32 150 C12.7 151.82, -3.27 136.08, 0 118 M0 118 C1.75 101.88, -1.74 82.04, 0 32 M0 32 C1.5 11.55, 10.45 1.83, 32 0" stroke="#000000" stroke-width="4.5" fill="none" stroke-dasharray="8 12"></path>
    </g>
    <g transform="translate(1371.3286481364512 78.97155867284255) rotate(0 114.25 56.80939226519331)">
        <text x="114.25000000000001" y="39.80939226519336" font-family="Virgil, Segoe UI Emoji" font-size="45.447513812154696px" fill="#000000" text-anchor="middle" style="white-space: pre;" direction="ltr">Global</text>
        <text x="114.25000000000001" y="96.61878453038672" font-family="Virgil, Segoe UI Emoji" font-size="45.447513812154696px" fill="#000000" text-anchor="middle" style="white-space: pre;" direction="ltr">Run queue</text>
    </g>
    <g stroke-linecap="round" transform="translate(1029.1981448527658 817.0243208115212) rotate(0 67.18030430434192 54.071952244957856)">
        <path d="M23.39 0.14 L113.42 -3.29 L125.34 4.05 L136.46 15.06 L131.87 28.13 L134.43 88.15 L123.83 100.44 L117.1 105.8 L107.86 105.81 L21.05 108.93 L9.9 103.71 L4.34 84.13 L3.23 18.08 L7.72 3.84 L15.58 -0.2 L26.85 -1.36" stroke="none" stroke-width="0" fill="#be4bdb"></path>
        <path d="M27.04 0 M27.04 0 C59.11 4, 86.48 -2.01, 107.32 0 M27.04 0 C57.02 -0.24, 88.22 -0.57, 107.32 0 M107.32 0 C124.21 -1.58, 136.15 12.44, 134.36 27.04 M107.32 0 C123.52 -1.83, 133.83 13.21, 134.36 27.04 M134.36 27.04 C132.26 45.81, 129.78 64.91, 134.36 81.11 M134.36 27.04 C132.74 50, 133.24 70.58, 134.36 81.11 M134.36 81.11 C130.77 99.2, 121.67 104.27, 107.32 108.14 M134.36 81.11 C138.04 94.53, 121.65 111.88, 107.32 108.14 M107.32 108.14 C77.54 110.72, 48.31 112.12, 27.04 108.14 M107.32 108.14 C86.02 110.41, 67.77 108.34, 27.04 108.14 M27.04 108.14 C5.67 110.01, -0.8 97.08, 0 81.11 M27.04 108.14 C4.94 105.01, 2.25 98.91, 0 81.11 M0 81.11 C-2.61 64.52, 4.5 43.87, 0 27.04 M0 81.11 C-1.08 66.68, 1.14 50.94, 0 27.04 M0 27.04 C2.11 12.58, 9.27 0.01, 27.04 0 M0 27.04 C1.11 5.67, 9.51 0.35, 27.04 0" stroke="#000000" stroke-width="4" fill="none"></path>
    </g>
    <g transform="translate(1084.8784491571096 852.5962730564793) rotate(0 11.5 18.5)">
        <text x="11.5" y="26" font-family="Virgil, Segoe UI Emoji" font-size="29.071311103328608px" fill="#000000" text-anchor="middle" style="white-space: pre;" direction="ltr">M</text>
    </g>
    <g stroke-linecap="round" transform="translate(1029.7457384950649 617.1607955301492) rotate(0 61.445400278361376 61.445400278361376)">
        <path d="M58.4 -0.87 C66.82 -2.36, 75.47 1.61, 83.65 5.77 C91.83 9.94, 101.15 16.98, 107.47 24.12 C113.8 31.26, 119.72 39.39, 121.61 48.61 C123.5 57.83, 121.51 70.37, 118.8 79.43 C116.1 88.49, 111.99 96.47, 105.39 102.95 C98.78 109.44, 87.97 115.18, 79.17 118.35 C70.37 121.53, 61.57 123.5, 52.61 122 C43.65 120.51, 33.03 115.34, 25.43 109.37 C17.84 103.4, 11.11 94.26, 7.04 86.19 C2.98 78.12, 0.85 70.19, 1.04 60.93 C1.22 51.68, 3.67 39.39, 8.16 30.67 C12.64 21.95, 15.47 12.74, 27.93 8.63 C40.4 4.51, 69.71 3.54, 82.93 5.99 C96.16 8.43, 107.27 22.31, 107.3 23.3 M63.16 0.45 C72.28 0.24, 85.31 5.06, 93.62 10.44 C101.93 15.83, 108.38 24.91, 113.03 32.76 C117.68 40.61, 121.07 48.95, 121.51 57.53 C121.95 66.12, 119.8 75.32, 115.67 84.28 C111.54 93.25, 103.55 105.01, 96.73 111.33 C89.92 117.65, 83.33 120.3, 74.79 122.2 C66.24 124.1, 55.07 126, 45.45 122.74 C35.83 119.49, 23.84 110.24, 17.05 102.68 C10.25 95.13, 6.94 86.51, 4.67 77.41 C2.41 68.31, 2.01 56.95, 3.46 48.09 C4.91 39.23, 7.66 31.08, 13.36 24.26 C19.07 17.43, 28.7 11.15, 37.7 7.15 C46.7 3.15, 62.9 0.84, 67.36 0.26 C71.82 -0.33, 65.19 3, 64.47 3.63" stroke="none" stroke-width="0" fill="#228be6"></path>
        <path d="M59.41 0.39 C68.3 -1.02, 77.7 1.55, 86.07 5.54 C94.45 9.54, 103.6 16.84, 109.66 24.36 C115.71 31.87, 120.7 41.06, 122.39 50.61 C124.09 60.17, 122.67 72.28, 119.84 81.69 C117.02 91.1, 112.03 100.86, 105.44 107.06 C98.86 113.25, 89.5 116.65, 80.32 118.86 C71.14 121.07, 59.94 122.2, 50.37 120.3 C40.81 118.4, 30.47 113.44, 22.92 107.46 C15.36 101.48, 8.83 93.05, 5.03 84.41 C1.23 75.77, -0.87 65.06, 0.12 55.63 C1.11 46.2, 6.09 35.52, 10.97 27.82 C15.84 20.11, 16.42 13.08, 29.35 9.42 C42.28 5.76, 75.62 3.17, 88.57 5.86 C101.52 8.56, 107.75 24.74, 107.05 25.57 M58.14 -0.82 C67.09 -2.07, 77.81 3.39, 87.03 7.48 C96.24 11.57, 107.77 16.35, 113.42 23.72 C119.08 31.09, 119.49 41.7, 120.98 51.71 C122.46 61.72, 125.61 74.38, 122.32 83.78 C119.03 93.19, 108.77 102.22, 101.24 108.13 C93.72 114.03, 86.39 117.4, 77.17 119.22 C67.95 121.04, 54.62 120.79, 45.91 119.05 C37.2 117.3, 31.68 114.83, 24.91 108.76 C18.14 102.7, 8.93 91.72, 5.29 82.65 C1.66 73.58, 1.99 63.87, 3.09 54.34 C4.18 44.82, 7.2 33.7, 11.88 25.52 C16.56 17.33, 23.74 9.09, 31.19 5.24 C38.63 1.39, 52.32 3.5, 56.54 2.43 C60.76 1.37, 55.56 -2.11, 56.48 -1.15" stroke="#000000" stroke-width="4" fill="none"></path>
    </g>
    <g transform="translate(1081.1911387734253 660.1061958085106) rotate(0 10 18.5)">
        <text x="10" y="26" font-family="Virgil, Segoe UI Emoji" font-size="29.029063000300123px" fill="#000000" text-anchor="middle" style="white-space: pre;" direction="ltr">P</text>
    </g>
    <g stroke-linecap="round" transform="translate(792.765209478117 620.6243957157235) rotate(0 69.63812031547604 202.36018491673667)">
        <path d="M29.3 3.79 L114.63 -1.99 L132.37 8.49 L139.48 20.72 L138.33 370.67 L134.12 392.76 L124.44 400.57 L115.99 407.36 L26.83 408.14 L4.69 399.53 L-2.12 381.18 L-2.42 24.87 L6.11 7.82 L16.64 4.7 L30.74 -3.08" stroke="none" stroke-width="0" fill="#12b886"></path>
        <path d="M32 0 M32 0 C56.17 2.81, 86.38 -0.9, 107.28 0 M107.28 0 C128.48 -1.08, 141.48 8.94, 139.28 32 M139.28 32 C139.77 123.48, 136.43 216.76, 139.28 372.72 M139.28 372.72 C142.93 397.3, 125.37 407.44, 107.28 404.72 M107.28 404.72 C83.65 406.91, 66.74 404.07, 32 404.72 M32 404.72 C7.4 408.52, -2.25 396.87, 0 372.72 M0 372.72 C-2.66 303.19, -2.74 227.27, 0 32 M0 32 C3.25 13.34, 12.79 0.24, 32 0" stroke="#000000" stroke-width="4.5" fill="none" stroke-dasharray="1.5 10"></path>
    </g>
    <g stroke-linecap="round">
        <g transform="translate(952.7341701461846 685.9796438419139) rotate(0 32.88864248237496 -0.19254270868123058)">
            <path d="M-1.75 0.76 C9.07 0.59, 56.48 -0.64, 67.52 -1.15" stroke="#000000" stroke-width="4.5" fill="none" stroke-dasharray="8 12"></path>
        </g>
    </g>
    <mask></mask>
    <g stroke-linecap="round">
        <g transform="translate(1087.552171074054 739.1765024566198) rotate(0 -0.1888278230371725 35.51646707120017)">
            <path d="M0.76 0.34 C0.59 12.42, -0.63 58.76, -1.14 70.69" stroke="#000000" stroke-width="4.5" fill="none" stroke-dasharray="8 12"></path>
        </g>
    </g>
    <mask></mask>
    <g stroke-linecap="round" transform="translate(1705.1981448527658 815.0243208115212) rotate(0 67.18030430434192 54.071952244957856)">
        <path d="M28.32 0.95 L110.68 -1.6 L125.31 6.2 L136.4 13.23 L136.74 28.94 L135.96 90.08 L125.8 104.43 L118.92 107.54 L110.34 109.83 L22.49 108.41 L8.37 98.06 L-1.75 86.3 L-1.87 19.63 L5.34 9.77 L17.17 5.13 L26.7 2.69" stroke="none" stroke-width="0" fill="#be4bdb"></path>
        <path d="M27.04 0 M27.04 0 C56.53 -0.42, 90.56 -2.63, 107.32 0 M27.04 0 C54.71 -2.04, 77.36 0.42, 107.32 0 M107.32 0 C126.04 -0.93, 130.53 9.58, 134.36 27.04 M107.32 0 C128.41 -0.87, 131.66 5.26, 134.36 27.04 M134.36 27.04 C137.06 39.22, 138.56 56.96, 134.36 81.11 M134.36 27.04 C135.38 47.92, 134.97 68.7, 134.36 81.11 M134.36 81.11 C132.27 100.58, 126.36 105.01, 107.32 108.14 M134.36 81.11 C133.64 100.87, 122.16 109.39, 107.32 108.14 M107.32 108.14 C91.12 110.15, 69.41 107.9, 27.04 108.14 M107.32 108.14 C88.12 107.41, 69.02 109.82, 27.04 108.14 M27.04 108.14 C7.65 109.35, -2.86 101.75, 0 81.11 M27.04 108.14 C8.13 110.63, 1.18 97.34, 0 81.11 M0 81.11 C-3.08 60.37, 1.21 43.49, 0 27.04 M0 81.11 C1.53 63.19, 0.6 42.25, 0 27.04 M0 27.04 C-1.06 7.18, 12.49 3.1, 27.04 0 M0 27.04 C0.45 6.17, 12.26 2.15, 27.04 0" stroke="#000000" stroke-width="4" fill="none"></path>
    </g>
    <g transform="translate(1760.8784491571096 850.5962730564793) rotate(0 11.5 18.5)">
        <text x="11.5" y="26" font-family="Virgil, Segoe UI Emoji" font-size="29.071311103328608px" fill="#000000" text-anchor="middle" style="white-space: pre;" direction="ltr">M</text>
    </g>
    <g stroke-linecap="round">
        <g transform="translate(1755.0824747006736 933.5184869842965) rotate(0 0.1488534035520388 72.78418338723304)">
            <path d="M-1.6 -0.39 C-0.94 24.17, 1.47 121.11, 1.9 145.96" stroke="#000000" stroke-width="4.5" fill="none" stroke-dasharray="8 12"></path>
        </g>
        <g transform="translate(1755.0824747006736 933.5184869842965) rotate(0 0.1488534035520388 72.78418338723304)">
            <path d="M-9.52 121.73 C-8.78 126.81, -2.45 132.75, 4.54 144.16" stroke="#000000" stroke-width="4.5" fill="none"></path>
        </g>
        <g transform="translate(1755.0824747006736 933.5184869842965) rotate(0 0.1488534035520388 72.78418338723304)">
            <path d="M10.99 121.28 C7.11 126.23, 8.81 132.28, 4.54 144.16" stroke="#000000" stroke-width="4.5" fill="none"></path>
        </g>
    </g>
    <mask></mask>
    <g stroke-linecap="round" transform="translate(1705.7457384950649 603.1607955301492) rotate(0 61.445400278361376 61.445400278361376)">
        <path d="M112.2 25.3 C117.62 32.25, 119.87 45.92, 120.98 55.29 C122.09 64.65, 121.98 72.67, 118.86 81.47 C115.73 90.27, 109.44 101.39, 102.21 108.09 C94.99 114.8, 84.97 119.32, 75.49 121.71 C66 124.09, 54.52 124.62, 45.33 122.42 C36.13 120.22, 27.13 115.19, 20.33 108.53 C13.52 101.87, 7.72 91.55, 4.51 82.47 C1.3 73.39, 0.07 63.6, 1.06 54.03 C2.06 44.45, 5.41 32.74, 10.48 25.01 C15.54 17.28, 23.11 11.63, 31.45 7.64 C39.79 3.66, 50.72 1.31, 60.51 1.09 C70.3 0.87, 80.52 0.46, 90.2 6.34 C99.88 12.22, 113.64 30.06, 118.61 36.37 C123.58 42.69, 121.3 44.15, 120.01 44.23 M106.55 23.93 C112.92 30.44, 120.85 40.55, 122.84 49.57 C124.83 58.59, 121.7 69.54, 118.5 78.06 C115.3 86.58, 109.6 93.89, 103.63 100.66 C97.66 107.44, 91.03 115.56, 82.68 118.71 C74.32 121.87, 62.78 121.18, 53.51 119.57 C44.25 117.96, 34.71 114.62, 27.09 109.05 C19.48 103.49, 12.17 93.99, 7.82 86.18 C3.48 78.38, 1.35 70.9, 1.02 62.2 C0.69 53.5, 1.03 42.99, 5.84 33.97 C10.64 24.95, 21.93 14.08, 29.83 8.08 C37.74 2.07, 43.73 -1.76, 53.28 -2.07 C62.82 -2.38, 77.94 2.04, 87.12 6.21 C96.29 10.39, 104.45 20.7, 108.33 22.99 C112.21 25.27, 111.23 19.45, 110.38 19.92" stroke="none" stroke-width="0" fill="#228be6"></path>
        <path d="M33.31 8.67 C40.49 3.68, 50.54 1.76, 59.87 1.53 C69.2 1.29, 80.41 3.05, 89.29 7.27 C98.17 11.49, 107.48 19.09, 113.14 26.83 C118.8 34.57, 122.12 44.7, 123.25 53.72 C124.39 62.73, 123.55 72.16, 119.94 80.94 C116.33 89.72, 108.99 99.84, 101.61 106.41 C94.23 112.99, 84.81 117.68, 75.66 120.41 C66.5 123.13, 55.6 124.57, 46.69 122.77 C37.77 120.97, 29.29 115.86, 22.19 109.6 C15.08 103.34, 7.37 94.25, 4.07 85.21 C0.76 76.16, 1.14 65.23, 2.35 55.33 C3.56 45.44, 0.2 35.02, 11.32 25.83 C22.44 16.64, 54.11 1.59, 69.06 0.19 C84.01 -1.21, 101.3 16.25, 101.02 17.42 M107.53 19.8 C114.66 25.71, 117.51 32.59, 119.92 42 C122.32 51.41, 123.93 66.77, 121.96 76.27 C120 85.76, 114.69 92.18, 108.13 98.97 C101.56 105.75, 90.86 113.53, 82.58 116.99 C74.3 120.45, 67.31 120.64, 58.46 119.75 C49.61 118.86, 37.5 116.13, 29.5 111.67 C21.49 107.22, 14.94 101.47, 10.43 93.04 C5.93 84.6, 3.52 70.34, 2.46 61.07 C1.39 51.79, 0.2 45.21, 4.03 37.39 C7.85 29.57, 17.27 20.54, 25.41 14.16 C33.54 7.79, 43.33 0.82, 52.85 -0.86 C62.36 -2.54, 74.02 0.82, 82.51 4.09 C91 7.37, 99.81 16.48, 103.79 18.8 C107.77 21.13, 106.6 17.51, 106.38 18.04" stroke="#000000" stroke-width="4" fill="none"></path>
    </g>
    <g transform="translate(1757.1911387734253 646.1061958085106) rotate(0 10 18.5)">
        <text x="10" y="26" font-family="Virgil, Segoe UI Emoji" font-size="29.029063000300123px" fill="#000000" text-anchor="middle" style="white-space: pre;" direction="ltr">P</text>
    </g>
    <g stroke-linecap="round" transform="translate(1468.765209478117 606.6243957157235) rotate(0 69.63812031547604 259.0268515834032)">
        <path d="M31.44 3.73 L112.8 2.88 L133.18 10.02 L141.41 22.7 L142.33 485.83 L135.86 508.57 L128.46 515.34 L115.47 519.17 L21.18 515.38 L6.85 507.76 L-0.57 492.13 L3.01 33.96 L5.44 17.67 L10.69 11.96 L19.25 3.65 L29.47 0.24" stroke="none" stroke-width="0" fill="#12b886"></path>
        <path d="M32 0 M32 0 C51.84 0.89, 78.4 -3.45, 107.28 0 M107.28 0 C125.08 1.86, 139.97 9.73, 139.28 32 M139.28 32 C139.53 123.57, 138.34 216.62, 139.28 486.05 M139.28 486.05 C142.61 503.53, 130.41 516.17, 107.28 518.05 M107.28 518.05 C75.41 516.42, 53.4 519.85, 32 518.05 M32 518.05 C13.55 519.01, -2.09 508.84, 0 486.05 M0 486.05 C4.11 337.07, 3.9 189.77, 0 32 M0 32 C-3.49 9.08, 14.53 2.64, 32 0" stroke="#000000" stroke-width="4.5" fill="none" stroke-dasharray="1.5 10"></path>
    </g>
    <g stroke-linecap="round">
        <g transform="translate(1628.7341701461846 671.9796438419139) rotate(0 35.13157427824035 0.7865817755384796)">
            <path d="M1.67 1.33 C12.66 1.59, 57.89 0.35, 68.6 0.21" stroke="#000000" stroke-width="4.5" fill="none" stroke-dasharray="8 12"></path>
        </g>
    </g>
    <mask></mask>
    <g stroke-linecap="round">
        <g transform="translate(1783.552171074054 717.1765024566198) rotate(0 0.7905225085178245 45.07869714237722)">
            <path d="M1.33 1.42 C1.6 15.93, 0.35 74, 0.21 88.74" stroke="#000000" stroke-width="4.5" fill="none" stroke-dasharray="8 12"></path>
        </g>
    </g>
    <mask></mask>
    <g stroke-linecap="round" transform="translate(1696.6216442904715 1088.6858200114389) rotate(0 44.167076406409706 39.7503687657686)">
        <path d="M24.91 6.19 C31.72 2.6, 40.99 0.25, 48.4 0.3 C55.82 0.34, 62.99 2.2, 69.39 6.45 C75.79 10.7, 84.1 18.83, 86.8 25.79 C89.5 32.74, 87.37 41.29, 85.58 48.19 C83.8 55.08, 81.31 62.33, 76.08 67.16 C70.85 71.99, 61.86 75.58, 54.19 77.16 C46.52 78.74, 37.45 78.79, 30.07 76.62 C22.69 74.44, 15.03 69.67, 9.91 64.11 C4.79 58.54, 0.09 50.52, -0.66 43.23 C-1.42 35.93, -0.95 27.72, 5.36 20.33 C11.68 12.94, 28.83 2.07, 37.22 -1.13 C45.61 -4.32, 55.17 0.21, 55.7 1.14 M30.3 1.58 C36.66 -1.79, 45.26 -2.48, 53.27 -0.36 C61.28 1.76, 72.63 9.25, 78.37 14.3 C84.12 19.34, 86.21 23.04, 87.72 29.91 C89.24 36.77, 90.17 48.87, 87.48 55.48 C84.79 62.1, 78.31 66.09, 71.61 69.61 C64.91 73.13, 55.9 75.68, 47.28 76.62 C38.67 77.55, 27.06 78.12, 19.93 75.24 C12.79 72.36, 8.21 65.49, 4.47 59.32 C0.73 53.15, -2.95 45.25, -2.52 38.2 C-2.1 31.15, 2.14 22.82, 7.02 17.01 C11.89 11.2, 22.6 5.98, 26.72 3.35 C30.84 0.71, 30.69 0.39, 31.75 1.19" stroke="none" stroke-width="0" fill="#ced4da"></path>
        <path d="M25.52 5.46 C31.94 2.17, 42.5 0.44, 50.37 1.19 C58.24 1.94, 67.02 5.73, 72.72 9.97 C78.43 14.22, 82.36 20.16, 84.61 26.66 C86.86 33.17, 88.12 42.02, 86.22 49 C84.33 55.97, 78.81 63.37, 73.26 68.52 C67.7 73.68, 60.36 78.69, 52.88 79.95 C45.4 81.21, 35.73 78.75, 28.39 76.08 C21.06 73.41, 13.5 69.7, 8.87 63.92 C4.24 58.14, 1.24 48.89, 0.63 41.42 C0.03 33.94, -4.61 25.72, 5.25 19.09 C15.1 12.47, 46.51 0.82, 59.76 1.67 C73.01 2.52, 84.86 23.15, 84.74 24.2 M13.95 10.51 C18.91 5.21, 24.53 2.6, 32.58 1.21 C40.63 -0.19, 54.65 0.03, 62.25 2.16 C69.84 4.29, 74.04 7.67, 78.17 13.99 C82.31 20.3, 86.82 32.25, 87.07 40.04 C87.32 47.82, 83.66 54.47, 79.7 60.7 C75.74 66.93, 69.65 73.89, 63.31 77.41 C56.97 80.92, 49.75 83.17, 41.67 81.78 C33.59 80.38, 20.9 73.77, 14.84 69.05 C8.78 64.34, 7.25 59.76, 5.33 53.49 C3.41 47.22, 2.24 38.28, 3.33 31.41 C4.42 24.54, 9.95 15.96, 11.86 12.29 C13.77 8.63, 14.11 8.94, 14.8 9.43" stroke="#000000" stroke-width="4" fill="none"></path>
    </g>
    <g transform="translate(1730.2887206968808 1111.936188777207) rotate(0 10.5 16.5)">
        <text x="10.5" y="23" font-family="Virgil, Segoe UI Emoji" font-size="25.63663182964986px" fill="#000000" text-anchor="middle" style="white-space: pre;" direction="ltr">G</text>
    </g>
    <g transform="translate(299.99531480311816 354.1585250214098) rotate(0 13.833333333333485 56.59090909090969)">
        <text x="13.833333333333481" y="79.18181818181941" font-family="Virgil, Segoe UI Emoji" font-size="90.54545454545551px" fill="#000000" text-anchor="middle" style="white-space: pre;" direction="ltr">1</text>
    </g>
    <g transform="translate(1131.9953148031173 526.7847876476726) rotate(0 25.16666666666697 41.944444444445026)">
        <text x="25.166666666666977" y="58.88888888888994" font-family="Virgil, Segoe UI Emoji" font-size="67.11111111111194px" fill="#000000" text-anchor="middle" style="white-space: pre;" direction="ltr">2</text>
    </g>
    <g transform="translate(1745.8286481364503 467.98136884425685) rotate(0 29.66666666666606 51.3461538461529)">
        <text x="29.66666666666606" y="71.69230769230559" font-family="Virgil, Segoe UI Emoji" font-size="82.15384615384448px" fill="#000000" text-anchor="middle" style="white-space: pre;" direction="ltr">3</text>
    </g>
    <g stroke-linecap="round" transform="translate(445.9119814697842 1440.0070098698934) rotate(0 436.24999999999955 75)">
        <path d="M30.61 -1.74 L846.31 -2.88 L864.45 11.15 L873.58 21.16 L869 126.27 L864.13 144.04 L852.91 148.07 L838.15 147.67 L21.42 152.42 L6.91 145.38 L-2.18 125.63 L0.74 29.97 L-1.52 17.46 L6.52 11.14 L21.32 -0.41 L29.72 -0.43" stroke="none" stroke-width="0" fill="#15aabf"></path>
        <path d="M32 0 M32 0 C332.58 -2.96, 631.57 -2.79, 840.5 0 M840.5 0 C865.32 0.03, 870.25 7.88, 872.5 32 M872.5 32 C868.61 65.95, 868.03 96.46, 872.5 118 M872.5 118 C870.53 142.41, 862.8 147.93, 840.5 150 M840.5 150 C522.75 145.5, 207.48 145.02, 32 150 M32 150 C14.22 150.89, 0.21 140.45, 0 118 M0 118 C0.06 102.4, -3.71 84.53, 0 32 M0 32 C-0.97 12.07, 8.41 -0.87, 32 0" stroke="#000000" stroke-width="4.5" fill="none" stroke-dasharray="8 12"></path>
    </g>
    <g transform="translate(695.4953148031182 1332.3403432032273) rotate(0 156.66666666666697 39.16666666666674)">
        <text x="156.666666666667" y="55.3333333333335" font-family="Virgil, Segoe UI Emoji" font-size="62.666666666666806px" fill="#000000" text-anchor="middle" style="white-space: pre;" direction="ltr">Net Poller</text>
    </g>
    <g stroke-linecap="round" transform="translate(1494.6615717300401 661.9233077707931) rotate(0 44.167076406409706 39.7503687657686)">
        <path d="M72.4 7.98 C78.36 11.58, 82.78 20.09, 85.55 26.87 C88.32 33.65, 90.79 41.58, 89.04 48.66 C87.29 55.75, 80.93 64.07, 75.06 69.4 C69.18 74.72, 61.76 79.3, 53.78 80.61 C45.8 81.92, 34.83 80.24, 27.17 77.25 C19.5 74.25, 12.41 68.48, 7.78 62.64 C3.15 56.8, -0.66 49.64, -0.63 42.2 C-0.6 34.76, 3.84 24.27, 7.95 17.98 C12.07 11.7, 17.32 7.75, 24.06 4.47 C30.81 1.19, 38.19 -4.45, 48.42 -1.68 C58.64 1.1, 78.65 14, 85.42 21.12 C92.19 28.25, 89.92 40.46, 89.04 41.08 M73.51 8.55 C79.99 12.97, 85.26 25.29, 87.2 32.18 C89.14 39.07, 87.65 43.53, 85.14 49.9 C82.63 56.27, 78.38 65.78, 72.13 70.39 C65.89 75, 55.96 77.13, 47.67 77.57 C39.38 78.02, 29.22 75.88, 22.39 73.05 C15.55 70.23, 10.04 66.39, 6.64 60.6 C3.24 54.82, 1.72 45.64, 1.97 38.33 C2.22 31.02, 3.73 22.61, 8.14 16.75 C12.56 10.9, 21.58 5.78, 28.46 3.2 C35.35 0.62, 42.07 0.47, 49.44 1.26 C56.8 2.06, 69.09 6.77, 72.66 7.97 C76.23 9.17, 71 7.75, 70.87 8.46" stroke="none" stroke-width="0" fill="#ced4da"></path>
        <path d="M74.81 11.51 C80.32 15.97, 85.94 23.54, 87.39 30.83 C88.85 38.13, 86.66 48.11, 83.54 55.28 C80.41 62.45, 74.58 70.13, 68.64 73.85 C62.7 77.57, 55.37 77.35, 47.89 77.59 C40.4 77.84, 30.61 78.54, 23.73 75.33 C16.85 72.13, 10.64 64.61, 6.62 58.35 C2.59 52.08, -0.92 45.01, -0.42 37.74 C0.08 30.48, 4.5 20.97, 9.61 14.77 C14.71 8.57, 22.57 2.69, 30.21 0.53 C37.85 -1.62, 46.12 -2.57, 55.45 1.84 C64.79 6.25, 80.84 20.58, 86.22 26.99 C91.61 33.41, 88.86 40.39, 87.75 40.35 M77.2 17.71 C82.29 22.89, 89.91 33.34, 90.73 40.11 C91.55 46.88, 86.89 52.46, 82.13 58.33 C77.36 64.2, 69.35 71.88, 62.13 75.32 C54.91 78.76, 46.55 79.47, 38.79 78.97 C31.03 78.47, 21.4 76.88, 15.58 72.3 C9.77 67.72, 6.06 57.92, 3.88 51.48 C1.69 45.03, 1.28 40.77, 2.47 33.61 C3.67 26.46, 5.48 13.95, 11.05 8.54 C16.63 3.12, 28.07 1.72, 35.93 1.11 C43.79 0.5, 51.21 2.47, 58.19 4.88 C65.17 7.3, 74.18 13.35, 77.81 15.61 C81.43 17.87, 80.24 17.64, 79.95 18.42" stroke="#000000" stroke-width="4" fill="none"></path>
    </g>
    <g transform="translate(1528.3286481364476 685.1736765365617) rotate(0 10.5 16.5)">
        <text x="10.5" y="23" font-family="Virgil, Segoe UI Emoji" font-size="25.63663182964986px" fill="#000000" text-anchor="middle" style="white-space: pre;" direction="ltr">G</text>
    </g>
    <g stroke-linecap="round" transform="translate(1491.328238396707 801.9233077707927) rotate(0 44.167076406409706 39.7503687657686)">
        <path d="M45.32 0.82 C52.79 0.76, 63.49 4.52, 69.96 8.45 C76.43 12.38, 81.21 18.17, 84.13 24.42 C87.04 30.66, 88.72 38.83, 87.44 45.91 C86.15 52.99, 81.34 61.83, 76.43 66.89 C71.52 71.94, 65.5 74.42, 57.95 76.25 C50.4 78.07, 39.07 79.94, 31.13 77.81 C23.19 75.68, 15.22 69.26, 10.3 63.46 C5.38 57.66, 2.34 49.76, 1.6 43.01 C0.86 36.26, 2.68 29.07, 5.88 22.94 C9.09 16.81, 11.79 10.01, 20.82 6.23 C29.85 2.44, 51.68 -0.1, 60.04 0.23 C68.41 0.57, 71.75 7.23, 71.03 8.21 M75 10.81 C80.82 15.24, 84.41 22.21, 85.87 28.85 C87.34 35.48, 86.15 43.52, 83.79 50.65 C81.44 57.78, 77.37 66.86, 71.76 71.63 C66.15 76.41, 58.07 78.79, 50.12 79.3 C42.17 79.8, 31.22 77.92, 24.05 74.65 C16.87 71.37, 11.48 65.69, 7.06 59.64 C2.64 53.59, -2.41 45.96, -2.47 38.33 C-2.52 30.71, 2.12 20.28, 6.73 13.9 C11.33 7.51, 17.4 2.44, 25.17 0.03 C32.94 -2.37, 44.77 -2.22, 53.35 -0.56 C61.94 1.1, 73.43 8.18, 76.66 9.99 C79.89 11.8, 73.28 10, 72.74 10.28" stroke="none" stroke-width="0" fill="#ced4da"></path>
        <path d="M12.52 12.75 C18.1 7.22, 29.1 0.34, 37.38 -1.11 C45.65 -2.57, 54.77 0.98, 62.17 4.01 C69.58 7.04, 77.56 11.12, 81.8 17.05 C86.05 22.98, 87.51 32.56, 87.64 39.58 C87.77 46.6, 86.37 53.53, 82.58 59.16 C78.8 64.8, 71.88 69.91, 64.93 73.39 C57.99 76.86, 48.75 80.17, 40.9 80.03 C33.04 79.88, 24.17 77.13, 17.82 72.53 C11.47 67.92, 5.87 59.44, 2.81 52.4 C-0.25 45.37, -4.6 38.23, -0.54 30.32 C3.52 22.41, 20.27 10.09, 27.18 4.92 C34.08 -0.26, 40.74 -1.4, 40.9 -0.71 M75.97 15.38 C80.98 20.43, 85.45 28.05, 86.44 35.28 C87.43 42.5, 85.02 52.55, 81.92 58.73 C78.82 64.9, 74.19 68.41, 67.83 72.33 C61.47 76.26, 52.3 82.74, 43.75 82.28 C35.2 81.82, 23.18 74.09, 16.54 69.56 C9.9 65.03, 6.85 60.92, 3.89 55.12 C0.93 49.31, -2.21 41.94, -1.21 34.73 C-0.21 27.51, 4.01 17.13, 9.91 11.81 C15.82 6.49, 26.2 4.16, 34.23 2.81 C42.25 1.46, 50.4 1.76, 58.06 3.73 C65.72 5.7, 76.51 12.24, 80.16 14.62 C83.82 17, 80.53 17.33, 79.99 18.01" stroke="#000000" stroke-width="4" fill="none"></path>
    </g>
    <g transform="translate(1524.9953148031145 825.1736765365608) rotate(0 10.5 16.5)">
        <text x="10.5" y="23" font-family="Virgil, Segoe UI Emoji" font-size="25.63663182964986px" fill="#000000" text-anchor="middle" style="white-space: pre;" direction="ltr">G</text>
    </g>
    <g stroke-linecap="round" transform="translate(1481.328238396707 915.2566411041257) rotate(0 44.167076406409706 39.7503687657686)">
        <path d="M20.8 6.54 C27.3 2.67, 37.78 0.03, 45.73 -0.03 C53.67 -0.08, 61.86 2.27, 68.46 6.2 C75.05 10.13, 82.33 16.92, 85.28 23.56 C88.23 30.21, 87.65 39.3, 86.16 46.07 C84.67 52.84, 81.6 59.18, 76.32 64.19 C71.05 69.2, 61.92 74, 54.52 76.12 C47.11 78.25, 39.01 78.83, 31.9 76.95 C24.79 75.07, 17.27 70.31, 11.87 64.86 C6.46 59.41, 0.57 51.47, -0.54 44.24 C-1.64 37.01, 0.04 28.59, 5.24 21.48 C10.44 14.38, 24.21 4.88, 30.65 1.6 C37.09 -1.67, 43.59 1.4, 43.87 1.82 M79.84 12.55 C85.53 17.16, 88.8 27.19, 89.62 34.57 C90.45 41.95, 88.32 50.45, 84.78 56.84 C81.23 63.22, 74.83 68.81, 68.36 72.87 C61.89 76.92, 54.07 80.84, 45.96 81.16 C37.85 81.49, 26.96 78.83, 19.71 74.84 C12.45 70.84, 5.9 63.82, 2.42 57.19 C-1.06 50.56, -2.18 42.26, -1.17 35.05 C-0.16 27.84, 2.81 19.48, 8.49 13.96 C14.17 8.43, 24.8 3.53, 32.93 1.88 C41.06 0.22, 49.78 1.75, 57.29 4.03 C64.79 6.3, 75.13 13.43, 77.97 15.51 C80.82 17.6, 74.58 16.78, 74.35 16.55" stroke="none" stroke-width="0" fill="#ced4da"></path>
        <path d="M39.32 -0.79 C47.07 -2.03, 57.14 2.74, 63.94 5.69 C70.74 8.63, 75.98 11.07, 80.11 16.87 C84.24 22.67, 88.8 32.77, 88.73 40.48 C88.66 48.2, 84.39 57.29, 79.71 63.15 C75.02 69.01, 67.59 72.81, 60.61 75.64 C53.63 78.46, 45.5 80.94, 37.84 80.09 C30.18 79.24, 20.52 75.52, 14.65 70.54 C8.78 65.56, 4.51 57.03, 2.62 50.23 C0.73 43.43, 0.93 36.43, 3.3 29.76 C5.66 23.09, 9.33 15.2, 16.82 10.21 C24.3 5.22, 41.23 0.7, 48.19 -0.17 C55.15 -1.04, 58.64 4.17, 58.56 4.98 M60.92 4.19 C67.69 5.9, 75.89 11.47, 80.29 17.42 C84.68 23.36, 86.56 33.15, 87.31 39.89 C88.07 46.62, 88.78 51.84, 84.8 57.81 C80.82 63.78, 71.1 72.59, 63.43 75.69 C55.75 78.79, 46.33 77.75, 38.73 76.41 C31.13 75.07, 23.53 71.68, 17.82 67.64 C12.11 63.59, 7.2 58.45, 4.48 52.13 C1.75 45.81, -0.57 37.18, 1.48 29.72 C3.54 22.26, 10.69 12.36, 16.79 7.37 C22.89 2.39, 30.93 0.45, 38.06 -0.19 C45.19 -0.84, 55.32 2.96, 59.58 3.5 C63.84 4.04, 63.95 2.43, 63.61 3.03" stroke="#000000" stroke-width="4" fill="none"></path>
    </g>
    <g transform="translate(1514.9953148031145 938.5070098698943) rotate(0 10.5 16.5)">
        <text x="10.5" y="23" font-family="Virgil, Segoe UI Emoji" font-size="25.63663182964986px" fill="#000000" text-anchor="middle" style="white-space: pre;" direction="ltr">G</text>
    </g>
    <g stroke-linecap="round" transform="translate(34.66157173004103 558.5899744374592) rotate(0 44.167076406409706 39.7503687657686)">
        <path d="M18.63 7.45 C24.81 2.96, 37.88 -1.2, 45.83 -1.71 C53.78 -2.23, 59.98 0.53, 66.36 4.37 C72.73 8.21, 80.78 14.61, 84.07 21.34 C87.37 28.08, 86.86 37.37, 86.12 44.78 C85.38 52.19, 84.46 60.4, 79.65 65.82 C74.84 71.25, 65.36 75.32, 57.24 77.34 C49.13 79.36, 38.62 79.98, 30.97 77.94 C23.32 75.9, 16.52 70.57, 11.33 65.12 C6.13 59.67, 1.05 52.05, -0.2 45.24 C-1.45 38.43, -7.06 30.7, 3.82 24.24 C14.71 17.78, 50.94 3.22, 65.1 6.49 C79.26 9.76, 89.21 43.38, 88.79 43.87 M71.18 12.25 C76.62 16.38, 81.34 21.08, 83.88 27.81 C86.42 34.54, 88.05 45.65, 86.43 52.64 C84.81 59.63, 80.19 65.48, 74.14 69.75 C68.09 74.02, 58.52 77.25, 50.14 78.25 C41.76 79.25, 31.28 78.64, 23.86 75.76 C16.45 72.87, 9.93 67.28, 5.65 60.94 C1.37 54.59, -2.46 45.3, -1.81 37.68 C-1.16 30.06, 4.51 20.75, 9.56 15.21 C14.61 9.68, 21.42 7.08, 28.49 4.48 C35.57 1.88, 44.22 -1.49, 52.02 -0.39 C59.83 0.71, 72.08 8.93, 75.34 11.07 C78.61 13.21, 72.4 12.27, 71.62 12.44" stroke="none" stroke-width="0" fill="#ced4da"></path>
        <path d="M46.23 -1.26 C53.6 -1.14, 62.55 3.5, 69.17 8.24 C75.78 12.99, 82.9 20.49, 85.92 27.19 C88.94 33.89, 89.09 41.51, 87.29 48.43 C85.49 55.35, 80.74 63.96, 75.13 68.71 C69.52 73.46, 61.29 75.71, 53.62 76.92 C45.95 78.12, 36.89 78.47, 29.12 75.93 C21.35 73.4, 12.15 67.19, 7.01 61.7 C1.87 56.21, -1.31 49.61, -1.72 42.98 C-2.13 36.35, 0.55 28.43, 4.55 21.92 C8.55 15.4, 14.41 7.23, 22.3 3.89 C30.19 0.56, 46.21 2.15, 51.87 1.9 C57.54 1.66, 56.31 1.72, 56.29 2.42 M67.67 5.57 C74.88 9.16, 81.17 16.92, 84.5 23.37 C87.83 29.82, 88.23 37.57, 87.62 44.26 C87.02 50.95, 85.29 58.14, 80.86 63.52 C76.43 68.9, 68.68 73.87, 61.05 76.55 C53.42 79.23, 42.78 81.24, 35.07 79.6 C27.35 77.96, 20.21 72.23, 14.75 66.71 C9.29 61.18, 4.27 53.49, 2.3 46.46 C0.34 39.43, 0.39 31.22, 2.97 24.53 C5.54 17.83, 11.5 10.01, 17.75 6.28 C24 2.54, 32.57 2.11, 40.48 2.11 C48.39 2.1, 60.72 5.52, 65.2 6.24 C69.68 6.97, 67.32 6.44, 67.35 6.45" stroke="#000000" stroke-width="4" fill="none"></path>
    </g>
    <g transform="translate(68.32864813644846 581.8403432032273) rotate(0 10.5 16.5)">
        <text x="10.5" y="23" font-family="Virgil, Segoe UI Emoji" font-size="25.63663182964986px" fill="#000000" text-anchor="middle" style="white-space: pre;" direction="ltr">G</text>
    </g>
    <g stroke-linecap="round" transform="translate(27.99490506337588 688.5899744374583) rotate(0 44.167076406409706 39.7503687657686)">
        <path d="M13.32 8.12 C18.82 3.54, 28.97 3.08, 37.16 2.37 C45.35 1.65, 55.18 1.38, 62.43 3.82 C69.68 6.25, 76.34 10.96, 80.66 16.96 C84.97 22.95, 88.31 32.56, 88.31 39.78 C88.31 47, 84.97 54.29, 80.66 60.28 C76.34 66.27, 69.36 72.8, 62.41 75.73 C55.47 78.65, 46.64 78.57, 39 77.85 C31.37 77.13, 22.5 76.12, 16.6 71.42 C10.7 66.72, 6 56.5, 3.61 49.65 C1.23 42.81, -0.44 37.65, 2.29 30.33 C5.02 23.02, 16.5 9.81, 20.02 5.76 C23.54 1.71, 23.39 5.51, 23.41 6.04 M46.19 0.76 C53.48 0.13, 62.69 2.63, 69.26 6.61 C75.83 10.58, 82.5 18.05, 85.6 24.6 C88.71 31.16, 89.73 38.45, 87.89 45.93 C86.05 53.42, 80.61 63.81, 74.59 69.53 C68.57 75.25, 59.11 78.89, 51.75 80.25 C44.4 81.62, 37.72 80.2, 30.46 77.73 C23.2 75.26, 13.11 71.49, 8.18 65.43 C3.26 59.38, 1.16 48.84, 0.91 41.41 C0.66 33.98, 3.29 26.6, 6.71 20.86 C10.12 15.12, 14.73 10.35, 21.39 6.96 C28.05 3.57, 42.06 1.59, 46.65 0.52 C51.24 -0.56, 48.7 -0.08, 48.91 0.51" stroke="none" stroke-width="0" fill="#ced4da"></path>
        <path d="M52.2 0.39 C59.67 1.08, 69.58 5.77, 75.09 10.76 C80.6 15.76, 83.62 23.72, 85.28 30.35 C86.93 36.97, 87.57 44.11, 85.03 50.53 C82.49 56.95, 75.99 64.22, 70.04 68.87 C64.09 73.51, 56.72 77.45, 49.32 78.4 C41.92 79.35, 33 77.77, 25.65 74.56 C18.3 71.34, 9.31 65.4, 5.23 59.11 C1.15 52.81, 0.79 43.83, 1.17 36.79 C1.55 29.76, 2.94 22.35, 7.52 16.88 C12.1 11.42, 18.95 6.22, 28.67 4.02 C38.4 1.81, 57.6 1.89, 65.87 3.63 C74.14 5.38, 78.47 13.36, 78.29 14.5 M35.32 2.08 C42.22 -0.04, 52.07 0.09, 59.65 2.74 C67.22 5.38, 76.21 11.95, 80.76 17.93 C85.32 23.9, 86.97 31.66, 86.97 38.57 C86.97 45.49, 84.71 53.33, 80.79 59.41 C76.87 65.49, 70.43 71.78, 63.43 75.05 C56.43 78.32, 46.15 79.65, 38.8 79.04 C31.45 78.43, 25.12 75.24, 19.33 71.38 C13.55 67.52, 6.98 62.23, 4.1 55.88 C1.22 49.52, 0.89 40.2, 2.08 33.25 C3.28 26.31, 5.26 19.9, 11.27 14.21 C17.27 8.51, 33.87 1.16, 38.11 -0.91 C42.34 -2.98, 37.37 0.59, 36.69 1.78" stroke="#000000" stroke-width="4" fill="none"></path>
    </g>
    <g transform="translate(61.66198146978331 711.8403432032264) rotate(0 10.5 16.5)">
        <text x="10.5" y="23" font-family="Virgil, Segoe UI Emoji" font-size="25.63663182964986px" fill="#000000" text-anchor="middle" style="white-space: pre;" direction="ltr">G</text>
    </g>
    <g stroke-linecap="round" transform="translate(21.328238396707093 821.9233077707922) rotate(0 44.167076406409706 39.7503687657686)">
        <path d="M79.79 15.81 C84.61 21.05, 88 31.18, 88.27 38.4 C88.55 45.61, 85.53 52.98, 81.45 59.1 C77.37 65.22, 70.62 71.97, 63.79 75.12 C56.97 78.27, 48.19 78.48, 40.53 78.01 C32.86 77.54, 23.86 76.81, 17.79 72.3 C11.71 67.79, 6.73 57.74, 4.08 50.97 C1.43 44.2, 0.21 38.51, 1.89 31.67 C3.58 24.83, 8.8 14.88, 14.19 9.93 C19.58 4.98, 26.8 3.33, 34.24 1.98 C41.68 0.63, 50.31 -2.08, 58.82 1.85 C67.33 5.77, 80.41 20.25, 85.3 25.55 C90.2 30.85, 88.83 33.61, 88.2 33.66 M29.49 0.58 C36.15 -1.8, 45.4 0.8, 52.7 2.97 C60.01 5.14, 67.34 8.74, 73.33 13.6 C79.32 18.47, 86.78 25.19, 88.64 32.16 C90.51 39.13, 87.42 49.09, 84.5 55.41 C81.59 61.74, 77.13 66.15, 71.14 70.12 C65.14 74.08, 56.81 78.14, 48.54 79.18 C40.28 80.23, 28.79 79.74, 21.55 76.38 C14.31 73.01, 8.3 65.68, 5.09 58.99 C1.87 52.31, 1.41 43.49, 2.29 36.27 C3.16 29.05, 5.63 21.12, 10.36 15.69 C15.08 10.26, 27.6 5.36, 30.63 3.68 C33.66 1.99, 28.68 5.41, 28.54 5.56" stroke="none" stroke-width="0" fill="#ced4da"></path>
        <path d="M45.49 -1.72 C53.05 -2.28, 61.47 1.34, 68.17 5.68 C74.87 10.02, 82.27 17.48, 85.7 24.33 C89.13 31.18, 90.52 39.76, 88.74 46.77 C86.95 53.79, 80.54 61.41, 75 66.43 C69.45 71.45, 63.1 75.13, 55.46 76.9 C47.81 78.67, 36.56 79, 29.1 77.04 C21.64 75.07, 15.51 70.99, 10.69 65.12 C5.87 59.25, 0.86 49.02, 0.2 41.8 C-0.46 34.59, 2.84 27.64, 6.71 21.85 C10.58 16.07, 13.06 9.35, 23.43 7.1 C33.8 4.84, 58.73 5.48, 68.94 8.33 C79.14 11.19, 84.86 23.94, 84.65 24.24 M44.13 1.27 C51.23 0.67, 60.63 3.32, 67.16 7.19 C73.7 11.06, 80.21 17.99, 83.34 24.49 C86.46 30.99, 86.7 39.16, 85.92 46.19 C85.15 53.22, 83.55 60.9, 78.71 66.67 C73.87 72.44, 64.75 78.6, 56.88 80.81 C49.01 83.02, 39.65 82.08, 31.51 79.91 C23.36 77.74, 12.72 74, 7.99 67.77 C3.27 61.55, 3.54 50.12, 3.17 42.56 C2.81 35, 3.14 28.29, 5.81 22.4 C8.49 16.51, 12.14 11.38, 19.23 7.22 C26.32 3.06, 44.35 -1.04, 48.34 -2.56 C52.34 -4.07, 43.77 -2.57, 43.22 -1.89" stroke="#000000" stroke-width="4" fill="none"></path>
    </g>
    <g transform="translate(54.995314803114525 845.1736765365604) rotate(0 10.5 16.5)">
        <text x="10.5" y="23" font-family="Virgil, Segoe UI Emoji" font-size="25.63663182964986px" fill="#000000" text-anchor="middle" style="white-space: pre;" direction="ltr">G</text>
    </g>
    <g stroke-linecap="round" transform="translate(25.04203979499198 913.0977277329484) rotate(0 44.167076406409706 39.7503687657686)">
        <path d="M70 8.48 C76.46 11.75, 83.59 17.3, 86.62 24.07 C89.66 30.83, 89.85 41.65, 88.21 49.06 C86.57 56.46, 82.43 63.34, 76.78 68.48 C71.12 73.61, 61.84 78.55, 54.27 79.86 C46.7 81.16, 38.88 79.17, 31.35 76.29 C23.83 73.42, 14.58 67.94, 9.13 62.61 C3.67 57.28, -0.97 51.2, -1.39 44.33 C-1.81 37.46, 2.93 27.59, 6.62 21.39 C10.31 15.18, 14.22 10.5, 20.78 7.11 C27.33 3.73, 34.87 -2.13, 45.96 1.07 C57.04 4.27, 80.75 18.28, 87.29 26.32 C93.82 34.35, 86.36 49.18, 85.17 49.26 M75.18 11.55 C80.47 15.63, 81.86 21.36, 84.15 28.01 C86.45 34.65, 90.7 44.58, 88.96 51.42 C87.23 58.26, 80.68 64.43, 73.76 69.06 C66.84 73.68, 55.92 77.71, 47.44 79.16 C38.97 80.61, 30.09 81.04, 22.91 77.77 C15.73 74.5, 7.94 66.11, 4.35 59.54 C0.76 52.97, 1.31 45.65, 1.36 38.34 C1.41 31.03, 0.55 21.16, 4.64 15.67 C8.72 10.18, 17.97 7.76, 25.89 5.4 C33.8 3.04, 43.74 0.82, 52.11 1.51 C60.48 2.2, 72.36 8.15, 76.1 9.54 C79.84 10.94, 75.79 9.02, 74.53 9.88" stroke="none" stroke-width="0" fill="#ced4da"></path>
        <path d="M35.84 1.22 C43.37 -0.85, 52.19 1.28, 59.85 3.65 C67.51 6.02, 77.26 9.64, 81.79 15.43 C86.32 21.23, 86.97 31.36, 87.03 38.42 C87.09 45.48, 85.71 51.98, 82.15 57.8 C78.58 63.62, 72.77 69.54, 65.63 73.33 C58.49 77.12, 47.5 81.19, 39.3 80.55 C31.1 79.9, 22.45 74.21, 16.44 69.46 C10.44 64.7, 5.59 58.53, 3.28 52.01 C0.97 45.5, 1.11 37.35, 2.58 30.38 C4.05 23.4, 5.21 15.48, 12.1 10.15 C18.99 4.82, 36.61 0.11, 43.92 -1.6 C51.24 -3.31, 55.59 -1.2, 55.99 -0.11 M38.84 2.24 C46.09 1.14, 54.64 2.46, 61.21 4.83 C67.79 7.21, 74.13 10.54, 78.27 16.51 C82.41 22.48, 85.15 33.21, 86.05 40.66 C86.95 48.1, 86.89 55.03, 83.69 61.18 C80.49 67.33, 74.01 74.93, 66.85 77.55 C59.69 80.18, 49.07 78.42, 40.73 76.92 C32.39 75.42, 23.59 72.34, 16.8 68.55 C10.01 64.75, 2.31 60.58, -0.01 54.17 C-2.33 47.75, 0.23 37.56, 2.89 30.03 C5.55 22.5, 10.45 13.47, 15.96 8.99 C21.47 4.5, 32.24 4.23, 35.94 3.12 C39.64 2.01, 37.68 1.7, 38.16 2.35" stroke="#000000" stroke-width="4" fill="none"></path>
    </g>
    <g transform="translate(58.70911620139941 936.3480964987166) rotate(0 10.5 16.5)">
        <text x="10.5" y="23" font-family="Virgil, Segoe UI Emoji" font-size="25.63663182964986px" fill="#000000" text-anchor="middle" style="white-space: pre;" direction="ltr">G</text>
    </g>
    <g stroke-linecap="round" transform="translate(1485.042039794992 1009.7643943996145) rotate(0 44.167076406409706 39.7503687657686)">
        <path d="M42.22 -0.45 C49.86 -1.15, 60.34 0.45, 67.08 4.41 C73.82 8.38, 79.2 16.86, 82.66 23.37 C86.12 29.88, 88.84 36.68, 87.85 43.47 C86.86 50.25, 81.88 58.63, 76.72 64.09 C71.56 69.54, 64.27 73.63, 56.9 76.21 C49.53 78.79, 39.98 81.44, 32.51 79.58 C25.04 77.71, 17.17 70.68, 12.07 65.01 C6.96 59.34, 3.59 52.33, 1.89 45.55 C0.2 38.78, -1.18 30.66, 1.91 24.36 C5.01 18.06, 9.17 10.76, 20.48 7.75 C31.78 4.74, 59.41 3.65, 69.75 6.29 C80.08 8.93, 83.37 23.22, 82.49 23.58 M16.78 9.58 C22.25 5.19, 30.81 3.09, 38.38 2.02 C45.95 0.95, 54.88 -0.37, 62.22 3.16 C69.55 6.69, 77.91 16.71, 82.4 23.21 C86.89 29.7, 89.35 35.65, 89.15 42.13 C88.96 48.62, 85.74 55.87, 81.23 62.13 C76.71 68.39, 69.34 76.94, 62.05 79.72 C54.76 82.5, 45.25 80.76, 37.47 78.79 C29.69 76.81, 21.32 73.13, 15.36 67.87 C9.4 62.61, 4.27 54.26, 1.72 47.24 C-0.84 40.22, -2.12 31.99, 0.04 25.75 C2.2 19.52, 11.69 12.49, 14.68 9.81 C17.66 7.14, 17.28 9.7, 17.92 9.71" stroke="none" stroke-width="0" fill="#ced4da"></path>
        <path d="M72.84 8.11 C78.4 12.46, 82.39 22.35, 84.95 29.48 C87.5 36.61, 90.38 43.88, 88.17 50.91 C85.95 57.93, 78.01 66.76, 71.65 71.63 C65.29 76.49, 57.29 79.21, 50 80.09 C42.71 80.98, 35.27 79.79, 27.89 76.94 C20.5 74.08, 10.51 69.13, 5.69 62.96 C0.86 56.79, -1.51 47.06, -1.06 39.91 C-0.61 32.75, 4.01 25.85, 8.38 20.03 C12.75 14.21, 17.98 8.54, 25.17 5 C32.36 1.45, 41.51 -5.03, 51.54 -1.22 C61.56 2.59, 79.37 19.88, 85.3 27.85 C91.23 35.83, 87.85 47.01, 87.14 46.64 M42.38 -1.64 C50.65 -2.61, 63.45 1.53, 70.1 5.37 C76.75 9.21, 79.33 14.28, 82.27 21.38 C85.22 28.48, 88.38 40.3, 87.76 47.98 C87.15 55.66, 83.42 62.46, 78.58 67.44 C73.75 72.43, 66.38 76.26, 58.77 77.89 C51.15 79.52, 41.26 78.99, 32.89 77.21 C24.52 75.42, 13.79 72.15, 8.54 67.15 C3.28 62.16, 2.51 54.7, 1.36 47.23 C0.21 39.75, -1.95 29.1, 1.62 22.3 C5.18 15.51, 15.29 10.23, 22.75 6.47 C30.21 2.7, 42.87 1.08, 46.38 -0.3 C49.9 -1.67, 44.21 -2.9, 43.85 -1.8" stroke="#000000" stroke-width="4" fill="none"></path>
    </g>
    <g transform="translate(1518.7091162013994 1033.0147631653836) rotate(0 10.5 16.5)">
        <text x="10.5" y="23" font-family="Virgil, Segoe UI Emoji" font-size="25.63663182964986px" fill="#000000" text-anchor="middle" style="white-space: pre;" direction="ltr">G</text>
    </g>
</svg>