<svg xmlns="http://www.w3.org/2000/svg" viewBox="0 0 1798 1235" width="3596" height="2470" filter="invert(93%) hue-rotate(180deg)"
    xmlns:v="https://vecta.io/nano">
    <style><![CDATA[.B{stroke:#000}.C{fill:none}.D{stroke-linecap:round}.E{stroke-width:4}.F{font-family:Virgil, Segoe UI Emoji}.G{fill:#000}.H{text-anchor:middle}.I{direction:ltr}.J{fill:#ced4da}.K{font-size:32.014px}.L{stroke-width:4.5}.M{stroke-dasharray:8 12}.N{fill:#be4bdb}.O{fill:#15aabf}]]></style>
    <defs>
        <style>@font-face{font-family:"Virgil";src:url("https://excalidraw.com/Virgil.woff2")} @font-face{font-family:"Cascadia";src:url("https://excalidraw.com/Cascadia.woff2")} @font-face{font-family:"Virgil";src:url("https://excalidraw.com/Virgil.woff2")} @font-face{font-family:"Cascadia";src:url("https://excalidraw.com/Cascadia.woff2")}</style>
    </defs>
    <path fill="#e3fafc" d="M0 0h1798v1235H0z"/>
    <g transform="matrix(1 0 0 1 280 118)">
        <path d="M30.63 1.58l1455.12-3.62 16.11 13.05 1.82 11.76 5.58 281.45-6.78 19.52-9.44 5.42-14.54-1.46-1454.29 1.34-17.36-6.3-7.38-17.43L-.6 28.17l-.08-9.49 9.91-8.59 5.25-6.48 16.23-2.28" class="J"/>
        <path d="M32 0h1444M32 0h1444m0 0c21.31.37 32.55 9.3 32 32m-32-32c24.53 3.37 30.77 8.95 32 32m0 0v264m0-264c-3.96 61.97-3.25 125.45 0 264m0 0c-.71 20.25-12.56 35.53-32 32m32-32c-1.02 18.06-14.49 35.08-32 32m0 0c-360.14-8.85-722.01-10.98-1444 0m1444 0c-540.43-1.69-1080.42-1.63-1444 0m0 0c-19.94.88-33.22-10.31-32-32m32 32c-24.12 2.72-27.65-8.42-32-32m0 0c-1.59-81.01.18-167.46 0-264m0 264c3.8-80.83 3.13-163.07 0-264m0 0C1.99 11.18 13.17-3.13 32 0M0 32C3.29 9.92 8.56-2.74 32 0" class="B C D E"/>
    </g>
    <g transform="matrix(1 0 0 1 364 186.209651)">
        <path d="M29.06 1.55l1024.11-3.42 14.13 6.6 9.95 10.45-.21 18.32.29 66.48-2.15 13.87-8.17 6.43-20.35 9.04-1023.47-6.87-18.65-1.84-4.56-15.08-3.32-7.55L1.98 34.4-1.37 20.66 6.09 7.55l12.14-9.56L34.7-3.66" fill="#40c057"/>
        <path d="M31.45 0h1017.1m0 0c22.92.71 31.52 12.99 31.45 31.45m0 0c1.56 16.32-2.39 31.89 0 62.89m0 0c.25 24.5-11.93 34.96-31.45 31.45m0 0c-356.94 6.23-711.64 4.35-1017.1 0m0 0C8.1 123.14-1.24 111.96 0 94.34m0 0c-2.04-19.13 2.97-26.98 0-62.89m0 0C.78 9.13 8.53.74 31.45 0" class="B C D L M"/>
    </g>
    <g transform="matrix(1 0 0 1 781.166667 10)" class="F G H I">
        <text x="237.5" y="66" font-size="74.4" style="white-space:pre">Go Scheduler</text>
    </g>
    <g transform="matrix(1 0 0 1 414.31614 200.585691)">
        <path d="M10.99 19.1c4.64-5.97 14.32-11.13 22.6-14.01C41.88 2.21 51.5.92 60.71 1.83c9.2.92 20.62 4.25 28.11 8.75s13.42 11.05 16.82 18.23 4.78 16.64 3.57 24.85c-1.22 8.21-5.03 18.13-10.87 24.43S82.46 88.48 74.17 91.44c-8.29 2.97-16.54 5.31-25.57 4.43-9.04-.88-21.26-5.19-28.66-9.73C12.55 81.6 7.8 75.76 4.25 68.64.69 61.53-2.79 52.55-1.38 43.45S9.41 19.4 12.71 14.03c3.29-5.36 4.66-3.65 5.68-2.79M51.96 1.15C61.2.78 73.85 3.56 81.92 7.64c8.07 4.07 13.88 11.84 18.46 17.98 4.58 6.15 8.78 11.53 9.01 18.89.24 7.36-3.35 17.6-7.6 25.28-4.25 7.69-10.13 16.56-17.89 20.85-7.77 4.3-19.57 4.43-28.7 4.91-9.14.49-18.76 1.49-26.1-2.01-7.33-3.51-13.28-12.23-17.91-19.01-4.64-6.79-9.4-13.58-9.88-21.68-.48-8.11 3.3-19.87 7.01-26.98s8.39-11.32 15.24-15.69C30.42 5.81 44.41.77 49.45-.36c5.04-1.12 3.89 2.96 4.35 3.77" class="J"/>
        <path d="M12.26 19.84C16.51 12.9 24.34 5.6 32.39 2.03s19.43-4.94 28.17-3.62S77.94 4.97 84.84 9.96c6.9 5 13.19 10.83 17.15 18.42s7.68 18.61 6.59 27.12c-1.09 8.52-7.23 18.01-13.12 23.97-5.88 5.97-14.43 8.86-22.18 11.82s-15.67 6.7-24.31 5.93c-8.63-.77-20.16-5.54-27.52-10.55S8.43 74.53 4.83 67.15C1.24 59.76-3.2 52.49-.13 42.35c3.06-10.13 16.3-29.44 23.36-36.02C30.29-.24 41.52 1.67 42.22 2.9m40.72 1.35c7.63 3.78 13.14 14.5 17.75 22.01 4.62 7.51 10.1 15.01 9.95 23.06s-5.79 18.92-10.85 25.24c-5.07 6.32-12.4 9.04-19.55 12.68-7.16 3.63-15 8.69-23.37 9.13-8.37.45-18.99-2.58-26.84-6.45-7.86-3.88-15.27-10.47-20.28-16.8C4.73 66.8.38 59.53-.08 51.98c-.45-7.55 2.81-17.07 7.09-24.15 4.27-7.09 10.57-13.94 18.56-18.33 7.99-4.4 20.17-7.19 29.35-8.05C64.1.6 76.78 3.63 80.63 4.36s-2.3.44-2.61 1.46" class="B C D E"/>
    </g>
    <g transform="matrix(1 0 0 1 455.22629 229.104825)" class="F G H I K">
        <text x="13" y="28" style="white-space:pre">G</text>
    </g>
    <g transform="matrix(1 0 0 1 1228.359401 200.585691)">
        <path d="M76.12 3.2c8.13 2.02 18.21 8.43 23.4 15.39 5.2 6.96 6.92 18.04 7.78 26.37.85 8.33 1.04 16.23-2.66 23.63S92.62 84.57 85.07 89.33c-7.54 4.76-16.78 7.33-25.72 7.81-8.93.48-19.66-1.46-27.9-4.92-8.24-3.47-16.15-9.06-21.52-15.84s-9.6-17-10.69-24.84c-1.1-7.84.26-14.98 4.12-22.22S14.61 12.65 22.42 8.09c7.8-4.57 14.87-8.82 27.78-6.15 12.92 2.67 40.03 14.58 49.71 22.17 9.69 7.58 9.56 23.02 8.4 23.36M12.63 14.08C18.05 7.28 27.59 1.7 36.97-.56 46.35-2.83 59.94-1.91 68.9.51c8.97 2.42 15.57 7.59 21.87 13.44 6.29 5.86 13.3 14.46 15.91 21.68 2.61 7.23 1.76 13.94-.23 21.68-2 7.75-5.85 19-11.74 24.81-5.9 5.81-14.4 8.06-23.61 10.06-9.22 2-22.5 2.99-31.67 1.93-9.17-1.05-17.13-3.33-23.35-8.29C9.87 80.87 4.2 72.18 2.15 64.41s-.89-16.83 1.64-25.23c2.52-8.41 11.44-20.83 13.5-25.2s-1.2-1.58-1.15-1.02" class="J"/>
        <path d="M59.25 1.34c8.41-.06 18.66 3.08 25.64 7.2s12.55 10.18 16.22 17.52c3.68 7.33 6.21 18.58 5.82 26.51s-3.03 14.79-8.16 21.07-14.53 13.01-22.62 16.6-17.16 5.13-25.91 4.93c-8.74-.2-19.16-2.15-26.58-6.12S9.69 78.43 5.7 71.37C1.72 64.3-1.16 54.91-.26 46.68c.89-8.24 5.98-17.54 11.36-24.7S18.38 5.38 32 3.71c13.63-1.67 48.16 1.76 60.85 8.26 12.68 6.5 16.22 30.25 15.26 30.73M96.08 19.98c6.3 5.55 12.36 12.78 13.92 20.29 1.56 7.5-.25 17.06-4.57 24.76C101.1 72.74 92 81.16 84.04 86.52c-7.95 5.35-17.89 9.58-26.35 10.64-8.47 1.06-16.31-.69-24.43-4.27-8.13-3.58-18.84-10.92-24.31-17.22C3.47 69.38.69 62.52.41 55.1c-.27-7.42 3.18-16.82 6.9-23.94 3.71-7.11 8.36-13.23 15.38-18.74C29.72 6.91 40.62-.25 49.45-1.88s18.02.75 26.2 4.52c8.19 3.77 19.58 15.39 22.92 18.08 3.33 2.7-2.03-2.57-2.91-1.91" class="B C D E"/>
    </g>
    <g transform="matrix(1 0 0 1 1269.269551 229.104825)" class="F G H I K">
        <text x="13" y="28" style="white-space:pre">G</text>
    </g>
    <g transform="matrix(1 0 0 1 1009.124792 198.788686)">
        <path d="M97.81 20.45c6.13 5.65 8.39 13.53 9.62 21.29 1.23 7.77 1.13 17.81-2.24 25.3-3.37 7.48-10.54 14.72-17.97 19.61-7.43 4.9-17.58 8.81-26.61 9.76-9.04.96-19.08-.76-27.61-4.03C24.48 89.1 14.76 83 9.47 76.76c-5.29-6.23-7.13-14.29-8.2-21.79C.19 47.46-.55 39.11 3.01 31.73c3.56-7.37 12.06-16.05 19.64-21 7.57-4.95 17.41-7.24 25.79-8.72C56.83.53 63.8-2.1 72.98 1.84s25.45 17.74 30.55 23.81c5.09 6.07 1.29 12.07.02 12.59M21.43 8.76c6.95-5.26 18.23-6.77 27.43-7.5 9.2-.72 20.09-.29 27.76 3.16 7.66 3.45 13.06 10.66 18.22 17.54 5.15 6.87 11.84 16.26 12.73 23.71.89 7.46-3.45 14.09-7.39 21.03-3.93 6.94-9.79 15.59-16.21 20.6-6.41 5.02-13.98 8.2-22.27 9.49s-19.28 1.17-27.49-1.75C26 92.11 18.26 86.13 12.44 79.26 6.62 72.4 1.04 62.51-.69 53.86c-1.74-8.65-.94-19 2.73-26.48s15.95-15.25 19.29-18.4c3.34-3.14.09-.88.75-.48" class="J"/>
        <path d="M77.88 4.78c8 3.15 17.72 11.16 22.39 17.87 4.67 6.7 5.69 14.3 5.62 22.35-.08 8.06-1.91 18.6-6.06 25.98s-11.59 13.93-18.84 18.3c-7.25 4.36-16.21 7.59-24.66 7.9-8.44.3-18.24-2.62-26-6.07-7.76-3.46-15.6-8.21-20.57-14.66C4.79 69.99 1.33 60.46.52 52.36c-.81-8.09.51-17.32 4.38-24.5S15.96 13.95 23.75 9.28C31.54 4.6 38.26-4.93 51.64-.19 65.01 4.55 96.28 25.56 104 37.72c7.72 12.15-5.38 35.08-6.05 35.01m-6.76-58.51c6.58 4.52 12.06 13.64 14.46 22.02 2.39 8.38 2.57 20.44-.07 28.24-2.65 7.8-8.75 13.29-15.8 18.56-7.04 5.26-17.87 10.63-26.46 13.03s-17.14 3.77-25.06 1.39c-7.92-2.39-16.78-9.5-22.48-15.73-5.69-6.22-9.16-13.6-11.71-21.61C1.52 52.1-1.59 41.38.48 33.65c2.08-7.74 8.82-14.4 16.05-19.95C23.76 8.14 35.08 2.12 43.86.3c8.78-1.81 16.65-.64 25.37 2.49 8.72 3.12 22.91 13.72 26.94 16.26 4.04 2.55-2.13-1.4-2.73-1" class="B C D E"/>
    </g>
    <g transform="matrix(1 0 0 1 1050.034942 227.30782)" class="F G H I K">
        <text x="13" y="28" style="white-space:pre">G</text>
    </g>
    <g transform="matrix(1 0 0 1 807.860233 191.600666)">
        <path d="M56.48.39c8.57-.66 18.71 2.52 26.23 6.75 7.52 4.22 14.88 11.65 18.88 18.62 4.01 6.97 5.76 14.91 5.15 23.2-.62 8.28-4.17 19.56-8.85 26.5S86.12 86.71 78.65 90.58s-16.71 8.01-25.58 8.11c-8.86.09-20.04-2.68-27.62-7.55-7.58-4.88-13.31-14.42-17.84-21.7s-9.22-13.88-9.34-21.99c-.12-8.1 3.24-19.38 8.62-26.65 5.38-7.26 8.96-16.24 23.67-16.94 14.71-.69 52.26 3.84 64.57 12.77s9.99 40.14 9.29 40.81M62.5-2.16c8.7.4 19.88 7.93 27.19 12.99s14.03 10.07 16.66 17.36c2.64 7.29 1.01 17.52-.84 26.37-1.84 8.86-4.85 19.82-10.22 26.75-5.38 6.93-14.11 11.94-22.04 14.83-7.92 2.89-17.03 4.33-25.52 2.52-8.49-1.82-18.13-7.5-25.42-13.4-7.3-5.9-14.52-14.45-18.35-22C.14 55.7-1.95 47.65-.65 39.96.66 32.27 6.16 23.28 11.78 17.13S24.95 5.78 33.09 3.05C41.22.32 56.24 1.34 60.6.76c4.36-.57-1.13-1.6-1.38-1.15" class="J"/>
        <path d="M73.56 2.08c8.13 2.4 17.82 8.77 23.42 15.58 5.61 6.81 9.11 16.73 10.22 25.3 1.11 8.56.02 18.45-3.54 26.08s-10.91 15.01-17.8 19.7-15 7.9-23.54 8.42c-8.55.53-19.45-1.81-27.73-5.29s-16.54-9.3-21.95-15.57c-5.41-6.28-9.08-13.93-10.5-22.06C.71 46.1.56 35.04 4.11 27.5c3.55-7.55 12.28-13.88 19.33-18.54C30.5 4.3 36.16-.71 46.45-.45c10.29.27 31.33 7.99 38.74 11 7.4 3.02 6.53 6.92 5.66 7.09M36.83 2.66c7.9-3.57 16.64-5.21 25.34-3.53 8.7 1.69 19.29 7.76 26.85 13.64 7.57 5.87 15.43 13.68 18.55 21.6 3.11 7.93 2.01 18.7.17 25.95-1.85 7.25-5.31 12.12-11.25 17.55-5.94 5.42-15.88 11.77-24.41 15-8.52 3.24-17.74 5.88-26.73 4.39-9-1.49-20.24-8.24-27.22-13.32S5.84 74.15 3.46 66.8s-1.42-19.09.37-26.97c1.79-7.89 4.69-14.17 10.39-20.34s20.4-14.52 23.81-16.7c3.41-2.17-2.93 2.94-3.38 3.63" class="B C D E"/>
    </g>
    <g transform="matrix(1 0 0 1 848.770383 220.1198)" class="F G H I K">
        <text x="13" y="28" style="white-space:pre">G</text>
    </g>
    <g transform="matrix(1 0 0 1 622.768719 198.788686)">
        <path d="M46.47-.62c8.15-1.9 17.82-.36 26.32 2.9 8.51 3.27 19.1 9.76 24.69 16.68 5.6 6.93 7.54 16.76 8.86 24.89s2.04 16.41-.94 23.87-9.3 16.37-16.95 20.89-19.92 5.71-28.93 6.23-16.79-.56-25.12-3.12-18.92-6-24.84-12.25S0 62.77-1.11 54.24c-1.12-8.54.03-18.51 3.98-25.98 3.94-7.47 8.32-14.63 19.69-18.85s36.95-7.49 48.55-6.47 21.27 12.2 21.05 12.6m-9.71-8.07c7.12 3.48 14.5 12.91 19.07 20.56 4.56 7.64 8.55 16.81 8.3 25.32-.25 8.5-4.55 18.77-9.8 25.72S87.04 92.03 78.3 95.05s-20.97 3.53-30.73 2.12c-9.75-1.41-20.49-5.74-27.79-10.56s-12.6-10.95-16-18.35C.39 60.86-1.63 50.51-.6 42.21S4.54 25.29 9.96 18.48C15.37 11.67 24 4.8 31.9 1.37c7.89-3.44 16.83-4.72 25.42-3.49C65.91-.9 78.64 7.12 83.44 8.72s2.61-1.52 2.66-1.25" class="J"/>
        <path d="M52.39.2c9.04-.97 20.28 1.04 28.39 5.15 8.12 4.11 15.73 12.29 20.32 19.53 4.58 7.24 7.32 15.87 7.16 23.93-.15 8.06-3.54 17.34-8.07 24.46-4.54 7.11-11.71 14.29-19.15 18.21-7.43 3.92-16.37 5.02-25.45 5.3-9.09.28-21.02.34-29.05-3.61-8.04-3.94-14.6-12.92-19.15-20.07C2.84 65.96-.87 58.52-.76 50.29c.11-8.22 4.21-19.03 8.81-26.51s11.02-14.3 18.8-18.37S49.51 0 54.73-.64c5.22-.65 3.19 1.28 3.46 2.19m-30.7 8.08c7.56-4.4 18.48-8.5 27.76-8.8 9.29-.3 20.81 3.13 27.95 6.98 7.14 3.86 11 9.25 14.87 16.15s7.7 17.33 8.35 25.26c.65 7.92-.04 15.4-4.45 22.3-4.4 6.9-14.43 14.35-21.97 19.09-7.55 4.74-14.59 9.1-23.3 9.35-8.71.24-21.2-3.75-28.97-7.85s-13.04-9.29-17.66-16.73C5.45 67.93.1 56.3.03 47.46c-.08-8.84 5.27-18.65 9.6-25.12C13.96 15.88 22.7 11.1 25.98 8.67c3.29-2.42 2.9-1.63 3.35-.89" class="B C D E"/>
    </g>
    <g transform="matrix(1 0 0 1 663.678869 227.30782)" class="F G H I K">
        <text x="13" y="28" style="white-space:pre">G</text>
    </g>
    <g transform="matrix(1 0 0 1 1467.3 220)" class="F G H I">
        <text x="107.5" y="45" font-size="50.4" style="white-space:pre">run queue</text>
    </g>
    <g transform="matrix(1 0 0 1 694 378)">
        <path d="M14.92 3.69l445.07-5.55 6.29 1.92-.5 12.22 4.95 35.69-6.45 6.26L452 59.44l-437.15-3.5-13.54 2.69 1.05-3.52-1.63-38.1L7.41 2.19l10.93-4.88" fill="#fa5252"/>
        <path d="M15 0c91.5-2.94 183.71.91 440 0M15 0c99.36-2.36 199.98-3.78 440 0m0 0c7.12 2.56 14.11 8.67 15 15M455 0c11.92.77 11.61 8.63 15 15m0 0c2.05 6.74-3.6 17.16 0 30m0-30c2.4 12.84-1.3 22.63 0 30m0 0c2.95 7.04-4.86 16.58-15 15m15-15c2.15 9.59-7.26 14.37-15 15m0 0c-99.41 3.96-197.43 3.36-440 0m440 0c-145.45-1.05-290.83-.46-440 0m0 0C1.49 62.85.38 57.84 0 45m15 15C8.85 62.53-.68 56.44 0 45m0 0c-.54-8-.73-13.65 0-30m0 30c-.68-11.3-.09-22.53 0-30m0 0C.96 3.92 1.59-.87 15 0M0 15C-.16 1.83 4.37 3.69 15 0" class="B C D E"/>
    </g>
    <g transform="matrix(1 0 0 1 859.5 374.568807)" class="F G H I">
        <text x="63.5" y="37" font-size="41.945" style="white-space:pre">Mutex</text>
    </g>
    <g transform="matrix(1 0 0 1 276 734)">
        <path d="M32.38.85l100.67 2.39 9.44 1.61 13.89 5.99 8.96 9.36-1.93 13.05-3.37 73.39-.94 16.69-14.69 5.81-13.25 6.06-101.14-6.25-13.97 1.24-8.83-5.66-5.76-18.11-4.37-82.79L7.86 5.25l9.59-.04 16.01-6.94" class="N"/>
        <path d="M32 0c32.09-4.85 59.51-.29 100 0M32 0c27.08-.31 55.8 1.92 100 0m0 0c18.52 3.21 31.36 10.95 32 32M132 0c18.02.06 33.36 9.97 32 32m0 0c.52 13.53-3.49 32.72 0 68m0-68c.7 19.31.37 39.64 0 68m0 0c1.77 18.75-7.21 33.87-32 32m32-32c4.05 20.29-10.83 35.5-32 32m0 0c-35.47-4.97-66.85-4.86-100 0m100 0c-32.95 1.42-66.16 1.87-100 0m0 0c-24.74 2.16-29.09-14.5-32-32m32 32c-24.24.81-27.64-10.28-32-32m0 0c-.28-27.06-1.06-55.45 0-68m0 68c.77-23.59 1.56-49.23 0-68m0 0C-1.89 11.11 7.86 1.4 32 0M0 32C1.07 13.95 11.77 1.7 32 0" class="B C D E"/>
    </g>
    <g transform="matrix(1 0 0 1 343.5 777.5)" class="F G H I">
        <text x="14.5" y="32" font-size="36" style="white-space:pre">M</text>
    </g>
    <g transform="matrix(1 0 0 1 1360 728)">
        <path d="M35.21 1.46L130.27-.1l12.24 5.31 15.84-.46 3.66 14.57 1.07 16.28.37 70.64-8.12 18.54-5.54 2.41-14.58 4.17-102.93-2.24-14.23 2.07-10.66-9.46-6.41-15.4-.13-84.84 3.5-13.86 13.3-6.03 15.11.07" class="N"/>
        <path d="M32 0c29.29-2.62 58.5 1.84 100 0M32 0c40.33.7 76.38-.96 100 0m0 0c19.01-3.94 31.44 6.83 32 32M132 0c22.63 4.32 32.95 10.36 32 32m0 0c-3.77 25.96 2.55 43.78 0 68m0-68c.41 18 1.23 30.4 0 68m0 0c.39 21.15-11.05 30.3-32 32m32-32c2.95 21.86-10.14 34.12-32 32m0 0c-37.74.74-74.5 1.7-100 0m100 0c-31.58-.08-66.24.82-100 0m0 0c-24.66 3.3-33.22-13.59-32-32m32 32c-25.81.31-33.73-13.45-32-32m0 0c.88-18.88-1.6-34.03 0-68m0 68c.94-24.89 1.81-49.66 0-68m0 0C1.27 12.87 9.55 2.71 32 0M0 32C3.97 14.6 7.11.79 32 0" class="B C D E"/>
    </g>
    <g transform="matrix(1 0 0 1 1427.5 771.5)" class="F G H I">
        <text x="14.5" y="32" font-size="36" style="white-space:pre">M</text>
    </g>
    <g transform="matrix(1 0 0 1 774 782)">
        <path d="M35.21 2.35L128.75.01l18.57 1.07 12.28 6.87 1.14 9.38 4.04 18.46-4.09 74.92-5.33 13.57-12.24 5.77-9.93 1.34-103.46 1.09-12.9-2.13-11.84-10-4.86-13.2L.1 25.26 9.67 7.01l9.35-4.95 14.75-4.65" class="N"/>
        <path d="M32 0c37.72-1.9 80.3-.5 100 0M32 0c21.84.89 45.71 1.73 100 0m0 0c25.09.83 31.73 12.67 32 32M132 0c20.1 3.35 28.09 13.15 32 32m0 0c-.6 29.14-.96 54.51 0 68m0-68c-1.32 23.59-2.08 48.84 0 68m0 0c.46 21.79-8.82 34.34-32 32m32-32c3.94 22.02-12.84 32.51-32 32m0 0c-20.14 1.43-44.5-.66-100 0m100 0c-20.36-2.27-45.48-3.61-100 0m0 0c-21.07-1.5-34.42-12.55-32-32m32 32C9.08 130.8.48 119.41 0 100m0 0c-2.55-20.34.11-34.11 0-68m0 68c1.27-24.32 1.52-45.8 0-68m0 0C3.42 7.58 11.36-3.97 32 0M0 32C3.74 12.85 13.88-2.92 32 0" class="B C D E"/>
    </g>
    <g transform="matrix(1 0 0 1 841.5 825.5)" class="F G H I">
        <text x="14.5" y="32" font-size="36" style="white-space:pre">M</text>
    </g>
    <g transform="translate(737.413 470)" class="B C D E">
        <path d="M.28 1.69l-348.19 251.35M-3.02.14l-347.06 248.45"/>
        <path d="M-330.85 223.91c-4.4 1.08-8.95 6.18-19.58 26.55m16.71-27.18c-4.03 8.68-11.32 19.13-15.97 27.19"/>
        <path d="M-318.81 240.53c-6.9-2.33-13.94-.67-31.62 9.93m28.75-10.56c-8.7 2.45-20.35 6.89-28.01 10.57"/>
    </g>
    <g transform="translate(432 690)" class="B C D E">
        <path d="M.72 2.12L330.08-246M-2.33.81l331.3-243.19m-13.55 27.97c2.73-11.94 5.63-22.51 15.38-28.47m-17.22 26.06c2.5-9.05 9.41-17.02 17.26-24.12"/>
        <path d="M303.23-230.92c6.95-6.28 14.07-11.12 27.57-11.96m-29.41 9.55c6.44-3.93 17.26-6.59 29.45-7.61"/>
    </g>
    <g class="B E C D">
        <g transform="matrix(.659034 -.752113 .752113 .659034 963.808521 442.370962)">
            <path d="M-.8-.5l91.95 545.29M3.96-3.24l92.1 543.38"/>
            <path d="M80.58 510.12c4.97 13.33 6.87 19.78 19.03 33.76m-19.85-30.44c5.22 6.38 8.44 13.44 14.42 26.27"/>
            <path d="M100.82 506.74c-.2 14.07-3.41 21.37-1.21 37.14m.39-33.82c-.37 7.65-2.69 15.63-5.82 29.65"/>
        </g>
    </g>
    <g class="B E C D">
        <g transform="matrix(.659034 -.752113 .752113 .659034 1147.718548 555.105383)">
            <path d="M-.5-2.73l-37.65-225.58M-4.22 1.95l-35.81-234.22"/>
            <path d="M-29.5-205.03c3.63-7.68.3-9.03-6.79-28.31m10.11 27.53c-3.87-6.37-6.87-12.92-14.28-27.17"/>
            <path d="M-49.78-201.91c8.11-8.29 9.25-10.33 13.49-31.43m-10.17 30.65c.18-6.69 1.28-13.86 6-30.29"/>
        </g>
    </g>
    <g class="B E C D">
        <g transform="matrix(.631312 -.775529 .775529 .631312 857.377092 438.000738)">
            <path d="M-.53.99l-260.53 214.44M-4.27-.94c-44.31 36-215.04 183.4-258.27 220.09"/>
            <path d="M-246.39 195.01c-6.42 8.4-11.45 18.78-12.72 24.14m12.84-25.46c-6.25 8.59-13.53 15.26-14.33 25.3"/>
            <path d="M-233.04 210.6c-11.63 2.47-21.69 6.97-26.07 8.55m26.19-9.87c-10.58 3.3-22.39 4.68-27.68 9.71"/>
        </g>
    </g>
    <g class="B E C D">
        <g transform="matrix(.631312 -.775529 .775529 .631312 857.846548 712.437359)">
            <path d="M.99 1.39l212.07-173.38M-1.92-.32l212.84-167.82"/>
            <path d="M197.07-142.4c4.33-8.66 10.5-15.08 13.84-24.18m-15.16 24.53c3.48-8.55 5.03-10.95 15-27.67"/>
            <path d="M184.4-158.54c8.78-3 19.45-3.68 26.51-8.04m-27.84 8.39c6.48-4.93 11.02-3.51 27.68-11.53"/>
        </g>
    </g>
    <g transform="matrix(1 0 0 1 10 742)">
        <path d="M33.58.74l64.02 2.8 16.03-1.07 3.03 3.7 11.93 18.9-1.34 379.37-1.84 19.95-7.19 7.94-17.93 3.69-69.15 1.04-13.93-1.22-9.36-14.23-9.99-7.67-.43-389.21L10.2 11.18l8.01-6.31L31.44.17" class="O"/>
        <path d="M32 0c16.39-.26 43.22 4.48 64 0m0 0c24.89-3.18 35.59 10.53 32 32m0 0c.64 76.46 2.76 156.96 0 374m0 0c3.85 19.31-13.97 28.43-32 32m0 0c-22.02-1.08-41.31 1.79-64 0m0 0c-19.81.02-29.94-8.37-32-32m0 0V32m0 0C.25 12.74 10.96.64 32 0" class="B C D L M"/>
    </g>
    <g transform="matrix(1 0 0 1 18.08985 765.480865)">
        <path d="M96.54 20.71c5.11 5.93 7.99 15.84 9.29 23.69 1.3 7.86 1.87 16.4-1.48 23.45-3.35 7.06-11.07 14.09-18.62 18.88-7.54 4.8-17.86 8.83-26.66 9.87-8.8 1.05-18.08.03-26.16-3.58-8.07-3.61-17.08-11.1-22.28-18.09-5.21-6.99-8.08-16.29-8.97-23.83-.89-7.53.04-14.1 3.61-21.36S15.85 12.71 23.08 7.52 39.49-.81 48.64-1.41s19.9-1.34 29.34 5.31c9.44 6.66 22.66 25.75 27.3 34.62 4.65 8.87 1.06 18.65.57 18.59M85.32 8.99c6.64 3.21 13.05 10.37 16.72 17.74 3.68 7.36 5.9 17.86 5.35 26.44-.56 8.58-3.25 18.23-8.66 25.02-5.4 6.79-14.95 12.38-23.79 15.73s-20.44 5.69-29.26 4.37c-8.82-1.33-17.13-7.36-23.66-12.31C15.5 81.03 9.94 76.29 6.53 68.6 3.11 60.92.62 48.29 1.55 39.85c.93-8.45 5.53-15.89 10.57-21.91 5.05-6.01 11.78-11.02 19.7-14.18C39.73.61 50.31-1.53 59.6-.99S83.63 5.29 87.57 7c3.94 1.7-3.77.66-4.3 2.21" class="J"/>
        <path d="M45.23-1.37C53.38-2.84 66.95.69 75.21 4.02c8.26 3.34 14.19 8.14 19.57 14.62 5.37 6.47 10.91 16.01 12.65 24.21 1.74 8.21 1.24 17.48-2.21 25.01S93.92 83.1 86.73 88.05s-15.69 8.44-24.65 9.51-20.77.47-29.11-3.09c-8.33-3.56-15.79-11.54-20.91-18.27-5.13-6.73-8.54-14.57-9.84-22.11-1.31-7.54-1.16-15.82 2.01-23.11s6.42-15.83 17.02-20.64c10.6-4.8 36.14-8 46.58-8.2 10.45-.2 16.73 6.46 16.09 7m-60.19-.07C30.58 3.28 41.86.14 50.84-.99c8.97-1.14 18.84.05 26.73 3.25 7.9 3.2 15.24 9.48 20.63 15.96 5.4 6.49 11.34 14.45 11.74 22.95.4 8.51-4.93 19.94-9.35 28.08-4.42 8.15-10.23 16.31-17.15 20.81s-15.5 5.39-24.37 6.19c-8.88.81-20.69 1.36-28.86-1.36-8.18-2.73-15.19-7.8-20.19-14.98C5.03 72.72.96 60.06.24 51.78-.47 43.49 2.46 36.77 5.72 30.2c3.27-6.57 11.48-14.96 14.12-17.85 2.65-2.9.5.56 1.74.48" class="B C D E"/>
    </g>
    <g transform="matrix(1 0 0 1 59 794)" class="F G H I K">
        <text x="13" y="28" style="white-space:pre">G</text>
    </g>
    <g transform="matrix(1 0 0 1 18.08985 905.480865)">
        <path d="M42.97 2.56C50.7.21 60.03.51 68.51 2.43c8.47 1.92 18.65 5.77 25.31 11.64 6.66 5.86 12.74 15.54 14.66 23.53 1.92 8-.43 16.69-3.15 24.44-2.72 7.74-6.67 16.51-13.16 22.04S75.64 93.15 66.39 95.2s-21.31 3.68-29.72 1.2c-8.41-2.49-14.98-10.09-20.76-16.11-5.77-6.02-11.72-12.43-13.87-20.01C-.1 52.7.25 43.02 3.03 34.82s4.65-18.09 15.69-23.74S57.31.56 69.28.91c11.96.35 21.78 11.41 21.22 12.24M33.1.44C40.84-2.97 52.68-.62 62.21.7c9.52 1.31 20.71 2.09 28.02 7.63 7.3 5.55 13.22 17.98 15.81 25.62 2.6 7.65 1.45 13.02-.23 20.27-1.67 7.24-4.09 16.34-9.82 23.2-5.73 6.87-16.29 15-24.55 18-8.26 2.99-16.26 1.04-25.01-.03-8.74-1.06-19.83-.94-27.47-6.37C11.31 83.59 3.98 70.74.54 62.81-2.89 54.88-3.2 48.83-1.65 41.44c1.55-7.4 5.14-16.18 11.51-23C16.22 11.63 32.32 3.37 36.54.56c4.22-2.82-1.44-.08-1.37 1.01" class="J"/>
        <path d="M90.06 15.32c6.26 4.82 10.99 12.93 13.91 20.54 2.93 7.6 5.82 17.36 3.66 25.08-2.17 7.73-9.82 15.28-16.63 21.25-6.82 5.98-15.75 12.58-24.27 14.6-8.51 2.02-18.55-.16-26.83-2.46-8.29-2.3-16.7-6.09-22.89-11.36-6.18-5.28-11.58-12.73-14.22-20.28-2.64-7.54-4-17.22-1.64-24.99 2.36-7.78 9.54-15.56 15.8-21.64S30.48 3.95 38.71 1.2c8.23-2.74 16.93-6.01 27.64-1.63 10.71 4.39 29.7 20.2 36.62 27.94 6.92 7.73 5.72 17.89 4.91 18.45M26.54 8.39c7.02-4.26 20.78-7.21 29.53-7.25 8.74-.05 15.66 3.18 22.95 6.97 7.28 3.78 15.96 9.01 20.75 15.71 4.79 6.71 8.16 16.05 8 24.51-.17 8.46-3.91 19.59-9.01 26.27-5.09 6.67-13.68 9.87-21.54 13.8-7.87 3.93-17.56 9.11-25.63 9.78-8.08.67-15.56-1.76-22.82-5.76-7.25-3.99-15.76-10.61-20.71-18.21C3.11 66.62-1.3 55.44-.95 46.87c.35-8.58 6.62-17.58 11.11-24.1S22.48 10.8 26 7.73c3.51-3.07 4.66-3.36 5.23-3.39" class="B C D E"/>
    </g>
    <g transform="matrix(1 0 0 1 59 934)" class="F G H I K">
        <text x="13" y="28" style="white-space:pre">G</text>
    </g>
    <g transform="matrix(1 0 0 1 284.08985 1051.480865)">
        <path d="M12.06 18.04c5.01-6.2 15.98-13.09 24.62-15.61s18.38-1.31 27.21.5S82.9 8.36 89.66 13.29c6.76 4.92 11.68 11.35 14.79 19.19 3.1 7.84 5.73 19.63 3.84 27.84-1.9 8.2-9.16 15.57-15.21 21.38-6.05 5.8-12.88 10.87-21.1 13.45s-18.95 3.55-28.24 2.03c-9.28-1.52-20.49-5.71-27.46-11.15C9.31 80.58 4.49 72.52 1.92 64.51-.65 56.49-6.68 48.76.86 37.94 8.41 27.13 33.4 4.32 47.19-.39 60.98-5.11 83.63 9.05 83.62 9.67M44.11 2.14c8.78-2.3 24.52-2.65 32.91.2s12.7 10.54 17.45 16.9c4.75 6.37 9.25 13.13 11.06 21.28 1.8 8.16 3.04 20.08-.24 27.68C102 75.8 92.7 81.87 85.82 86.12c-6.87 4.24-12.58 6.72-21.79 7.54-9.22.82-24.83.35-33.5-2.63-8.68-2.97-13.67-9.48-18.57-15.21C7.06 70.1 2.87 64.3 1.12 56.67c-1.75-7.64-2.55-18.94.35-26.66s9.6-14.71 17.04-19.67C25.96 5.38 41.83 1.87 46.17.25c4.35-1.62-1.66-.15-1.59.39" class="J"/>
        <path d="M10.74 18.45c4.31-7.14 12.71-12.84 21.14-15.96C40.31-.62 52.51-1.55 61.3-.26c8.79 1.3 16.35 5.5 23.32 10.51 6.96 5.01 14.44 12.38 18.45 19.55 4.02 7.16 6.34 15.29 5.61 23.44-.73 8.16-4.74 19-10 25.48-5.25 6.49-12.99 10.61-21.53 13.45-8.53 2.83-20.16 4.31-29.68 3.55-9.51-.75-20.09-3.68-27.4-8.08C12.76 83.23 6.89 76.69 3.64 69.3s-7.07-15.35-3.07-26S19.44 12.31 27.64 5.37 49.51.52 49.75 1.65m27.01 1.16c7.75 2.88 14.49 10.44 19.44 16.94s8.92 14.5 10.28 22.07c1.36 7.58 1.77 15.95-2.1 23.35-3.86 7.4-13.86 15.35-21.1 21.04-7.23 5.7-14.18 11.81-22.3 13.14-8.12 1.34-18.37-1.27-26.43-5.11-8.06-3.85-16.09-11.63-21.93-17.95S.97 64.49-.5 56.32c-1.48-8.17.24-21.73 4.27-29.06 4.02-7.32 12.92-10.23 19.86-14.88C30.57 7.72 37.2.28 45.39-.66c8.2-.95 22.5 6.53 27.41 7.36 4.9.84 1.7-2.74 2.03-2.37" class="B C D E"/>
    </g>
    <g transform="matrix(1 0 0 1 325 1080)" class="F G H I K">
        <text x="13" y="28" style="white-space:pre">G</text>
    </g>
    <g transform="matrix(1 0 0 1 526 787)">
        <path d="M31.98-3.65l61-.01 15.35 2.85 12.68 12.11 8.39 13.07-1.07 380.06-4.3 23.42-10.38 1.97-11.37 7.55-73.85 1.47-10.42-1.93-9.64-14.32-9.59-5.88L4.43 23.93l6-14.2 10.39-4.28 7.23-8.73" class="O"/>
        <path d="M32 0c16.85-.8 31.63-.72 64 0m0 0c24.59 3.78 28.48 13.41 32 32m0 0v374m0 0c-.06 19.5-9.03 30.51-32 32m0 0c-28.56-2.22-49.33-4.84-64 0m0 0c-23.66-1.03-34.58-9.17-32-32m0 0c-1.37-85.78-1.43-178.16 0-374m0 0C-2.79 8.4 14.23-2.74 32 0" class="B C D L M"/>
    </g>
    <g transform="matrix(1 0 0 1 534.08985 810.480865)">
        <path d="M14.13 16.25c5.34-6.33 14.5-11.36 22.55-14.06S53.93-1.19 62.43.06c8.51 1.25 18.2 4.57 25.28 9.62 7.08 5.04 14.22 12.88 17.2 20.65 2.99 7.76 2.37 17.5.73 25.95-1.64 8.44-5.2 18.48-10.58 24.72S81.85 91.25 73.38 93.7c-8.47 2.46-19.97 3.59-29.14 2.03s-19.3-6.04-25.88-11.38S7.46 71.29 4.77 63.69c-2.69-7.61-6.48-15.06-2.54-24.98 3.95-9.91 18.05-28.27 26.2-34.5C36.58-2.03 50.46.29 51.16 1.32M38.32 3.28c7.77-3 17.2-4.92 25.25-3.2s15.91 8.56 23.04 13.53 16.75 9 19.76 16.29c3.01 7.3.44 18.75-1.72 27.47-2.16 8.71-5.64 18.39-11.25 24.82-5.62 6.44-14.1 11.95-22.43 13.8-8.32 1.86-19.21-1.1-27.52-2.67-8.32-1.57-15.54-2.2-22.37-6.75S5.83 73.29 2.44 66.01-.66 50.59.72 42.89c1.37-7.7 3.98-16.4 9.99-23.07 6-6.66 22.12-14.44 26.06-16.94s-2.58.96-2.41 1.97" class="J"/>
        <path d="M20.08 11.38C26.04 5.49 35.82 1.2 44.55-.02s19.63 1.5 27.9 4.07c8.27 2.56 16.07 5.35 21.72 11.33 5.66 5.97 10.75 16.16 12.19 24.5 1.45 8.33-.57 17.82-3.52 25.51-2.94 7.7-7.9 15.75-14.14 20.66-6.25 4.9-14.34 7.15-23.33 8.77-8.98 1.62-22.15 3.5-30.6.95s-14.63-9.93-20.08-16.23S3.75 65.59 2.07 57.96C.39 50.34.87 42.6 4.6 33.79 8.34 24.99 19.64 9.9 24.48 5.12c4.85-4.77 8.3-1.07 9.21.03m18.13-2.14c7.84-.97 14.46.31 22.38 3.65 7.91 3.35 19.99 10.51 25.1 16.44 5.11 5.92 4.79 11.75 5.57 19.11.77 7.35 2.61 17.34-.93 25.02-3.53 7.68-12.46 15.93-20.27 21.07s-17.63 8.66-26.6 9.8c-8.97 1.13-19.15 1-27.2-3-8.06-4.01-15.74-13.79-21.14-21.03S-2.02 59.82-2.56 51.63c-.55-8.19 4.02-19.4 8.01-26.68 3.99-7.29 8.93-13.09 15.93-17.03s21.7-5.58 26.06-6.63c4.36-1.04.04-.13.08.37" class="B C D E"/>
    </g>
    <g transform="matrix(1 0 0 1 575 839)" class="F G H I K">
        <text x="13" y="28" style="white-space:pre">G</text>
    </g>
    <g transform="matrix(1 0 0 1 534.08985 950.480865)">
        <path d="M26.52 6.74C32.93 2.15 42.48-.12 51.11-.57c8.62-.45 19.01.98 27.14 4.61 8.12 3.62 16.92 10.14 21.6 17.14 4.69 7.01 6.24 16.35 6.49 24.9.24 8.55-1.21 19.23-5.01 26.4-3.8 7.18-10.17 12.69-17.79 16.67-7.63 3.98-18.69 7.07-27.97 7.21-9.29.14-20.12-2.45-27.75-6.37-7.62-3.92-13.61-10.31-17.99-17.16S2.32 56.87 1.54 48.91C.75 40.94.22 32.33 5.1 25.04S25.52 8.6 30.84 5.17c5.31-3.43 5.98-1.4 6.16-.7M17.22 12.4c4.91-5.47 13.39-6.9 22.41-8.98C48.65 1.35 62.79-2.1 71.34-.06 79.9 1.98 85.4 8.99 90.97 15.66c5.56 6.66 11.53 16.11 13.75 24.25 2.21 8.14 2.03 17.71-.45 24.56-2.49 6.85-8.44 11.15-14.48 16.53-6.03 5.38-13.01 13.26-21.73 15.76-8.72 2.49-21.65 1.24-30.59-.78-8.95-2.03-16.72-5.73-23.07-11.38C8.05 78.96 1.21 70.47-.62 62.11-2.44 53.74.79 42.4 3.47 34.4c2.68-7.99 9.54-17.07 11.98-20.26 2.45-3.18 1.57.61 2.69 1.15" class="J"/>
        <path d="M93.69 14.82c6.24 5.38 11.28 16.48 13.07 24.2 1.8 7.71.52 14.57-2.3 22.08s-7.84 17.14-14.59 23.01c-6.75 5.86-17.22 10.29-25.88 12.16-8.67 1.87-18.14 1.75-26.1-.97-7.96-2.71-15.42-9.57-21.66-15.32C9.99 74.22 2.43 68.49.46 60.8c-1.97-7.7.93-19.14 3.94-26.99 3.02-7.84 7.65-14.93 14.16-20.08 6.51-5.14 16.67-8.62 24.9-10.82C51.69.72 58.16-4.03 67.96.55c9.79 4.59 27.68 22.25 34.25 29.87s5.8 15.62 5.15 15.87M47.86 2.15C56.12.88 70.97 4.46 79 7.34s12.05 6.06 17.04 12.09 12.06 15.67 12.91 24.1c.86 8.44-3.34 18.73-7.77 26.5s-11.3 15.19-18.8 20.12-17.29 9.51-26.18 9.46c-8.89-.06-18.85-5.59-27.17-9.78-8.32-4.2-18-8.56-22.77-15.42C1.5 67.55.84 56.68.44 48.65.04 40.61.25 32.76 3.87 26.19S14.68 13.5 22.13 9.23C29.58 4.97 44.18 2.1 48.57.62s-.94-.86-.1-.27" class="B C D E"/>
    </g>
    <g transform="matrix(1 0 0 1 575 979)" class="F G H I K">
        <text x="13" y="28" style="white-space:pre">G</text>
    </g>
    <g transform="matrix(1 0 0 1 794.08985 1068.480865)">
        <path d="M19.39 10.31C25.16 4.82 35.72.59 44.74-.81s20.54-.34 28.79 2.72c8.25 3.05 15.19 8.9 20.72 15.63 5.53 6.74 10.68 16.8 12.46 24.79 1.79 7.98 1.48 15.94-1.75 23.13-3.24 7.19-10.41 15.12-17.68 20.02-7.27 4.89-17.43 8.26-25.95 9.36-8.52 1.11-17.23.17-25.18-2.73S19.7 83.6 13.62 77.45C7.55 71.29 1.3 62.84-.29 55.19s-3.37-14.67 4.38-23.64S34.86 5.91 46.23 1.36c11.38-4.54 26.35 1.96 26.12 2.93M59.07 2.61c8.83.09 22.5.73 29.57 5.37 7.06 4.63 10 14.18 12.84 22.42 2.83 8.24 5.17 18.74 4.15 27.01-1.03 8.27-4.93 17.11-10.3 22.62S81.2 87.54 73.41 90.46c-7.78 2.92-15.92 7.54-24.79 7.12s-20.99-5.02-28.45-9.64C12.72 83.32 7.51 77.08 3.89 69.86.28 62.64-2.94 53.11-1.53 44.61c1.42-8.5 8.38-19.12 13.94-25.77S23.66 7.5 31.83 4.68c8.18-2.81 24.54-2.32 29.64-2.74 5.09-.41.79.04.93.23" class="J"/>
        <path d="M52.38 1.2C60.7.07 70.59.28 78.37 3.88s16.09 11.69 20.7 18.93c4.6 7.24 6.53 16.35 6.93 24.51.41 8.17-.92 17.68-4.53 24.5s-9.36 11.97-17.13 16.43c-7.77 4.47-20.52 9.9-29.49 10.37-8.98.46-16.78-3.65-24.36-7.58-7.58-3.94-16.29-9.48-21.13-16.01S2.27 60.36 1.44 51.86.59 31.29 4.38 24.03c3.78-7.25 5.53-13.79 19.78-15.69 14.26-1.9 52.05-1.62 65.73 4.3 13.68 5.91 17.08 30.44 16.35 31.18m-7.51-21.45c5.61 5.1 5.11 11.61 6.05 18.95.93 7.34 2.96 17.36-.43 25.1-3.38 7.75-12.16 16.1-19.87 21.37-7.72 5.26-17.47 8.94-26.43 10.22-8.95 1.28-19.16 1.33-27.29-2.54C22.64 91.6 14.84 81.95 9.3 74.79 3.76 67.64-1.76 60.69-2.47 52.52-3.18 44.34 1.2 33.1 5.04 25.75c3.84-7.34 8.63-13.25 15.53-17.31 6.9-4.07 16.98-6.45 25.89-7.07 8.9-.61 19.37.39 27.54 3.39s17.24 12.09 21.49 14.61c4.24 2.52 4.78.25 3.96.49" class="B C D E"/>
    </g>
    <g transform="matrix(1 0 0 1 835 1097)" class="F G H I K">
        <text x="13" y="28" style="white-space:pre">G</text>
    </g>
    <g transform="matrix(1 0 0 1 1126 785)">
        <path d="M34.44-1.25L92.06 2.6 111.31.99l10.08 6.83 10.04 13.99.05 385.71-7.97 15.8-6.6 10.6-11.4 5.44-72.48 1.14-17.9-4.45-11.73-7.54.43-18.78L-1.14 26.9 5.33 7.52 19.5.42 34.57.27" class="O"/>
        <path d="M32 0c23.12-3.53 39.58-2.04 64 0m0 0c19.16 3.03 30.31 8.25 32 32m0 0v374m0 0c2.95 25.2-10.1 30.12-32 32m0 0c-18.84-2.39-42.87-4.22-64 0m0 0c-20.02 3.68-30-10.83-32-32m0 0V32m0 0C-1.32 12.84 14.56 1.82 32 0" class="B C D L M"/>
    </g>
    <g transform="matrix(1 0 0 1 1134.08985 808.480865)">
        <path d="M10.81 22.77C15.07 16.09 22.77 10.55 30.37 7c7.59-3.54 17.1-5.84 26.04-5.51 8.94.34 20.3 3.18 27.58 7.53s12.3 11.78 16.1 18.55c3.79 6.77 6.73 14.27 6.68 22.05-.05 7.79-2.22 17.63-6.98 24.65-4.77 7.01-13.13 13.86-21.6 17.43-8.46 3.57-19.98 4.68-29.19 4-9.22-.69-18.86-4.06-26.09-8.13S9.24 77.93 5.62 71.26C1.99 64.59.34 56.09 1.16 47.55c.81-8.54 6.78-22.23 9.35-27.5 2.58-5.28 5.24-4.19 6.1-4.12M57.22-1.75c7.68.04 18.23 2.99 25.67 8.22 7.44 5.22 15.03 14.94 18.97 23.12 3.94 8.19 5.51 17.85 4.68 25.98-.82 8.12-4.03 16.11-9.65 22.78-5.62 6.68-16.19 14.61-24.07 17.27-7.87 2.66-15.14-.31-23.19-1.32s-17.3-.19-25.11-4.74S6.86 74.62 2.77 67C-1.31 59.37-1.04 51.43.01 43.81c1.04-7.61 3.41-15.69 9.02-22.5S25.57 6.41 33.68 2.97 53.26.62 57.67.65c4.42.04 2.04 1.49 2.5 2.53" class="J"/>
        <path d="M42.45.19c8.24-2.45 19.35.14 27.68 2.35 8.32 2.22 16.17 5.24 22.29 10.93 6.11 5.68 12 15.01 14.41 23.18 2.4 8.16 2.46 17.87.01 25.83-2.44 7.96-7.86 16.44-14.68 21.94-6.83 5.51-17.38 9.06-26.26 11.11-8.88 2.06-18.88 3.72-27.02 1.23S23.41 86.42 17.07 80.59C10.74 74.77 3.62 69.36.88 61.8-1.86 54.25-2.03 43.37.64 35.25c2.68-8.12 3.8-16.92 16.29-22.17C29.41 7.83 61.77 1.76 75.57 3.73c13.79 1.98 24.56 20.3 24.12 21.2m-85.37-8.59c5.61-6 15.42-14.2 24.58-16.55 9.16-2.36 21.59-.18 30.37 2.42 8.77 2.6 16.05 7.31 22.27 13.17 6.22 5.87 12.65 14 15.05 22.02s1.3 18.42-.67 26.08c-1.96 7.67-4.53 14.3-11.14 19.91C88.16 89 75.31 95.3 66.24 97.13s-17.92-.11-25.86-2.76c-7.94-2.66-15.67-7.11-21.76-13.17S6.48 65.14 3.86 58.03.61 45.88 2.88 38.53c2.26-7.35 11.88-20.55 14.57-24.58s1.67-.1 1.57.39" class="B C D E"/>
    </g>
    <g transform="matrix(1 0 0 1 1175 837)" class="F G H I K">
        <text x="13" y="28" style="white-space:pre">G</text>
    </g>
    <g transform="matrix(1 0 0 1 1134.08985 948.480865)">
        <path d="M82.43 8.83c7.28 3.46 13.75 10.72 18.05 17.67 4.31 6.95 8.19 16.02 7.78 24.01-.4 7.99-5.32 17.45-10.2 23.92-4.88 6.46-11.68 11.25-19.08 14.86-7.39 3.61-16.49 6.73-25.3 6.82-8.81.1-19.43-2-27.55-6.24C18 85.63 9.5 77.99 4.92 70.69s-6.74-16.9-6.29-24.61c.46-7.72 3.96-15.31 9.02-21.67 5.05-6.37 13.59-12.72 21.3-16.53 7.7-3.8 14.67-6.98 24.95-6.3 10.29.69 29.9 7.7 36.75 10.41 6.85 2.7 5.11 4.93 4.35 5.81m-81.52-7.11c5.8-5.41 16.88-7.49 25.93-8.67 9.05-1.19 19.57-.75 28.37 1.56S86.25 9.92 92.2 15.89s8.73 16.27 11.27 23.52c2.53 7.26 5.51 12.34 3.92 20-1.59 7.65-6.44 20.07-13.47 25.93-7.02 5.86-19.5 7.49-28.69 9.23-9.2 1.75-17.88 3.03-26.46 1.23s-19.09-5.92-25.05-12.02c-5.96-6.11-8.38-16.56-10.68-24.6S-2.39 42.81-.09 35.54c2.31-7.27 13.9-16.73 16.98-19.98 3.07-3.24 1.05-.09 1.49.51" class="J"/>
        <path d="M53.26.81c8.17-1 17.72-.07 25.52 3.57 7.8 3.63 16.29 11.1 21.28 18.25 5 7.16 8.34 16.42 8.71 24.67s-1.96 17.82-6.51 24.85c-4.55 7.02-13.04 12.91-20.79 17.3s-17.27 9-25.72 9.04c-8.46.04-17.02-5.02-25.04-8.8-8.01-3.78-17.73-7.33-23.07-13.87-5.33-6.55-8.79-16.98-8.92-25.39-.14-8.41 3.53-17.96 8.11-25.07 4.58-7.12 7.82-14.23 19.37-17.61 11.55-3.37 38.47-4.5 49.92-2.64 11.46 1.86 19.53 13.44 18.82 13.81M31.19 2.19C39.18-1.8 52.23-.57 61.26.83c9.03 1.39 17 4.81 24.11 9.75s14.87 12.27 18.55 19.88c3.68 7.62 4.18 17.91 3.55 25.81-.64 7.9-1.77 15.16-7.35 21.57-5.59 6.41-17.55 13.9-26.17 16.89s-17.37 2.48-25.56 1.03c-8.19-1.46-16.63-4.62-23.6-9.75-6.98-5.13-14.35-14.33-18.26-21.04S.4 53.32 1.33 45.74s5.2-19.22 10.78-26.24C17.68 12.47 31.8 6.12 34.78 3.59s-5.2.37-4.79.72" class="B C D E"/>
    </g>
    <g transform="matrix(1 0 0 1 1175 977)" class="F G H I K">
        <text x="13" y="28" style="white-space:pre">G</text>
    </g>
    <g transform="matrix(1 0 0 1 1400.08985 1050.480865)">
        <path d="M76.94 6.34c7.98 2.61 17.35 9.51 22.14 16.12s6.23 15.93 6.61 23.54c.39 7.61-.83 15.13-4.3 22.1-3.47 6.98-9.25 14.98-16.53 19.75s-17.75 8.39-27.15 8.89c-9.39.5-20.93-2.12-29.25-5.89S12.56 80.47 7.81 74.13C3.07 67.8.23 60.35.01 52.83c-.21-7.51 2.74-16.6 6.53-23.76 3.79-7.17 8.71-14.39 16.19-19.22S37.47-4.41 51.4.07s47.54 23.4 54.91 36.64-9.58 42.75-10.69 42.8M18.55 11.39c6.47-4.6 16.92-7.9 25.95-9.08 9.04-1.18 20.16-1.05 28.25 2 8.09 3.06 14.29 10.64 20.3 16.33s13.46 9.96 15.75 17.82c2.29 7.87 1.77 21.58-2.02 29.37-3.78 7.79-13.24 12.5-20.69 17.37-7.46 4.87-15.23 10.18-24.04 11.87-8.82 1.69-20.78 1.46-28.88-1.72-8.1-3.19-13.93-10.92-19.71-17.4S.08 63.97-1.5 56.49c-1.57-7.48 1.75-16.1 5.53-23.42C7.8 25.75 18.5 15.8 21.17 12.56c2.66-3.25-1.48.87-1.16 1.04" class="J"/>
        <path d="M20.37 9.44c6.03-5.42 17.25-7.85 26.3-8.7 9.06-.86 19.7.43 28.02 3.57 8.33 3.15 16.76 9.1 21.94 15.28s8.02 13.76 9.17 21.8c1.14 8.04.49 19.23-2.29 26.44-2.78 7.2-7.31 11.81-14.39 16.79s-18.7 11.62-28.09 13.09c-9.38 1.47-20.14-1-28.24-4.3-8.09-3.29-15.18-9.22-20.34-15.49C7.3 71.65 3.23 63.5 1.87 55.8.52 48.11-4.82 40.86 4.33 31.74S42.74 4.27 56.78 1.09C70.81-2.1 88.81 12.18 88.53 12.63m3.57 1.11c6.85 5.23 10.34 14.03 12.81 21.9s3.97 17.25 2.01 25.32c-1.97 8.06-8.02 17.32-13.8 23.07-5.77 5.74-12.01 9.16-20.85 11.39-8.84 2.24-23.08 4.1-32.21 2.01-9.12-2.1-16.71-8.5-22.51-14.58s-9.97-13.84-12.3-21.9c-2.34-8.06-3.46-19.32-1.72-26.48s6.08-11.06 12.15-16.49S31.12 4.76 39.95 1.91C48.78-.93 60.65-.89 68.66.89c8.01 1.79 15.32 10.04 19.35 11.75s5.45-2.02 4.82-1.49" class="B C D E"/>
    </g>
    <g transform="matrix(1 0 0 1 1441 1079)" class="F G H I K">
        <text x="13" y="28" style="white-space:pre">G</text>
    </g>
    <path d="M.63-1.53l130.01 4.02" transform="translate(140 824)" class="B C D L M"/>
    <path d="M-.87.11C18.4.06 94.97 1.7 113.98 1.62" transform="translate(658 882)" class="B C D L M"/>
    <path d="M-.49-.2c17.66-1.26 87.34-3.6 103.97-4.58" transform="translate(1256 858)" class="B C D L M"/>
    <g transform="translate(342 880)" class="B C D L">
        <path d="M-2.45.1l.36 168.82" class="M"/>
        <path d="M-12.35 140.65c1.2 9.12 3.53 18.76 8.64 28.68m11.88-28.78C3.96 149.34.89 159-3.71 169.33"/>
    </g>
    <g transform="translate(864 926)" class="B C D L">
        <path d="M-2.01-2.1l-6.26 142.01" class="M"/>
        <path d="M-20.05 113.7c5.59 1.39 5.41 9.02 14.11 24.74m6.38-23.68c.19.83-5.38 8.17-6.38 23.68"/>
    </g>
    <g transform="translate(1448 866)" class="B C D L">
        <path d="M-1.84-.91L4.1 174.84" class="M"/>
        <path d="M-8.35 149.98c2.09 4.73 6.14 12.25 13.74 28.04m6.77-28.68c-2.98 4.62-4.02 12.3-6.77 28.68"/>
    </g>
</svg>