<svg version="1.1"
    xmlns="http://www.w3.org/2000/svg" viewBox="0 0 1671.9906296062327 1389.6725271445143" width="3343.9812592124654" height="2779.3450542890287" filter="invert(93%) hue-rotate(180deg)">
    <!-- svg-source:excalidraw -->

    <defs>
        <style class="style-fonts">
      @font-face {
        font-family: "Virgil";
        src: url("https://excalidraw.com/Virgil.woff2");
      }
      @font-face {
        font-family: "Cascadia";
        src: url("https://excalidraw.com/Cascadia.woff2");
      }
        </style>
    </defs>
    <rect x="0" y="0" width="1671.9906296062327" height="1389.6725271445143" fill="#e3fafc"></rect>
    <g stroke-linecap="round" transform="translate(83.1666666666656 10) rotate(0 753.9999999999998 163.99999999999983)">
        <path d="M30.63 1.58 L1485.75 -2.04 L1501.86 11.01 L1503.68 22.77 L1509.26 304.22 L1502.48 323.74 L1493.04 329.16 L1478.5 327.7 L24.21 329.04 L6.85 322.74 L-0.53 305.31 L-0.6 28.17 L-0.68 18.68 L9.23 10.09 L14.48 3.61 L30.71 1.33" stroke="none" stroke-width="0" fill="#ced4da"></path>
        <path d="M32 0 M32 0 C588.03 0.96, 1146.57 1.71, 1476 0 M32 0 C496.46 -2.34, 960.3 -0.99, 1476 0 M1476 0 C1497.31 0.37, 1508.55 9.3, 1508 32 M1476 0 C1500.53 3.37, 1506.77 8.95, 1508 32 M1508 32 C1507.75 95.11, 1509.87 158.27, 1508 296 M1508 32 C1504.04 93.97, 1504.75 157.45, 1508 296 M1508 296 C1507.29 316.25, 1495.44 331.53, 1476 328 M1508 296 C1506.98 314.06, 1493.51 331.08, 1476 328 M1476 328 C1115.86 319.15, 753.99 317.02, 32 328 M1476 328 C935.57 326.31, 395.58 326.37, 32 328 M32 328 C12.06 328.88, -1.22 317.69, 0 296 M32 328 C7.88 330.72, 4.35 319.58, 0 296 M0 296 C-1.59 214.99, 0.18 128.54, 0 32 M0 296 C3.8 215.17, 3.13 132.93, 0 32 M0 32 C1.99 11.18, 13.17 -3.13, 32 0 M0 32 C3.29 9.92, 8.56 -2.74, 32 0" stroke="#000000" stroke-width="4" fill="none"></path>
    </g>
    <g stroke-linecap="round" transform="translate(167.1666666666656 78.209650582363) rotate(0 540 62.89517470881867)">
        <path d="M29.06 1.55 L1053.17 -1.87 L1067.3 4.73 L1077.25 15.18 L1077.04 33.5 L1077.33 99.98 L1075.18 113.85 L1067.01 120.28 L1046.66 129.32 L23.19 122.45 L4.54 120.61 L-0.02 105.53 L-3.34 97.98 L1.98 34.4 L-1.37 20.66 L6.09 7.55 L18.23 -2.01 L34.7 -3.66" stroke="none" stroke-width="0" fill="#40c057"></path>
        <path d="M31.45 0 M31.45 0 C372.1 1.52, 713.41 4, 1048.55 0 M1048.55 0 C1071.47 0.71, 1080.07 12.99, 1080 31.45 M1080 31.45 C1081.56 47.77, 1077.61 63.34, 1080 94.34 M1080 94.34 C1080.25 118.84, 1068.07 129.3, 1048.55 125.79 M1048.55 125.79 C691.61 132.02, 336.91 130.14, 31.45 125.79 M31.45 125.79 C8.1 123.14, -1.24 111.96, 0 94.34 M0 94.34 C-2.04 75.21, 2.97 67.36, 0 31.45 M0 31.45 C0.78 9.13, 8.53 0.74, 31.45 0" stroke="#000000" stroke-width="4.5" fill="none" stroke-dasharray="8 12"></path>
    </g>
    <g stroke-linecap="round" transform="translate(217.48280643372073 92.5856905158073) rotate(0 53.91014975041594 48.519134775374425)">
        <path d="M10.99 19.1 C15.63 13.13, 25.31 7.97, 33.59 5.09 C41.88 2.21, 51.5 0.92, 60.71 1.83 C69.91 2.75, 81.33 6.08, 88.82 10.58 C96.31 15.08, 102.24 21.63, 105.64 28.81 C109.04 35.99, 110.42 45.45, 109.21 53.66 C107.99 61.87, 104.18 71.79, 98.34 78.09 C92.5 84.39, 82.46 88.48, 74.17 91.44 C65.88 94.41, 57.63 96.75, 48.6 95.87 C39.56 94.99, 27.34 90.68, 19.94 86.14 C12.55 81.6, 7.8 75.76, 4.25 68.64 C0.69 61.53, -2.79 52.55, -1.38 43.45 C0.03 34.35, 9.41 19.4, 12.71 14.03 C16 8.67, 17.37 10.38, 18.39 11.24 M51.96 1.15 C61.2 0.78, 73.85 3.56, 81.92 7.64 C89.99 11.71, 95.8 19.48, 100.38 25.62 C104.96 31.77, 109.16 37.15, 109.39 44.51 C109.63 51.87, 106.04 62.11, 101.79 69.79 C97.54 77.48, 91.66 86.35, 83.9 90.64 C76.13 94.94, 64.33 95.07, 55.2 95.55 C46.06 96.04, 36.44 97.04, 29.1 93.54 C21.77 90.03, 15.82 81.31, 11.19 74.53 C6.55 67.74, 1.79 60.95, 1.31 52.85 C0.83 44.74, 4.61 32.98, 8.32 25.87 C12.03 18.76, 16.71 14.55, 23.56 10.18 C30.42 5.81, 44.41 0.77, 49.45 -0.36 C54.49 -1.48, 53.34 2.6, 53.8 3.41" stroke="none" stroke-width="0" fill="#ced4da"></path>
        <path d="M12.26 19.84 C16.51 12.9, 24.34 5.6, 32.39 2.03 C40.44 -1.54, 51.82 -2.91, 60.56 -1.59 C69.3 -0.27, 77.94 4.97, 84.84 9.96 C91.74 14.96, 98.03 20.79, 101.99 28.38 C105.95 35.97, 109.67 46.99, 108.58 55.5 C107.49 64.02, 101.35 73.51, 95.46 79.47 C89.58 85.44, 81.03 88.33, 73.28 91.29 C65.53 94.25, 57.61 97.99, 48.97 97.22 C40.34 96.45, 28.81 91.68, 21.45 86.67 C14.09 81.66, 8.43 74.53, 4.83 67.15 C1.24 59.76, -3.2 52.49, -0.13 42.35 C2.93 32.22, 16.17 12.91, 23.23 6.33 C30.29 -0.24, 41.52 1.67, 42.22 2.9 M82.94 4.25 C90.57 8.03, 96.08 18.75, 100.69 26.26 C105.31 33.77, 110.79 41.27, 110.64 49.32 C110.49 57.37, 104.85 68.24, 99.79 74.56 C94.72 80.88, 87.39 83.6, 80.24 87.24 C73.08 90.87, 65.24 95.93, 56.87 96.37 C48.5 96.82, 37.88 93.79, 30.03 89.92 C22.17 86.04, 14.76 79.45, 9.75 73.12 C4.73 66.8, 0.38 59.53, -0.08 51.98 C-0.53 44.43, 2.73 34.91, 7.01 27.83 C11.28 20.74, 17.58 13.89, 25.57 9.5 C33.56 5.1, 45.74 2.31, 54.92 1.45 C64.1 0.6, 76.78 3.63, 80.63 4.36 C84.48 5.09, 78.33 4.8, 78.02 5.82" stroke="#000000" stroke-width="4" fill="none"></path>
    </g>
    <g transform="translate(258.3929561841369 121.1048252911811) rotate(0 13 20)">
        <text x="13" y="28" font-family="Virgil, Segoe UI Emoji" font-size="32.01391620027228px" fill="#000000" text-anchor="middle" style="white-space: pre;" direction="ltr">G</text>
    </g>
    <g stroke-linecap="round" transform="translate(1031.5260676650014 92.5856905158073) rotate(0 53.91014975041594 48.519134775374425)">
        <path d="M76.12 3.2 C84.25 5.22, 94.33 11.63, 99.52 18.59 C104.72 25.55, 106.44 36.63, 107.3 44.96 C108.15 53.29, 108.34 61.19, 104.64 68.59 C100.94 75.99, 92.62 84.57, 85.07 89.33 C77.53 94.09, 68.29 96.66, 59.35 97.14 C50.42 97.62, 39.69 95.68, 31.45 92.22 C23.21 88.75, 15.3 83.16, 9.93 76.38 C4.56 69.6, 0.33 59.38, -0.76 51.54 C-1.86 43.7, -0.5 36.56, 3.36 29.32 C7.22 22.08, 14.61 12.65, 22.42 8.09 C30.22 3.52, 37.29 -0.73, 50.2 1.94 C63.12 4.61, 90.23 16.52, 99.91 24.11 C109.6 31.69, 109.47 47.13, 108.31 47.47 M12.63 14.08 C18.05 7.28, 27.59 1.7, 36.97 -0.56 C46.35 -2.83, 59.94 -1.91, 68.9 0.51 C77.87 2.93, 84.47 8.1, 90.77 13.95 C97.06 19.81, 104.07 28.41, 106.68 35.63 C109.29 42.86, 108.44 49.57, 106.45 57.31 C104.45 65.06, 100.6 76.31, 94.71 82.12 C88.81 87.93, 80.31 90.18, 71.1 92.18 C61.88 94.18, 48.6 95.17, 39.43 94.11 C30.26 93.06, 22.3 90.78, 16.08 85.82 C9.87 80.87, 4.2 72.18, 2.15 64.41 C0.1 56.64, 1.26 47.58, 3.79 39.18 C6.31 30.77, 15.23 18.35, 17.29 13.98 C19.35 9.61, 16.09 12.4, 16.14 12.96" stroke="none" stroke-width="0" fill="#ced4da"></path>
        <path d="M59.25 1.34 C67.66 1.28, 77.91 4.42, 84.89 8.54 C91.87 12.66, 97.44 18.72, 101.11 26.06 C104.79 33.39, 107.32 44.64, 106.93 52.57 C106.54 60.5, 103.9 67.36, 98.77 73.64 C93.64 79.92, 84.24 86.65, 76.15 90.24 C68.06 93.83, 58.99 95.37, 50.24 95.17 C41.5 94.97, 31.08 93.02, 23.66 89.05 C16.24 85.08, 9.69 78.43, 5.7 71.37 C1.72 64.3, -1.16 54.91, -0.26 46.68 C0.63 38.44, 5.72 29.14, 11.1 21.98 C16.48 14.82, 18.38 5.38, 32 3.71 C45.63 2.04, 80.16 5.47, 92.85 11.97 C105.53 18.47, 109.07 42.22, 108.11 42.7 M96.08 19.98 C102.38 25.53, 108.44 32.76, 110 40.27 C111.56 47.77, 109.75 57.33, 105.43 65.03 C101.1 72.74, 92 81.16, 84.04 86.52 C76.09 91.87, 66.15 96.1, 57.69 97.16 C49.22 98.22, 41.38 96.47, 33.26 92.89 C25.13 89.31, 14.42 81.97, 8.95 75.67 C3.47 69.38, 0.69 62.52, 0.41 55.1 C0.14 47.68, 3.59 38.28, 7.31 31.16 C11.02 24.05, 15.67 17.93, 22.69 12.42 C29.72 6.91, 40.62 -0.25, 49.45 -1.88 C58.28 -3.51, 67.47 -1.13, 75.65 2.64 C83.84 6.41, 95.23 18.03, 98.57 20.72 C101.9 23.42, 96.54 18.15, 95.66 18.81" stroke="#000000" stroke-width="4" fill="none"></path>
    </g>
    <g transform="translate(1072.4362174154176 121.1048252911811) rotate(0 13 20)">
        <text x="13" y="28" font-family="Virgil, Segoe UI Emoji" font-size="32.01391620027228px" fill="#000000" text-anchor="middle" style="white-space: pre;" direction="ltr">G</text>
    </g>
    <g stroke-linecap="round" transform="translate(812.2914586799766 90.788685524127) rotate(0 53.91014975041594 48.519134775374425)">
        <path d="M97.81 20.45 C103.94 26.1, 106.2 33.98, 107.43 41.74 C108.66 49.51, 108.56 59.55, 105.19 67.04 C101.82 74.52, 94.65 81.76, 87.22 86.65 C79.79 91.55, 69.64 95.46, 60.61 96.41 C51.57 97.37, 41.53 95.65, 33 92.38 C24.48 89.1, 14.76 83, 9.47 76.76 C4.18 70.53, 2.34 62.47, 1.27 54.97 C0.19 47.46, -0.55 39.11, 3.01 31.73 C6.57 24.36, 15.07 15.68, 22.65 10.73 C30.22 5.78, 40.06 3.49, 48.44 2.01 C56.83 0.53, 63.8 -2.1, 72.98 1.84 C82.16 5.78, 98.43 19.58, 103.53 25.65 C108.62 31.72, 104.82 37.72, 103.55 38.24 M21.43 8.76 C28.38 3.5, 39.66 1.99, 48.86 1.26 C58.06 0.54, 68.95 0.97, 76.62 4.42 C84.28 7.87, 89.68 15.08, 94.84 21.96 C99.99 28.83, 106.68 38.22, 107.57 45.67 C108.46 53.13, 104.12 59.76, 100.18 66.7 C96.25 73.64, 90.39 82.29, 83.97 87.3 C77.56 92.32, 69.99 95.5, 61.7 96.79 C53.41 98.08, 42.42 97.96, 34.21 95.04 C26 92.11, 18.26 86.13, 12.44 79.26 C6.62 72.4, 1.04 62.51, -0.69 53.86 C-2.43 45.21, -1.63 34.86, 2.04 27.38 C5.71 19.9, 17.99 12.13, 21.33 8.98 C24.67 5.84, 21.42 8.1, 22.08 8.5" stroke="none" stroke-width="0" fill="#ced4da"></path>
        <path d="M77.88 4.78 C85.88 7.93, 95.6 15.94, 100.27 22.65 C104.94 29.35, 105.96 36.95, 105.89 45 C105.81 53.06, 103.98 63.6, 99.83 70.98 C95.68 78.36, 88.24 84.91, 80.99 89.28 C73.74 93.64, 64.78 96.87, 56.33 97.18 C47.89 97.48, 38.09 94.56, 30.33 91.11 C22.57 87.65, 14.73 82.9, 9.76 76.45 C4.79 69.99, 1.33 60.46, 0.52 52.36 C-0.29 44.27, 1.03 35.04, 4.9 27.86 C8.77 20.68, 15.96 13.95, 23.75 9.28 C31.54 4.6, 38.26 -4.93, 51.64 -0.19 C65.01 4.55, 96.28 25.56, 104 37.72 C111.72 49.87, 98.62 72.8, 97.95 72.73 M91.19 14.22 C97.77 18.74, 103.25 27.86, 105.65 36.24 C108.04 44.62, 108.22 56.68, 105.58 64.48 C102.93 72.28, 96.83 77.77, 89.78 83.04 C82.74 88.3, 71.91 93.67, 63.32 96.07 C54.73 98.47, 46.18 99.84, 38.26 97.46 C30.34 95.07, 21.48 87.96, 15.78 81.73 C10.09 75.51, 6.62 68.13, 4.07 60.12 C1.52 52.1, -1.59 41.38, 0.48 33.65 C2.56 25.91, 9.3 19.25, 16.53 13.7 C23.76 8.14, 35.08 2.12, 43.86 0.3 C52.64 -1.51, 60.51 -0.34, 69.23 2.79 C77.95 5.91, 92.14 16.51, 96.17 19.05 C100.21 21.6, 94.04 17.65, 93.44 18.05" stroke="#000000" stroke-width="4" fill="none"></path>
    </g>
    <g transform="translate(853.2016084303928 119.3078202995008) rotate(0 13 20)">
        <text x="13" y="28" font-family="Virgil, Segoe UI Emoji" font-size="32.01391620027228px" fill="#000000" text-anchor="middle" style="white-space: pre;" direction="ltr">G</text>
    </g>
    <g stroke-linecap="round" transform="translate(611.0268996117566 83.60066555740445) rotate(0 53.91014975041594 48.519134775374425)">
        <path d="M56.48 0.39 C65.05 -0.27, 75.19 2.91, 82.71 7.14 C90.23 11.36, 97.59 18.79, 101.59 25.76 C105.6 32.73, 107.35 40.67, 106.74 48.96 C106.12 57.24, 102.57 68.52, 97.89 75.46 C93.21 82.4, 86.12 86.71, 78.65 90.58 C71.18 94.45, 61.94 98.59, 53.07 98.69 C44.21 98.78, 33.03 96.01, 25.45 91.14 C17.87 86.26, 12.14 76.72, 7.61 69.44 C3.08 62.16, -1.61 55.56, -1.73 47.45 C-1.85 39.35, 1.51 28.07, 6.89 20.8 C12.27 13.54, 15.85 4.56, 30.56 3.86 C45.27 3.17, 82.82 7.7, 95.13 16.63 C107.44 25.56, 105.12 56.77, 104.42 57.44 M62.5 -2.16 C71.2 -1.76, 82.38 5.77, 89.69 10.83 C97 15.89, 103.72 20.9, 106.35 28.19 C108.99 35.48, 107.36 45.71, 105.51 54.56 C103.67 63.42, 100.66 74.38, 95.29 81.31 C89.91 88.24, 81.18 93.25, 73.25 96.14 C65.33 99.03, 56.22 100.47, 47.73 98.66 C39.24 96.84, 29.6 91.16, 22.31 85.26 C15.01 79.36, 7.79 70.81, 3.96 63.26 C0.14 55.7, -1.95 47.65, -0.65 39.96 C0.66 32.27, 6.16 23.28, 11.78 17.13 C17.4 10.98, 24.95 5.78, 33.09 3.05 C41.22 0.32, 56.24 1.34, 60.6 0.76 C64.96 0.19, 59.47 -0.84, 59.22 -0.39" stroke="none" stroke-width="0" fill="#ced4da"></path>
        <path d="M73.56 2.08 C81.69 4.48, 91.38 10.85, 96.98 17.66 C102.59 24.47, 106.09 34.39, 107.2 42.96 C108.31 51.52, 107.22 61.41, 103.66 69.04 C100.1 76.67, 92.75 84.05, 85.86 88.74 C78.97 93.43, 70.86 96.64, 62.32 97.16 C53.77 97.69, 42.87 95.35, 34.59 91.87 C26.31 88.39, 18.05 82.57, 12.64 76.3 C7.23 70.02, 3.56 62.37, 2.14 54.24 C0.71 46.1, 0.56 35.04, 4.11 27.5 C7.66 19.95, 16.39 13.62, 23.44 8.96 C30.5 4.3, 36.16 -0.71, 46.45 -0.45 C56.74 -0.18, 77.78 7.54, 85.19 10.55 C92.59 13.57, 91.72 17.47, 90.85 17.64 M36.83 2.66 C44.73 -0.91, 53.47 -2.55, 62.17 -0.87 C70.87 0.82, 81.46 6.89, 89.02 12.77 C96.59 18.64, 104.45 26.45, 107.57 34.37 C110.68 42.3, 109.58 53.07, 107.74 60.32 C105.89 67.57, 102.43 72.44, 96.49 77.87 C90.55 83.29, 80.61 89.64, 72.08 92.87 C63.56 96.11, 54.34 98.75, 45.35 97.26 C36.35 95.77, 25.11 89.02, 18.13 83.94 C11.15 78.86, 5.84 74.15, 3.46 66.8 C1.08 59.45, 2.04 47.71, 3.83 39.83 C5.62 31.94, 8.52 25.66, 14.22 19.49 C19.92 13.32, 34.62 4.97, 38.03 2.79 C41.44 0.62, 35.1 5.73, 34.65 6.42" stroke="#000000" stroke-width="4" fill="none"></path>
    </g>
    <g transform="translate(651.9370493621727 112.11980033277871) rotate(0 13 20)">
        <text x="13" y="28" font-family="Virgil, Segoe UI Emoji" font-size="32.01391620027228px" fill="#000000" text-anchor="middle" style="white-space: pre;" direction="ltr">G</text>
    </g>
    <g stroke-linecap="round" transform="translate(425.9353854686624 90.788685524127) rotate(0 53.91014975041594 48.519134775374425)">
        <path d="M46.47 -0.62 C54.62 -2.52, 64.29 -0.98, 72.79 2.28 C81.3 5.55, 91.89 12.04, 97.48 18.96 C103.08 25.89, 105.02 35.72, 106.34 43.85 C107.66 51.98, 108.38 60.26, 105.4 67.72 C102.42 75.18, 96.1 84.09, 88.45 88.61 C80.8 93.13, 68.53 94.32, 59.52 94.84 C50.51 95.36, 42.73 94.28, 34.4 91.72 C26.07 89.16, 15.48 85.72, 9.56 79.47 C3.64 73.22, 0 62.77, -1.11 54.24 C-2.23 45.7, -1.08 35.73, 2.87 28.26 C6.81 20.79, 11.19 13.63, 22.56 9.41 C33.93 5.19, 59.51 1.92, 71.11 2.94 C82.71 3.96, 92.38 15.14, 92.16 15.54 M82.45 7.47 C89.57 10.95, 96.95 20.38, 101.52 28.03 C106.08 35.67, 110.07 44.84, 109.82 53.35 C109.57 61.85, 105.27 72.12, 100.02 79.07 C94.77 86.02, 87.04 92.03, 78.3 95.05 C69.56 98.07, 57.33 98.58, 47.57 97.17 C37.82 95.76, 27.08 91.43, 19.78 86.61 C12.48 81.79, 7.18 75.66, 3.78 68.26 C0.39 60.86, -1.63 50.51, -0.6 42.21 C0.43 33.91, 4.54 25.29, 9.96 18.48 C15.37 11.67, 24 4.8, 31.9 1.37 C39.79 -2.07, 48.73 -3.35, 57.32 -2.12 C65.91 -0.9, 78.64 7.12, 83.44 8.72 C88.24 10.32, 86.05 7.2, 86.1 7.47" stroke="none" stroke-width="0" fill="#ced4da"></path>
        <path d="M52.39 0.2 C61.43 -0.77, 72.67 1.24, 80.78 5.35 C88.9 9.46, 96.51 17.64, 101.1 24.88 C105.68 32.12, 108.42 40.75, 108.26 48.81 C108.11 56.87, 104.72 66.15, 100.19 73.27 C95.65 80.38, 88.48 87.56, 81.04 91.48 C73.61 95.4, 64.67 96.5, 55.59 96.78 C46.5 97.06, 34.57 97.12, 26.54 93.17 C18.5 89.23, 11.94 80.25, 7.39 73.1 C2.84 65.96, -0.87 58.52, -0.76 50.29 C-0.65 42.07, 3.45 31.26, 8.05 23.78 C12.65 16.3, 19.07 9.48, 26.85 5.41 C34.63 1.34, 49.51 0, 54.73 -0.64 C59.95 -1.29, 57.92 0.64, 58.19 1.55 M27.49 9.63 C35.05 5.23, 45.97 1.13, 55.25 0.83 C64.54 0.53, 76.06 3.96, 83.2 7.81 C90.34 11.67, 94.2 17.06, 98.07 23.96 C101.94 30.86, 105.77 41.29, 106.42 49.22 C107.07 57.14, 106.38 64.62, 101.97 71.52 C97.57 78.42, 87.54 85.87, 80 90.61 C72.45 95.35, 65.41 99.71, 56.7 99.96 C47.99 100.2, 35.5 96.21, 27.73 92.11 C19.96 88.01, 14.69 82.82, 10.07 75.38 C5.45 67.93, 0.1 56.3, 0.03 47.46 C-0.05 38.62, 5.3 28.81, 9.63 22.34 C13.96 15.88, 22.7 11.1, 25.98 8.67 C29.27 6.25, 28.88 7.04, 29.33 7.78" stroke="#000000" stroke-width="4" fill="none"></path>
    </g>
    <g transform="translate(466.84553521907856 119.3078202995008) rotate(0 13 20)">
        <text x="13" y="28" font-family="Virgil, Segoe UI Emoji" font-size="32.01391620027228px" fill="#000000" text-anchor="middle" style="white-space: pre;" direction="ltr">G</text>
    </g>
    <g transform="translate(1245.4666666666649 111.99999999999966) rotate(0 132.5 32)">
        <text x="132.5" y="45" font-family="Virgil, Segoe UI Emoji" font-size="50.4px" fill="#000000" text-anchor="middle" style="white-space: pre;" direction="ltr"> run queue</text>
    </g>
    <g stroke-linecap="round" transform="translate(639.6666666666656 262.49999999999966) rotate(0 234.99999999999977 29.999999999999886)">
        <path d="M14.92 3.69 L459.99 -1.86 L466.28 0.06 L465.78 12.28 L470.73 47.97 L464.28 54.23 L452 59.44 L14.85 55.94 L1.31 58.63 L2.36 55.11 L0.73 17.01 L7.41 2.19 L18.34 -2.69" stroke="none" stroke-width="0" fill="#fa5252"></path>
        <path d="M15 0 M15 0 C106.5 -2.94, 198.71 0.91, 455 0 M15 0 C114.36 -2.36, 214.98 -3.78, 455 0 M455 0 C462.12 2.56, 469.11 8.67, 470 15 M455 0 C466.92 0.77, 466.61 8.63, 470 15 M470 15 C472.05 21.74, 466.4 32.16, 470 45 M470 15 C472.4 27.84, 468.7 37.63, 470 45 M470 45 C472.95 52.04, 465.14 61.58, 455 60 M470 45 C472.15 54.59, 462.74 59.37, 455 60 M455 60 C355.59 63.96, 257.57 63.36, 15 60 M455 60 C309.55 58.95, 164.17 59.54, 15 60 M15 60 C1.49 62.85, 0.38 57.84, 0 45 M15 60 C8.85 62.53, -0.68 56.44, 0 45 M0 45 C-0.54 37, -0.73 31.35, 0 15 M0 45 C-0.68 33.7, -0.09 22.47, 0 15 M0 15 C0.96 3.92, 1.59 -0.87, 15 0 M0 15 C-0.16 1.83, 4.37 3.69, 15 0" stroke="#000000" stroke-width="4" fill="none"></path>
    </g>
    <g transform="translate(807.6666666666656 279.0688073394491) rotate(0 63.5 26.5)">
        <text x="63.5" y="37" font-family="Virgil, Segoe UI Emoji" font-size="41.944954128440344px" fill="#000000" text-anchor="middle" style="white-space: pre;" direction="ltr">Mutex</text>
    </g>
    <g stroke-linecap="round" transform="translate(219.76626870798282 1001.7349853634975) rotate(0 67.18030430434169 54.071952244957856)">
        <path d="M27.42 0.85 L114.71 3.66 L124.09 9.6 L133.05 18.04 L137.71 29.23 L133.35 88.69 L124.14 100.52 L122.26 105.79 L105.73 107.29 L19.86 110.92 L4.78 98.33 L-1.53 87.63 L-0.35 21.23 L7.72 5.68 L11.8 0.82 L26.9 -2.75" stroke="none" stroke-width="0" fill="#be4bdb"></path>
        <path d="M27.04 0 M27.04 0 C48.3 -0.69, 69.53 2.62, 107.32 0 M27.04 0 C56.49 -0.46, 86.43 -0.03, 107.32 0 M107.32 0 C124.09 -0.67, 135.14 12.81, 134.36 27.04 M107.32 0 C122.12 3.69, 133.63 9.34, 134.36 27.04 M134.36 27.04 C133.77 37.09, 134.86 50.51, 134.36 81.11 M134.36 27.04 C133.36 43.56, 133.35 60.81, 134.36 81.11 M134.36 81.11 C136.03 98.14, 126.37 108.21, 107.32 108.14 M134.36 81.11 C136.4 96.16, 129.32 110.3, 107.32 108.14 M107.32 108.14 C79.21 109.35, 42.53 106.03, 27.04 108.14 M107.32 108.14 C85.99 108.48, 70.37 108.34, 27.04 108.14 M27.04 108.14 C8.74 110.15, -1.07 102.04, 0 81.11 M27.04 108.14 C5.1 110.63, 3.35 94.73, 0 81.11 M0 81.11 C0.15 72.11, 1.8 51.89, 0 27.04 M0 81.11 C-0.8 65.64, 0.28 47.83, 0 27.04 M0 27.04 C1.84 11.35, 12.44 0.6, 27.04 0 M0 27.04 C-2.17 9.52, 5.79 1.61, 27.04 0" stroke="#000000" stroke-width="4" fill="none"></path>
    </g>
    <g transform="translate(275.44657301232473 1037.306937608455) rotate(0 11.5 18.5)">
        <text x="11.5" y="26" font-family="Virgil, Segoe UI Emoji" font-size="29.071311103328608px" fill="#000000" text-anchor="middle" style="white-space: pre;" direction="ltr">M</text>
    </g>
    <g stroke-linecap="round" transform="translate(1527.6300209975493 930.5708116775724) rotate(0 67.18030430434169 54.071952244957856)">
        <path d="M30.24 1.46 L111.93 0.32 L124.11 9.97 L135.02 11.96 L134.37 28.35 L133.02 91.05 L127.55 100.13 L118.49 107.23 L111.12 105.33 L23.91 107.08 L7.04 98.5 L0.48 88.63 L-0.19 18.43 L7.24 5.59 L15.56 -1.32 L23.39 -0.37" stroke="none" stroke-width="0" fill="#be4bdb"></path>
        <path d="M27.04 0 M27.04 0 C52.08 -1.3, 74.82 -0.24, 107.32 0 M27.04 0 C55.61 0.38, 81.86 -1.46, 107.32 0 M107.32 0 C128.39 1.26, 131.89 6.96, 134.36 27.04 M107.32 0 C122.67 -4.53, 133.72 4.6, 134.36 27.04 M134.36 27.04 C135.11 46.78, 134.3 65.43, 134.36 81.11 M134.36 27.04 C133.03 37.39, 135.3 52.17, 134.36 81.11 M134.36 81.11 C134.7 102.94, 127.34 104.53, 107.32 108.14 M134.36 81.11 C134.81 98.92, 124.91 106.19, 107.32 108.14 M107.32 108.14 C79.93 110.67, 52.28 108.92, 27.04 108.14 M107.32 108.14 C87.73 107.48, 68.17 107.5, 27.04 108.14 M27.04 108.14 C10.49 107.02, -3.2 99.82, 0 81.11 M27.04 108.14 C5.19 111.94, -1.41 95.76, 0 81.11 M0 81.11 C-2.49 68.27, -1.46 58.15, 0 27.04 M0 81.11 C0.64 65.59, -0.76 45.81, 0 27.04 M0 27.04 C0.23 8.66, 10.99 -0.48, 27.04 0 M0 27.04 C1.46 11.55, 7.73 3.11, 27.04 0" stroke="#000000" stroke-width="4" fill="none"></path>
    </g>
    <g transform="translate(1583.3103253018912 966.1427639225304) rotate(0 11.5 18.5)">
        <text x="11.5" y="26" font-family="Virgil, Segoe UI Emoji" font-size="29.071311103328608px" fill="#000000" text-anchor="middle" style="white-space: pre;" direction="ltr">M</text>
    </g>
    <g stroke-linecap="round" transform="translate(858.541612784104 1034.6321564616424) rotate(0 67.18030430434169 54.071952244957856)">
        <path d="M30.25 2.35 L110.42 0.44 L128.92 5.84 L136.27 15.16 L133.1 26.37 L134.72 91.24 L124.79 104.59 L118.52 106.74 L104.44 108.2 L21.89 107.11 L4.49 101.87 L-0.75 87.8 L-2.59 17.05 L6.39 6.41 L14.81 2.45 L28.7 -0.99" stroke="none" stroke-width="0" fill="#be4bdb"></path>
        <path d="M27.04 0 M27.04 0 C50.58 2.74, 81.17 2.81, 107.32 0 M27.04 0 C49.93 -2.46, 70.53 -2.38, 107.32 0 M107.32 0 C121.41 -0.56, 130.53 10.14, 134.36 27.04 M107.32 0 C129.67 0.95, 134.05 11.31, 134.36 27.04 M134.36 27.04 C137.31 44.72, 131.32 54.05, 134.36 81.11 M134.36 27.04 C137.29 45.2, 133.58 61.58, 134.36 81.11 M134.36 81.11 C134.18 98.75, 123.65 110.71, 107.32 108.14 M134.36 81.11 C134.89 99.66, 127.47 110.83, 107.32 108.14 M107.32 108.14 C76.79 104.58, 46.79 108.31, 27.04 108.14 M107.32 108.14 C76.95 107.14, 48.05 107.08, 27.04 108.14 M27.04 108.14 C12.31 106.92, -2.93 95.24, 0 81.11 M27.04 108.14 C9.32 106.42, -2.78 96.97, 0 81.11 M0 81.11 C-1.39 64.68, 0.66 54.94, 0 27.04 M0 81.11 C0.76 69.15, 0.7 55.85, 0 27.04 M0 27.04 C2.21 7.9, 11.72 3.46, 27.04 0 M0 27.04 C3.94 5.46, 9.8 -4.57, 27.04 0" stroke="#000000" stroke-width="4" fill="none"></path>
    </g>
    <g transform="translate(914.2219170884459 1070.2041087066004) rotate(0 11.5 18.5)">
        <text x="11.5" y="26" font-family="Virgil, Segoe UI Emoji" font-size="29.071311103328608px" fill="#000000" text-anchor="middle" style="white-space: pre;" direction="ltr">M</text>
    </g>
    <g stroke-linecap="round">
        <g transform="translate(889.3905502261514 335.49999999999966) rotate(0 -264.356279644662 226.74319311695535)">
            <path d="M0.28 1.69 C-87.09 77.24, -438.49 378.19, -526.82 453.34 M-3.02 0.14 C-90.51 74.82, -442.1 372.94, -528.99 448.89" stroke="#000000" stroke-width="4" fill="none"></path>
        </g>
        <g transform="translate(889.3905502261514 335.49999999999966) rotate(0 -264.356279644662 226.74319311695535)">
            <path d="M-12.02 28.01 C-9.93 18.48, -7.96 13.03, -0.08 3.56 M-14.89 27.38 C-8.49 18.17, -4.38 10.17, 0.66 3.57" stroke="#000000" stroke-width="4" fill="none"></path>
        </g>
        <g transform="translate(889.3905502261514 335.49999999999966) rotate(0 -264.356279644662 226.74319311695535)">
            <path d="M-25.38 12.43 C-20.52 6.1, -15.79 3.87, -0.08 3.56 M-28.25 11.8 C-16.72 8.46, -7.77 6.1, 0.66 3.57" stroke="#000000" stroke-width="4" fill="none"></path>
        </g>
        <g transform="translate(889.3905502261514 335.49999999999966) rotate(0 -264.356279644662 226.74319311695535)">
            <path d="M-511.87 422.91 C-515.84 424.26, -519.95 429.62, -529.34 450.76 M-514.74 422.28 C-517.98 431.47, -524.5 442.39, -528.6 450.77" stroke="#000000" stroke-width="4" fill="none"></path>
        </g>
        <g transform="translate(889.3905502261514 335.49999999999966) rotate(0 -264.356279644662 226.74319311695535)">
            <path d="M-498.5 438.48 C-505.24 436.63, -512.11 438.78, -529.34 450.76 M-501.37 437.85 C-509.74 441.17, -521.1 446.46, -528.6 450.77" stroke="#000000" stroke-width="4" fill="none"></path>
        </g>
    </g>
    <mask></mask>
    <g stroke-linecap="round">
        <g transform="translate(1136.352344359062 146.12317674551275) rotate(311.22624578282415 75.92691003958794 362.623197385632)">
            <path d="M-0.8 -0.5 C24.04 121.28, 122.2 607.21, 147.74 728.49 M3.96 -3.24 C29.75 117.85, 128.04 601.63, 152.65 723.84" stroke="#000000" stroke-width="4" fill="none"></path>
        </g>
        <g transform="translate(1136.352344359062 146.12317674551275) rotate(311.22624578282415 75.92691003958794 362.623197385632)">
            <path d="M14.15 21.18 C12.26 21.29, 6.47 14.68, 2.75 3.24 M13.33 24.5 C11.24 17.26, 6.14 10.19, -2.68 -0.94" stroke="#000000" stroke-width="4" fill="none"></path>
        </g>
        <g transform="translate(1136.352344359062 146.12317674551275) rotate(311.22624578282415 75.92691003958794 362.623197385632)">
            <path d="M-5.96 25.26 C-2.71 24.45, -3.42 16.81, 2.75 3.24 M-6.78 28.58 C-3.29 19.89, -2.9 11.7, -2.68 -0.94" stroke="#000000" stroke-width="4" fill="none"></path>
        </g>
        <g transform="translate(1136.352344359062 146.12317674551275) rotate(311.22624578282415 75.92691003958794 362.623197385632)">
            <path d="M136.28 694.34 C141.48 707.55, 143.6 713.86, 156.2 727.58 M135.46 697.66 C140.94 703.89, 144.39 710.8, 150.77 723.4" stroke="#000000" stroke-width="4" fill="none"></path>
        </g>
        <g transform="translate(1136.352344359062 146.12317674551275) rotate(311.22624578282415 75.92691003958794 362.623197385632)">
            <path d="M156.39 690.26 C156.45 704.39, 153.5 711.72, 156.2 727.58 M155.58 693.59 C155.47 701.26, 153.43 709.29, 150.77 723.4" stroke="#000000" stroke-width="4" fill="none"></path>
        </g>
    </g>
    <mask></mask>
    <g stroke-linecap="round">
        <g transform="translate(1069.8710450327794 416.28336191718165) rotate(309.1470204393551 -178.52842739518087 162.1374467674143)">
            <path d="M-0.53 0.99 C-60.07 54.31, -295.79 268.01, -355.04 321.49 M-4.27 -0.94 C-64.24 52.74, -297.63 270.85, -356.52 325.22" stroke="#000000" stroke-width="4" fill="none"></path>
        </g>
        <g transform="translate(1069.8710450327794 416.28336191718165) rotate(309.1470204393551 -178.52842739518087 162.1374467674143)">
            <path d="M-13.15 29.49 C-9.32 18.15, -3.51 8.69, 2.89 0.98 M-13.04 28.17 C-8.87 18.92, -6.4 7.75, 1.41 0.82" stroke="#000000" stroke-width="4" fill="none"></path>
        </g>
        <g transform="translate(1069.8710450327794 416.28336191718165) rotate(309.1470204393551 -178.52842739518087 162.1374467674143)">
            <path d="M-26.92 14.27 C-17.72 8.72, -6.72 4.99, 2.89 0.98 M-26.8 12.94 C-18.16 8.86, -11.03 2.85, 1.41 0.82" stroke="#000000" stroke-width="4" fill="none"></path>
        </g>
        <g transform="translate(1069.8710450327794 416.28336191718165) rotate(309.1470204393551 -178.52842739518087 162.1374467674143)">
            <path d="M-341.44 300.5 C-347.45 309.12, -352.08 319.71, -353.1 325.21 M-341.32 299.18 C-347.22 307.96, -354.14 314.82, -354.58 325.05" stroke="#000000" stroke-width="4" fill="none"></path>
        </g>
        <g transform="translate(1069.8710450327794 416.28336191718165) rotate(309.1470204393551 -178.52842739518087 162.1374467674143)">
            <path d="M-327.47 315.54 C-338.92 318.43, -348.81 323.36, -353.1 325.21 M-327.36 314.21 C-337.79 317.9, -349.45 319.66, -354.58 325.05" stroke="#000000" stroke-width="4" fill="none"></path>
        </g>
    </g>
    <mask></mask>
    <g stroke-linecap="round" transform="translate(1563.8640915918395 1194.7703562887646) rotate(0 44.16707640640948 39.7503687657686)">
        <path d="M9.21 18.82 C13.07 12.95, 20.05 8.09, 26.9 5.26 C33.74 2.44, 42.45 0.92, 50.28 1.88 C58.11 2.84, 68.16 6.37, 73.9 11.02 C79.63 15.67, 82.75 23.35, 84.68 29.78 C86.6 36.22, 87.31 43.07, 85.45 49.64 C83.6 56.2, 79.47 64.26, 73.57 69.15 C67.67 74.04, 58.4 78.09, 50.08 78.97 C41.75 79.86, 31.06 77.73, 23.62 74.47 C16.17 71.21, 9.34 65.09, 5.38 59.4 C1.43 53.7, -1.01 47.41, -0.11 40.3 C0.79 33.19, 8.75 21.09, 10.77 16.74 C12.79 12.4, 11.41 14.12, 12.01 14.22 M42.97 -2.18 C50.28 -3.67, 56.24 -0.62, 62.37 2.65 C68.51 5.92, 75.72 10.75, 79.8 17.44 C83.87 24.13, 86.99 34.88, 86.83 42.81 C86.66 50.73, 83.36 59.14, 78.8 65 C74.25 70.87, 67.24 75.25, 59.5 77.97 C51.77 80.69, 39.85 83.39, 32.41 81.33 C24.97 79.28, 19.66 70.8, 14.86 65.65 C10.06 60.51, 5.96 57.23, 3.63 50.48 C1.3 43.74, -1.36 32.12, 0.88 25.17 C3.12 18.22, 10.69 12.69, 17.07 8.77 C23.46 4.85, 35.02 3.15, 39.19 1.65 C43.37 0.16, 42.19 -0.66, 42.13 -0.2" stroke="none" stroke-width="0" fill="#ced4da"></path>
        <path d="M16.69 7.54 C22.05 2.78, 32.37 0.79, 40.45 0.41 C48.54 0.03, 58.15 1.83, 65.21 5.26 C72.27 8.68, 79.21 14.92, 82.82 20.95 C86.43 26.99, 87.37 34.26, 86.86 41.46 C86.34 48.66, 83.79 58.61, 79.72 64.15 C75.66 69.68, 69.88 72.05, 62.46 74.69 C55.04 77.34, 43.53 81.07, 35.21 80.02 C26.89 78.98, 18.04 73.67, 12.52 68.42 C6.99 63.17, 3.53 55.42, 2.05 48.53 C0.57 41.64, -4.26 34.96, 3.64 27.08 C11.54 19.2, 36.99 3.08, 49.42 1.25 C61.86 -0.58, 78.7 15.81, 78.27 16.1 M25.32 1.47 C32.48 -2.04, 44.52 -0.6, 52.48 1.03 C60.44 2.66, 67.27 6.33, 73.08 11.25 C78.89 16.16, 85.12 23.43, 87.33 30.53 C89.53 37.64, 88.29 47.2, 86.3 53.89 C84.3 60.59, 81.7 66.21, 75.35 70.71 C69 75.21, 56.48 80.24, 48.2 80.89 C39.92 81.55, 32.13 78.25, 25.69 74.62 C19.24 70.99, 13.48 65.52, 9.54 59.11 C5.61 52.69, 2.27 42.59, 2.09 36.13 C1.91 29.68, 4.12 25.88, 8.46 20.38 C12.79 14.88, 24.63 5.96, 28.09 3.16 C31.56 0.36, 29.7 3.07, 29.26 3.6" stroke="#000000" stroke-width="4" fill="none"></path>
    </g>
    <g transform="translate(1597.5311679982492 1218.0207250545332) rotate(0 10.5 16.5)">
        <text x="10.5" y="23" font-family="Virgil, Segoe UI Emoji" font-size="25.63663182964986px" fill="#000000" text-anchor="middle" style="white-space: pre;" direction="ltr">G</text>
    </g>
    <g stroke-linecap="round">
        <g transform="translate(295.0966341704079 1125.8624848635363) rotate(0 -1.3217966856009298 20.05226428906451)">
            <path d="M-2.45 0.1 C-2.31 6.64, -0.75 33.4, -0.19 40.01" stroke="#000000" stroke-width="4.5" fill="none" stroke-dasharray="8 12"></path>
        </g>
        <g transform="translate(295.0966341704079 1125.8624848635363) rotate(0 -1.3217966856009298 20.05226428906451)">
            <path d="M-8.39 21.1 C-7.78 27.72, -5.99 34.89, -1.82 40.43" stroke="#000000" stroke-width="4.5" fill="none"></path>
        </g>
        <g transform="translate(295.0966341704079 1125.8624848635363) rotate(0 -1.3217966856009298 20.05226428906451)">
            <path d="M5.63 20.14 C2.55 26.76, 0.64 34.19, -1.82 40.43" stroke="#000000" stroke-width="4.5" fill="none"></path>
        </g>
    </g>
    <mask></mask>
    <g stroke-linecap="round">
        <g transform="translate(1600.5473965533115 1043.6303481897571) rotate(0 1.9191330809392184 71.07913989806639)">
            <path d="M-1.84 -0.91 C-0.65 23.19, 4.69 118.92, 5.68 143.07" stroke="#000000" stroke-width="4.5" fill="none" stroke-dasharray="8 12"></path>
        </g>
        <g transform="translate(1600.5473965533115 1043.6303481897571) rotate(0 1.9191330809392184 71.07913989806639)">
            <path d="M-7.26 118.41 C-5.05 123.1, -0.88 130.57, 6.97 146.25" stroke="#000000" stroke-width="4.5" fill="none"></path>
        </g>
        <g transform="translate(1600.5473965533115 1043.6303481897571) rotate(0 1.9191330809392184 71.07913989806639)">
            <path d="M13.23 117.41 C10.37 122.07, 9.46 129.79, 6.97 146.25" stroke="#000000" stroke-width="4.5" fill="none"></path>
        </g>
    </g>
    <mask></mask>
    <g stroke-linecap="round" transform="translate(246.980529016947 766.5381267487916) rotate(0 61.445400278361376 61.445400278361376)">
        <path d="M13.89 21.96 C19.08 14.48, 29.52 6.13, 38.49 2.84 C47.47 -0.46, 57.91 1.08, 67.74 2.21 C77.57 3.34, 89.58 4.67, 97.48 9.6 C105.38 14.52, 110.73 22.94, 115.12 31.77 C119.51 40.6, 123.97 52.98, 123.84 62.56 C123.7 72.15, 118.97 81.13, 114.31 89.28 C109.66 97.43, 103.79 105.74, 95.89 111.45 C87.99 117.17, 76.15 122.57, 66.91 123.58 C57.67 124.59, 49.32 121.39, 40.45 117.51 C31.57 113.63, 20.24 107.35, 13.64 100.3 C7.04 93.24, 2.6 84.23, 0.87 75.18 C-0.86 66.13, -2.46 57.53, 3.27 46.01 C9 34.48, 25.49 13.3, 35.26 6.01 C45.03 -1.29, 61.21 1.12, 61.88 2.24 M82.51 2.16 C91.51 3.69, 98.54 11.29, 104.84 18.85 C111.14 26.4, 117.22 37.88, 120.33 47.52 C123.44 57.16, 125.46 67.79, 123.49 76.7 C121.51 85.62, 115.22 93.65, 108.48 101.01 C101.75 108.38, 91.53 117.05, 83.09 120.88 C74.66 124.71, 66.93 125.08, 57.89 124.02 C48.85 122.95, 37.22 119.65, 28.88 114.49 C20.54 109.34, 12.86 102.01, 7.85 93.08 C2.83 84.15, -0.69 70.68, -1.21 60.9 C-1.73 51.11, 0.67 42.54, 4.72 34.38 C8.76 26.23, 14.87 17.59, 23.09 11.97 C31.31 6.36, 44.69 2.5, 54.04 0.68 C63.4 -1.13, 74.58 0.85, 79.24 1.07 C83.9 1.29, 81.68 0.36, 82.01 2.01" stroke="none" stroke-width="0" fill="#228be6"></path>
        <path d="M102.83 17.1 C109.77 23.2, 117.54 35.3, 120.65 44.79 C123.76 54.29, 123.42 65.08, 121.49 74.1 C119.57 83.11, 114.92 91.73, 109.08 98.91 C103.24 106.09, 94.94 113.4, 86.44 117.17 C77.95 120.94, 67.25 122.13, 58.11 121.51 C48.96 120.9, 39.49 118.22, 31.56 113.47 C23.64 108.71, 15.76 100.69, 10.55 92.98 C5.33 85.28, 1.18 76.95, 0.28 67.26 C-0.61 57.57, 1.37 43.81, 5.16 34.85 C8.96 25.89, 15.19 19.33, 23.03 13.5 C30.86 7.66, 42.83 1.84, 52.17 -0.18 C61.52 -2.19, 69.61 -1.95, 79.08 1.39 C88.55 4.73, 103.76 16.02, 108.99 19.86 C114.23 23.7, 111.62 23.87, 110.49 24.41 M50.79 1.02 C59.65 -1.44, 71.63 -0.48, 79.9 2.17 C88.17 4.82, 93.63 10.31, 100.41 16.89 C107.2 23.48, 117 32.3, 120.61 41.67 C124.22 51.04, 123.79 64.17, 122.08 73.12 C120.37 82.08, 116.2 88.29, 110.35 95.42 C104.51 102.56, 94.91 111.38, 87 115.95 C79.08 120.52, 72.56 123.15, 62.87 122.85 C53.17 122.55, 37.62 118.59, 28.81 114.15 C20.01 109.72, 14.77 103.67, 10.06 96.24 C5.35 88.81, 1.28 79.31, 0.57 69.55 C-0.14 59.79, 2.56 46.6, 5.81 37.68 C9.06 28.75, 13.28 21.56, 20.09 16 C26.91 10.44, 42.13 6.62, 46.7 4.31 C51.26 2.01, 46.92 1.75, 47.49 2.2" stroke="#000000" stroke-width="4" fill="none"></path>
    </g>
    <g transform="translate(298.4259292953084 809.483527027153) rotate(0 10 18.5)">
        <text x="10" y="26" font-family="Virgil, Segoe UI Emoji" font-size="29.029063000300123px" fill="#000000" text-anchor="middle" style="white-space: pre;" direction="ltr">P</text>
    </g>
    <g stroke-linecap="round" transform="translate(10 770.0017269343654) rotate(0 69.63812031547627 202.36018491673667)">
        <path d="M30.92 -2.84 L112.52 -0.26 L135.13 7.96 L135.07 23.16 L139.29 374.2 L135.16 395.11 L128.48 399.41 L112.48 406.23 L22.53 408.04 L6.73 396.12 L1.31 379.58 L-2.84 28.14 L4.63 7.02 L17.46 -1.4 L34.82 -2.69" stroke="none" stroke-width="0" fill="#12b886"></path>
        <path d="M32 0 M32 0 C52.42 -4.09, 67.33 -3.9, 107.28 0 M32 0 C57.25 0.79, 83.61 -0.66, 107.28 0 M107.28 0 C130.83 1.95, 136.65 7.3, 139.28 32 M107.28 0 C124.59 -2, 137.48 13.97, 139.28 32 M139.28 32 C138.58 126.28, 138.28 220.03, 139.28 372.72 M139.28 32 C136.57 144.93, 135.5 258.71, 139.28 372.72 M139.28 372.72 C138.94 397.74, 131.17 408.12, 107.28 404.72 M139.28 372.72 C138.83 394.64, 125.47 408.92, 107.28 404.72 M107.28 404.72 C81.94 404.8, 54.73 403.38, 32 404.72 M107.28 404.72 C90.03 404.49, 76.51 404.52, 32 404.72 M32 404.72 C7.92 401.75, 1.47 390.79, 0 372.72 M32 404.72 C13.61 407.58, -3.32 390.65, 0 372.72 M0 372.72 C-6.37 254.71, -2.86 140.01, 0 32 M0 372.72 C0.14 280.47, 0.77 186.57, 0 32 M0 32 C-1.11 9.91, 8.2 -3.36, 32 0 M0 32 C-0.23 14.62, 9.44 2.3, 32 0" stroke="#000000" stroke-width="4" fill="none"></path>
    </g>
    <g stroke-linecap="round" transform="translate(47.15177190535542 836.5702064803619) rotate(0 35.228696159593824 32.770880148459355)">
        <path d="M14.08 4.93 C19.14 1.01, 29.42 -1.55, 36.31 -1.2 C43.2 -0.86, 49.66 2.88, 55.42 6.98 C61.18 11.09, 68.57 16.91, 70.87 23.41 C73.18 29.91, 72.27 39.84, 69.25 45.98 C66.23 52.11, 58.66 57.29, 52.75 60.23 C46.84 63.17, 40.61 64.15, 33.78 63.61 C26.95 63.08, 17.27 60.48, 11.79 57.01 C6.31 53.53, 2.58 48.78, 0.9 42.77 C-0.77 36.77, -0.93 27.65, 1.73 20.99 C4.4 14.33, 13.57 5.75, 16.9 2.8 C20.24 -0.16, 21.44 2.25, 21.72 3.26 M21.5 3.02 C27.48 0.13, 35.47 -0.54, 41.57 1.02 C47.67 2.58, 53.82 8.29, 58.08 12.38 C62.35 16.47, 66.1 20.06, 67.17 25.57 C68.23 31.09, 67.59 39.05, 64.46 45.49 C61.33 51.94, 54.55 61.46, 48.38 64.23 C42.21 67, 34.19 63.5, 27.45 62.11 C20.7 60.71, 12.75 60.01, 7.91 55.86 C3.07 51.7, -0.79 43.57, -1.59 37.17 C-2.38 30.77, -0.83 22.77, 3.13 17.44 C7.1 12.12, 19.25 7.32, 22.22 5.24 C25.19 3.16, 21.5 5.16, 20.96 4.95" stroke="none" stroke-width="0" fill="#ced4da"></path>
        <path d="M12.84 6.04 C18.26 2.17, 28.75 -0.57, 35.65 -0.53 C42.56 -0.5, 48.66 2.37, 54.27 6.25 C59.88 10.13, 66.74 16.53, 69.31 22.76 C71.89 28.98, 71.7 37.86, 69.71 43.61 C67.73 49.37, 62.66 53.5, 57.4 57.29 C52.15 61.08, 45.3 66.04, 38.17 66.33 C31.03 66.62, 20.65 62.8, 14.59 59.02 C8.54 55.23, 3.71 49.32, 1.82 43.62 C-0.07 37.92, -3.57 32.05, 3.27 24.83 C10.1 17.6, 32.64 2.09, 42.84 0.27 C53.03 -1.55, 64.5 13.12, 64.42 13.89 M50.48 4.59 C56.27 6.21, 62.04 9.37, 65.08 14.77 C68.12 20.17, 69.76 30.2, 68.72 36.98 C67.67 43.75, 63.02 50.76, 58.8 55.43 C54.58 60.1, 50.24 64.23, 43.4 65 C36.56 65.76, 24.1 63.22, 17.74 60 C11.38 56.79, 7.82 50.71, 5.24 45.72 C2.66 40.74, 1.85 36.42, 2.26 30.09 C2.67 23.77, 3.03 12.24, 7.71 7.8 C12.39 3.37, 23.28 4.58, 30.33 3.49 C37.37 2.39, 46.97 0.84, 49.98 1.22 C52.98 1.6, 48.53 5.07, 48.34 5.76" stroke="#000000" stroke-width="4" fill="none"></path>
    </g>
    <g transform="translate(71.88046806494913 852.841086628821) rotate(0 10.5 16.5)">
        <text x="10.5" y="23" font-family="Virgil, Segoe UI Emoji" font-size="25.466814360440264px" fill="#000000" text-anchor="middle" style="white-space: pre;" direction="ltr">G</text>
    </g>
    <g stroke-linecap="round" transform="translate(45.513227897932666 919.3166788552218) rotate(0 33.999788154026646 26.62634012062324)">
        <path d="M40.5 0.2 C47.19 0.99, 54.99 3.7, 59.55 8.54 C64.11 13.39, 68.02 23.11, 67.88 29.26 C67.75 35.41, 63.3 41.81, 58.74 45.44 C54.19 49.06, 47.64 50.37, 40.54 51 C33.44 51.64, 22.96 52.18, 16.17 49.23 C9.37 46.28, 2.29 38.79, -0.23 33.3 C-2.76 27.8, -2.22 21.37, 1.02 16.26 C4.26 11.16, 11.64 5.26, 19.2 2.65 C26.77 0.03, 41.19 0.18, 46.4 0.58 C51.61 0.97, 50.65 4.61, 50.48 5.01 M61.31 13.24 C65.78 17.8, 68 24.39, 67.53 29.37 C67.06 34.35, 63.18 39.63, 58.46 43.11 C53.75 46.58, 47 49.67, 39.23 50.22 C31.45 50.78, 18.58 49.65, 11.8 46.45 C5.01 43.26, -0.4 36.52, -1.48 31.03 C-2.57 25.55, 2.24 18.63, 5.29 13.52 C8.34 8.42, 10.51 2.83, 16.83 0.41 C23.15 -2.01, 35.75 -2.68, 43.23 -1 C50.71 0.68, 58.69 7.96, 61.72 10.5 C64.74 13.05, 61.5 13.69, 61.38 14.26" stroke="none" stroke-width="0" fill="#ced4da"></path>
        <path d="M56.89 7.47 C62.64 11.03, 67.29 17.59, 68.6 23.18 C69.9 28.78, 68.9 35.94, 64.73 41.04 C60.56 46.13, 50.61 52.13, 43.59 53.75 C36.56 55.36, 29.26 53.13, 22.56 50.71 C15.87 48.3, 7.11 43.83, 3.43 39.27 C-0.26 34.71, -1.28 28.62, 0.47 23.34 C2.22 18.07, 8.26 11.45, 13.93 7.61 C19.59 3.76, 26.55 -0.85, 34.46 0.26 C42.37 1.37, 55.93 10.88, 61.4 14.26 C66.88 17.64, 67.49 20.46, 67.31 20.55 M29.43 -1.36 C36.04 -2.1, 47.71 -0.5, 53.97 3.49 C60.23 7.47, 65.26 17.02, 66.99 22.52 C68.71 28.03, 67.96 31.57, 64.34 36.52 C60.71 41.46, 52.32 49.26, 45.23 52.18 C38.15 55.1, 28.09 56.24, 21.8 54.06 C15.5 51.87, 11.42 43.97, 7.46 39.09 C3.49 34.21, -3.02 30.19, -1.99 24.77 C-0.95 19.35, 8.34 11.03, 13.66 6.58 C18.98 2.12, 26.56 -0.91, 29.94 -1.96 C33.32 -3.01, 33.69 -0.38, 33.93 0.29" stroke="#000000" stroke-width="4" fill="none"></path>
    </g>
    <g transform="translate(69.01301605195931 929.4430189758451) rotate(0 10.5 16.5)">
        <text x="10.5" y="23" font-family="Virgil, Segoe UI Emoji" font-size="25.435528432565935px" fill="#000000" text-anchor="middle" style="white-space: pre;" direction="ltr">G</text>
    </g>
    <g stroke-linecap="round" transform="translate(34.32650388123102 1086.7519445355806) rotate(0 39.32505617815127 31.95160814474798)">
        <path d="M26.98 1.3 C33.74 -1.3, 45.98 -1.78, 53.26 0.17 C60.53 2.11, 66.48 7.22, 70.64 12.97 C74.79 18.72, 78.39 28.22, 78.21 34.65 C78.02 41.09, 74.51 47.09, 69.53 51.57 C64.55 56.05, 55.58 59.84, 48.31 61.53 C41.03 63.21, 33.1 63.37, 25.88 61.68 C18.67 59.99, 9.48 56.79, 5.03 51.41 C0.57 46.03, -1.4 35.79, -0.87 29.41 C-0.33 23.03, -1.8 17.26, 8.22 13.15 C18.25 9.03, 47.77 3.03, 59.27 4.72 C70.77 6.4, 77.26 23.16, 77.23 23.26 M7.26 13.05 C11.69 8.21, 21.15 -0.42, 28.71 -2.12 C36.27 -3.83, 45.57 -0.09, 52.63 2.8 C59.69 5.69, 66.92 9.93, 71.07 15.24 C75.23 20.56, 77.47 28.12, 77.55 34.71 C77.62 41.3, 76.26 49.89, 71.52 54.79 C66.79 59.68, 57.44 63.38, 49.13 64.1 C40.82 64.81, 28.46 61.49, 21.66 59.05 C14.87 56.62, 12.18 54.91, 8.38 49.49 C4.59 44.07, -1.76 32.64, -1.11 26.53 C-0.45 20.42, 10.1 15.83, 12.31 12.81 C14.52 9.8, 12.43 7.91, 12.15 8.43" stroke="none" stroke-width="0" fill="#ced4da"></path>
        <path d="M58.94 2.53 C65.81 4.88, 73.8 13.39, 76.84 19.16 C79.88 24.92, 79 31.15, 77.2 37.14 C75.39 43.12, 71.2 50.45, 66.01 55.08 C60.83 59.71, 53.41 64.16, 46.09 64.93 C38.76 65.71, 29.09 63.21, 22.07 59.76 C15.06 56.3, 7.25 49.62, 3.99 44.19 C0.73 38.75, 0.97 33.02, 2.52 27.16 C4.08 21.31, 7.86 13.58, 13.32 9.07 C18.78 4.57, 24.64 -1.77, 35.3 0.13 C45.96 2.04, 70.96 13.38, 77.28 20.52 C83.6 27.66, 74.01 42.85, 73.21 42.97 M35.99 -2.21 C43.13 -3.24, 55.46 -1.14, 62.5 3.06 C69.54 7.26, 76.16 17.04, 78.23 22.97 C80.31 28.89, 77.19 32.42, 74.94 38.62 C72.68 44.82, 70.53 56.3, 64.69 60.17 C58.86 64.03, 48.16 61.78, 39.92 61.8 C31.68 61.82, 21.56 63.57, 15.25 60.26 C8.94 56.95, 4.44 48.62, 2.05 41.95 C-0.33 35.28, -0.95 26.01, 0.94 20.25 C2.84 14.48, 7.3 11.13, 13.43 7.35 C19.56 3.57, 33.76 -1.24, 37.72 -2.45 C41.69 -3.66, 37.48 -0.44, 37.25 0.09" stroke="#000000" stroke-width="4" fill="none"></path>
    </g>
    <g transform="translate(63.15156005938252 1102.2035526803284) rotate(0 10.5 16.5)">
        <text x="10.5" y="23" font-family="Virgil, Segoe UI Emoji" font-size="25.55533655946449px" fill="#000000" text-anchor="middle" style="white-space: pre;" direction="ltr">G</text>
    </g>
    <g stroke-linecap="round">
        <g transform="translate(169.96896066806767 835.3569750605558) rotate(0 33.6795922312042 1.7547472908441932)">
            <path d="M0.54 2.49 C12.14 2.71, 55.73 1.38, 66.82 1" stroke="#000000" stroke-width="4.5" fill="none" stroke-dasharray="8 12"></path>
        </g>
    </g>
    <mask></mask>
    <g stroke-linecap="round">
        <g transform="translate(304.78696159593846 883.8871670085952) rotate(0 -0.7946803116306 56.717162883778315)">
            <path d="M-0.35 -1.45 C-0.29 17.41, -0.78 95.08, -1.24 114.88" stroke="#000000" stroke-width="4.5" fill="none" stroke-dasharray="8 12"></path>
        </g>
    </g>
    <mask></mask>
    <g stroke-linecap="round" transform="translate(1514.0410064178495 700.177094448161) rotate(0 57.314640691763316 57.31464069176343)">
        <path d="M37.14 2.83 C44.23 -0.28, 54.19 1.43, 63.15 2.46 C72.11 3.48, 83.28 4.19, 90.87 8.98 C98.46 13.77, 104.59 23.18, 108.66 31.2 C112.74 39.23, 115.73 48.02, 115.34 57.12 C114.96 66.21, 111.02 78.06, 106.37 85.77 C101.71 93.49, 94.59 98.44, 87.4 103.41 C80.21 108.39, 71.46 114.34, 63.23 115.63 C55 116.93, 46.02 114.92, 38.02 111.18 C30.03 107.45, 21.34 100.11, 15.24 93.22 C9.14 86.33, 3.59 78.05, 1.44 69.87 C-0.7 61.68, 0.03 52.54, 2.39 44.12 C4.75 35.7, 7.72 26.47, 15.6 19.33 C23.49 12.2, 41.45 4.35, 49.7 1.31 C57.96 -1.73, 64.44 0.34, 65.14 1.1 M9.33 21.73 C14.7 14.79, 27.32 8.69, 35.72 5.16 C44.12 1.62, 51.81 0.32, 59.74 0.54 C67.66 0.76, 76.07 1.67, 83.29 6.49 C90.51 11.3, 97.6 21.2, 103.04 29.43 C108.47 37.66, 114.37 47.57, 115.9 55.89 C117.44 64.21, 116.16 71.41, 112.24 79.35 C108.31 87.29, 99.32 97.48, 92.38 103.53 C85.43 109.58, 78.92 113.99, 70.54 115.64 C62.17 117.28, 51.13 116.75, 42.1 113.42 C33.07 110.08, 23.17 101.89, 16.37 95.64 C9.57 89.38, 3.97 83.87, 1.31 75.89 C-1.36 67.91, -1.06 56.82, 0.4 47.74 C1.85 38.65, 7.58 25.33, 10.02 21.37 C12.46 17.42, 14.05 23.43, 15.03 23.99" stroke="none" stroke-width="0" fill="#228be6"></path>
        <path d="M86.72 7.57 C94.05 11.1, 101.28 19.53, 105.78 27.14 C110.28 34.75, 113.05 44, 113.75 53.22 C114.46 62.44, 113.53 74.32, 110.02 82.46 C106.51 90.6, 99.76 96.81, 92.68 102.04 C85.59 107.28, 76.24 112.47, 67.5 113.87 C58.77 115.26, 48.74 113.05, 40.28 110.41 C31.82 107.77, 23.06 104.5, 16.74 98.03 C10.42 91.56, 4.74 80.52, 2.35 71.59 C-0.04 62.66, 0.37 52.72, 2.39 44.45 C4.4 36.19, 9.24 28.92, 14.44 21.99 C19.64 15.06, 25.61 6.44, 33.6 2.86 C41.59 -0.73, 50.04 -3.71, 62.36 0.49 C74.69 4.69, 99.19 19.1, 107.56 28.08 C115.93 37.05, 113.69 54.07, 112.59 54.32 M56.49 -0.19 C64.56 -0.67, 76.34 4.93, 83.93 8.97 C91.53 13, 96.86 16.93, 102.06 24.04 C107.26 31.14, 114.15 42.96, 115.14 51.59 C116.14 60.22, 111.76 68.13, 108.04 75.81 C104.33 83.5, 99.05 91.28, 92.85 97.72 C86.66 104.17, 79.36 112.36, 70.86 114.47 C62.35 116.59, 50.49 112.56, 41.81 110.43 C33.14 108.29, 25.62 107.09, 18.82 101.68 C12.02 96.26, 4.08 86.26, 1 77.93 C-2.08 69.6, -1 60.85, 0.33 51.7 C1.66 42.55, 3.49 30.99, 8.98 23.01 C14.47 15.03, 25.39 7.56, 33.26 3.83 C41.14 0.09, 52.07 0.62, 56.25 0.59 C60.44 0.57, 58.6 3.24, 58.38 3.67" stroke="#000000" stroke-width="4" fill="none"></path>
    </g>
    <g transform="translate(1561.855647109613 740.4917351399241) rotate(0 9.5 17)">
        <text x="9.5" y="24" font-family="Virgil, Segoe UI Emoji" font-size="26.90467235576404px" fill="#000000" text-anchor="middle" style="white-space: pre;" direction="ltr">P</text>
    </g>
    <g stroke-linecap="round" transform="translate(1310.765080764395 744.5004165831248) rotate(0 64.95659278399853 188.75621667820747)">
        <path d="M29.15 3.99 L100.18 0.49 L112.1 -0.61 L119.2 5.56 L126.21 22.83 L125.65 354.94 L122.88 371.53 L103.11 379.2 L24.43 379.43 L5.53 371.17 L2.67 353.24 L-2.65 26.92 L5.4 10.92 L20 -0.68 L28.62 0.68" stroke="none" stroke-width="0" fill="#12b886"></path>
        <path d="M32 0 M32 0 C51.22 1.46, 72.08 -2.84, 97.91 0 M32 0 C51.15 -0.25, 71.49 1.43, 97.91 0 M97.91 0 C115.91 -1.11, 131.14 12.06, 129.91 32 M97.91 0 C114.93 -3, 126.29 6.7, 129.91 32 M129.91 32 C129.74 125.28, 133.58 216.75, 129.91 345.51 M129.91 32 C129.17 129.67, 130.92 227.62, 129.91 345.51 M129.91 345.51 C128.31 367.64, 120.49 380.88, 97.91 377.51 M129.91 345.51 C126.12 362.87, 117.49 376.53, 97.91 377.51 M97.91 377.51 C79.44 375.21, 59.45 380.4, 32 377.51 M97.91 377.51 C76.64 378.42, 54.67 376.33, 32 377.51 M32 377.51 C13.08 373.72, -2.93 366.25, 0 345.51 M32 377.51 C13.75 381.39, 1.21 369.8, 0 345.51 M0 345.51 C0.91 277.87, 1.16 207.59, 0 32 M0 345.51 C-2.79 283.47, -2.36 217.78, 0 32 M0 32 C-3.85 8.06, 7.55 -1.22, 32 0 M0 32 C4.15 10.28, 10.38 0.73, 32 0" stroke="#000000" stroke-width="4" fill="none"></path>
    </g>
    <g stroke-linecap="round" transform="translate(1337.1965586263286 753.1811037233807) rotate(0 32.310768907840156 29.079692017056118)">
        <path d="M48.79 1.47 C54.83 4.1, 58.83 11.95, 61.33 18.27 C63.82 24.6, 65.98 33.84, 63.77 39.43 C61.57 45.02, 54.15 48.82, 48.09 51.83 C42.03 54.84, 34.12 57.76, 27.42 57.49 C20.71 57.23, 12.67 54.83, 7.85 50.24 C3.03 45.64, -1.18 36.68, -1.49 29.92 C-1.8 23.16, 1.2 14.47, 5.98 9.67 C10.76 4.88, 18.48 0.42, 27.18 1.13 C35.88 1.85, 52.05 9.29, 58.16 13.97 C64.28 18.64, 64.22 29.19, 63.87 29.18 M50.17 7.13 C56.72 10.68, 63.73 16.83, 65.98 22.11 C68.22 27.39, 66.95 33.37, 63.64 38.78 C60.33 44.2, 52.56 51.23, 46.12 54.6 C39.69 57.98, 31.54 60.33, 25.04 59.03 C18.53 57.72, 11.73 51.89, 7.08 46.77 C2.44 41.66, -3.03 34.85, -2.85 28.33 C-2.67 21.81, 2.4 12.36, 8.16 7.63 C13.92 2.91, 25.09 0.89, 31.7 -0.01 C38.32 -0.91, 45.09 1.68, 47.86 2.23 C50.62 2.77, 48.29 1.93, 48.3 3.26" stroke="none" stroke-width="0" fill="#ced4da"></path>
        <path d="M11.07 5.15 C15.96 1.62, 24.62 0.41, 31.88 0.99 C39.14 1.58, 49.44 4.44, 54.66 8.68 C59.88 12.91, 62.39 20.2, 63.2 26.41 C64.01 32.62, 63.25 40.74, 59.51 45.95 C55.76 51.15, 47.17 55.97, 40.75 57.65 C34.33 59.34, 27.44 58.38, 20.99 56.05 C14.54 53.72, 5.64 48.99, 2.05 43.69 C-1.53 38.38, -5.29 31.69, -0.52 24.21 C4.25 16.72, 23 2.08, 30.67 -1.24 C38.34 -4.56, 45.59 3.4, 45.51 4.27 M31.66 -2.12 C38.43 -2.25, 47.92 4.86, 53.39 9.11 C58.87 13.37, 63.39 17.65, 64.48 23.43 C65.56 29.21, 63.09 38.69, 59.9 43.79 C56.7 48.89, 51.96 51.79, 45.32 54.03 C38.68 56.26, 26.74 59.45, 20.05 57.2 C13.36 54.94, 8.75 46.47, 5.18 40.49 C1.6 34.51, -2.07 26.97, -1.39 21.31 C-0.71 15.65, 3.34 10.36, 9.27 6.53 C15.2 2.71, 30.7 -0.59, 34.19 -1.65 C37.68 -2.7, 30.2 -0.11, 30.2 0.2" stroke="#000000" stroke-width="4" fill="none"></path>
    </g>
    <g transform="translate(1362.0073275341688 770.7607957404367) rotate(0 7.5 11.5)">
        <text x="7.5" y="16" font-family="Virgil, Segoe UI Emoji" font-size="17.876139648768053px" fill="#000000" text-anchor="middle" style="white-space: pre;" direction="ltr">G</text>
    </g>
    <g stroke-linecap="round" transform="translate(1335.9978689896866 852.6723435647251) rotate(0 32.310768907840156 29.079692017056118)">
        <path d="M14.8 4.59 C20.04 1.79, 31.21 1.42, 37.91 2.03 C44.6 2.63, 50.67 3.88, 54.99 8.22 C59.31 12.56, 63.55 21.31, 63.85 28.07 C64.15 34.83, 61.24 43.94, 56.77 48.77 C52.3 53.61, 43.81 56.44, 37.03 57.1 C30.25 57.77, 21.56 55.63, 16.07 52.78 C10.59 49.93, 6.78 45.47, 4.13 40 C1.48 34.53, -3.71 26.45, 0.17 19.96 C4.05 13.47, 20.92 4.36, 27.41 1.04 C33.9 -2.27, 38.8 0.02, 39.1 0.06 M13.23 8.25 C18.24 3.29, 26.64 -1.88, 33.12 -2.35 C39.61 -2.82, 46.85 0.91, 52.12 5.44 C57.39 9.97, 63.11 18.49, 64.74 24.84 C66.37 31.19, 65.8 38.1, 61.92 43.56 C58.04 49.01, 48.24 55.57, 41.45 57.59 C34.67 59.61, 26.88 57.89, 21.21 55.68 C15.53 53.47, 11.32 49.93, 7.38 44.34 C3.44 38.74, -2.67 28.67, -2.45 22.13 C-2.22 15.6, 6.63 7.04, 8.74 5.12 C10.86 3.2, 9.58 9.88, 10.22 10.6" stroke="none" stroke-width="0" fill="#ced4da"></path>
        <path d="M11.92 6.21 C17.43 2.82, 28.63 0.55, 35.65 1.12 C42.66 1.69, 49.23 5.19, 54.03 9.63 C58.83 14.07, 63.89 21.62, 64.47 27.79 C65.05 33.95, 61.32 41.69, 57.52 46.61 C53.73 51.53, 48.47 55.62, 41.72 57.29 C34.98 58.96, 23.72 59.05, 17.05 56.63 C10.38 54.22, 4.2 48.87, 1.71 42.8 C-0.78 36.72, -0.43 26.81, 2.11 20.19 C4.64 13.56, 13.23 6.02, 16.93 3.08 C20.63 0.14, 23.78 2.29, 24.3 2.55 M43.98 4.03 C50.48 6.02, 57.59 9, 60.89 14.09 C64.2 19.18, 64.82 28.71, 63.82 34.57 C62.82 40.42, 60.41 45.14, 54.91 49.23 C49.41 53.31, 37.96 59.25, 30.83 59.07 C23.69 58.89, 17.49 52.81, 12.09 48.16 C6.7 43.51, 0.1 36.88, -1.57 31.19 C-3.24 25.49, -2.08 19.21, 2.08 14 C6.23 8.78, 16.79 1.98, 23.35 -0.09 C29.92 -2.16, 37.81 1.59, 41.47 1.58 C45.13 1.56, 45 -0.67, 45.29 -0.18" stroke="#000000" stroke-width="4" fill="none"></path>
    </g>
    <g transform="translate(1360.8086378975268 870.2520355817811) rotate(0 7.5 11.5)">
        <text x="7.5" y="16" font-family="Virgil, Segoe UI Emoji" font-size="17.876139648768053px" fill="#000000" text-anchor="middle" style="white-space: pre;" direction="ltr">G</text>
    </g>
    <g stroke-linecap="round" transform="translate(1334.7991793530437 946.1701352228566) rotate(0 32.310768907840156 29.079692017056118)">
        <path d="M7.81 12.48 C11.48 7.29, 17.91 0.35, 24.47 -1.19 C31.04 -2.74, 40.98 -0.34, 47.19 3.21 C53.41 6.76, 59.41 14.29, 61.77 20.09 C64.13 25.89, 63.58 32.67, 61.34 38.02 C59.1 43.38, 53.68 48.86, 48.32 52.23 C42.97 55.6, 36.22 58.86, 29.23 58.23 C22.24 57.6, 11.26 53.1, 6.38 48.45 C1.49 43.8, -3.18 38.53, -0.09 30.33 C3 22.12, 16.86 3.94, 24.93 -0.78 C33 -5.5, 48.31 1.34, 48.32 2 M54.3 3.92 C59.27 7.05, 62.66 15.69, 63.87 22.49 C65.08 29.29, 64.66 38.96, 61.56 44.7 C58.47 50.44, 52.37 54.67, 45.3 56.93 C38.24 59.18, 26.11 60.5, 19.18 58.22 C12.24 55.94, 6.42 48.86, 3.69 43.27 C0.96 37.69, 2.09 31.17, 2.82 24.7 C3.55 18.23, 3.65 8.96, 8.08 4.45 C12.52 -0.05, 22.21 -3.08, 29.44 -2.33 C36.67 -1.57, 47.74 7.51, 51.46 8.99 C55.17 10.47, 51.82 7.11, 51.72 6.55" stroke="none" stroke-width="0" fill="#ced4da"></path>
        <path d="M19.69 3.51 C25.66 0.79, 33.54 0.47, 40.1 2.23 C46.67 3.99, 55.24 8.93, 59.09 14.06 C62.94 19.18, 63.75 26.97, 63.21 32.98 C62.66 38.99, 60.85 45.75, 55.81 50.14 C50.77 54.53, 40.25 58.65, 32.95 59.3 C25.65 59.95, 17.16 58.14, 11.99 54.04 C6.82 49.95, 3.68 40.98, 1.95 34.74 C0.22 28.51, -2.01 22.07, 1.6 16.64 C5.2 11.2, 19.24 4.87, 23.59 2.12 C27.93 -0.63, 27.44 -0.06, 27.66 0.13 M11.6 6.01 C16.3 1.51, 24.57 0.17, 31.84 -0.14 C39.1 -0.45, 49.96 0, 55.2 4.14 C60.43 8.28, 62.2 18.62, 63.25 24.7 C64.29 30.77, 65.08 35.71, 61.48 40.58 C57.89 45.46, 48.76 51.31, 41.67 53.95 C34.58 56.6, 24.9 58.41, 18.94 56.45 C12.99 54.49, 9.45 47.62, 5.95 42.19 C2.45 36.77, -3.21 30.22, -2.06 23.9 C-0.91 17.58, 10.51 7.06, 12.88 4.29 C15.25 1.53, 11.84 6.7, 12.16 7.3" stroke="#000000" stroke-width="4" fill="none"></path>
    </g>
    <g transform="translate(1359.6099482608838 963.7498272399126) rotate(0 7.5 11.5)">
        <text x="7.5" y="16" font-family="Virgil, Segoe UI Emoji" font-size="17.876139648768053px" fill="#000000" text-anchor="middle" style="white-space: pre;" direction="ltr">G</text>
    </g>
    <g stroke-linecap="round">
        <g transform="translate(1448.320218424628 770.4830536967244) rotate(0 31.422762445725766 -1.7413310301136562)">
            <path d="M-1.17 -2.64 C9.78 -2.4, 53.14 -0.77, 64.01 -0.85" stroke="#000000" stroke-width="4.5" fill="none" stroke-dasharray="8 12"></path>
        </g>
    </g>
    <mask></mask>
    <g stroke-linecap="round">
        <g transform="translate(1591.7270686382708 821.036158689603) rotate(0 -1.2405530439004906 47.91129801914781)">
            <path d="M-2.64 1.35 C-2.24 17.29, 0.07 78.93, 0.15 94.47" stroke="#000000" stroke-width="4.5" fill="none" stroke-dasharray="8 12"></path>
        </g>
    </g>
    <mask></mask>
    <g stroke-linecap="round" transform="translate(247.85643481235866 1168.7298178967476) rotate(0 44.16707640640948 39.7503687657686)">
        <path d="M41.72 -1.48 C48.64 -2.58, 58.5 0.42, 65.58 4.63 C72.66 8.85, 80.77 17.02, 84.2 23.8 C87.64 30.58, 87.45 38.16, 86.18 45.3 C84.9 52.43, 81.16 61.09, 76.56 66.6 C71.95 72.1, 65.68 76.58, 58.53 78.35 C51.38 80.11, 41.24 79.28, 33.65 77.18 C26.07 75.07, 18.63 70.69, 13.02 65.72 C7.41 60.75, 1.27 54.35, -0.01 47.38 C-1.3 40.4, 2.09 30.44, 5.31 23.88 C8.53 17.32, 8.25 10.75, 19.31 8.02 C30.38 5.28, 60.77 4.37, 71.71 7.47 C82.65 10.58, 85.78 26.15, 84.94 26.66 M62.39 4.82 C69.31 8.29, 79.7 15.51, 84.28 22.02 C88.86 28.53, 91 37.17, 89.85 43.9 C88.7 50.62, 82.3 56.97, 77.39 62.37 C72.47 67.76, 67.47 73.76, 60.36 76.25 C53.25 78.74, 42.94 79.11, 34.72 77.31 C26.49 75.51, 16.12 69.86, 11.01 65.46 C5.89 61.06, 5.07 57.66, 4 50.89 C2.94 44.11, 2.16 32.05, 4.64 24.81 C7.11 17.58, 12.64 11.66, 18.85 7.45 C25.06 3.25, 34.39 -0.28, 41.91 -0.41 C49.43 -0.55, 60.23 5.44, 63.97 6.65 C67.71 7.86, 64.05 6.93, 64.34 6.86" stroke="none" stroke-width="0" fill="#ced4da"></path>
        <path d="M10.96 14.15 C15.85 8.8, 24.85 4.71, 32.4 2.61 C39.95 0.51, 48.7 -0.06, 56.26 1.56 C63.81 3.17, 72.15 6.86, 77.73 12.31 C83.31 17.75, 88.32 26.82, 89.74 34.24 C91.17 41.65, 89.79 50.46, 86.29 56.8 C82.79 63.13, 76 68.27, 68.74 72.26 C61.47 76.25, 50.55 80.35, 42.71 80.75 C34.88 81.16, 27.84 78.46, 21.71 74.69 C15.57 70.93, 9.35 65.11, 5.91 58.16 C2.46 51.21, -2.43 42.51, 1.04 33.02 C4.51 23.52, 18.6 6.32, 26.72 1.2 C34.83 -3.91, 49.16 1.33, 49.72 2.32 M63.63 2.96 C71.01 5.08, 79.21 12.39, 83.57 18.64 C87.93 24.89, 89.71 33.17, 89.78 40.45 C89.85 47.74, 88.1 56.95, 84 62.35 C79.89 67.75, 72.68 70.39, 65.15 72.85 C57.63 75.31, 47.44 77.52, 38.87 77.09 C30.29 76.66, 19.71 74.48, 13.72 70.27 C7.72 66.06, 4.85 58.13, 2.91 51.85 C0.98 45.57, -0.09 39.48, 2.09 32.61 C4.28 25.75, 9.93 15.92, 16.03 10.65 C22.13 5.37, 31.59 1.83, 38.69 0.97 C45.79 0.1, 54.46 4.56, 58.65 5.45 C62.83 6.34, 64 5.63, 63.82 6.31" stroke="#000000" stroke-width="4" fill="none"></path>
    </g>
    <g transform="translate(281.52351121876836 1191.9801866625162) rotate(0 10.5 16.5)">
        <text x="10.5" y="23" font-family="Virgil, Segoe UI Emoji" font-size="25.63663182964986px" fill="#000000" text-anchor="middle" style="white-space: pre;" direction="ltr">G</text>
    </g>
    <g stroke-linecap="round" transform="translate(865.9002012749311 817.2024631097512) rotate(0 61.445400278361376 61.445400278361376)">
        <path d="M80.5 2.85 C89.38 4.54, 96.44 10.21, 102.82 16.66 C109.21 23.11, 115.76 32.4, 118.8 41.57 C121.85 50.73, 122.38 62.26, 121.1 71.65 C119.81 81.05, 116.98 90.69, 111.09 97.96 C105.19 105.23, 94.29 110.8, 85.74 115.27 C77.19 119.74, 68.86 124.61, 59.76 124.8 C50.66 124.98, 39.37 121.5, 31.14 116.37 C22.9 111.24, 15.26 102.62, 10.35 94.01 C5.45 85.41, 2.61 73.95, 1.69 64.74 C0.77 55.53, 1.59 47.33, 4.84 38.73 C8.1 30.12, 13.87 19.61, 21.22 13.11 C28.57 6.6, 35.85 -0.16, 48.93 -0.32 C62.01 -0.48, 88.7 6.41, 99.71 12.15 C110.72 17.89, 115.53 32.88, 114.99 34.12 M23.89 12.66 C30.68 6.05, 42.81 3.87, 52.28 2.15 C61.74 0.44, 71.55 -0.16, 80.69 2.37 C89.83 4.9, 101.01 10.93, 107.11 17.32 C113.2 23.7, 114.47 31.45, 117.26 40.68 C120.04 49.91, 125.18 62.53, 123.82 72.7 C122.47 82.86, 115.24 94.51, 109.13 101.64 C103.01 108.77, 95.87 111.51, 87.11 115.46 C78.35 119.4, 65.78 125.11, 56.58 125.31 C47.37 125.51, 40.1 121.6, 31.88 116.67 C23.65 111.73, 12.69 104.65, 7.24 95.71 C1.8 86.77, -0.48 73.21, -0.8 63.02 C-1.11 52.84, 1.26 42.68, 5.36 34.6 C9.45 26.53, 20.8 17.51, 23.77 14.55 C26.74 11.6, 22.25 16.33, 23.17 16.87" stroke="none" stroke-width="0" fill="#228be6"></path>
        <path d="M105.12 15.58 C112.05 21.17, 115.56 34.24, 118.69 43.96 C121.83 53.69, 125.02 64.51, 123.93 73.93 C122.84 83.35, 118.05 93.44, 112.16 100.46 C106.26 107.48, 97.54 112.57, 88.56 116.06 C79.58 119.54, 67.71 121.47, 58.28 121.38 C48.85 121.29, 39.84 120.16, 31.98 115.49 C24.11 110.82, 16.24 101.5, 11.07 93.38 C5.91 85.26, 2.04 76.29, 1.01 66.78 C-0.02 57.26, 1.43 44.89, 4.89 36.31 C8.35 27.73, 14.31 21.1, 21.77 15.29 C29.23 9.49, 40.42 3.85, 49.67 1.47 C58.91 -0.91, 65.97 -4.84, 77.25 1.02 C88.53 6.88, 109.88 26.64, 117.37 36.65 C124.85 46.66, 123.3 60.92, 122.17 61.08 M113.21 30.02 C119.44 37.87, 123.25 49.59, 124.36 58.64 C125.47 67.69, 123.79 76.22, 119.87 84.29 C115.95 92.36, 108.38 100.69, 100.84 107.08 C93.3 113.46, 84.13 120.23, 74.64 122.6 C65.15 124.97, 53.18 124.18, 43.91 121.29 C34.65 118.4, 26.28 112.09, 19.02 105.26 C11.77 98.44, 3.06 88.97, 0.41 80.33 C-2.24 71.69, 1.54 62.91, 3.1 53.41 C4.67 43.9, 4.89 30.99, 9.79 23.32 C14.7 15.65, 23.96 10.92, 32.53 7.4 C41.1 3.88, 51.53 1.66, 61.23 2.19 C70.92 2.72, 82.22 6.34, 90.7 10.57 C99.17 14.79, 108.58 24.36, 112.05 27.56 C115.52 30.75, 111.85 28.89, 111.5 29.72" stroke="#000000" stroke-width="4" fill="none"></path>
    </g>
    <g transform="translate(917.3456015532925 860.1478633881126) rotate(0 10 18.5)">
        <text x="10" y="26" font-family="Virgil, Segoe UI Emoji" font-size="29.029063000300123px" fill="#000000" text-anchor="middle" style="white-space: pre;" direction="ltr">P</text>
    </g>
    <g stroke-linecap="round" transform="translate(641.4196722579841 845.876983239653) rotate(0 69.63812031547627 202.36018491673667)">
        <path d="M29.22 2.35 L117.88 -0.11 L135.09 9.3 L134.78 22.03 L142.02 376.6 L138.77 396.17 L129.97 402.92 L112.43 404.1 L21.63 407.83 L10.31 400.52 L-0.23 381.94 L2.54 23.94 L7.06 5.38 L21.69 1.78 L32.71 -3.8" stroke="none" stroke-width="0" fill="#12b886"></path>
        <path d="M32 0 M32 0 C49.64 2.1, 61.94 -3.53, 107.28 0 M32 0 C62.16 2.14, 93.34 2.67, 107.28 0 M107.28 0 C130.89 -1.06, 139.48 8.46, 139.28 32 M107.28 0 C129.27 1.61, 137.89 11.73, 139.28 32 M139.28 32 C137.1 133.97, 139.21 229.72, 139.28 372.72 M139.28 32 C135.07 116.97, 135.58 201.16, 139.28 372.72 M139.28 372.72 C137.86 393.2, 127.83 405.87, 107.28 404.72 M139.28 372.72 C142.35 395.67, 125.72 407.24, 107.28 404.72 M107.28 404.72 C85.67 404.81, 54.81 402.68, 32 404.72 M107.28 404.72 C88.61 404.78, 69.31 402.34, 32 404.72 M32 404.72 C6.95 407.12, 3.95 395.58, 0 372.72 M32 404.72 C15.07 407.15, 0.16 397.55, 0 372.72 M0 372.72 C-1.7 291.08, -0.3 208.76, 0 32 M0 372.72 C4.48 278.41, 4.31 182.98, 0 32 M0 32 C0.88 14.29, 11.56 -0.9, 32 0 M0 32 C3.55 12.31, 12.76 -0.44, 32 0" stroke="#000000" stroke-width="4" fill="none"></path>
    </g>
    <g stroke-linecap="round">
        <g transform="translate(788.8886329260513 873.7322313658434) rotate(0 39.403018321911304 2.8352209076889494)">
            <path d="M2.71 2.8 C15.68 2.92, 64.01 3.32, 76.09 2.64" stroke="#000000" stroke-width="4.5" fill="none" stroke-dasharray="8 12"></path>
        </g>
    </g>
    <mask></mask>
    <g stroke-linecap="round">
        <g transform="translate(937.5620938260868 939.1137447084558) rotate(0 -1.0245837642212337 42.009942328082616)">
            <path d="M-0.69 -0.69 C-0.72 12.97, -0.48 70.51, -1.37 84.71" stroke="#000000" stroke-width="4.5" fill="none" stroke-dasharray="8 12"></path>
        </g>
    </g>
    <mask></mask>
    <g transform="translate(283.26584501603793 629.9510514173074) rotate(0 14.5 59.611111111111086)">
        <text x="14.499999999999996" y="83.2222222222222" font-family="Virgil, Segoe UI Emoji" font-size="95.03555243053223px" fill="#000000" text-anchor="middle" style="white-space: pre;" direction="ltr">1</text>
    </g>
    <g transform="translate(900.938621207214 708.4138119053024) rotate(0 21 35.31818181818187)">
        <text x="21.000000000000007" y="49.636363636363654" font-family="Virgil, Segoe UI Emoji" font-size="56.30633043689844px" fill="#000000" text-anchor="middle" style="white-space: pre;" direction="ltr">2</text>
    </g>
    <g transform="translate(1518.4226040928934 567.5992063492048) rotate(0 23.833333333333485 41.99206349206372)">
        <text x="23.833333333333467" y="58.98412698412747" font-family="Virgil, Segoe UI Emoji" font-size="66.94622658899601px" fill="#000000" text-anchor="middle" style="white-space: pre;" direction="ltr">3</text>
    </g>
    <g stroke-linecap="round" transform="translate(41.76695341684308 996.740826289984) rotate(0 39.32505617815127 31.951608144747865)">
        <path d="M36.64 -1.15 C43.37 -2.07, 52.02 1.45, 58.82 4.81 C65.61 8.17, 74.34 12.96, 77.4 19.02 C80.46 25.09, 79.61 35.05, 77.16 41.19 C74.71 47.33, 68.49 52.13, 62.71 55.87 C56.93 59.61, 49.84 62.98, 42.49 63.61 C35.13 64.24, 25.13 63.04, 18.61 59.64 C12.09 56.25, 6.55 48.98, 3.37 43.24 C0.18 37.5, -2.21 31.41, -0.48 25.21 C1.26 19, 6.52 10.02, 13.77 6.01 C21.03 2, 37.38 1.56, 43.07 1.15 C48.75 0.75, 48.05 3.41, 47.88 3.59 M26.09 1.41 C32.87 -0.5, 43.36 0.45, 50.61 2.54 C57.86 4.63, 65.2 8.67, 69.57 13.96 C73.95 19.25, 77.08 28, 76.86 34.28 C76.64 40.55, 72.93 46.66, 68.25 51.59 C63.58 56.51, 55.84 61.9, 48.81 63.84 C41.78 65.77, 32.96 65.62, 26.09 63.19 C19.23 60.76, 12.36 55.01, 7.62 49.27 C2.89 43.53, -2.19 34.75, -2.3 28.75 C-2.4 22.74, 1.97 17.33, 6.98 13.22 C11.99 9.1, 24.01 6, 27.79 4.06 C31.56 2.11, 29.54 1.46, 29.62 1.54" stroke="none" stroke-width="0" fill="#ced4da"></path>
        <path d="M8.15 13.44 C11.99 8.52, 18.09 5.69, 25.3 3.43 C32.5 1.17, 43.52 -1.9, 51.36 -0.11 C59.21 1.68, 67.92 8.78, 72.34 14.18 C76.76 19.59, 77.94 26.53, 77.88 32.31 C77.82 38.08, 75.97 43.91, 71.97 48.83 C67.96 53.75, 61.05 59.31, 53.83 61.82 C46.62 64.33, 36.22 65.51, 28.68 63.9 C21.14 62.3, 13.24 57.41, 8.58 52.21 C3.93 47.01, -2.22 40.86, 0.73 32.7 C3.68 24.55, 18.71 8.64, 26.27 3.26 C33.83 -2.12, 45.98 0.42, 46.09 0.43 M32.91 -0.95 C39.86 -2.31, 48.71 0.46, 55.86 3.17 C63.01 5.88, 72.38 10.02, 75.82 15.32 C79.26 20.62, 77.7 28.06, 76.5 34.96 C75.3 41.87, 73.23 52.41, 68.62 56.75 C64.01 61.09, 56.51 60.81, 48.86 61.01 C41.21 61.2, 30.57 60.34, 22.7 57.93 C14.84 55.53, 5.43 51.89, 1.69 46.58 C-2.05 41.26, -1.06 31.96, 0.25 26.07 C1.56 20.17, 4.05 15.68, 9.56 11.22 C15.06 6.77, 28.94 1.04, 33.27 -0.64 C37.6 -2.32, 35.2 0.01, 35.55 1.17" stroke="#000000" stroke-width="4" fill="none"></path>
    </g>
    <g transform="translate(70.59200959499412 1012.1924344347318) rotate(0 10.5 16.5)">
        <text x="10.5" y="23" font-family="Virgil, Segoe UI Emoji" font-size="25.55533655946449px" fill="#000000" text-anchor="middle" style="white-space: pre;" direction="ltr">G</text>
    </g>
    <g stroke-linecap="round" transform="translate(1336.25313319013 1027.685542046528) rotate(0 32.310768907840156 29.079692017056118)">
        <path d="M54.36 9.58 C59.66 13.27, 65.79 19.99, 66.24 26.27 C66.68 32.56, 61.36 42.11, 57.04 47.27 C52.72 52.43, 46.6 56.2, 40.3 57.23 C34 58.27, 25.47 56.34, 19.27 53.47 C13.06 50.6, 5.92 45.79, 3.09 40.02 C0.26 34.24, 0.52 24.43, 2.29 18.8 C4.06 13.16, 8 9.26, 13.72 6.2 C19.43 3.14, 28.66 -1.41, 36.58 0.46 C44.49 2.33, 56.39 13.21, 61.19 17.44 C66 21.67, 65.68 25.76, 65.4 25.84 M52.04 8.95 C57.69 12.47, 63.29 15.7, 65 21.68 C66.7 27.66, 66.48 39.2, 62.27 44.83 C58.06 50.47, 46.86 53.38, 39.74 55.48 C32.63 57.58, 25.52 59.62, 19.58 57.43 C13.65 55.23, 7.29 47.57, 4.14 42.32 C1 37.06, -0.51 32.36, 0.72 25.89 C1.96 19.43, 6.23 7.79, 11.56 3.52 C16.89 -0.75, 25.27 -0.41, 32.71 0.26 C40.14 0.92, 53.12 6.38, 56.18 7.49 C59.25 8.6, 52.01 6.37, 51.09 6.92" stroke="none" stroke-width="0" fill="#ced4da"></path>
        <path d="M8.78 7.58 C13.53 2.85, 24.59 -1.28, 31.52 -1.6 C38.45 -1.93, 44.96 1.75, 50.38 5.62 C55.8 9.49, 62.37 15.67, 64.03 21.61 C65.69 27.56, 63.11 35.99, 60.34 41.31 C57.57 46.63, 53.25 50.9, 47.41 53.54 C41.58 56.17, 32.07 58.76, 25.34 57.12 C18.62 55.48, 10.99 48.91, 7.05 43.68 C3.1 38.45, -1.63 32.65, 1.68 25.74 C4.98 18.82, 20.2 6, 26.89 2.18 C33.57 -1.64, 41.69 2.29, 41.8 2.83 M58.82 9.26 C62.46 14.21, 62.16 24.81, 62.05 31.25 C61.93 37.69, 61.98 43.94, 58.13 47.91 C54.27 51.87, 46.2 54.11, 38.92 55.04 C31.64 55.97, 20.55 56.05, 14.45 53.5 C8.35 50.94, 3.96 45.75, 2.32 39.71 C0.67 33.67, 2.26 22.9, 4.58 17.28 C6.91 11.66, 10.86 8.57, 16.27 6 C21.68 3.44, 30.42 1.19, 37.03 1.91 C43.63 2.62, 53.12 9.11, 55.9 10.29 C58.68 11.47, 53.63 8.5, 53.73 8.99" stroke="#000000" stroke-width="4" fill="none"></path>
    </g>
    <g transform="translate(1361.0639020979702 1045.265234063584) rotate(0 7.5 11.5)">
        <text x="7.5" y="16" font-family="Virgil, Segoe UI Emoji" font-size="17.876139648768053px" fill="#000000" text-anchor="middle" style="white-space: pre;" direction="ltr">G</text>
    </g>
    <g stroke-linecap="round" transform="translate(674.2212540621349 873.5014221547009) rotate(0 32.310768907840156 29.079692017056118)">
        <path d="M11.62 6 C16.61 1.96, 26.05 1.4, 33.07 1.46 C40.1 1.52, 48.91 2.75, 53.77 6.37 C58.63 10, 61.1 16.84, 62.23 23.22 C63.36 29.61, 63.79 39.15, 60.55 44.69 C57.32 50.23, 49.53 54.81, 42.83 56.46 C36.14 58.11, 26.52 56.76, 20.36 54.58 C14.21 52.4, 9.5 48.38, 5.92 43.39 C2.33 38.4, -2.36 31.33, -1.17 24.63 C0.02 17.94, 9.77 6.67, 13.07 3.23 C16.37 -0.2, 18.18 3.48, 18.65 4.03 M40.47 0.57 C47.5 0.91, 54.97 5.38, 58.94 10.17 C62.92 14.97, 64.87 22.74, 64.34 29.34 C63.8 35.93, 60.17 44.5, 55.73 49.73 C51.3 54.97, 44.67 60.14, 37.74 60.76 C30.81 61.38, 20.41 57.36, 14.16 53.46 C7.92 49.57, 2.35 43.71, 0.28 37.39 C-1.8 31.06, -0.93 21.47, 1.73 15.51 C4.39 9.56, 9.62 4.57, 16.22 1.67 C22.83 -1.24, 37.42 -2.11, 41.37 -1.92 C45.33 -1.73, 40.53 1.89, 39.96 2.8" stroke="none" stroke-width="0" fill="#ced4da"></path>
        <path d="M12.75 3.26 C18.06 -0.15, 27.32 -0.76, 34.2 0.25 C41.08 1.25, 49 4.86, 54.01 9.31 C59.01 13.76, 63.75 20.72, 64.25 26.93 C64.74 33.13, 61.33 41.43, 56.98 46.55 C52.62 51.67, 44.27 56.25, 38.12 57.67 C31.96 59.09, 26.14 57.96, 20.05 55.06 C13.97 52.15, 4.76 45.73, 1.58 40.24 C-1.6 34.76, -4.92 28.76, 0.99 22.15 C6.89 15.54, 27.24 1.93, 37.03 0.59 C46.82 -0.74, 59.87 13.51, 59.74 14.14 M14.95 4.72 C20.19 2.35, 29.83 2.25, 36.92 2.88 C44.01 3.52, 52.89 4.25, 57.48 8.55 C62.07 12.84, 65.18 22.02, 64.45 28.63 C63.72 35.24, 57.98 43.21, 53.11 48.19 C48.24 53.16, 41.11 57.86, 35.22 58.48 C29.33 59.09, 23.59 55.66, 17.76 51.88 C11.93 48.11, 2.44 41.69, 0.23 35.83 C-1.97 29.97, 1.3 22.29, 4.51 16.72 C7.72 11.15, 16.86 4.56, 19.51 2.4 C22.16 0.25, 20.57 3.42, 20.39 3.78" stroke="#000000" stroke-width="4" fill="none"></path>
    </g>
    <g transform="translate(699.0320229699746 891.0811141717569) rotate(0 7.5 11.5)">
        <text x="7.5" y="16" font-family="Virgil, Segoe UI Emoji" font-size="17.876139648768053px" fill="#000000" text-anchor="middle" style="white-space: pre;" direction="ltr">G</text>
    </g>
    <g stroke-linecap="round" transform="translate(673.0225644254924 972.9926619960453) rotate(0 32.310768907840156 29.079692017056118)">
        <path d="M44.54 3.16 C50.98 4.98, 58.38 9.22, 61.35 14.31 C64.32 19.4, 63.73 27.28, 62.37 33.69 C61.01 40.1, 58.34 48.67, 53.18 52.78 C48.02 56.9, 38.57 58.95, 31.41 58.4 C24.25 57.84, 15.16 53.59, 10.23 49.46 C5.3 45.32, 3.07 39.38, 1.81 33.6 C0.55 27.81, -0.22 20.28, 2.68 14.76 C5.58 9.24, 11.15 1.79, 19.22 0.49 C27.29 -0.81, 44.73 5, 51.11 6.96 C57.48 8.92, 57.61 12.29, 57.49 12.25 M56.04 7.14 C60.78 10.89, 63.86 18.75, 64.27 25.33 C64.69 31.91, 62.24 40.85, 58.55 46.63 C54.86 52.41, 48.87 58.55, 42.12 60.01 C35.37 61.48, 24.76 58.57, 18.05 55.42 C11.34 52.27, 4.82 47.15, 1.86 41.13 C-1.11 35.11, -1.49 25.53, 0.27 19.3 C2.02 13.06, 6.28 7.36, 12.4 3.72 C18.52 0.08, 29.76 -3.62, 36.98 -2.56 C44.19 -1.5, 52.89 8.16, 55.7 10.09 C58.5 12.01, 54.11 8.5, 53.81 9" stroke="none" stroke-width="0" fill="#ced4da"></path>
        <path d="M13.47 4.61 C18.79 1.47, 27.94 -0.12, 35.01 0.66 C42.07 1.44, 51.18 4.72, 55.87 9.31 C60.56 13.9, 63.13 21.89, 63.15 28.21 C63.16 34.52, 59.6 42.33, 55.94 47.19 C52.28 52.04, 47.83 56.16, 41.2 57.34 C34.56 58.51, 22.65 56.9, 16.14 54.22 C9.64 51.55, 4.87 46.94, 2.16 41.28 C-0.54 35.63, -2.73 26.49, -0.09 20.32 C2.56 14.15, 15.08 6.99, 18.02 4.28 C20.96 1.57, 17.64 3.77, 17.57 4.07 M11.16 7.54 C16.62 3.09, 27.13 -2.63, 34.42 -2.79 C41.7 -2.95, 50.36 1.84, 54.88 6.6 C59.39 11.36, 61.04 19.18, 61.51 25.78 C61.97 32.37, 60.62 41.23, 57.66 46.17 C54.7 51.11, 50.42 54.2, 43.74 55.44 C37.07 56.67, 24.03 56.09, 17.6 53.58 C11.16 51.07, 7.55 45.81, 5.13 40.36 C2.72 34.91, 1.25 26.71, 3.1 20.88 C4.96 15.04, 14.52 8.09, 16.25 5.37 C17.99 2.65, 14.14 4.53, 13.53 4.58" stroke="#000000" stroke-width="4" fill="none"></path>
    </g>
    <g transform="translate(697.833333333333 990.5723540131013) rotate(0 7.5 11.5)">
        <text x="7.5" y="16" font-family="Virgil, Segoe UI Emoji" font-size="17.876139648768053px" fill="#000000" text-anchor="middle" style="white-space: pre;" direction="ltr">G</text>
    </g>
    <g stroke-linecap="round" transform="translate(671.8238747888499 1066.4904536541762) rotate(0 32.310768907840156 29.079692017056118)">
        <path d="M15.94 4.54 C20.73 0.73, 27.89 -1.12, 34.57 -0.06 C41.24 0.99, 51.17 6.19, 55.99 10.85 C60.82 15.51, 63.41 22.26, 63.51 27.9 C63.61 33.53, 60.4 39.85, 56.61 44.66 C52.82 49.47, 47.53 55.03, 40.76 56.75 C33.99 58.48, 22.67 57.99, 15.98 55.03 C9.29 52.08, 3.2 44.62, 0.64 39.03 C-1.92 33.44, -5.37 28, 0.64 21.48 C6.65 14.96, 27.23 1.88, 36.69 -0.1 C46.15 -2.08, 57.1 8.95, 57.4 9.59 M29.94 -1.28 C36.32 -1.67, 45.36 2, 51.25 6.38 C57.14 10.75, 63.68 19.03, 65.28 24.96 C66.87 30.89, 64.33 36.86, 60.83 41.96 C57.32 47.06, 50.64 53.42, 44.24 55.57 C37.84 57.73, 29.13 56.84, 22.42 54.88 C15.7 52.91, 7.38 49.06, 3.96 43.79 C0.54 38.52, 0.82 28.96, 1.89 23.25 C2.96 17.55, 5.84 13.43, 10.38 9.56 C14.93 5.69, 25.72 1.12, 29.18 0.04 C32.64 -1.04, 31.19 3.1, 31.14 3.09" stroke="none" stroke-width="0" fill="#ced4da"></path>
        <path d="M6.58 10.17 C10.85 5.46, 20.43 1.07, 27.31 0.15 C34.18 -0.77, 42.19 1.31, 47.8 4.66 C53.42 8.02, 58.25 14.45, 61 20.28 C63.75 26.11, 66.72 34.02, 64.29 39.65 C61.87 45.28, 52.93 50.86, 46.47 54.04 C40.01 57.21, 32.37 59.83, 25.52 58.69 C18.68 57.54, 9.46 52.1, 5.38 47.16 C1.3 42.23, 0.3 35.63, 1.04 29.06 C1.79 22.48, 7.55 11.78, 9.86 7.72 C12.17 3.67, 14.49 4.8, 14.92 4.74 M47.01 0.54 C53.39 2.33, 59.97 10.27, 62.14 16.43 C64.32 22.6, 62.38 31.2, 60.05 37.51 C57.72 43.83, 53.06 51.21, 48.16 54.32 C43.26 57.43, 37.5 57.48, 30.65 56.19 C23.79 54.9, 11.8 51.13, 7.03 46.58 C2.26 42.03, 1.72 34.93, 2.04 28.89 C2.36 22.84, 4.56 15, 8.93 10.29 C13.3 5.59, 21.92 1.99, 28.27 0.63 C34.63 -0.72, 44.39 1.96, 47.06 2.16 C49.74 2.37, 44.86 1.35, 44.33 1.88" stroke="#000000" stroke-width="4" fill="none"></path>
    </g>
    <g transform="translate(696.6346436966896 1084.0701456712322) rotate(0 7.5 11.5)">
        <text x="7.5" y="16" font-family="Virgil, Segoe UI Emoji" font-size="17.876139648768053px" fill="#000000" text-anchor="middle" style="white-space: pre;" direction="ltr">G</text>
    </g>
    <g stroke-linecap="round" transform="translate(886.6111619592698 1284.6725271445143) rotate(0 47.5 47.5)">
        <path d="M54.45 -0.34 C62.58 0.31, 70.12 5.62, 76.19 10.97 C82.26 16.32, 88.13 23.43, 90.86 31.73 C93.6 40.04, 94.61 52.4, 92.58 60.81 C90.55 69.22, 84.82 76.86, 78.69 82.19 C72.56 87.51, 63.87 91.18, 55.82 92.77 C47.77 94.35, 38.33 94.72, 30.37 91.69 C22.4 88.67, 13.24 81.83, 8.02 74.63 C2.8 67.42, -0.64 57.12, -0.97 48.46 C-1.3 39.8, 1.35 29.77, 6.05 22.67 C10.76 15.56, 16.89 9, 27.27 5.82 C37.64 2.65, 59.92 2.73, 68.3 3.62 C76.67 4.51, 78.16 10.48, 77.52 11.16 M18.28 8.76 C24.34 3.45, 33.38 2.65, 41.41 1.92 C49.44 1.19, 58.61 0.62, 66.46 4.37 C74.31 8.13, 84.01 17.74, 88.51 24.47 C93.02 31.2, 93.45 36.39, 93.49 44.75 C93.53 53.11, 92.75 66.61, 88.73 74.64 C84.7 82.66, 77.45 89.48, 69.33 92.91 C61.2 96.35, 49.12 96.76, 39.99 95.23 C30.86 93.7, 21.23 89.88, 14.55 83.76 C7.87 77.63, 2.13 66.78, -0.11 58.47 C-2.35 50.16, -2.01 42.02, 1.12 33.92 C4.24 25.81, 15.49 13.81, 18.66 9.85 C21.83 5.89, 20.32 8.87, 20.13 10.15" stroke="none" stroke-width="0" fill="#ced4da"></path>
        <path d="M49.18 -0.12 C57.35 -0.46, 66.65 3.98, 73.37 8.99 C80.1 14, 85.73 22.1, 89.52 29.95 C93.32 37.79, 97.58 47.82, 96.14 56.07 C94.7 64.32, 87.12 73, 80.87 79.45 C74.63 85.89, 67.07 92.54, 58.7 94.72 C50.32 96.89, 38.52 95.31, 30.63 92.51 C22.75 89.7, 16.73 84.42, 11.37 77.88 C6.01 71.35, -0.32 61.92, -1.52 53.28 C-2.71 44.63, 0.23 34.08, 4.2 26 C8.16 17.93, 13.69 9.35, 22.27 4.84 C30.85 0.32, 49.21 -0.65, 55.67 -1.09 C62.13 -1.53, 61.63 1.16, 61.02 2.2 M19.62 8.74 C26.95 3.44, 40.66 -1.05, 49.22 -1.67 C57.77 -2.29, 63.79 0.46, 70.96 4.99 C78.13 9.53, 87.94 17.67, 92.23 25.55 C96.53 33.43, 97.63 43.56, 96.72 52.26 C95.81 60.95, 92.65 71.19, 86.79 77.73 C80.92 84.26, 70.61 89.21, 61.54 91.48 C52.47 93.75, 40.9 93.44, 32.35 91.33 C23.8 89.22, 15.33 84.68, 10.23 78.82 C5.12 72.97, 3.05 64.18, 1.69 56.19 C0.34 48.19, -1.45 38.56, 2.11 30.84 C5.66 23.12, 19.84 13.98, 23.03 9.89 C26.22 5.79, 21.23 5.91, 21.24 6.28" stroke="#000000" stroke-width="4" fill="none"></path>
    </g>
    <g transform="translate(926.6111619592698 1320.6725271445143) rotate(0 7.5 11.5)">
        <text x="7.5" y="16" font-family="Virgil, Segoe UI Emoji" font-size="17.876139648768053px" fill="#000000" text-anchor="middle" style="white-space: pre;" direction="ltr">G</text>
    </g>
    <g stroke-linecap="round">
        <g transform="translate(923.4142002523931 1142.087526768597) rotate(0 2.1608352579421535 70.68492601113485)">
            <path d="M0.11 -0.09 C0.84 23.59, 3.41 117.79, 4.21 141.46" stroke="#000000" stroke-width="4.5" fill="none" stroke-dasharray="8 12"></path>
        </g>
        <g transform="translate(923.4142002523931 1142.087526768597) rotate(0 2.1608352579421535 70.68492601113485)">
            <path d="M-7.02 114.5 C-7.71 123.71, -3.79 127.16, 1.51 138.23" stroke="#000000" stroke-width="4.5" fill="none"></path>
        </g>
        <g transform="translate(923.4142002523931 1142.087526768597) rotate(0 2.1608352579421535 70.68492601113485)">
            <path d="M13.49 113.88 C6.76 123.29, 4.64 126.92, 1.51 138.23" stroke="#000000" stroke-width="4.5" fill="none"></path>
        </g>
    </g>
    <mask></mask>
</svg>