<svg version="1.1"
  xmlns="http://www.w3.org/2000/svg" viewBox="0 0 1531.9999999999995 1175.519134775374" width="3063.999999999999" height="2351.038269550748" filter="invert(93%) hue-rotate(180deg)">
  <!-- svg-source:excalidraw -->

  <defs>
    <style class="style-fonts">
      @font-face {
        font-family: "Virgil";
        src: url("https://excalidraw.com/Virgil.woff2");
      }
      @font-face {
        font-family: "Cascadia";
        src: url("https://excalidraw.com/Cascadia.woff2");
      }
    </style>
  </defs>
  <rect x="0" y="0" width="1531.9999999999995" height="1175.519134775374" fill="#e3fafc"></rect>
  <g stroke-linecap="round" transform="translate(14 118) rotate(0 753.9999999999998 163.9999999999999)">
    <path d="M30.63 1.58 L1485.75 -2.04 L1501.86 11.01 L1503.68 22.77 L1509.26 304.22 L1502.48 323.74 L1493.04 329.16 L1478.5 327.7 L24.21 329.04 L6.85 322.74 L-0.53 305.31 L-0.6 28.17 L-0.68 18.68 L9.23 10.09 L14.48 3.61 L30.71 1.33" stroke="none" stroke-width="0" fill="#ced4da"></path>
    <path d="M32 0 M32 0 C588.03 0.96, 1146.57 1.71, 1476 0 M32 0 C496.46 -2.34, 960.3 -0.99, 1476 0 M1476 0 C1497.31 0.37, 1508.55 9.3, 1508 32 M1476 0 C1500.53 3.37, 1506.77 8.95, 1508 32 M1508 32 C1507.75 95.11, 1509.87 158.27, 1508 296 M1508 32 C1504.04 93.97, 1504.75 157.45, 1508 296 M1508 296 C1507.29 316.25, 1495.44 331.53, 1476 328 M1508 296 C1506.98 314.06, 1493.51 331.08, 1476 328 M1476 328 C1115.86 319.15, 753.99 317.02, 32 328 M1476 328 C935.57 326.31, 395.58 326.37, 32 328 M32 328 C12.06 328.88, -1.22 317.69, 0 296 M32 328 C7.88 330.72, 4.35 319.58, 0 296 M0 296 C-1.59 214.99, 0.18 128.54, 0 32 M0 296 C3.8 215.17, 3.13 132.93, 0 32 M0 32 C1.99 11.18, 13.17 -3.13, 32 0 M0 32 C3.29 9.92, 8.56 -2.74, 32 0" stroke="#000000" stroke-width="4" fill="none"></path>
  </g>
  <g stroke-linecap="round" transform="translate(98 186.20965058236277) rotate(0 540 62.895174708818615)">
    <path d="M29.06 1.55 L1053.17 -1.87 L1067.3 4.73 L1077.25 15.18 L1077.04 33.5 L1077.33 99.98 L1075.18 113.85 L1067.01 120.28 L1046.66 129.32 L23.19 122.45 L4.54 120.61 L-0.02 105.53 L-3.34 97.98 L1.98 34.4 L-1.37 20.66 L6.09 7.55 L18.23 -2.01 L34.7 -3.66" stroke="none" stroke-width="0" fill="#40c057"></path>
    <path d="M31.45 0 M31.45 0 C372.1 1.52, 713.41 4, 1048.55 0 M1048.55 0 C1071.47 0.71, 1080.07 12.99, 1080 31.45 M1080 31.45 C1081.56 47.77, 1077.61 63.34, 1080 94.34 M1080 94.34 C1080.25 118.84, 1068.07 129.3, 1048.55 125.79 M1048.55 125.79 C691.61 132.02, 336.91 130.14, 31.45 125.79 M31.45 125.79 C8.1 123.14, -1.24 111.96, 0 94.34 M0 94.34 C-2.04 75.21, 2.97 67.36, 0 31.45 M0 31.45 C0.78 9.13, 8.53 0.74, 31.45 0" stroke="#000000" stroke-width="4.5" fill="none" stroke-dasharray="8 12"></path>
  </g>
  <g transform="translate(515.166666666667 10) rotate(0 237.5 47)">
    <text x="237.5" y="66" font-family="Virgil, Segoe UI Emoji" font-size="74.39999999999999px" fill="#000000" text-anchor="middle" style="white-space: pre;" direction="ltr">Go Scheduler</text>
  </g>
  <g stroke-linecap="round" transform="translate(148.31613976705512 200.58569051580707) rotate(0 53.91014975041594 48.51913477537437)">
    <path d="M10.99 19.1 C15.63 13.13, 25.31 7.97, 33.59 5.09 C41.88 2.21, 51.5 0.92, 60.71 1.83 C69.91 2.75, 81.33 6.08, 88.82 10.58 C96.31 15.08, 102.24 21.63, 105.64 28.81 C109.04 35.99, 110.42 45.45, 109.21 53.66 C107.99 61.87, 104.18 71.79, 98.34 78.09 C92.5 84.39, 82.46 88.48, 74.17 91.44 C65.88 94.41, 57.63 96.75, 48.6 95.87 C39.56 94.99, 27.34 90.68, 19.94 86.14 C12.55 81.6, 7.8 75.76, 4.25 68.64 C0.69 61.53, -2.79 52.55, -1.38 43.45 C0.03 34.35, 9.41 19.4, 12.71 14.03 C16 8.67, 17.37 10.38, 18.39 11.24 M51.96 1.15 C61.2 0.78, 73.85 3.56, 81.92 7.64 C89.99 11.71, 95.8 19.48, 100.38 25.62 C104.96 31.77, 109.16 37.15, 109.39 44.51 C109.63 51.87, 106.04 62.11, 101.79 69.79 C97.54 77.48, 91.66 86.35, 83.9 90.64 C76.13 94.94, 64.33 95.07, 55.2 95.55 C46.06 96.04, 36.44 97.04, 29.1 93.54 C21.77 90.03, 15.82 81.31, 11.19 74.53 C6.55 67.74, 1.79 60.95, 1.31 52.85 C0.83 44.74, 4.61 32.98, 8.32 25.87 C12.03 18.76, 16.71 14.55, 23.56 10.18 C30.42 5.81, 44.41 0.77, 49.45 -0.36 C54.49 -1.48, 53.34 2.6, 53.8 3.41" stroke="none" stroke-width="0" fill="#ced4da"></path>
    <path d="M12.26 19.84 C16.51 12.9, 24.34 5.6, 32.39 2.03 C40.44 -1.54, 51.82 -2.91, 60.56 -1.59 C69.3 -0.27, 77.94 4.97, 84.84 9.96 C91.74 14.96, 98.03 20.79, 101.99 28.38 C105.95 35.97, 109.67 46.99, 108.58 55.5 C107.49 64.02, 101.35 73.51, 95.46 79.47 C89.58 85.44, 81.03 88.33, 73.28 91.29 C65.53 94.25, 57.61 97.99, 48.97 97.22 C40.34 96.45, 28.81 91.68, 21.45 86.67 C14.09 81.66, 8.43 74.53, 4.83 67.15 C1.24 59.76, -3.2 52.49, -0.13 42.35 C2.93 32.22, 16.17 12.91, 23.23 6.33 C30.29 -0.24, 41.52 1.67, 42.22 2.9 M82.94 4.25 C90.57 8.03, 96.08 18.75, 100.69 26.26 C105.31 33.77, 110.79 41.27, 110.64 49.32 C110.49 57.37, 104.85 68.24, 99.79 74.56 C94.72 80.88, 87.39 83.6, 80.24 87.24 C73.08 90.87, 65.24 95.93, 56.87 96.37 C48.5 96.82, 37.88 93.79, 30.03 89.92 C22.17 86.04, 14.76 79.45, 9.75 73.12 C4.73 66.8, 0.38 59.53, -0.08 51.98 C-0.53 44.43, 2.73 34.91, 7.01 27.83 C11.28 20.74, 17.58 13.89, 25.57 9.5 C33.56 5.1, 45.74 2.31, 54.92 1.45 C64.1 0.6, 76.78 3.63, 80.63 4.36 C84.48 5.09, 78.33 4.8, 78.02 5.82" stroke="#000000" stroke-width="4" fill="none"></path>
  </g>
  <g transform="translate(189.2262895174713 229.10482529118144) rotate(0 13 20)">
    <text x="13" y="28" font-family="Virgil, Segoe UI Emoji" font-size="32.01391620027228px" fill="#000000" text-anchor="middle" style="white-space: pre;" direction="ltr">G</text>
  </g>
  <g stroke-linecap="round" transform="translate(962.3594009983358 200.58569051580707) rotate(0 53.91014975041594 48.51913477537437)">
    <path d="M76.12 3.2 C84.25 5.22, 94.33 11.63, 99.52 18.59 C104.72 25.55, 106.44 36.63, 107.3 44.96 C108.15 53.29, 108.34 61.19, 104.64 68.59 C100.94 75.99, 92.62 84.57, 85.07 89.33 C77.53 94.09, 68.29 96.66, 59.35 97.14 C50.42 97.62, 39.69 95.68, 31.45 92.22 C23.21 88.75, 15.3 83.16, 9.93 76.38 C4.56 69.6, 0.33 59.38, -0.76 51.54 C-1.86 43.7, -0.5 36.56, 3.36 29.32 C7.22 22.08, 14.61 12.65, 22.42 8.09 C30.22 3.52, 37.29 -0.73, 50.2 1.94 C63.12 4.61, 90.23 16.52, 99.91 24.11 C109.6 31.69, 109.47 47.13, 108.31 47.47 M12.63 14.08 C18.05 7.28, 27.59 1.7, 36.97 -0.56 C46.35 -2.83, 59.94 -1.91, 68.9 0.51 C77.87 2.93, 84.47 8.1, 90.77 13.95 C97.06 19.81, 104.07 28.41, 106.68 35.63 C109.29 42.86, 108.44 49.57, 106.45 57.31 C104.45 65.06, 100.6 76.31, 94.71 82.12 C88.81 87.93, 80.31 90.18, 71.1 92.18 C61.88 94.18, 48.6 95.17, 39.43 94.11 C30.26 93.06, 22.3 90.78, 16.08 85.82 C9.87 80.87, 4.2 72.18, 2.15 64.41 C0.1 56.64, 1.26 47.58, 3.79 39.18 C6.31 30.77, 15.23 18.35, 17.29 13.98 C19.35 9.61, 16.09 12.4, 16.14 12.96" stroke="none" stroke-width="0" fill="#ced4da"></path>
    <path d="M59.25 1.34 C67.66 1.28, 77.91 4.42, 84.89 8.54 C91.87 12.66, 97.44 18.72, 101.11 26.06 C104.79 33.39, 107.32 44.64, 106.93 52.57 C106.54 60.5, 103.9 67.36, 98.77 73.64 C93.64 79.92, 84.24 86.65, 76.15 90.24 C68.06 93.83, 58.99 95.37, 50.24 95.17 C41.5 94.97, 31.08 93.02, 23.66 89.05 C16.24 85.08, 9.69 78.43, 5.7 71.37 C1.72 64.3, -1.16 54.91, -0.26 46.68 C0.63 38.44, 5.72 29.14, 11.1 21.98 C16.48 14.82, 18.38 5.38, 32 3.71 C45.63 2.04, 80.16 5.47, 92.85 11.97 C105.53 18.47, 109.07 42.22, 108.11 42.7 M96.08 19.98 C102.38 25.53, 108.44 32.76, 110 40.27 C111.56 47.77, 109.75 57.33, 105.43 65.03 C101.1 72.74, 92 81.16, 84.04 86.52 C76.09 91.87, 66.15 96.1, 57.69 97.16 C49.22 98.22, 41.38 96.47, 33.26 92.89 C25.13 89.31, 14.42 81.97, 8.95 75.67 C3.47 69.38, 0.69 62.52, 0.41 55.1 C0.14 47.68, 3.59 38.28, 7.31 31.16 C11.02 24.05, 15.67 17.93, 22.69 12.42 C29.72 6.91, 40.62 -0.25, 49.45 -1.88 C58.28 -3.51, 67.47 -1.13, 75.65 2.64 C83.84 6.41, 95.23 18.03, 98.57 20.72 C101.9 23.42, 96.54 18.15, 95.66 18.81" stroke="#000000" stroke-width="4" fill="none"></path>
  </g>
  <g transform="translate(1003.269550748752 229.10482529118144) rotate(0 13 20)">
    <text x="13" y="28" font-family="Virgil, Segoe UI Emoji" font-size="32.01391620027228px" fill="#000000" text-anchor="middle" style="white-space: pre;" direction="ltr">G</text>
  </g>
  <g stroke-linecap="round" transform="translate(743.124792013311 198.78868552412655) rotate(0 53.91014975041594 48.51913477537437)">
    <path d="M97.81 20.45 C103.94 26.1, 106.2 33.98, 107.43 41.74 C108.66 49.51, 108.56 59.55, 105.19 67.04 C101.82 74.52, 94.65 81.76, 87.22 86.65 C79.79 91.55, 69.64 95.46, 60.61 96.41 C51.57 97.37, 41.53 95.65, 33 92.38 C24.48 89.1, 14.76 83, 9.47 76.76 C4.18 70.53, 2.34 62.47, 1.27 54.97 C0.19 47.46, -0.55 39.11, 3.01 31.73 C6.57 24.36, 15.07 15.68, 22.65 10.73 C30.22 5.78, 40.06 3.49, 48.44 2.01 C56.83 0.53, 63.8 -2.1, 72.98 1.84 C82.16 5.78, 98.43 19.58, 103.53 25.65 C108.62 31.72, 104.82 37.72, 103.55 38.24 M21.43 8.76 C28.38 3.5, 39.66 1.99, 48.86 1.26 C58.06 0.54, 68.95 0.97, 76.62 4.42 C84.28 7.87, 89.68 15.08, 94.84 21.96 C99.99 28.83, 106.68 38.22, 107.57 45.67 C108.46 53.13, 104.12 59.76, 100.18 66.7 C96.25 73.64, 90.39 82.29, 83.97 87.3 C77.56 92.32, 69.99 95.5, 61.7 96.79 C53.41 98.08, 42.42 97.96, 34.21 95.04 C26 92.11, 18.26 86.13, 12.44 79.26 C6.62 72.4, 1.04 62.51, -0.69 53.86 C-2.43 45.21, -1.63 34.86, 2.04 27.38 C5.71 19.9, 17.99 12.13, 21.33 8.98 C24.67 5.84, 21.42 8.1, 22.08 8.5" stroke="none" stroke-width="0" fill="#ced4da"></path>
    <path d="M77.88 4.78 C85.88 7.93, 95.6 15.94, 100.27 22.65 C104.94 29.35, 105.96 36.95, 105.89 45 C105.81 53.06, 103.98 63.6, 99.83 70.98 C95.68 78.36, 88.24 84.91, 80.99 89.28 C73.74 93.64, 64.78 96.87, 56.33 97.18 C47.89 97.48, 38.09 94.56, 30.33 91.11 C22.57 87.65, 14.73 82.9, 9.76 76.45 C4.79 69.99, 1.33 60.46, 0.52 52.36 C-0.29 44.27, 1.03 35.04, 4.9 27.86 C8.77 20.68, 15.96 13.95, 23.75 9.28 C31.54 4.6, 38.26 -4.93, 51.64 -0.19 C65.01 4.55, 96.28 25.56, 104 37.72 C111.72 49.87, 98.62 72.8, 97.95 72.73 M91.19 14.22 C97.77 18.74, 103.25 27.86, 105.65 36.24 C108.04 44.62, 108.22 56.68, 105.58 64.48 C102.93 72.28, 96.83 77.77, 89.78 83.04 C82.74 88.3, 71.91 93.67, 63.32 96.07 C54.73 98.47, 46.18 99.84, 38.26 97.46 C30.34 95.07, 21.48 87.96, 15.78 81.73 C10.09 75.51, 6.62 68.13, 4.07 60.12 C1.52 52.1, -1.59 41.38, 0.48 33.65 C2.56 25.91, 9.3 19.25, 16.53 13.7 C23.76 8.14, 35.08 2.12, 43.86 0.3 C52.64 -1.51, 60.51 -0.34, 69.23 2.79 C77.95 5.91, 92.14 16.51, 96.17 19.05 C100.21 21.6, 94.04 17.65, 93.44 18.05" stroke="#000000" stroke-width="4" fill="none"></path>
  </g>
  <g transform="translate(784.0349417637271 227.30782029950092) rotate(0 13 20)">
    <text x="13" y="28" font-family="Virgil, Segoe UI Emoji" font-size="32.01391620027228px" fill="#000000" text-anchor="middle" style="white-space: pre;" direction="ltr">G</text>
  </g>
  <g stroke-linecap="round" transform="translate(541.860232945091 191.60066555740434) rotate(0 53.91014975041594 48.519134775374425)">
    <path d="M56.48 0.39 C65.05 -0.27, 75.19 2.91, 82.71 7.14 C90.23 11.36, 97.59 18.79, 101.59 25.76 C105.6 32.73, 107.35 40.67, 106.74 48.96 C106.12 57.24, 102.57 68.52, 97.89 75.46 C93.21 82.4, 86.12 86.71, 78.65 90.58 C71.18 94.45, 61.94 98.59, 53.07 98.69 C44.21 98.78, 33.03 96.01, 25.45 91.14 C17.87 86.26, 12.14 76.72, 7.61 69.44 C3.08 62.16, -1.61 55.56, -1.73 47.45 C-1.85 39.35, 1.51 28.07, 6.89 20.8 C12.27 13.54, 15.85 4.56, 30.56 3.86 C45.27 3.17, 82.82 7.7, 95.13 16.63 C107.44 25.56, 105.12 56.77, 104.42 57.44 M62.5 -2.16 C71.2 -1.76, 82.38 5.77, 89.69 10.83 C97 15.89, 103.72 20.9, 106.35 28.19 C108.99 35.48, 107.36 45.71, 105.51 54.56 C103.67 63.42, 100.66 74.38, 95.29 81.31 C89.91 88.24, 81.18 93.25, 73.25 96.14 C65.33 99.03, 56.22 100.47, 47.73 98.66 C39.24 96.84, 29.6 91.16, 22.31 85.26 C15.01 79.36, 7.79 70.81, 3.96 63.26 C0.14 55.7, -1.95 47.65, -0.65 39.96 C0.66 32.27, 6.16 23.28, 11.78 17.13 C17.4 10.98, 24.95 5.78, 33.09 3.05 C41.22 0.32, 56.24 1.34, 60.6 0.76 C64.96 0.19, 59.47 -0.84, 59.22 -0.39" stroke="none" stroke-width="0" fill="#ced4da"></path>
    <path d="M73.56 2.08 C81.69 4.48, 91.38 10.85, 96.98 17.66 C102.59 24.47, 106.09 34.39, 107.2 42.96 C108.31 51.52, 107.22 61.41, 103.66 69.04 C100.1 76.67, 92.75 84.05, 85.86 88.74 C78.97 93.43, 70.86 96.64, 62.32 97.16 C53.77 97.69, 42.87 95.35, 34.59 91.87 C26.31 88.39, 18.05 82.57, 12.64 76.3 C7.23 70.02, 3.56 62.37, 2.14 54.24 C0.71 46.1, 0.56 35.04, 4.11 27.5 C7.66 19.95, 16.39 13.62, 23.44 8.96 C30.5 4.3, 36.16 -0.71, 46.45 -0.45 C56.74 -0.18, 77.78 7.54, 85.19 10.55 C92.59 13.57, 91.72 17.47, 90.85 17.64 M36.83 2.66 C44.73 -0.91, 53.47 -2.55, 62.17 -0.87 C70.87 0.82, 81.46 6.89, 89.02 12.77 C96.59 18.64, 104.45 26.45, 107.57 34.37 C110.68 42.3, 109.58 53.07, 107.74 60.32 C105.89 67.57, 102.43 72.44, 96.49 77.87 C90.55 83.29, 80.61 89.64, 72.08 92.87 C63.56 96.11, 54.34 98.75, 45.35 97.26 C36.35 95.77, 25.11 89.02, 18.13 83.94 C11.15 78.86, 5.84 74.15, 3.46 66.8 C1.08 59.45, 2.04 47.71, 3.83 39.83 C5.62 31.94, 8.52 25.66, 14.22 19.49 C19.92 13.32, 34.62 4.97, 38.03 2.79 C41.44 0.62, 35.1 5.73, 34.65 6.42" stroke="#000000" stroke-width="4" fill="none"></path>
  </g>
  <g transform="translate(582.7703826955071 220.11980033277882) rotate(0 13 20)">
    <text x="13" y="28" font-family="Virgil, Segoe UI Emoji" font-size="32.01391620027228px" fill="#000000" text-anchor="middle" style="white-space: pre;" direction="ltr">G</text>
  </g>
  <g stroke-linecap="round" transform="translate(356.7687188019968 198.78868552412655) rotate(0 53.91014975041594 48.51913477537437)">
    <path d="M46.47 -0.62 C54.62 -2.52, 64.29 -0.98, 72.79 2.28 C81.3 5.55, 91.89 12.04, 97.48 18.96 C103.08 25.89, 105.02 35.72, 106.34 43.85 C107.66 51.98, 108.38 60.26, 105.4 67.72 C102.42 75.18, 96.1 84.09, 88.45 88.61 C80.8 93.13, 68.53 94.32, 59.52 94.84 C50.51 95.36, 42.73 94.28, 34.4 91.72 C26.07 89.16, 15.48 85.72, 9.56 79.47 C3.64 73.22, 0 62.77, -1.11 54.24 C-2.23 45.7, -1.08 35.73, 2.87 28.26 C6.81 20.79, 11.19 13.63, 22.56 9.41 C33.93 5.19, 59.51 1.92, 71.11 2.94 C82.71 3.96, 92.38 15.14, 92.16 15.54 M82.45 7.47 C89.57 10.95, 96.95 20.38, 101.52 28.03 C106.08 35.67, 110.07 44.84, 109.82 53.35 C109.57 61.85, 105.27 72.12, 100.02 79.07 C94.77 86.02, 87.04 92.03, 78.3 95.05 C69.56 98.07, 57.33 98.58, 47.57 97.17 C37.82 95.76, 27.08 91.43, 19.78 86.61 C12.48 81.79, 7.18 75.66, 3.78 68.26 C0.39 60.86, -1.63 50.51, -0.6 42.21 C0.43 33.91, 4.54 25.29, 9.96 18.48 C15.37 11.67, 24 4.8, 31.9 1.37 C39.79 -2.07, 48.73 -3.35, 57.32 -2.12 C65.91 -0.9, 78.64 7.12, 83.44 8.72 C88.24 10.32, 86.05 7.2, 86.1 7.47" stroke="none" stroke-width="0" fill="#ced4da"></path>
    <path d="M52.39 0.2 C61.43 -0.77, 72.67 1.24, 80.78 5.35 C88.9 9.46, 96.51 17.64, 101.1 24.88 C105.68 32.12, 108.42 40.75, 108.26 48.81 C108.11 56.87, 104.72 66.15, 100.19 73.27 C95.65 80.38, 88.48 87.56, 81.04 91.48 C73.61 95.4, 64.67 96.5, 55.59 96.78 C46.5 97.06, 34.57 97.12, 26.54 93.17 C18.5 89.23, 11.94 80.25, 7.39 73.1 C2.84 65.96, -0.87 58.52, -0.76 50.29 C-0.65 42.07, 3.45 31.26, 8.05 23.78 C12.65 16.3, 19.07 9.48, 26.85 5.41 C34.63 1.34, 49.51 0, 54.73 -0.64 C59.95 -1.29, 57.92 0.64, 58.19 1.55 M27.49 9.63 C35.05 5.23, 45.97 1.13, 55.25 0.83 C64.54 0.53, 76.06 3.96, 83.2 7.81 C90.34 11.67, 94.2 17.06, 98.07 23.96 C101.94 30.86, 105.77 41.29, 106.42 49.22 C107.07 57.14, 106.38 64.62, 101.97 71.52 C97.57 78.42, 87.54 85.87, 80 90.61 C72.45 95.35, 65.41 99.71, 56.7 99.96 C47.99 100.2, 35.5 96.21, 27.73 92.11 C19.96 88.01, 14.69 82.82, 10.07 75.38 C5.45 67.93, 0.1 56.3, 0.03 47.46 C-0.05 38.62, 5.3 28.81, 9.63 22.34 C13.96 15.88, 22.7 11.1, 25.98 8.67 C29.27 6.25, 28.88 7.04, 29.33 7.78" stroke="#000000" stroke-width="4" fill="none"></path>
  </g>
  <g transform="translate(397.67886855241295 227.30782029950092) rotate(0 13 20)">
    <text x="13" y="28" font-family="Virgil, Segoe UI Emoji" font-size="32.01391620027228px" fill="#000000" text-anchor="middle" style="white-space: pre;" direction="ltr">G</text>
  </g>
  <g transform="translate(1201.2999999999993 220) rotate(0 107.5 32)">
    <text x="107.5" y="45" font-family="Virgil, Segoe UI Emoji" font-size="50.4px" fill="#000000" text-anchor="middle" style="white-space: pre;" direction="ltr">run queue</text>
  </g>
  <g stroke-linecap="round" transform="translate(428 378) rotate(0 234.99999999999977 29.999999999999886)">
    <path d="M14.92 3.69 L459.99 -1.86 L466.28 0.06 L465.78 12.28 L470.73 47.97 L464.28 54.23 L452 59.44 L14.85 55.94 L1.31 58.63 L2.36 55.11 L0.73 17.01 L7.41 2.19 L18.34 -2.69" stroke="none" stroke-width="0" fill="#fa5252"></path>
    <path d="M15 0 M15 0 C106.5 -2.94, 198.71 0.91, 455 0 M15 0 C114.36 -2.36, 214.98 -3.78, 455 0 M455 0 C462.12 2.56, 469.11 8.67, 470 15 M455 0 C466.92 0.77, 466.61 8.63, 470 15 M470 15 C472.05 21.74, 466.4 32.16, 470 45 M470 15 C472.4 27.84, 468.7 37.63, 470 45 M470 45 C472.95 52.04, 465.14 61.58, 455 60 M470 45 C472.15 54.59, 462.74 59.37, 455 60 M455 60 C355.59 63.96, 257.57 63.36, 15 60 M455 60 C309.55 58.95, 164.17 59.54, 15 60 M15 60 C1.49 62.85, 0.38 57.84, 0 45 M15 60 C8.85 62.53, -0.68 56.44, 0 45 M0 45 C-0.54 37, -0.73 31.35, 0 15 M0 45 C-0.68 33.7, -0.09 22.47, 0 15 M0 15 C0.96 3.92, 1.59 -0.87, 15 0 M0 15 C-0.16 1.83, 4.37 3.69, 15 0" stroke="#000000" stroke-width="4" fill="none"></path>
  </g>
  <g transform="translate(593.5 374.56880733944945) rotate(0 63.5 26.5)">
    <text x="63.5" y="37" font-family="Virgil, Segoe UI Emoji" font-size="41.944954128440344px" fill="#000000" text-anchor="middle" style="white-space: pre;" direction="ltr">Mutex</text>
  </g>
  <g stroke-linecap="round" transform="translate(10 734) rotate(0 82 65.99999999999989)">
    <path d="M32.38 0.85 L133.05 3.24 L142.49 4.85 L156.38 10.84 L165.34 20.2 L163.41 33.25 L160.04 106.64 L159.1 123.33 L144.41 129.14 L131.16 135.2 L30.02 128.95 L16.05 130.19 L7.22 124.53 L1.46 106.42 L-2.91 23.63 L7.86 5.25 L17.45 5.21 L33.46 -1.73" stroke="none" stroke-width="0" fill="#be4bdb"></path>
    <path d="M32 0 M32 0 C64.09 -4.85, 91.51 -0.29, 132 0 M32 0 C59.08 -0.31, 87.8 1.92, 132 0 M132 0 C150.52 3.21, 163.36 10.95, 164 32 M132 0 C150.02 0.06, 165.36 9.97, 164 32 M164 32 C164.52 45.53, 160.51 64.72, 164 100 M164 32 C164.7 51.31, 164.37 71.64, 164 100 M164 100 C165.77 118.75, 156.79 133.87, 132 132 M164 100 C168.05 120.29, 153.17 135.5, 132 132 M132 132 C96.53 127.03, 65.15 127.14, 32 132 M132 132 C99.05 133.42, 65.84 133.87, 32 132 M32 132 C7.26 134.16, 2.91 117.5, 0 100 M32 132 C7.76 132.81, 4.36 121.72, 0 100 M0 100 C-0.28 72.94, -1.06 44.55, 0 32 M0 100 C0.77 76.41, 1.56 50.77, 0 32 M0 32 C-1.89 11.11, 7.86 1.4, 32 0 M0 32 C1.07 13.95, 11.77 1.7, 32 0" stroke="#000000" stroke-width="4" fill="none"></path>
  </g>
  <g transform="translate(77.5 777.4999999999998) rotate(0 14.5 22.5)">
    <text x="14.5" y="32" font-family="Virgil, Segoe UI Emoji" font-size="36px" fill="#000000" text-anchor="middle" style="white-space: pre;" direction="ltr">M</text>
  </g>
  <g stroke-linecap="round" transform="translate(1093.9999999999995 727.9999999999995) rotate(0 82 65.99999999999989)">
    <path d="M35.21 1.46 L130.27 -0.1 L142.51 5.21 L158.35 4.75 L162.01 19.32 L163.08 35.6 L163.45 106.24 L155.33 124.78 L149.79 127.19 L135.21 131.36 L32.28 129.12 L18.05 131.19 L7.39 121.73 L0.98 106.33 L0.85 21.49 L4.35 7.63 L17.65 1.6 L32.76 1.67" stroke="none" stroke-width="0" fill="#be4bdb"></path>
    <path d="M32 0 M32 0 C61.29 -2.62, 90.5 1.84, 132 0 M32 0 C72.33 0.7, 108.38 -0.96, 132 0 M132 0 C151.01 -3.94, 163.44 6.83, 164 32 M132 0 C154.63 4.32, 164.95 10.36, 164 32 M164 32 C160.23 57.96, 166.55 75.78, 164 100 M164 32 C164.41 50, 165.23 62.4, 164 100 M164 100 C164.39 121.15, 152.95 130.3, 132 132 M164 100 C166.95 121.86, 153.86 134.12, 132 132 M132 132 C94.26 132.74, 57.5 133.7, 32 132 M132 132 C100.42 131.92, 65.76 132.82, 32 132 M32 132 C7.34 135.3, -1.22 118.41, 0 100 M32 132 C6.19 132.31, -1.73 118.55, 0 100 M0 100 C0.88 81.12, -1.6 65.97, 0 32 M0 100 C0.94 75.11, 1.81 50.34, 0 32 M0 32 C1.27 12.87, 9.55 2.71, 32 0 M0 32 C3.97 14.6, 7.11 0.79, 32 0" stroke="#000000" stroke-width="4" fill="none"></path>
  </g>
  <g transform="translate(1161.4999999999995 771.4999999999995) rotate(0 14.5 22.5)">
    <text x="14.5" y="32" font-family="Virgil, Segoe UI Emoji" font-size="36px" fill="#000000" text-anchor="middle" style="white-space: pre;" direction="ltr">M</text>
  </g>
  <g stroke-linecap="round" transform="translate(508 781.9999999999995) rotate(0 82 65.99999999999989)">
    <path d="M35.21 2.35 L128.75 0.01 L147.32 1.08 L159.6 7.95 L160.74 17.33 L164.78 35.79 L160.69 110.71 L155.36 124.28 L143.12 130.05 L133.19 131.39 L29.73 132.48 L16.83 130.35 L4.99 120.35 L0.13 107.15 L0.1 25.26 L9.67 7.01 L19.02 2.06 L33.77 -2.59" stroke="none" stroke-width="0" fill="#be4bdb"></path>
    <path d="M32 0 M32 0 C69.72 -1.9, 112.3 -0.5, 132 0 M32 0 C53.84 0.89, 77.71 1.73, 132 0 M132 0 C157.09 0.83, 163.73 12.67, 164 32 M132 0 C152.1 3.35, 160.09 13.15, 164 32 M164 32 C163.4 61.14, 163.04 86.51, 164 100 M164 32 C162.68 55.59, 161.92 80.84, 164 100 M164 100 C164.46 121.79, 155.18 134.34, 132 132 M164 100 C167.94 122.02, 151.16 132.51, 132 132 M132 132 C111.86 133.43, 87.5 131.34, 32 132 M132 132 C111.64 129.73, 86.52 128.39, 32 132 M32 132 C10.93 130.5, -2.42 119.45, 0 100 M32 132 C9.08 130.8, 0.48 119.41, 0 100 M0 100 C-2.55 79.66, 0.11 65.89, 0 32 M0 100 C1.27 75.68, 1.52 54.2, 0 32 M0 32 C3.42 7.58, 11.36 -3.97, 32 0 M0 32 C3.74 12.85, 13.88 -2.92, 32 0" stroke="#000000" stroke-width="4" fill="none"></path>
  </g>
  <g transform="translate(575.5 825.4999999999993) rotate(0 14.5 22.5)">
    <text x="14.5" y="32" font-family="Virgil, Segoe UI Emoji" font-size="36px" fill="#000000" text-anchor="middle" style="white-space: pre;" direction="ltr">M</text>
  </g>
  <g stroke-linecap="round">
    <g transform="translate(471.4129158505448 470) rotate(0 -174.90227760400353 126.58995921052997)">
      <path d="M0.28 1.69 C-57.27 43.85, -289.4 211.27, -347.91 253.04 M-3.02 0.14 C-60.69 41.43, -293.01 206.02, -350.08 248.59" stroke="#000000" stroke-width="4" fill="none"></path>
    </g>
    <g transform="translate(471.4129158505448 470) rotate(0 -174.90227760400353 126.58995921052997)">
      <path d="M-330.85 223.91 C-335.25 224.99, -339.8 230.09, -350.43 250.46 M-333.72 223.28 C-337.75 231.96, -345.04 242.41, -349.69 250.47" stroke="#000000" stroke-width="4" fill="none"></path>
    </g>
    <g transform="translate(471.4129158505448 470) rotate(0 -174.90227760400353 126.58995921052997)">
      <path d="M-318.81 240.53 C-325.71 238.2, -332.75 239.86, -350.43 250.46 M-321.68 239.9 C-330.38 242.35, -342.03 246.79, -349.69 250.47" stroke="#000000" stroke-width="4" fill="none"></path>
    </g>
  </g>
  <mask></mask>
  <g stroke-linecap="round">
    <g transform="translate(166 690) rotate(0 163.87418039433646 -121.94044526070365)">
      <path d="M0.72 2.12 C55.52 -38.86, 275.56 -204.32, 330.08 -246 M-2.33 0.81 C52.16 -39.68, 274.26 -201.25, 328.97 -242.38" stroke="#000000" stroke-width="4" fill="none"></path>
    </g>
    <g transform="translate(166 690) rotate(0 163.87418039433646 -121.94044526070365)">
      <path d="M315.42 -214.41 C318.15 -226.35, 321.05 -236.92, 330.8 -242.88 M313.58 -216.82 C316.08 -225.87, 322.99 -233.84, 330.84 -240.94" stroke="#000000" stroke-width="4" fill="none"></path>
    </g>
    <g transform="translate(166 690) rotate(0 163.87418039433646 -121.94044526070365)">
      <path d="M303.23 -230.92 C310.18 -237.2, 317.3 -242.04, 330.8 -242.88 M301.39 -233.33 C307.83 -237.26, 318.65 -239.92, 330.84 -240.94" stroke="#000000" stroke-width="4" fill="none"></path>
    </g>
  </g>
  <mask></mask>
  <g stroke-linecap="round">
    <g transform="translate(885.2205806384586 314.221131279264) rotate(311.22624578282415 47.63237628521756 270.7745381206586)">
      <path d="M-0.8 -0.5 C14.61 90.67, 75.05 454.12, 91.15 544.79 M3.96 -3.24 C20.31 87.23, 80.88 448.55, 96.06 540.14" stroke="#000000" stroke-width="4" fill="none"></path>
    </g>
    <g transform="translate(885.2205806384586 314.221131279264) rotate(311.22624578282415 47.63237628521756 270.7745381206586)">
      <path d="M80.58 510.12 C85.55 523.45, 87.45 529.9, 99.61 543.88 M79.76 513.44 C84.98 519.82, 88.2 526.88, 94.18 539.71" stroke="#000000" stroke-width="4" fill="none"></path>
    </g>
    <g transform="translate(885.2205806384586 314.221131279264) rotate(311.22624578282415 47.63237628521756 270.7745381206586)">
      <path d="M100.82 506.74 C100.62 520.81, 97.41 528.11, 99.61 543.88 M100 510.06 C99.63 517.71, 97.31 525.69, 94.18 539.71" stroke="#000000" stroke-width="4" fill="none"></path>
    </g>
  </g>
  <mask></mask>
  <g stroke-linecap="round">
    <g transform="translate(802.01679622947 609.6122606686695) rotate(311.22624578282415 -20.2655926348134 -115.15771789342728)">
      <path d="M-0.5 -2.73 C-6.49 -40.65, -31.66 -190.69, -38.15 -228.31 M-4.22 1.95 C-10.32 -36.67, -33.8 -193.12, -40.03 -232.27" stroke="#000000" stroke-width="4" fill="none"></path>
    </g>
    <g transform="translate(802.01679622947 609.6122606686695) rotate(311.22624578282415 -20.2655926348134 -115.15771789342728)">
      <path d="M-29.5 -205.03 C-25.87 -212.71, -29.2 -214.06, -36.29 -233.34 M-26.18 -205.81 C-30.05 -212.18, -33.05 -218.73, -40.46 -232.98" stroke="#000000" stroke-width="4" fill="none"></path>
    </g>
    <g transform="translate(802.01679622947 609.6122606686695) rotate(311.22624578282415 -20.2655926348134 -115.15771789342728)">
      <path d="M-49.78 -201.91 C-41.67 -210.2, -40.53 -212.24, -36.29 -233.34 M-46.46 -202.69 C-46.28 -209.38, -45.18 -216.55, -40.46 -232.98" stroke="#000000" stroke-width="4" fill="none"></path>
    </g>
  </g>
  <mask></mask>
  <g stroke-linecap="round">
    <g transform="translate(724.4879165723005 499.78514486253425) rotate(309.1470204393551 -131.53668818047367 109.1060861846073)">
      <path d="M-0.53 0.99 C-44.4 36.63, -217.47 179.63, -261.06 215.43 M-4.27 -0.94 C-48.58 35.06, -219.31 182.46, -262.54 219.15" stroke="#000000" stroke-width="4" fill="none"></path>
    </g>
    <g transform="translate(724.4879165723005 499.78514486253425) rotate(309.1470204393551 -131.53668818047367 109.1060861846073)">
      <path d="M-246.39 195.01 C-252.81 203.41, -257.84 213.79, -259.11 219.15 M-246.27 193.69 C-252.52 202.28, -259.8 208.95, -260.6 218.99" stroke="#000000" stroke-width="4" fill="none"></path>
    </g>
    <g transform="translate(724.4879165723005 499.78514486253425) rotate(309.1470204393551 -131.53668818047367 109.1060861846073)">
      <path d="M-233.04 210.6 C-244.67 213.07, -254.73 217.57, -259.11 219.15 M-232.92 209.28 C-243.5 212.58, -255.31 213.96, -260.6 218.99" stroke="#000000" stroke-width="4" fill="none"></path>
    </g>
  </g>
  <mask></mask>
  <g stroke-linecap="round">
    <g transform="translate(486.7721579365466 662.0141937207661) rotate(309.1470204393551 105.56937315542064 -85.29960175695476)">
      <path d="M0.99 1.39 C36.24 -27.18, 177.65 -143.16, 213.06 -171.99 M-1.92 -0.32 C32.83 -28.33, 175.28 -140.18, 210.92 -168.14" stroke="#000000" stroke-width="4" fill="none"></path>
    </g>
    <g transform="translate(486.7721579365466 662.0141937207661) rotate(309.1470204393551 105.56937315542064 -85.29960175695476)">
      <path d="M197.07 -142.4 C201.4 -151.06, 207.57 -157.48, 210.91 -166.58 M195.75 -142.05 C199.23 -150.6, 200.78 -153, 210.75 -169.72" stroke="#000000" stroke-width="4" fill="none"></path>
    </g>
    <g transform="translate(486.7721579365466 662.0141937207661) rotate(309.1470204393551 105.56937315542064 -85.29960175695476)">
      <path d="M184.4 -158.54 C193.18 -161.54, 203.85 -162.22, 210.91 -166.58 M183.07 -158.19 C189.55 -163.12, 194.09 -161.7, 210.75 -169.72" stroke="#000000" stroke-width="4" fill="none"></path>
    </g>
  </g>
  <mask></mask>
  <g stroke-linecap="round" transform="translate(18.089850249583833 1051.4808652246256) rotate(0 53.91014975041594 48.51913477537437)">
    <path d="M12.06 18.04 C17.07 11.84, 28.04 4.95, 36.68 2.43 C45.32 -0.09, 55.06 1.12, 63.89 2.93 C72.72 4.74, 82.9 8.36, 89.66 13.29 C96.42 18.21, 101.34 24.64, 104.45 32.48 C107.55 40.32, 110.18 52.11, 108.29 60.32 C106.39 68.52, 99.13 75.89, 93.08 81.7 C87.03 87.5, 80.2 92.57, 71.98 95.15 C63.76 97.73, 53.03 98.7, 43.74 97.18 C34.46 95.66, 23.25 91.47, 16.28 86.03 C9.31 80.58, 4.49 72.52, 1.92 64.51 C-0.65 56.49, -6.68 48.76, 0.86 37.94 C8.41 27.13, 33.4 4.32, 47.19 -0.39 C60.98 -5.11, 83.63 9.05, 83.62 9.67 M44.11 2.14 C52.89 -0.16, 68.63 -0.51, 77.02 2.34 C85.41 5.19, 89.72 12.88, 94.47 19.24 C99.22 25.61, 103.72 32.37, 105.53 40.52 C107.33 48.68, 108.57 60.6, 105.29 68.2 C102 75.8, 92.7 81.87, 85.82 86.12 C78.95 90.36, 73.24 92.84, 64.03 93.66 C54.81 94.48, 39.2 94.01, 30.53 91.03 C21.85 88.06, 16.86 81.55, 11.96 75.82 C7.06 70.1, 2.87 64.3, 1.12 56.67 C-0.63 49.03, -1.43 37.73, 1.47 30.01 C4.37 22.29, 11.07 15.3, 18.51 10.34 C25.96 5.38, 41.83 1.87, 46.17 0.25 C50.52 -1.37, 44.51 0.1, 44.58 0.64" stroke="none" stroke-width="0" fill="#ced4da"></path>
    <path d="M10.74 18.45 C15.05 11.31, 23.45 5.61, 31.88 2.49 C40.31 -0.62, 52.51 -1.55, 61.3 -0.26 C70.09 1.04, 77.65 5.24, 84.62 10.25 C91.58 15.26, 99.06 22.63, 103.07 29.8 C107.09 36.96, 109.41 45.09, 108.68 53.24 C107.95 61.4, 103.94 72.24, 98.68 78.72 C93.43 85.21, 85.69 89.33, 77.15 92.17 C68.62 95, 56.99 96.48, 47.47 95.72 C37.96 94.97, 27.38 92.04, 20.07 87.64 C12.76 83.23, 6.89 76.69, 3.64 69.3 C0.39 61.91, -3.43 53.95, 0.57 43.3 C4.57 32.65, 19.44 12.31, 27.64 5.37 C35.84 -1.57, 49.51 0.52, 49.75 1.65 M76.76 2.81 C84.51 5.69, 91.25 13.25, 96.2 19.75 C101.15 26.25, 105.12 34.25, 106.48 41.82 C107.84 49.4, 108.25 57.77, 104.38 65.17 C100.52 72.57, 90.52 80.52, 83.28 86.21 C76.05 91.91, 69.1 98.02, 60.98 99.35 C52.86 100.69, 42.61 98.08, 34.55 94.24 C26.49 90.39, 18.46 82.61, 12.62 76.29 C6.78 69.97, 0.97 64.49, -0.5 56.32 C-1.98 48.15, -0.26 34.59, 3.77 27.26 C7.79 19.94, 16.69 17.03, 23.63 12.38 C30.57 7.72, 37.2 0.28, 45.39 -0.66 C53.59 -1.61, 67.89 5.87, 72.8 6.7 C77.7 7.54, 74.5 3.96, 74.83 4.33" stroke="#000000" stroke-width="4" fill="none"></path>
  </g>
  <g transform="translate(59 1080) rotate(0 13 20)">
    <text x="13" y="28" font-family="Virgil, Segoe UI Emoji" font-size="32.01391620027228px" fill="#000000" text-anchor="middle" style="white-space: pre;" direction="ltr">G</text>
  </g>
  <g stroke-linecap="round" transform="translate(528.0898502495834 1068.4808652246252) rotate(0 53.91014975041594 48.51913477537437)">
    <path d="M19.39 10.31 C25.16 4.82, 35.72 0.59, 44.74 -0.81 C53.76 -2.21, 65.28 -1.15, 73.53 1.91 C81.78 4.96, 88.72 10.81, 94.25 17.54 C99.78 24.28, 104.93 34.34, 106.71 42.33 C108.5 50.31, 108.19 58.27, 104.96 65.46 C101.72 72.65, 94.55 80.58, 87.28 85.48 C80.01 90.37, 69.85 93.74, 61.33 94.84 C52.81 95.95, 44.1 95.01, 36.15 92.11 C28.2 89.21, 19.7 83.6, 13.62 77.45 C7.55 71.29, 1.3 62.84, -0.29 55.19 C-1.88 47.54, -3.66 40.52, 4.09 31.55 C11.84 22.58, 34.86 5.91, 46.23 1.36 C57.61 -3.18, 72.58 3.32, 72.35 4.29 M59.07 2.61 C67.9 2.7, 81.57 3.34, 88.64 7.98 C95.7 12.61, 98.64 22.16, 101.48 30.4 C104.31 38.64, 106.65 49.14, 105.63 57.41 C104.6 65.68, 100.7 74.52, 95.33 80.03 C89.96 85.54, 81.2 87.54, 73.41 90.46 C65.63 93.38, 57.49 98, 48.62 97.58 C39.75 97.16, 27.63 92.56, 20.17 87.94 C12.72 83.32, 7.51 77.08, 3.89 69.86 C0.28 62.64, -2.94 53.11, -1.53 44.61 C-0.11 36.11, 6.85 25.49, 12.41 18.84 C17.97 12.19, 23.66 7.5, 31.83 4.68 C40.01 1.87, 56.37 2.36, 61.47 1.94 C66.56 1.53, 62.26 1.98, 62.4 2.17" stroke="none" stroke-width="0" fill="#ced4da"></path>
    <path d="M52.38 1.2 C60.7 0.07, 70.59 0.28, 78.37 3.88 C86.15 7.48, 94.46 15.57, 99.07 22.81 C103.67 30.05, 105.6 39.16, 106 47.32 C106.41 55.49, 105.08 65, 101.47 71.82 C97.86 78.64, 92.11 83.79, 84.34 88.25 C76.57 92.72, 63.82 98.15, 54.85 98.62 C45.87 99.08, 38.07 94.97, 30.49 91.04 C22.91 87.1, 14.2 81.56, 9.36 75.03 C4.52 68.5, 2.27 60.36, 1.44 51.86 C0.61 43.36, 0.59 31.29, 4.38 24.03 C8.16 16.78, 9.91 10.24, 24.16 8.34 C38.42 6.44, 76.21 6.72, 89.89 12.64 C103.57 18.55, 106.97 43.08, 106.24 43.82 M98.73 22.37 C104.34 27.47, 103.84 33.98, 104.78 41.32 C105.71 48.66, 107.74 58.68, 104.35 66.42 C100.97 74.17, 92.19 82.52, 84.48 87.79 C76.76 93.05, 67.01 96.73, 58.05 98.01 C49.1 99.29, 38.89 99.34, 30.76 95.47 C22.64 91.6, 14.84 81.95, 9.3 74.79 C3.76 67.64, -1.76 60.69, -2.47 52.52 C-3.18 44.34, 1.2 33.1, 5.04 25.75 C8.88 18.41, 13.67 12.5, 20.57 8.44 C27.47 4.37, 37.55 1.99, 46.46 1.37 C55.36 0.76, 65.83 1.76, 74 4.76 C82.17 7.76, 91.24 16.85, 95.49 19.37 C99.73 21.89, 100.27 19.62, 99.45 19.86" stroke="#000000" stroke-width="4" fill="none"></path>
  </g>
  <g transform="translate(568.9999999999995 1096.9999999999995) rotate(0 13 20)">
    <text x="13" y="28" font-family="Virgil, Segoe UI Emoji" font-size="32.01391620027228px" fill="#000000" text-anchor="middle" style="white-space: pre;" direction="ltr">G</text>
  </g>
  <g stroke-linecap="round" transform="translate(1134.0898502495834 1050.4808652246256) rotate(0 53.91014975041594 48.51913477537437)">
    <path d="M76.94 6.34 C84.92 8.95, 94.29 15.85, 99.08 22.46 C103.87 29.07, 105.31 38.39, 105.69 46 C106.08 53.61, 104.86 61.13, 101.39 68.1 C97.92 75.08, 92.14 83.08, 84.86 87.85 C77.58 92.62, 67.11 96.24, 57.71 96.74 C48.32 97.24, 36.78 94.62, 28.46 90.85 C20.14 87.08, 12.56 80.47, 7.81 74.13 C3.07 67.8, 0.23 60.35, 0.01 52.83 C-0.2 45.32, 2.75 36.23, 6.54 29.07 C10.33 21.9, 15.25 14.68, 22.73 9.85 C30.21 5.02, 37.47 -4.41, 51.4 0.07 C65.33 4.55, 98.94 23.47, 106.31 36.71 C113.68 49.95, 96.73 79.46, 95.62 79.51 M18.55 11.39 C25.02 6.79, 35.47 3.49, 44.5 2.31 C53.54 1.13, 64.66 1.26, 72.75 4.31 C80.84 7.37, 87.04 14.95, 93.05 20.64 C99.06 26.33, 106.51 30.6, 108.8 38.46 C111.09 46.33, 110.57 60.04, 106.78 67.83 C103 75.62, 93.54 80.33, 86.09 85.2 C78.63 90.07, 70.86 95.38, 62.05 97.07 C53.23 98.76, 41.27 98.53, 33.17 95.35 C25.07 92.16, 19.24 84.43, 13.46 77.95 C7.68 71.47, 0.08 63.97, -1.5 56.49 C-3.07 49.01, 0.25 40.39, 4.03 33.07 C7.8 25.75, 18.5 15.8, 21.17 12.56 C23.83 9.31, 19.69 13.43, 20.01 13.6" stroke="none" stroke-width="0" fill="#ced4da"></path>
    <path d="M20.37 9.44 C26.4 4.02, 37.62 1.59, 46.67 0.74 C55.73 -0.12, 66.37 1.17, 74.69 4.31 C83.02 7.46, 91.45 13.41, 96.63 19.59 C101.81 25.77, 104.65 33.35, 105.8 41.39 C106.94 49.43, 106.29 60.62, 103.51 67.83 C100.73 75.03, 96.2 79.64, 89.12 84.62 C82.04 89.6, 70.42 96.24, 61.03 97.71 C51.65 99.18, 40.89 96.71, 32.79 93.41 C24.7 90.12, 17.61 84.19, 12.45 77.92 C7.3 71.65, 3.23 63.5, 1.87 55.8 C0.52 48.11, -4.82 40.86, 4.33 31.74 C13.48 22.62, 42.74 4.27, 56.78 1.09 C70.81 -2.1, 88.81 12.18, 88.53 12.63 M92.1 13.74 C98.95 18.97, 102.44 27.77, 104.91 35.64 C107.38 43.51, 108.88 52.89, 106.92 60.96 C104.95 69.02, 98.9 78.28, 93.12 84.03 C87.35 89.77, 81.11 93.19, 72.27 95.42 C63.43 97.66, 49.19 99.52, 40.06 97.43 C30.94 95.33, 23.35 88.93, 17.55 82.85 C11.75 76.77, 7.58 69.01, 5.25 60.95 C2.91 52.89, 1.79 41.63, 3.53 34.47 C5.27 27.31, 9.61 23.41, 15.68 17.98 C21.75 12.55, 31.12 4.76, 39.95 1.91 C48.78 -0.93, 60.65 -0.89, 68.66 0.89 C76.67 2.68, 83.98 10.93, 88.01 12.64 C92.04 14.35, 93.46 10.62, 92.83 11.15" stroke="#000000" stroke-width="4" fill="none"></path>
  </g>
  <g transform="translate(1174.9999999999995 1079) rotate(0 13 20)">
    <text x="13" y="28" font-family="Virgil, Segoe UI Emoji" font-size="32.01391620027228px" fill="#000000" text-anchor="middle" style="white-space: pre;" direction="ltr">G</text>
  </g>
  <g stroke-linecap="round">
    <g transform="translate(76 879.9999999999998) rotate(0 -2.297116880827616 84.50597345381982)">
      <path d="M-2.45 0.1 C-2.63 28.13, -2.33 140.83, -2.09 168.92" stroke="#000000" stroke-width="4.5" fill="none" stroke-dasharray="8 12"></path>
    </g>
    <g transform="translate(76 879.9999999999998) rotate(0 -2.297116880827616 84.50597345381982)">
      <path d="M-12.35 140.65 C-11.15 149.77, -8.82 159.41, -3.71 169.33" stroke="#000000" stroke-width="4.5" fill="none"></path>
    </g>
    <g transform="translate(76 879.9999999999998) rotate(0 -2.297116880827616 84.50597345381982)">
      <path d="M8.17 140.55 C3.96 149.34, 0.89 159, -3.71 169.33" stroke="#000000" stroke-width="4.5" fill="none"></path>
    </g>
  </g>
  <mask></mask>
  <g stroke-linecap="round">
    <g transform="translate(597.9999999999995 925.9999999999998) rotate(0 -5.139468760788304 68.90344798117872)">
      <path d="M-2.01 -2.1 C-3.22 20.88, -6.49 116.53, -8.27 139.91" stroke="#000000" stroke-width="4.5" fill="none" stroke-dasharray="8 12"></path>
    </g>
    <g transform="translate(597.9999999999995 925.9999999999998) rotate(0 -5.139468760788304 68.90344798117872)">
      <path d="M-20.05 113.7 C-14.46 115.09, -14.64 122.72, -5.94 138.44" stroke="#000000" stroke-width="4.5" fill="none"></path>
    </g>
    <g transform="translate(597.9999999999995 925.9999999999998) rotate(0 -5.139468760788304 68.90344798117872)">
      <path d="M0.44 114.76 C0.63 115.59, -4.94 122.93, -5.94 138.44" stroke="#000000" stroke-width="4.5" fill="none"></path>
    </g>
  </g>
  <mask></mask>
  <g stroke-linecap="round">
    <g transform="translate(1181.9999999999995 865.9999999999998) rotate(0 1.12962157279253 86.96294026821852)">
      <path d="M-1.84 -0.91 C-0.91 28.49, 3.38 145.4, 4.1 174.84" stroke="#000000" stroke-width="4.5" fill="none" stroke-dasharray="8 12"></path>
    </g>
    <g transform="translate(1181.9999999999995 865.9999999999998) rotate(0 1.12962157279253 86.96294026821852)">
      <path d="M-8.35 149.98 C-6.26 154.71, -2.21 162.23, 5.39 178.02" stroke="#000000" stroke-width="4.5" fill="none"></path>
    </g>
    <g transform="translate(1181.9999999999995 865.9999999999998) rotate(0 1.12962157279253 86.96294026821852)">
      <path d="M12.16 149.34 C9.18 153.96, 8.14 161.64, 5.39 178.02" stroke="#000000" stroke-width="4.5" fill="none"></path>
    </g>
  </g>
  <mask></mask>
</svg>