<svg xmlns="http://www.w3.org/2000/svg" width="3699.118" height="3108.014" filter="invert(93%) hue-rotate(180deg)" version="1.1" viewBox="0 0 1849.559 1554.007"><defs><style class="style-fonts">@font-face{font-family:&quot;Virgil&quot;;src:url(https://excalidraw.com/Virgil.woff2)}@font-face{font-family:&quot;Cascadia&quot;;src:url(https://excalidraw.com/Cascadia.woff2)}</style></defs><rect width="1849.559" height="1554.007" x="0" y="0" fill="#e3fafc"/><g stroke-linecap="round"><path fill="#be4bdb" stroke="none" stroke-width="0" d="M29.39 -1.89 L115.17 1.35 L128.61 3.03 L132.89 12.63 L134.03 26.16 L130.8 91.08 L129.78 104.33 L121.92 103.27 L109.74 107.11 L22.08 106.87 L3.09 102.72 L0.6 89.21 L2.37 23.85 L9.45 7.49 L14.55 -1.87 L23.59 1.03" transform="translate(263.09960204131676 725.8183186968304) rotate(0 67.18030430434192 54.071952244957856)"/><path fill="none" stroke="#000" stroke-width="4" d="M27.04 0 M27.04 0 C45.02 -2.9, 70.04 -1.94, 107.32 0 M27.04 0 C47.43 -1.58, 66.86 -0.71, 107.32 0 M107.32 0 C125.05 -3.46, 132.34 10.84, 134.36 27.04 M107.32 0 C123.69 -0.69, 137.97 5.74, 134.36 27.04 M134.36 27.04 C136.08 51.48, 135.43 65.74, 134.36 81.11 M134.36 27.04 C134.36 46.89, 133.54 61.56, 134.36 81.11 M134.36 81.11 C130.86 95.18, 126.52 108.76, 107.32 108.14 M134.36 81.11 C132.49 96.66, 125.07 110.34, 107.32 108.14 M107.32 108.14 C81.25 109.03, 50.45 111.17, 27.04 108.14 M107.32 108.14 C90.16 109.73, 71.09 110.46, 27.04 108.14 M27.04 108.14 C6.76 104.62, 0.12 97.28, 0 81.11 M27.04 108.14 C12.16 107.51, -4.56 101.35, 0 81.11 M0 81.11 C1.11 58.4, -2.32 40.07, 0 27.04 M0 81.11 C1.52 70.59, -1.13 56.63, 0 27.04 M0 27.04 C-2.81 6.91, 9.89 0.85, 27.04 0 M0 27.04 C4.19 5.97, 13.11 1.73, 27.04 0" transform="translate(263.09960204131676 725.8183186968304) rotate(0 67.18030430434192 54.071952244957856)"/></g><g><text x="11.5" y="26" fill="#000" direction="ltr" font-family="Virgil, Segoe UI Emoji" font-size="29.071" text-anchor="middle" style="white-space:pre" transform="translate(318.7799063456587 761.3902709417885) rotate(0 11.5 18.5)">M</text></g><g stroke-linecap="round"><g><path fill="none" stroke="#000" stroke-dasharray="8 12" stroke-width="4.5" d="M-2.2 2.55 C-2.03 27.55, 0.24 125.64, 0.81 149.4" transform="translate(312.98393188922273 844.3124848696057) rotate(0 -0.694427449034265 75.9741482069328)"/></g><g><path fill="none" stroke="#000" stroke-width="4.5" d="M-6.46 123.63 C-4.1 132.55, -7.04 140.35, -0.23 150.78" transform="translate(312.98393188922273 844.3124848696057) rotate(0 -0.694427449034265 75.9741482069328)"/></g><g><path fill="none" stroke="#000" stroke-width="4.5" d="M14.05 123.16 C10.43 131.89, 1.5 139.83, -0.23 150.78" transform="translate(312.98393188922273 844.3124848696057) rotate(0 -0.694427449034265 75.9741482069328)"/></g></g><g stroke-linecap="round"><path fill="#228be6" stroke="none" stroke-width="0" d="M97.29 9.1 C104.84 13.27, 109.43 23.16, 113.54 31.91 C117.65 40.67, 121.52 52.46, 121.95 61.64 C122.38 70.82, 120.06 78.53, 116.11 86.97 C112.16 95.42, 106.27 106.28, 98.28 112.32 C90.28 118.35, 77.7 122.35, 68.12 123.2 C58.54 124.04, 49.73 121.01, 40.8 117.38 C31.87 113.75, 21.31 108.25, 14.57 101.41 C7.82 94.57, 2.51 85.11, 0.3 76.35 C-1.91 67.6, -1.24 58.3, 1.31 48.9 C3.85 39.5, 9.65 27.6, 15.59 19.95 C21.53 12.3, 28.43 6.21, 36.94 3.02 C45.44 -0.18, 53.07 -5.25, 66.63 0.76 C80.2 6.76, 109.54 26.88, 118.34 39.04 C127.14 51.21, 120.3 73.56, 119.42 73.73 M59.99 2.87 C68.84 1.78, 79.73 4.49, 87.59 8.31 C95.45 12.14, 101.23 18.6, 107.15 25.81 C113.08 33.01, 120.57 42.91, 123.14 51.57 C125.72 60.23, 126.02 68.44, 122.62 77.75 C119.22 87.05, 110.41 100.59, 102.75 107.4 C95.08 114.21, 85.19 116.28, 76.62 118.63 C68.05 120.99, 60.67 123.05, 51.34 121.52 C42 120, 27.82 115.58, 20.62 109.5 C13.41 103.41, 11.56 93.67, 8.13 85 C4.69 76.32, 0.22 66.34, 0.01 57.45 C-0.21 48.55, 2.29 39.41, 6.83 31.62 C11.37 23.83, 18.82 15.57, 27.23 10.71 C35.63 5.85, 52.37 4.18, 57.28 2.47 C62.18 0.75, 56.61 -0.28, 56.67 0.43" transform="translate(246.980529016947 507.28812674879237) rotate(0 61.445400278361376 61.445400278361376)"/><path fill="none" stroke="#000" stroke-width="4" d="M100.16 14.84 C107.89 19.41, 113.88 27.28, 117.74 35.97 C121.6 44.65, 123.94 57, 123.32 66.95 C122.7 76.9, 119 87.45, 114 95.66 C109.01 103.88, 101.69 111.77, 93.33 116.24 C84.96 120.72, 73.88 122.73, 63.8 122.53 C53.73 122.33, 41.43 119.23, 32.89 115.03 C24.35 110.82, 17.9 104.88, 12.55 97.3 C7.21 89.71, 2.63 79.16, 0.81 69.54 C-1.01 59.92, -1.47 48.6, 1.63 39.57 C4.72 30.53, 12.3 21.37, 19.36 15.31 C26.43 9.26, 34.72 5.63, 44 3.23 C53.27 0.83, 62.11 -6.97, 74.99 0.92 C87.87 8.82, 115.16 35.01, 121.27 50.59 C127.38 66.18, 112.78 94.16, 111.64 94.45 M90.85 4.14 C100.01 7.04, 108.79 14.79, 113.81 23.13 C118.84 31.48, 119.64 44.22, 120.99 54.2 C122.33 64.17, 125.28 74.16, 121.88 82.99 C118.49 91.83, 107.82 100.76, 100.61 107.21 C93.41 113.67, 87.44 118.86, 78.66 121.73 C69.88 124.6, 57.65 126.96, 47.92 124.45 C38.19 121.95, 27.94 113.81, 20.28 106.71 C12.63 99.6, 5.18 90.27, 1.99 81.84 C-1.2 73.42, 0.02 65.43, 1.14 56.18 C2.27 46.93, 3.7 34.15, 8.72 26.33 C13.73 18.52, 22.48 14.08, 31.22 9.28 C39.95 4.47, 51.85 -2.21, 61.12 -2.5 C70.4 -2.79, 82.19 6.06, 86.88 7.54 C91.57 9.01, 88.95 6, 89.26 6.35" transform="translate(246.980529016947 507.28812674879237) rotate(0 61.445400278361376 61.445400278361376)"/></g><g><text x="10" y="26" fill="#000" direction="ltr" font-family="Virgil, Segoe UI Emoji" font-size="29.029" text-anchor="middle" style="white-space:pre" transform="translate(298.4259292953084 550.2335270271537) rotate(0 10 18.5)">P</text></g><g stroke-linecap="round"><path fill="#12b886" stroke="none" stroke-width="0" d="M34.18 2.94 L117.55 -2.68 L133.69 6.96 L140.16 23.65 L135.61 374.05 L134.95 393.99 L128.72 403.37 L117.47 404.95 L23.84 400.66 L4.55 397.75 L-0.86 380.4 L-2.08 21.12 L4.06 8.28 L15.02 0.37 L33.87 1.57" transform="translate(10 510.7517269343666) rotate(0 69.63812031547604 202.36018491673667)"/><path fill="none" stroke="#000" stroke-dasharray="1.5 10" stroke-width="4.5" d="M32 0 M32 0 C52.86 1.07, 70.57 -0.65, 107.28 0 M107.28 0 C130.43 -1.44, 138.68 13.81, 139.28 32 M139.28 32 C142.39 111.65, 145.62 189.23, 139.28 372.72 M139.28 372.72 C135.5 395.28, 129.77 406.12, 107.28 404.72 M107.28 404.72 C83.42 400.37, 60.52 405.04, 32 404.72 M32 404.72 C11.28 403.1, -2.15 393.81, 0 372.72 M0 372.72 C-3.5 255.38, -0.91 134.88, 0 32 M0 32 C3.89 7.8, 13.74 1, 32 0" transform="translate(10 510.7517269343666) rotate(0 69.63812031547604 202.36018491673667)"/></g><g stroke-linecap="round"><g><path fill="none" stroke="#000" stroke-dasharray="8 12" stroke-width="4.5" d="M0.93 0.12 C12.43 0.5, 57.01 -0.3, 68.42 -0.28" transform="translate(169.96896066806767 576.106975060557) rotate(0 34.674644761448235 -0.024960715497172714)"/></g></g><g stroke-linecap="round"><g><path fill="none" stroke="#000" stroke-dasharray="8 12" stroke-width="4.5" d="M0.12 1.24 C1.06 17, 2.49 80.1, 3.07 95.54" transform="translate(324.786961595938 621.3038336752625) rotate(0 1.5938519764104058 48.38639953273059)"/></g></g><g stroke-linecap="round"><path fill="#ced4da" stroke="none" stroke-width="0" d="M61.82 2.36 C68.59 5, 75.74 11.59, 80.12 18.15 C84.5 24.71, 87.86 34.69, 88.11 41.74 C88.36 48.78, 86.34 54.89, 81.64 60.42 C76.93 65.94, 67.55 71.74, 59.9 74.9 C52.26 78.06, 43.27 80.04, 35.76 79.39 C28.26 78.73, 20.79 75.56, 14.86 70.97 C8.93 66.37, 2.18 58.95, 0.18 51.8 C-1.82 44.65, 0.23 35.03, 2.86 28.06 C5.49 21.1, 9.84 14.42, 15.96 10 C22.08 5.57, 30.83 2.21, 39.59 1.53 C48.34 0.85, 63.27 5.18, 68.5 5.92 C73.73 6.67, 71.44 5.37, 70.97 6.01 M54.34 3.75 C60.89 5.19, 68.73 6.91, 74.53 11.86 C80.34 16.81, 87.94 26.11, 89.16 33.44 C90.39 40.77, 84.86 49.48, 81.87 55.85 C78.89 62.22, 77.49 67.71, 71.25 71.67 C65.02 75.63, 53.25 78.92, 44.44 79.59 C35.64 80.25, 25.58 79.16, 18.4 75.67 C11.23 72.18, 4.55 65.11, 1.41 58.64 C-1.73 52.17, -1.71 44.42, -0.44 36.83 C0.83 29.24, 3.85 18.88, 9.02 13.11 C14.18 7.34, 22.31 3.85, 30.54 2.22 C38.77 0.58, 53.8 3.49, 58.39 3.32 C62.98 3.15, 58.74 1.03, 58.08 1.18" transform="translate(254.52310147902153 999.479817896748) rotate(0 44.167076406409706 39.7503687657686)"/><path fill="none" stroke="#000" stroke-width="4" d="M6.58 18.67 C10.36 12.87, 19.97 6.25, 27.24 2.92 C34.51 -0.41, 42.47 -2.49, 50.19 -1.31 C57.9 -0.14, 67.73 5.06, 73.53 9.97 C79.34 14.88, 82.72 21.34, 85.01 28.15 C87.29 34.95, 89.38 43.56, 87.26 50.83 C85.13 58.1, 78.75 66.73, 72.26 71.77 C65.78 76.8, 56.41 80.53, 48.34 81.04 C40.27 81.54, 30.59 77.95, 23.84 74.83 C17.09 71.71, 11.69 68.58, 7.86 62.32 C4.04 56.05, 0.46 45.09, 0.91 37.24 C1.35 29.38, 8.35 19.4, 10.56 15.2 C12.77 10.99, 13.37 11.85, 14.16 11.98 M19.65 7.69 C25.71 3.55, 33.34 -1.45, 41.12 -1.58 C48.89 -1.72, 59 3.41, 66.3 6.88 C73.6 10.35, 81.55 12.87, 84.92 19.23 C88.28 25.59, 87.32 37.66, 86.5 45.03 C85.69 52.41, 84.23 58.45, 80.03 63.49 C75.82 68.52, 68.65 72.65, 61.28 75.24 C53.9 77.84, 43.72 80.15, 35.8 79.07 C27.88 78, 19.51 73.65, 13.77 68.79 C8.03 63.93, 3.41 57.68, 1.38 49.9 C-0.65 42.13, -1.33 29.46, 1.58 22.11 C4.49 14.77, 15.56 8.28, 18.86 5.84 C22.15 3.4, 21.41 6.45, 21.33 7.47" transform="translate(254.52310147902153 999.479817896748) rotate(0 44.167076406409706 39.7503687657686)"/></g><g><text x="10.5" y="23" fill="#000" direction="ltr" font-family="Virgil, Segoe UI Emoji" font-size="25.637" text-anchor="middle" style="white-space:pre" transform="translate(288.1901778854308 1022.7301866625171) rotate(0 10.5 16.5)">G</text></g><g stroke-linecap="round"><path fill="#ced4da" stroke="none" stroke-width="0" d="M31.7 -3.46 L1465.98 2.32 L1483.06 7.4 L1495.14 21.66 L1495.71 215.3 L1482.86 236.95 L1477.71 242.3 L1456.73 243.72 L25.66 243.4 L7.37 238.45 L-1.76 215.55 L-3.5 28.05 L3.17 18.61 L6.38 5.85 L17.76 3.91 L33.83 -3.36" transform="translate(245 10) rotate(0 746.2499999999995 121.25)"/><path fill="none" stroke="#000" stroke-dasharray="8 12" stroke-width="4.5" d="M32 0 M32 0 C383.48 -3.43, 734.91 -3.75, 1460.5 0 M1460.5 0 C1482.83 2.34, 1494.88 11.51, 1492.5 32 M1492.5 32 C1490.61 100.78, 1493.23 172.7, 1492.5 210.5 M1492.5 210.5 C1488.54 233.76, 1483.79 238.71, 1460.5 242.5 M1460.5 242.5 C965.92 230.21, 472.6 230.78, 32 242.5 M32 242.5 C10.25 244.53, 1.82 228.56, 0 210.5 M0 210.5 C3.39 172.3, 6.14 129.76, 0 32 M0 32 C3.57 12.17, 11.55 -0.22, 32 0" transform="translate(245 10) rotate(0 746.2499999999995 121.25)"/></g><g stroke-linecap="round"><path fill="#4c6ef5" stroke="none" stroke-width="0" d="M28.54 -2.02 L849.82 -0.94 L863.9 11.14 L869.16 28.21 L869.3 123.86 L866.95 145.21 L856.3 144.23 L841.72 151.16 L25.9 148.87 L11.95 139.74 L-1.95 122 L-3.95 33.17 L2.61 16.38 L5.85 7.76 L19.91 3.83 L28.64 -2.14" transform="translate(470 57.5) rotate(0 436.24999999999955 75)"/><path fill="none" stroke="#000" stroke-dasharray="8 12" stroke-width="4.5" d="M32 0 M32 0 C310.15 1.06, 586.43 2.61, 840.5 0 M840.5 0 C864.17 2.38, 873.34 14.49, 872.5 32 M872.5 32 C869.13 55.7, 870.43 69.97, 872.5 118 M872.5 118 C874.43 141.29, 858.04 151.81, 840.5 150 M840.5 150 C594.95 143.17, 351.29 144.42, 32 150 M32 150 C12.7 151.82, -3.27 136.08, 0 118 M0 118 C1.75 101.88, -1.74 82.04, 0 32 M0 32 C1.5 11.55, 10.45 1.83, 32 0" transform="translate(470 57.5) rotate(0 436.24999999999955 75)"/></g><g><text x="114.25" y="39.809" fill="#000" direction="ltr" font-family="Virgil, Segoe UI Emoji" font-size="45.448" text-anchor="middle" style="white-space:pre" transform="translate(1371.3286481364512 78.97155867284255) rotate(0 114.25 56.80939226519331)">Global</text><text x="114.25" y="96.619" fill="#000" direction="ltr" font-family="Virgil, Segoe UI Emoji" font-size="45.448" text-anchor="middle" style="white-space:pre" transform="translate(1371.3286481364512 78.97155867284255) rotate(0 114.25 56.80939226519331)">Run queue</text></g><g stroke-linecap="round"><path fill="#be4bdb" stroke="none" stroke-width="0" d="M23.39 0.14 L113.42 -3.29 L125.34 4.05 L136.46 15.06 L131.87 28.13 L134.43 88.15 L123.83 100.44 L117.1 105.8 L107.86 105.81 L21.05 108.93 L9.9 103.71 L4.34 84.13 L3.23 18.08 L7.72 3.84 L15.58 -0.2 L26.85 -1.36" transform="translate(1029.1981448527658 817.0243208115212) rotate(0 67.18030430434192 54.071952244957856)"/><path fill="none" stroke="#000" stroke-width="4" d="M27.04 0 M27.04 0 C59.11 4, 86.48 -2.01, 107.32 0 M27.04 0 C57.02 -0.24, 88.22 -0.57, 107.32 0 M107.32 0 C124.21 -1.58, 136.15 12.44, 134.36 27.04 M107.32 0 C123.52 -1.83, 133.83 13.21, 134.36 27.04 M134.36 27.04 C132.26 45.81, 129.78 64.91, 134.36 81.11 M134.36 27.04 C132.74 50, 133.24 70.58, 134.36 81.11 M134.36 81.11 C130.77 99.2, 121.67 104.27, 107.32 108.14 M134.36 81.11 C138.04 94.53, 121.65 111.88, 107.32 108.14 M107.32 108.14 C77.54 110.72, 48.31 112.12, 27.04 108.14 M107.32 108.14 C86.02 110.41, 67.77 108.34, 27.04 108.14 M27.04 108.14 C5.67 110.01, -0.8 97.08, 0 81.11 M27.04 108.14 C4.94 105.01, 2.25 98.91, 0 81.11 M0 81.11 C-2.61 64.52, 4.5 43.87, 0 27.04 M0 81.11 C-1.08 66.68, 1.14 50.94, 0 27.04 M0 27.04 C2.11 12.58, 9.27 0.01, 27.04 0 M0 27.04 C1.11 5.67, 9.51 0.35, 27.04 0" transform="translate(1029.1981448527658 817.0243208115212) rotate(0 67.18030430434192 54.071952244957856)"/></g><g><text x="11.5" y="26" fill="#000" direction="ltr" font-family="Virgil, Segoe UI Emoji" font-size="29.071" text-anchor="middle" style="white-space:pre" transform="translate(1084.8784491571096 852.5962730564793) rotate(0 11.5 18.5)">M</text></g><g stroke-linecap="round"><path fill="#228be6" stroke="none" stroke-width="0" d="M58.4 -0.87 C66.82 -2.36, 75.47 1.61, 83.65 5.77 C91.83 9.94, 101.15 16.98, 107.47 24.12 C113.8 31.26, 119.72 39.39, 121.61 48.61 C123.5 57.83, 121.51 70.37, 118.8 79.43 C116.1 88.49, 111.99 96.47, 105.39 102.95 C98.78 109.44, 87.97 115.18, 79.17 118.35 C70.37 121.53, 61.57 123.5, 52.61 122 C43.65 120.51, 33.03 115.34, 25.43 109.37 C17.84 103.4, 11.11 94.26, 7.04 86.19 C2.98 78.12, 0.85 70.19, 1.04 60.93 C1.22 51.68, 3.67 39.39, 8.16 30.67 C12.64 21.95, 15.47 12.74, 27.93 8.63 C40.4 4.51, 69.71 3.54, 82.93 5.99 C96.16 8.43, 107.27 22.31, 107.3 23.3 M63.16 0.45 C72.28 0.24, 85.31 5.06, 93.62 10.44 C101.93 15.83, 108.38 24.91, 113.03 32.76 C117.68 40.61, 121.07 48.95, 121.51 57.53 C121.95 66.12, 119.8 75.32, 115.67 84.28 C111.54 93.25, 103.55 105.01, 96.73 111.33 C89.92 117.65, 83.33 120.3, 74.79 122.2 C66.24 124.1, 55.07 126, 45.45 122.74 C35.83 119.49, 23.84 110.24, 17.05 102.68 C10.25 95.13, 6.94 86.51, 4.67 77.41 C2.41 68.31, 2.01 56.95, 3.46 48.09 C4.91 39.23, 7.66 31.08, 13.36 24.26 C19.07 17.43, 28.7 11.15, 37.7 7.15 C46.7 3.15, 62.9 0.84, 67.36 0.26 C71.82 -0.33, 65.19 3, 64.47 3.63" transform="translate(1029.7457384950649 617.1607955301492) rotate(0 61.445400278361376 61.445400278361376)"/><path fill="none" stroke="#000" stroke-width="4" d="M59.41 0.39 C68.3 -1.02, 77.7 1.55, 86.07 5.54 C94.45 9.54, 103.6 16.84, 109.66 24.36 C115.71 31.87, 120.7 41.06, 122.39 50.61 C124.09 60.17, 122.67 72.28, 119.84 81.69 C117.02 91.1, 112.03 100.86, 105.44 107.06 C98.86 113.25, 89.5 116.65, 80.32 118.86 C71.14 121.07, 59.94 122.2, 50.37 120.3 C40.81 118.4, 30.47 113.44, 22.92 107.46 C15.36 101.48, 8.83 93.05, 5.03 84.41 C1.23 75.77, -0.87 65.06, 0.12 55.63 C1.11 46.2, 6.09 35.52, 10.97 27.82 C15.84 20.11, 16.42 13.08, 29.35 9.42 C42.28 5.76, 75.62 3.17, 88.57 5.86 C101.52 8.56, 107.75 24.74, 107.05 25.57 M58.14 -0.82 C67.09 -2.07, 77.81 3.39, 87.03 7.48 C96.24 11.57, 107.77 16.35, 113.42 23.72 C119.08 31.09, 119.49 41.7, 120.98 51.71 C122.46 61.72, 125.61 74.38, 122.32 83.78 C119.03 93.19, 108.77 102.22, 101.24 108.13 C93.72 114.03, 86.39 117.4, 77.17 119.22 C67.95 121.04, 54.62 120.79, 45.91 119.05 C37.2 117.3, 31.68 114.83, 24.91 108.76 C18.14 102.7, 8.93 91.72, 5.29 82.65 C1.66 73.58, 1.99 63.87, 3.09 54.34 C4.18 44.82, 7.2 33.7, 11.88 25.52 C16.56 17.33, 23.74 9.09, 31.19 5.24 C38.63 1.39, 52.32 3.5, 56.54 2.43 C60.76 1.37, 55.56 -2.11, 56.48 -1.15" transform="translate(1029.7457384950649 617.1607955301492) rotate(0 61.445400278361376 61.445400278361376)"/></g><g><text x="10" y="26" fill="#000" direction="ltr" font-family="Virgil, Segoe UI Emoji" font-size="29.029" text-anchor="middle" style="white-space:pre" transform="translate(1081.1911387734253 660.1061958085106) rotate(0 10 18.5)">P</text></g><g stroke-linecap="round"><path fill="#12b886" stroke="none" stroke-width="0" d="M29.3 3.79 L114.63 -1.99 L132.37 8.49 L139.48 20.72 L138.33 370.67 L134.12 392.76 L124.44 400.57 L115.99 407.36 L26.83 408.14 L4.69 399.53 L-2.12 381.18 L-2.42 24.87 L6.11 7.82 L16.64 4.7 L30.74 -3.08" transform="translate(792.765209478117 620.6243957157235) rotate(0 69.63812031547604 202.36018491673667)"/><path fill="none" stroke="#000" stroke-dasharray="1.5 10" stroke-width="4.5" d="M32 0 M32 0 C56.17 2.81, 86.38 -0.9, 107.28 0 M107.28 0 C128.48 -1.08, 141.48 8.94, 139.28 32 M139.28 32 C139.77 123.48, 136.43 216.76, 139.28 372.72 M139.28 372.72 C142.93 397.3, 125.37 407.44, 107.28 404.72 M107.28 404.72 C83.65 406.91, 66.74 404.07, 32 404.72 M32 404.72 C7.4 408.52, -2.25 396.87, 0 372.72 M0 372.72 C-2.66 303.19, -2.74 227.27, 0 32 M0 32 C3.25 13.34, 12.79 0.24, 32 0" transform="translate(792.765209478117 620.6243957157235) rotate(0 69.63812031547604 202.36018491673667)"/></g><g stroke-linecap="round"><g><path fill="none" stroke="#000" stroke-dasharray="8 12" stroke-width="4.5" d="M-1.75 0.76 C9.07 0.59, 56.48 -0.64, 67.52 -1.15" transform="translate(952.7341701461846 685.9796438419139) rotate(0 32.88864248237496 -0.19254270868123058)"/></g></g><g stroke-linecap="round"><g><path fill="none" stroke="#000" stroke-dasharray="8 12" stroke-width="4.5" d="M0.76 0.34 C0.59 12.42, -0.63 58.76, -1.14 70.69" transform="translate(1087.552171074054 739.1765024566198) rotate(0 -0.1888278230371725 35.51646707120017)"/></g></g><g stroke-linecap="round"><path fill="#be4bdb" stroke="none" stroke-width="0" d="M28.32 0.95 L110.68 -1.6 L125.31 6.2 L136.4 13.23 L136.74 28.94 L135.96 90.08 L125.8 104.43 L118.92 107.54 L110.34 109.83 L22.49 108.41 L8.37 98.06 L-1.75 86.3 L-1.87 19.63 L5.34 9.77 L17.17 5.13 L26.7 2.69" transform="translate(1705.1981448527658 815.0243208115212) rotate(0 67.18030430434192 54.071952244957856)"/><path fill="none" stroke="#000" stroke-width="4" d="M27.04 0 M27.04 0 C56.53 -0.42, 90.56 -2.63, 107.32 0 M27.04 0 C54.71 -2.04, 77.36 0.42, 107.32 0 M107.32 0 C126.04 -0.93, 130.53 9.58, 134.36 27.04 M107.32 0 C128.41 -0.87, 131.66 5.26, 134.36 27.04 M134.36 27.04 C137.06 39.22, 138.56 56.96, 134.36 81.11 M134.36 27.04 C135.38 47.92, 134.97 68.7, 134.36 81.11 M134.36 81.11 C132.27 100.58, 126.36 105.01, 107.32 108.14 M134.36 81.11 C133.64 100.87, 122.16 109.39, 107.32 108.14 M107.32 108.14 C91.12 110.15, 69.41 107.9, 27.04 108.14 M107.32 108.14 C88.12 107.41, 69.02 109.82, 27.04 108.14 M27.04 108.14 C7.65 109.35, -2.86 101.75, 0 81.11 M27.04 108.14 C8.13 110.63, 1.18 97.34, 0 81.11 M0 81.11 C-3.08 60.37, 1.21 43.49, 0 27.04 M0 81.11 C1.53 63.19, 0.6 42.25, 0 27.04 M0 27.04 C-1.06 7.18, 12.49 3.1, 27.04 0 M0 27.04 C0.45 6.17, 12.26 2.15, 27.04 0" transform="translate(1705.1981448527658 815.0243208115212) rotate(0 67.18030430434192 54.071952244957856)"/></g><g><text x="11.5" y="26" fill="#000" direction="ltr" font-family="Virgil, Segoe UI Emoji" font-size="29.071" text-anchor="middle" style="white-space:pre" transform="translate(1760.8784491571096 850.5962730564793) rotate(0 11.5 18.5)">M</text></g><g stroke-linecap="round"><g><path fill="none" stroke="#000" stroke-dasharray="8 12" stroke-width="4.5" d="M-1.6 -0.39 C-0.94 24.17, 1.47 121.11, 1.9 145.96" transform="translate(1755.0824747006736 933.5184869842965) rotate(0 0.1488534035520388 72.78418338723304)"/></g><g><path fill="none" stroke="#000" stroke-width="4.5" d="M-9.52 121.73 C-8.78 126.81, -2.45 132.75, 4.54 144.16" transform="translate(1755.0824747006736 933.5184869842965) rotate(0 0.1488534035520388 72.78418338723304)"/></g><g><path fill="none" stroke="#000" stroke-width="4.5" d="M10.99 121.28 C7.11 126.23, 8.81 132.28, 4.54 144.16" transform="translate(1755.0824747006736 933.5184869842965) rotate(0 0.1488534035520388 72.78418338723304)"/></g></g><g stroke-linecap="round"><path fill="#228be6" stroke="none" stroke-width="0" d="M112.2 25.3 C117.62 32.25, 119.87 45.92, 120.98 55.29 C122.09 64.65, 121.98 72.67, 118.86 81.47 C115.73 90.27, 109.44 101.39, 102.21 108.09 C94.99 114.8, 84.97 119.32, 75.49 121.71 C66 124.09, 54.52 124.62, 45.33 122.42 C36.13 120.22, 27.13 115.19, 20.33 108.53 C13.52 101.87, 7.72 91.55, 4.51 82.47 C1.3 73.39, 0.07 63.6, 1.06 54.03 C2.06 44.45, 5.41 32.74, 10.48 25.01 C15.54 17.28, 23.11 11.63, 31.45 7.64 C39.79 3.66, 50.72 1.31, 60.51 1.09 C70.3 0.87, 80.52 0.46, 90.2 6.34 C99.88 12.22, 113.64 30.06, 118.61 36.37 C123.58 42.69, 121.3 44.15, 120.01 44.23 M106.55 23.93 C112.92 30.44, 120.85 40.55, 122.84 49.57 C124.83 58.59, 121.7 69.54, 118.5 78.06 C115.3 86.58, 109.6 93.89, 103.63 100.66 C97.66 107.44, 91.03 115.56, 82.68 118.71 C74.32 121.87, 62.78 121.18, 53.51 119.57 C44.25 117.96, 34.71 114.62, 27.09 109.05 C19.48 103.49, 12.17 93.99, 7.82 86.18 C3.48 78.38, 1.35 70.9, 1.02 62.2 C0.69 53.5, 1.03 42.99, 5.84 33.97 C10.64 24.95, 21.93 14.08, 29.83 8.08 C37.74 2.07, 43.73 -1.76, 53.28 -2.07 C62.82 -2.38, 77.94 2.04, 87.12 6.21 C96.29 10.39, 104.45 20.7, 108.33 22.99 C112.21 25.27, 111.23 19.45, 110.38 19.92" transform="translate(1705.7457384950649 603.1607955301492) rotate(0 61.445400278361376 61.445400278361376)"/><path fill="none" stroke="#000" stroke-width="4" d="M33.31 8.67 C40.49 3.68, 50.54 1.76, 59.87 1.53 C69.2 1.29, 80.41 3.05, 89.29 7.27 C98.17 11.49, 107.48 19.09, 113.14 26.83 C118.8 34.57, 122.12 44.7, 123.25 53.72 C124.39 62.73, 123.55 72.16, 119.94 80.94 C116.33 89.72, 108.99 99.84, 101.61 106.41 C94.23 112.99, 84.81 117.68, 75.66 120.41 C66.5 123.13, 55.6 124.57, 46.69 122.77 C37.77 120.97, 29.29 115.86, 22.19 109.6 C15.08 103.34, 7.37 94.25, 4.07 85.21 C0.76 76.16, 1.14 65.23, 2.35 55.33 C3.56 45.44, 0.2 35.02, 11.32 25.83 C22.44 16.64, 54.11 1.59, 69.06 0.19 C84.01 -1.21, 101.3 16.25, 101.02 17.42 M107.53 19.8 C114.66 25.71, 117.51 32.59, 119.92 42 C122.32 51.41, 123.93 66.77, 121.96 76.27 C120 85.76, 114.69 92.18, 108.13 98.97 C101.56 105.75, 90.86 113.53, 82.58 116.99 C74.3 120.45, 67.31 120.64, 58.46 119.75 C49.61 118.86, 37.5 116.13, 29.5 111.67 C21.49 107.22, 14.94 101.47, 10.43 93.04 C5.93 84.6, 3.52 70.34, 2.46 61.07 C1.39 51.79, 0.2 45.21, 4.03 37.39 C7.85 29.57, 17.27 20.54, 25.41 14.16 C33.54 7.79, 43.33 0.82, 52.85 -0.86 C62.36 -2.54, 74.02 0.82, 82.51 4.09 C91 7.37, 99.81 16.48, 103.79 18.8 C107.77 21.13, 106.6 17.51, 106.38 18.04" transform="translate(1705.7457384950649 603.1607955301492) rotate(0 61.445400278361376 61.445400278361376)"/></g><g><text x="10" y="26" fill="#000" direction="ltr" font-family="Virgil, Segoe UI Emoji" font-size="29.029" text-anchor="middle" style="white-space:pre" transform="translate(1757.1911387734253 646.1061958085106) rotate(0 10 18.5)">P</text></g><g stroke-linecap="round"><path fill="#12b886" stroke="none" stroke-width="0" d="M31.44 3.73 L112.8 2.88 L133.18 10.02 L141.41 22.7 L142.33 372.49 L135.86 395.24 L128.46 402.01 L115.47 405.84 L21.18 402.05 L6.85 394.43 L-0.57 378.8 L3.51 26.46 L11.44 7.67 L20.69 5.96 L33.25 1.65" transform="translate(1468.765209478117 606.6243957157235) rotate(0 69.63812031547604 202.36018491673667)"/><path fill="none" stroke="#000" stroke-dasharray="1.5 10" stroke-width="4.5" d="M32 0 M32 0 C47.85 1.18, 65.91 1.46, 107.28 0 M107.28 0 C131.87 -3.08, 135.74 12.52, 139.28 32 M139.28 32 C138.6 141.91, 137.72 246.72, 139.28 372.72 M139.28 372.72 C136.02 392.46, 131.94 400.86, 107.28 404.72 M107.28 404.72 C83.1 409.2, 52.25 403.11, 32 404.72 M32 404.72 C14.37 405.3, 2.89 395.01, 0 372.72 M0 372.72 C-3.73 287.91, -0.64 202.09, 0 32 M0 32 C1.08 8.67, 7.18 -1.58, 32 0" transform="translate(1468.765209478117 606.6243957157235) rotate(0 69.63812031547604 202.36018491673667)"/></g><g stroke-linecap="round"><g><path fill="none" stroke="#000" stroke-dasharray="8 12" stroke-width="4.5" d="M1.67 1.33 C12.66 1.59, 57.89 0.35, 68.6 0.21" transform="translate(1628.7341701461846 671.9796438419139) rotate(0 35.13157427824035 0.7865817755384796)"/></g></g><g stroke-linecap="round"><g><path fill="none" stroke="#000" stroke-dasharray="8 12" stroke-width="4.5" d="M1.33 1.42 C1.6 15.93, 0.35 74, 0.21 88.74" transform="translate(1783.552171074054 717.1765024566198) rotate(0 0.7905225085178245 45.07869714237722)"/></g></g><g stroke-linecap="round"><path fill="#ced4da" stroke="none" stroke-width="0" d="M24.91 6.19 C31.72 2.6, 40.99 0.25, 48.4 0.3 C55.82 0.34, 62.99 2.2, 69.39 6.45 C75.79 10.7, 84.1 18.83, 86.8 25.79 C89.5 32.74, 87.37 41.29, 85.58 48.19 C83.8 55.08, 81.31 62.33, 76.08 67.16 C70.85 71.99, 61.86 75.58, 54.19 77.16 C46.52 78.74, 37.45 78.79, 30.07 76.62 C22.69 74.44, 15.03 69.67, 9.91 64.11 C4.79 58.54, 0.09 50.52, -0.66 43.23 C-1.42 35.93, -0.95 27.72, 5.36 20.33 C11.68 12.94, 28.83 2.07, 37.22 -1.13 C45.61 -4.32, 55.17 0.21, 55.7 1.14 M30.3 1.58 C36.66 -1.79, 45.26 -2.48, 53.27 -0.36 C61.28 1.76, 72.63 9.25, 78.37 14.3 C84.12 19.34, 86.21 23.04, 87.72 29.91 C89.24 36.77, 90.17 48.87, 87.48 55.48 C84.79 62.1, 78.31 66.09, 71.61 69.61 C64.91 73.13, 55.9 75.68, 47.28 76.62 C38.67 77.55, 27.06 78.12, 19.93 75.24 C12.79 72.36, 8.21 65.49, 4.47 59.32 C0.73 53.15, -2.95 45.25, -2.52 38.2 C-2.1 31.15, 2.14 22.82, 7.02 17.01 C11.89 11.2, 22.6 5.98, 26.72 3.35 C30.84 0.71, 30.69 0.39, 31.75 1.19" transform="translate(1696.6216442904715 1088.6858200114389) rotate(0 44.167076406409706 39.7503687657686)"/><path fill="none" stroke="#000" stroke-width="4" d="M25.52 5.46 C31.94 2.17, 42.5 0.44, 50.37 1.19 C58.24 1.94, 67.02 5.73, 72.72 9.97 C78.43 14.22, 82.36 20.16, 84.61 26.66 C86.86 33.17, 88.12 42.02, 86.22 49 C84.33 55.97, 78.81 63.37, 73.26 68.52 C67.7 73.68, 60.36 78.69, 52.88 79.95 C45.4 81.21, 35.73 78.75, 28.39 76.08 C21.06 73.41, 13.5 69.7, 8.87 63.92 C4.24 58.14, 1.24 48.89, 0.63 41.42 C0.03 33.94, -4.61 25.72, 5.25 19.09 C15.1 12.47, 46.51 0.82, 59.76 1.67 C73.01 2.52, 84.86 23.15, 84.74 24.2 M13.95 10.51 C18.91 5.21, 24.53 2.6, 32.58 1.21 C40.63 -0.19, 54.65 0.03, 62.25 2.16 C69.84 4.29, 74.04 7.67, 78.17 13.99 C82.31 20.3, 86.82 32.25, 87.07 40.04 C87.32 47.82, 83.66 54.47, 79.7 60.7 C75.74 66.93, 69.65 73.89, 63.31 77.41 C56.97 80.92, 49.75 83.17, 41.67 81.78 C33.59 80.38, 20.9 73.77, 14.84 69.05 C8.78 64.34, 7.25 59.76, 5.33 53.49 C3.41 47.22, 2.24 38.28, 3.33 31.41 C4.42 24.54, 9.95 15.96, 11.86 12.29 C13.77 8.63, 14.11 8.94, 14.8 9.43" transform="translate(1696.6216442904715 1088.6858200114389) rotate(0 44.167076406409706 39.7503687657686)"/></g><g><text x="10.5" y="23" fill="#000" direction="ltr" font-family="Virgil, Segoe UI Emoji" font-size="25.637" text-anchor="middle" style="white-space:pre" transform="translate(1730.2887206968808 1111.936188777207) rotate(0 10.5 16.5)">G</text></g><g><text x="13.833" y="79.182" fill="#000" direction="ltr" font-family="Virgil, Segoe UI Emoji" font-size="90.545" text-anchor="middle" style="white-space:pre" transform="translate(299.99531480311816 354.1585250214098) rotate(0 13.833333333333485 56.59090909090969)">1</text></g><g><text x="25.167" y="58.889" fill="#000" direction="ltr" font-family="Virgil, Segoe UI Emoji" font-size="67.111" text-anchor="middle" style="white-space:pre" transform="translate(1131.9953148031173 526.7847876476726) rotate(0 25.16666666666697 41.944444444445026)">2</text></g><g><text x="29.667" y="71.692" fill="#000" direction="ltr" font-family="Virgil, Segoe UI Emoji" font-size="82.154" text-anchor="middle" style="white-space:pre" transform="translate(1745.8286481364503 467.98136884425685) rotate(0 29.66666666666606 51.3461538461529)">3</text></g><g stroke-linecap="round"><path fill="#15aabf" stroke="none" stroke-width="0" d="M30.61 -1.74 L846.31 -2.88 L864.45 11.15 L873.58 21.16 L869 126.27 L864.13 144.04 L852.91 148.07 L838.15 147.67 L21.42 152.42 L6.91 145.38 L-2.18 125.63 L0.74 29.97 L-1.52 17.46 L6.52 11.14 L21.32 -0.41 L29.72 -0.43" transform="translate(629.2453148031173 1393.3403432032273) rotate(0 436.24999999999955 75)"/><path fill="none" stroke="#000" stroke-dasharray="8 12" stroke-width="4.5" d="M32 0 M32 0 C332.58 -2.96, 631.57 -2.79, 840.5 0 M840.5 0 C865.32 0.03, 870.25 7.88, 872.5 32 M872.5 32 C868.61 65.95, 868.03 96.46, 872.5 118 M872.5 118 C870.53 142.41, 862.8 147.93, 840.5 150 M840.5 150 C522.75 145.5, 207.48 145.02, 32 150 M32 150 C14.22 150.89, 0.21 140.45, 0 118 M0 118 C0.06 102.4, -3.71 84.53, 0 32 M0 32 C-0.97 12.07, 8.41 -0.87, 32 0" transform="translate(629.2453148031173 1393.3403432032273) rotate(0 436.24999999999955 75)"/></g><g stroke-linecap="round"><path fill="#ced4da" stroke="none" stroke-width="0" d="M9.25 12.65 C12.78 8.37, 19.5 4.1, 26.05 2.55 C32.61 1, 42.2 1.18, 48.58 3.34 C54.97 5.5, 61.01 10.12, 64.34 15.52 C67.68 20.93, 68.86 29.38, 68.59 35.77 C68.31 42.16, 66.66 49.04, 62.69 53.86 C58.73 58.68, 51.83 63.33, 44.77 64.68 C37.72 66.03, 26.88 64.59, 20.37 61.96 C13.85 59.32, 9.02 54.39, 5.68 48.88 C2.34 43.36, -2.82 36.58, 0.32 28.85 C3.46 21.12, 16.99 6.59, 24.53 2.5 C32.07 -1.59, 45.27 3.98, 45.58 4.31 M60.35 12.66 C64.53 17.47, 70.69 27.72, 71.21 34.15 C71.74 40.59, 67.94 46.16, 63.5 51.27 C59.06 56.39, 51.48 62.61, 44.59 64.85 C37.71 67.08, 28.56 66.78, 22.19 64.67 C15.83 62.56, 9.74 57.22, 6.39 52.18 C3.04 47.13, 2.32 40.9, 2.07 34.41 C1.83 27.92, 0.95 18.89, 4.93 13.23 C8.92 7.58, 19.63 2.69, 25.99 0.48 C32.36 -1.73, 36.6 -1.9, 43.15 -0.03 C49.69 1.84, 62.41 9.05, 65.25 11.7 C68.1 14.36, 61.08 15.55, 60.22 15.9" transform="translate(666.5166186435245 1448.0694630547687) rotate(0 35.22869615959371 32.770880148459355)"/><path fill="none" stroke="#000" stroke-width="4" d="M58.7 10.04 C63.5 14.5, 68.67 22.46, 69.85 28.74 C71.03 35.03, 69.1 42.41, 65.78 47.76 C62.47 53.11, 56.25 57.7, 49.97 60.84 C43.69 63.98, 34.8 67.13, 28.09 66.59 C21.38 66.04, 14.55 62.36, 9.71 57.58 C4.88 52.79, -0.01 44.68, -0.92 37.89 C-1.83 31.09, 1.17 22.57, 4.25 16.8 C7.33 11.03, 11.58 5.74, 17.55 3.27 C23.53 0.8, 31.64 -0.24, 40.09 1.99 C48.53 4.21, 63.56 12.4, 68.24 16.61 C72.91 20.83, 68.71 26.83, 68.14 27.29 M52.12 3.74 C58.29 6.05, 66.33 12.28, 69.04 17.56 C71.75 22.84, 69.46 29.57, 68.4 35.42 C67.34 41.27, 67.63 48.01, 62.68 52.68 C57.73 57.35, 45.67 62.21, 38.71 63.44 C31.75 64.67, 26.69 62.89, 20.91 60.07 C15.14 57.26, 7.09 51.74, 4.05 46.52 C1.01 41.3, 1.94 34.41, 2.68 28.76 C3.41 23.11, 3.87 17.78, 8.47 12.64 C13.07 7.49, 23.5 -0.9, 30.27 -2.11 C37.05 -3.32, 45.55 4.18, 49.13 5.38 C52.71 6.57, 51.28 4.8, 51.75 5.07" transform="translate(666.5166186435245 1448.0694630547687) rotate(0 35.22869615959371 32.770880148459355)"/></g><g><text x="10.5" y="23" fill="#000" direction="ltr" font-family="Virgil, Segoe UI Emoji" font-size="25.467" text-anchor="middle" style="white-space:pre" transform="translate(691.2453148031173 1464.3403432032273) rotate(0 10.5 16.5)">G</text></g><g stroke-linecap="round"><path fill="#ced4da" stroke="none" stroke-width="0" d="M4.94 15.83 C8.12 10.44, 16.57 5.02, 23.12 2.54 C29.67 0.06, 37.84 -0.79, 44.25 0.95 C50.65 2.7, 57.02 7.89, 61.54 12.99 C66.06 18.1, 70.66 25.18, 71.38 31.58 C72.11 37.98, 70.14 46.21, 65.88 51.4 C61.62 56.6, 52.52 60.75, 45.83 62.76 C39.15 64.77, 32.19 65.3, 25.78 63.45 C19.37 61.59, 11.97 56.38, 7.37 51.63 C2.78 46.87, -3.41 42.57, -1.81 34.94 C-0.22 27.31, 11.17 11.52, 16.95 5.85 C22.73 0.19, 32.06 0.56, 32.87 0.94 M44.86 3.11 C51.71 4.23, 57.91 6.94, 61.8 11.74 C65.69 16.55, 68.15 25.4, 68.2 31.94 C68.24 38.47, 65.56 45.79, 62.08 50.95 C58.6 56.11, 52.94 60.47, 47.33 62.89 C41.72 65.3, 35.21 67.14, 28.43 65.45 C21.64 63.77, 10.97 58.11, 6.63 52.76 C2.3 47.42, 2.96 39.9, 2.39 33.39 C1.83 26.87, -0.39 19.09, 3.26 13.69 C6.91 8.29, 17.93 2.68, 24.31 0.99 C30.7 -0.69, 38.38 3.66, 41.58 3.59 C44.78 3.51, 43.08 0.27, 43.53 0.53" transform="translate(811.5166186435245 1450.5694630547687) rotate(0 35.22869615959371 32.770880148459355)"/><path fill="none" stroke="#000" stroke-width="4" d="M8.94 11.78 C13.11 6.91, 20.63 2.41, 27.23 0.73 C33.82 -0.95, 42.32 -1.16, 48.49 1.71 C54.66 4.58, 60.72 11.9, 64.26 17.94 C67.79 23.99, 70.42 31.85, 69.71 38 C69 44.15, 64.47 50.54, 59.99 54.85 C55.51 59.15, 49.63 62.57, 42.8 63.83 C35.98 65.09, 25.51 64.59, 19.03 62.39 C12.55 60.19, 6.78 56.36, 3.92 50.63 C1.06 44.9, -3.19 36.5, 1.87 28.03 C6.93 19.56, 24.18 2.53, 34.29 -0.21 C44.39 -2.96, 62.13 10.73, 62.47 11.55 M37.97 0.02 C44.04 -0.81, 48.85 0.95, 54.35 4.24 C59.86 7.53, 69.03 13.58, 71.01 19.77 C72.99 25.96, 68.56 35.12, 66.24 41.37 C63.93 47.62, 62.32 53.5, 57.13 57.28 C51.95 61.06, 41.85 63.62, 35.12 64.06 C28.39 64.51, 22.56 63.02, 16.73 59.94 C10.9 56.85, 2.47 52.21, 0.13 45.54 C-2.2 38.88, 0.61 26.18, 2.74 19.96 C4.87 13.73, 7.27 11.32, 12.91 8.17 C18.55 5.03, 32.39 2.23, 36.57 1.09 C40.76 -0.05, 38.2 0.82, 38.02 1.32" transform="translate(811.5166186435245 1450.5694630547687) rotate(0 35.22869615959371 32.770880148459355)"/></g><g><text x="10.5" y="23" fill="#000" direction="ltr" font-family="Virgil, Segoe UI Emoji" font-size="25.467" text-anchor="middle" style="white-space:pre" transform="translate(836.2453148031173 1466.8403432032273) rotate(0 10.5 16.5)">G</text></g><g stroke-linecap="round"><path fill="#ced4da" stroke="none" stroke-width="0" d="M57.62 2.49 C65.28 4.3, 74.92 9.58, 80.3 15.27 C85.68 20.96, 89.61 29.57, 89.9 36.63 C90.19 43.7, 85.98 51.44, 82.04 57.64 C78.1 63.84, 73.02 70.35, 66.26 73.82 C59.5 77.28, 49.83 78.54, 41.46 78.43 C33.1 78.32, 22.73 76.96, 16.09 73.16 C9.45 69.36, 4.28 62.54, 1.61 55.65 C-1.06 48.75, -2.09 38.9, 0.07 31.79 C2.24 24.68, 8.77 18.46, 14.59 12.99 C20.42 7.53, 24.85 -0.94, 35.03 -1 C45.21 -1.07, 67.08 7.91, 75.67 12.6 C84.27 17.28, 87.14 26.95, 86.63 27.08 M59.53 2.35 C67.62 4.39, 77.47 11.7, 82.03 17.44 C86.59 23.17, 86.41 30, 86.89 36.77 C87.37 43.54, 88.98 51.92, 84.9 58.05 C80.82 64.17, 69.5 70.18, 62.39 73.52 C55.28 76.86, 50.19 78.04, 42.22 78.07 C34.25 78.1, 21.27 78.07, 14.59 73.7 C7.91 69.33, 4.19 58.88, 2.14 51.85 C0.09 44.82, 0.75 38.61, 2.26 31.54 C3.77 24.46, 5.81 14.26, 11.17 9.38 C16.53 4.5, 26.33 3.29, 34.4 2.28 C42.48 1.27, 55.11 3.6, 59.62 3.35 C64.13 3.1, 61.73 0.38, 61.45 0.78" transform="translate(946.5336257602567 1438.5261632146676) rotate(0 44.167076406409706 39.7503687657686)"/><path fill="none" stroke="#000" stroke-width="4" d="M51.87 0.78 C59.25 1.18, 67.96 4.71, 73.58 9.91 C79.19 15.1, 83.63 24.53, 85.58 31.97 C87.54 39.41, 87.91 48.04, 85.31 54.57 C82.72 61.1, 76.14 67.19, 70.01 71.15 C63.89 75.1, 56.58 77.71, 48.59 78.32 C40.59 78.92, 29.29 77.62, 22.04 74.75 C14.79 71.88, 8.49 67.45, 5.11 61.08 C1.72 54.71, 1.38 43.97, 1.72 36.52 C2.06 29.07, 2.54 21.98, 7.13 16.37 C11.73 10.76, 20.74 5.06, 29.3 2.87 C37.85 0.69, 53.03 2.92, 58.46 3.29 C63.9 3.65, 62.23 4.38, 61.89 5.06 M46.7 -2.98 C54.14 -3.42, 59.33 0.75, 65.84 4.82 C72.35 8.88, 82.09 14.84, 85.76 21.4 C89.43 27.97, 88.87 36.64, 87.86 44.19 C86.84 51.74, 85.18 60.61, 79.66 66.7 C74.15 72.79, 62.65 79.3, 54.78 80.72 C46.9 82.14, 40.07 77.43, 32.42 75.24 C24.77 73.04, 14.01 72.4, 8.88 67.57 C3.75 62.73, 1.98 53.55, 1.63 46.24 C1.28 38.92, 3.6 30.2, 6.78 23.67 C9.96 17.13, 14.84 10.65, 20.69 7.01 C26.54 3.37, 38.42 2.72, 41.9 1.82 C45.38 0.92, 40.78 1.6, 41.56 1.63" transform="translate(946.5336257602567 1438.5261632146676) rotate(0 44.167076406409706 39.7503687657686)"/></g><g><text x="10.5" y="23" fill="#000" direction="ltr" font-family="Virgil, Segoe UI Emoji" font-size="25.637" text-anchor="middle" style="white-space:pre" transform="translate(980.2007021666659 1461.7765319804357) rotate(0 10.5 16.5)">G</text></g><g stroke-linecap="round"><path fill="#ced4da" stroke="none" stroke-width="0" d="M60.91 11.08 C65.32 15.33, 67.75 23.9, 68.62 30.29 C69.5 36.69, 69.22 44, 66.18 49.45 C63.14 54.91, 57.08 60.65, 50.38 63.02 C43.67 65.39, 32.83 65.3, 25.95 63.68 C19.08 62.06, 13.39 58.22, 9.11 53.32 C4.83 48.43, 1.24 40.37, 0.29 34.32 C-0.67 28.28, 0.02 22.07, 3.39 17.06 C6.76 12.05, 13.97 6.91, 20.51 4.26 C27.04 1.61, 34.59 -1.35, 42.61 1.17 C50.62 3.68, 64.14 15.56, 68.61 19.34 C73.08 23.12, 70.31 23.72, 69.44 23.86 M55.27 8.48 C60.29 12.11, 64.44 18.95, 66.45 24.9 C68.46 30.86, 68.99 38.14, 67.32 44.2 C65.65 50.26, 62.31 57.86, 56.41 61.27 C50.5 64.68, 38.76 65.41, 31.91 64.67 C25.07 63.94, 20.82 61, 15.32 56.84 C9.82 52.69, 0.72 45.93, -1.11 39.74 C-2.94 33.54, 1.87 25, 4.32 19.68 C6.77 14.35, 8.19 11.24, 13.6 7.77 C19.01 4.31, 29.28 -1.19, 36.77 -1.11 C44.27 -1.03, 55.56 7.05, 58.56 8.25 C61.55 9.45, 55.46 5.55, 54.73 6.07" transform="translate(1589.5119334466408 1414.7431395913309) rotate(0 35.22869615959371 32.770880148459355)"/><path fill="none" stroke="#000" stroke-width="4" d="M51.26 3.01 C57.09 5.84, 62.68 14.2, 65.68 20.51 C68.67 26.81, 70.55 34.78, 69.24 40.85 C67.92 46.91, 62.72 52.99, 57.81 56.9 C52.89 60.81, 46.67 63.6, 39.74 64.3 C32.82 65, 22.47 63.8, 16.26 61.1 C10.06 58.39, 4.82 54.05, 2.5 48.07 C0.18 42.08, 1.06 31.78, 2.34 25.18 C3.61 18.58, 5.14 12.64, 10.17 8.5 C15.2 4.35, 23.29 -0.92, 32.49 0.3 C41.68 1.53, 59.17 10.98, 65.34 15.85 C71.5 20.72, 70.08 29.17, 69.48 29.53 M37.7 -2.98 C44.13 -3.31, 48.27 0.79, 53.67 4.75 C59.07 8.71, 67.6 14.63, 70.1 20.78 C72.6 26.92, 70.68 35.07, 68.68 41.63 C66.67 48.19, 63.93 55.69, 58.05 60.13 C52.18 64.58, 40.57 68.89, 33.44 68.3 C26.32 67.7, 20.89 60.51, 15.31 56.58 C9.73 52.64, 1.99 50.18, -0.06 44.67 C-2.11 39.17, 0.11 29.84, 3.02 23.53 C5.92 17.21, 11.95 10.58, 17.38 6.8 C22.81 3.02, 33.03 1.56, 35.62 0.84 C38.2 0.12, 33.41 1.93, 32.9 2.48" transform="translate(1589.5119334466408 1414.7431395913309) rotate(0 35.22869615959371 32.770880148459355)"/></g><g><text x="10.5" y="23" fill="#000" direction="ltr" font-family="Virgil, Segoe UI Emoji" font-size="25.467" text-anchor="middle" style="white-space:pre" transform="translate(1614.2406296062336 1431.0140197397895) rotate(0 10.5 16.5)">G</text></g><g><text x="156.667" y="55.333" fill="#000" direction="ltr" font-family="Virgil, Segoe UI Emoji" font-size="62.667" text-anchor="middle" style="white-space:pre" transform="translate(878.8286481364512 1285.6736765365608) rotate(0 156.66666666666697 39.16666666666674)">Net Poller</text></g><g stroke-linecap="round"><g><path fill="none" stroke="#000" stroke-dasharray="1.5 10" stroke-width="4.5" d="M0.5 1.34 C13.1 1.64, 61.33 2.24, 74.26 1.75" transform="translate(1518.8286481364503 1455.0070098698943) rotate(0 37.377835076426436 1.6371094362327767)"/></g><g><path fill="none" stroke="#000" stroke-dasharray="1.5 8" stroke-width="4.5" d="M48.08 8.83 C55.73 11.51, 58.01 10.44, 78.08 1.95" transform="translate(1518.8286481364503 1455.0070098698943) rotate(0 37.377835076426436 1.6371094362327767)"/></g><g><path fill="none" stroke="#000" stroke-dasharray="1.5 8" stroke-width="4.5" d="M47.88 -11.69 C55.58 -3.85, 57.91 0.25, 78.08 1.95" transform="translate(1518.8286481364503 1455.0070098698943) rotate(0 37.377835076426436 1.6371094362327767)"/></g></g><g><text x="63.519" y="41.333" fill="#000" direction="ltr" font-family="Virgil, Segoe UI Emoji" font-size="46.667" text-anchor="middle" style="white-space:pre" transform="translate(1549.8286481364512 1485.6736765365608) rotate(0 63.51851851851825 29.166666666666515)">ready</text></g><g stroke-linecap="round"><g><path fill="none" stroke="#000" stroke-dasharray="1.5 10" stroke-width="4.5" d="M2.07 -1.35 C-32.67 -57.03, -133.1 -211.38, -210.61 -332.77 C-288.13 -454.15, -420.69 -662.69, -463.03 -729.66" transform="translate(1628.2055672886108 1410.4236190801857) rotate(0 -230.47742871198489 -365.5041305568161)"/></g><g><path fill="none" stroke="#000" stroke-dasharray="1.5 8" stroke-width="4.5" d="M-23.71 -21.3 C-12.5 -16.27, -7.51 -14.52, -1.51 0.01" transform="translate(1628.2055672886108 1410.4236190801857) rotate(0 -230.47742871198489 -365.5041305568161)"/></g><g><path fill="none" stroke="#000" stroke-dasharray="1.5 8" stroke-width="4.5" d="M-6.44 -32.38 C1.02 -24.63, 2.16 -20.39, -1.51 0.01" transform="translate(1628.2055672886108 1410.4236190801857) rotate(0 -230.47742871198489 -365.5041305568161)"/></g><g><path fill="none" stroke="#000" stroke-dasharray="1.5 8" stroke-width="4.5" d="M-441.19 -713.11 C-440.95 -715.54, -446.59 -721.93, -466.61 -728.31" transform="translate(1628.2055672886108 1410.4236190801857) rotate(0 -230.47742871198489 -365.5041305568161)"/></g><g><path fill="none" stroke="#000" stroke-dasharray="1.5 8" stroke-width="4.5" d="M-458.52 -702.12 C-454.52 -707.26, -456.28 -716.1, -466.61 -728.31" transform="translate(1628.2055672886108 1410.4236190801857) rotate(0 -230.47742871198489 -365.5041305568161)"/></g></g><g stroke-linecap="round"><path fill="#ced4da" stroke="none" stroke-width="0" d="M68.34 6.55 C74.7 10.31, 81.41 18.34, 84.59 25.24 C87.77 32.13, 88.64 40.61, 87.43 47.92 C86.23 55.24, 83.17 63.95, 77.38 69.13 C71.58 74.31, 60.37 77.99, 52.69 79.01 C45.01 80.03, 38.47 77.73, 31.3 75.25 C24.13 72.77, 15 69.61, 9.69 64.12 C4.38 58.63, 0.02 49.74, -0.56 42.3 C-1.13 34.86, 2.14 25.49, 6.25 19.48 C10.36 13.46, 17.67 9.51, 24.1 6.19 C30.53 2.87, 34.01 -5.49, 44.83 -0.44 C55.64 4.6, 83.68 25.34, 88.98 36.47 C94.28 47.6, 77.21 66.59, 76.64 66.35 M50.7 -1.65 C58.6 -1.69, 64.25 4.6, 69.92 9.53 C75.6 14.46, 82.01 21.77, 84.77 27.95 C87.54 34.14, 88.4 40.15, 86.5 46.61 C84.6 53.08, 79.33 61.07, 73.36 66.75 C67.38 72.43, 58.47 79.25, 50.66 80.7 C42.84 82.16, 33.37 78.53, 26.46 75.47 C19.56 72.42, 13.27 67.88, 9.26 62.37 C5.24 56.87, 2.59 49.22, 2.35 42.43 C2.11 35.64, 4.45 27.98, 7.82 21.63 C11.18 15.27, 15.39 7.64, 22.53 4.33 C29.67 1.01, 46.24 2.35, 50.65 1.71 C55.07 1.07, 49.18 -0.1, 49.03 0.49" transform="translate(1034.6615717300438 1038.5899744374592) rotate(0 44.167076406409706 39.7503687657686)"/><path fill="none" stroke="#000" stroke-width="4" d="M38.8 2.23 C46.41 0.54, 55.86 -0.52, 63.24 1.89 C70.62 4.3, 78.69 10.25, 83.08 16.69 C87.46 23.13, 89.89 33, 89.56 40.56 C89.23 48.12, 85.52 56.06, 81.08 62.05 C76.64 68.03, 69.83 73.48, 62.93 76.45 C56.04 79.43, 47.46 81.18, 39.72 79.9 C31.98 78.62, 22.89 73.42, 16.49 68.77 C10.1 64.12, 3.73 58.79, 1.35 52 C-1.03 45.21, 0.02 34.88, 2.22 28.04 C4.41 21.2, 5.05 14.9, 14.53 10.96 C24 7.03, 48.45 3.58, 59.07 4.45 C69.7 5.31, 78.15 15.87, 78.29 16.15 M14.33 9.92 C19.9 5.07, 30.21 1.98, 38.24 1.39 C46.26 0.79, 55.59 3.83, 62.48 6.35 C69.38 8.88, 75.04 11.15, 79.6 16.52 C84.15 21.89, 89.93 30.61, 89.82 38.57 C89.7 46.52, 83.26 58.32, 78.91 64.27 C74.55 70.23, 70.64 71.52, 63.7 74.28 C56.76 77.04, 45.89 81.41, 37.26 80.84 C28.63 80.27, 17.35 75.53, 11.9 70.85 C6.44 66.17, 6.29 60.04, 4.54 52.75 C2.78 45.46, -0.61 34.69, 1.39 27.13 C3.39 19.57, 13.67 10.13, 16.55 7.39 C19.43 4.65, 18.6 9.38, 18.66 10.68" transform="translate(1034.6615717300438 1038.5899744374592) rotate(0 44.167076406409706 39.7503687657686)"/></g><g><text x="10.5" y="23" fill="#000" direction="ltr" font-family="Virgil, Segoe UI Emoji" font-size="25.637" text-anchor="middle" style="white-space:pre" transform="translate(1068.3286481364512 1061.8403432032273) rotate(0 10.5 16.5)">G</text></g><g stroke-linecap="round"><g><path fill="none" stroke="#000" stroke-dasharray="8 12" stroke-width="4.5" d="M-2.45 2.35 C-3.67 18.88, -7.17 83.76, -8.55 100.77" transform="translate(1085.4953148031182 935.0070098698948) rotate(0 -5.49850435592225 51.5629019393275)"/></g><g><path fill="none" stroke="#000" stroke-width="4.5" d="M-13.56 74.04 C-18.11 78.47, -10.71 86.85, -5.26 99.28" transform="translate(1085.4953148031182 935.0070098698948) rotate(0 -5.49850435592225 51.5629019393275)"/></g><g><path fill="none" stroke="#000" stroke-width="4.5" d="M6.91 75.4 C-2.88 79.12, -0.72 87.15, -5.26 99.28" transform="translate(1085.4953148031182 935.0070098698948) rotate(0 -5.49850435592225 51.5629019393275)"/></g></g></svg>