<svg xmlns="http://www.w3.org/2000/svg" viewBox="0 0 1482.092 930" width="2964.184" height="1860" filter="invert(93%) hue-rotate(180deg)" xmlns:v="https://vecta.io/nano"><style><![CDATA[.B{font-family:Virgil, Segoe UI Emoji}.C{font-size:36px}.D{fill:#000}.E{text-anchor:middle}.F{direction:ltr}.G{stroke-width:4}.H{fill:none}.I{stroke-linecap:round}.J{fill:#fd7e14}.K{stroke:#087f5b}.L{stroke:#000}.M{fill:#868e96}.N{fill:#82c91e}]]></style><defs><style>@font-face{font-family:"Virgil";src:url("https://excalidraw.com/Virgil.woff2")} @font-face{font-family:"Cascadia";src:url("https://excalidraw.com/Cascadia.woff2")} @font-face{font-family:"Virgil";src:url("https://excalidraw.com/Virgil.woff2")} @font-face{font-family:"Cascadia";src:url("https://excalidraw.com/Cascadia.woff2")}</style></defs><path fill="#e3fafc" d="M0 0h1482.092v930H0z"/><path d="M2.19-1.16l1375.03 3.89M-.06-4.25L1382.11-.8" transform="translate(82 393)" class="G H I L"/><path d="M1.25 1.47l1369.27 6.4M-1.52-.2l1377.64 4.07" transform="translate(95.974 692.76)" class="G H I L"/><g transform="matrix(1 0 0 1 392 113)"><path d="M48.76 1.35c6.79 1.34 17.08 7.96 22.26 13.42 5.18 5.45 7.93 12.5 8.83 19.32s-.34 15.57-3.43 21.6c-3.08 6.03-8.95 10.56-15.08 14.56-6.13 3.99-14.9 8.86-21.71 9.4-6.8.55-13.26-2.29-19.12-6.15-5.87-3.86-13.02-10.53-16.05-17.03-3.04-6.5-3.23-15.2-2.14-21.96 1.09-6.77 4.67-12.84 8.67-18.61C15 10.13 17 .63 26.35-.13c9.34-.76 32.21 6.75 40.71 11.45 8.49 4.7 10.59 16.35 10.27 16.76M11.12 10.86c4.28-4.93 10.36-5.76 17.5-7.39 7.15-1.64 18.01-3.84 25.37-2.42 7.36 1.41 14.8 5.41 18.8 10.88 3.99 5.48 4.65 14.41 5.2 21.97.54 7.55.73 16.54-1.95 23.35-2.69 6.8-8.27 13.76-14.16 17.48-5.88 3.73-13.95 5.81-21.16 4.88-7.2-.93-16.05-6.05-22.08-10.46-6.03-4.42-11.02-9.67-14.12-16.02S-.6 38.19.02 31.05s6.05-17.57 8.21-20.76c2.15-3.18 3.79.39 4.72 1.67" class="J"/><path d="M12.15 13.86C16.63 8.34 23.12 2.58 30.21.61c7.09-1.96 17.53-1 24.48 1.45 6.96 2.46 12.85 7.49 17.25 13.28 4.4 5.78 8.28 14.33 9.14 21.41.85 7.09-.64 14.86-4.01 21.1-3.36 6.24-10.05 12.93-16.18 16.34-6.13 3.4-13.38 4.46-20.61 4.08s-16.79-2.23-22.78-6.35c-6-4.12-10.46-11.75-13.17-18.37-2.71-6.63-8.47-12.5-3.12-21.37C6.57 23.31 25.66 4.21 36.46.31s29.53 7.76 29.55 8.46M57.65 2.3c6.62 3.2 17.15 11.67 20.39 18.44 3.23 6.77-.35 15.58-1 22.16s1.42 11.85-2.91 17.33S57.9 72.8 51.06 75.77c-6.83 2.96-11.67 3.52-17.96 2.26-6.28-1.25-14.66-4.16-19.76-9.81-5.09-5.65-8.79-16.88-10.8-24.07-2.01-7.2-3.35-13.33-1.26-19.11C3.37 19.25 8.5 13.79 15.05 9.42c6.56-4.37 18.16-9.67 25.57-10.6 7.4-.93 15.92 3.8 18.88 5.02 2.95 1.23-.77 1.47-1.16 2.31" class="G H I K"/></g><g transform="matrix(1 0 0 1 417.5 129.5)" class="B C D E F"><text x="14.5" y="32" style="white-space:pre">G</text></g><g transform="matrix(1 0 0 1 632 96)"><path d="M12.03 10.2c4.86-4.68 13.1-6.89 20.45-8.42s16.93-3.23 23.66-.74c6.74 2.48 13.01 9.86 16.74 15.64 3.74 5.79 5.48 11.9 5.67 19.05.18 7.15-1.31 17.65-4.55 23.85s-8.79 10.51-14.89 13.35c-6.09 2.85-14.46 4.53-21.68 3.7-7.23-.83-15.98-4.53-21.68-8.68-5.71-4.15-10.32-9.94-12.57-16.21-2.24-6.27-6-13.2-.91-21.41S24.62 6.64 33.73 2.48c9.12-4.17 23.07 2.73 23.24 2.87m-43.49 5.4c4.32-4.82 11.62-8.1 18.7-9.21s17.46.23 23.77 2.55c6.3 2.31 10.43 6.08 14.06 11.33 3.64 5.26 6.64 12.94 7.75 20.18 1.11 7.23 2.32 17.25-1.1 23.25-3.43 6-12.77 9.14-19.46 12.73-6.69 3.58-14.3 9.48-20.66 8.79S24.43 72 19.03 67.44c-5.41-4.56-11.81-8.25-14.94-14.43C.96 46.84-.71 36.88.27 30.39c.97-6.49 7.35-13.68 9.65-16.32 2.3-2.63 3.12.77 4.13.5" class="J"/><path d="M69.54 11.17c4.94 4.09 7.93 10.85 9.13 17.85 1.19 7.01.09 17.53-1.97 24.19-2.07 6.66-4.69 11.84-10.44 15.77-5.74 3.93-16.25 7.16-24.01 7.81-7.75.66-16.32-.57-22.53-3.88-6.2-3.32-11.21-10.19-14.68-16-3.47-5.82-6.62-12.13-6.14-18.9.49-6.77 4.62-15.92 9.05-21.72C12.39 10.5 18.58 5.56 25.53 3.27 32.48.97 42.05.23 49.67 2.54c7.61 2.31 17 10.96 21.56 14.59 4.57 3.64 5.91 6.67 5.83 7.23M12.18 13.58C17.26 8.61 28.26 1.73 34.99.38c6.72-1.35 11.35 2.56 17.56 5.11s15.52 4.65 19.7 10.2c4.19 5.55 4.71 15.91 5.42 23.1.72 7.2 2.21 13.84-1.13 20.08-3.35 6.24-12.22 14.59-18.94 17.35-6.72 2.75-14.26.11-21.37-.82s-15.8-1.22-21.3-4.77c-5.51-3.54-9.5-9.25-11.72-16.49C.99 46.89.39 34.17 1.61 27.17s6.71-12.02 8.89-15.05c2.18-3.04 3.26-3.21 4.16-3.18" class="G H I K"/></g><g transform="matrix(1 0 0 1 657.5 112.5)" class="B C D E F"><text x="14.5" y="32" style="white-space:pre">G</text></g><g transform="matrix(1 0 0 1 998 10)"><path d="M31.14.66c6.45-2.09 17.62-1.69 24.29.94 6.66 2.63 11.48 8.63 15.7 14.84 4.21 6.22 9.21 15.09 9.59 22.46s-3.29 15.79-7.31 21.76C69.4 66.63 63.17 71.7 56.62 74.73c-6.55 3.04-15.59 4.88-22.5 4.15-6.91-.74-13.77-3.98-18.97-8.56-5.21-4.57-10.26-12.19-12.24-18.9-1.99-6.71-1.53-14.64.33-21.38C5.09 23.3 7.1 16.18 14.03 10.98 20.97 5.78 37.41-.01 44.87-1.14c7.47-1.13 13.67 4.52 13.95 5.34M52.08-.6c6.63.51 12.96 5.5 17.44 11.28s8.01 16.47 9.42 23.41 2.08 12.16-.94 18.25c-3.03 6.09-11.46 13.52-17.23 18.28-5.78 4.76-10.01 9.75-17.42 10.28s-20.55-2.84-27.06-7.1C9.78 69.55 7.02 62.23 4.28 55.36s-5.66-16.2-4.41-22.77c1.25-6.56 6.81-11.75 11.9-16.62C16.86 11.09 24.26 6 30.4 3.36 36.55.71 45.02.8 48.64.12c3.63-.68 3.52-1.77 3.51-.85" class="J"/><path d="M35.29 2.24c6.73-1.54 14.1-2.28 20.3.05 6.21 2.32 12.95 7.82 16.92 13.89 3.97 6.08 6.91 15.45 6.9 22.55-.01 7.11-3.4 14.08-6.97 20.08S64.26 71.6 57.96 74.74c-6.29 3.15-16.07 3.68-23.31 2.94-7.25-.74-14.94-2.5-20.14-7.39-5.2-4.88-8.97-15.05-11.08-21.91C1.31 41.52.02 35.44 1.8 29.16c1.78-6.29 2.71-14.05 12.29-18.48S49.27.99 59.28 2.59c10.01 1.59 15.41 16.53 14.88 17.66m1.19-4.08c4.43 5.08 3.94 11.31 4.15 18.64.21 7.34.53 19.08-2.88 25.38-3.42 6.31-11.33 9.55-17.61 12.45-6.28 2.89-12.37 5.51-20.06 4.92s-20.09-4.31-26.08-8.45-8.24-9.94-9.85-16.39-.87-15.04.2-22.3c1.06-7.26 1.16-16.65 6.21-21.28 5.04-4.63 16.94-5.59 24.07-6.5 7.14-.9 12.44-1.36 18.71 1.09S67.7 15.52 71.1 17.32s2.26-2.87 1.51-2.8" class="G H I K"/></g><g transform="matrix(1 0 0 1 1023.5 26.5)" class="B C D E F"><text x="14.5" y="32" style="white-space:pre">G</text></g><g transform="matrix(1 0 0 1 698 202)"><path d="M39.21.74c7.28-.45 16.82.92 23.27 4.36 6.44 3.43 12.4 9.96 15.39 16.24 2.99 6.27 3.61 14.2 2.56 21.41-1.05 7.22-4.23 16.14-8.86 21.89S59.7 74.93 52.65 77.23c-7.04 2.31-16.37 3.12-23.34 1.24-6.97-1.87-13.78-6.72-18.48-12.49-4.71-5.77-8.26-15.17-9.75-22.16-1.49-6.98-1.89-13.7.81-19.73C4.6 18.05 9.31 11.31 17.31 7.6c8-3.7 25.41-5.71 32.59-5.73 7.19-.02 10.41 5.3 10.5 5.63M39.89 1.28C46.72.29 52.34.01 58.19 3.77s12.7 14.01 16.78 20.07c4.09 6.07 8.09 9.68 7.73 16.31s-4.82 17.57-9.91 23.47-13.24 9.27-20.61 11.9c-7.37 2.64-17.03 5.1-23.61 3.89-6.59-1.22-11.48-5.33-15.88-11.18-4.39-5.84-8.68-16.89-10.5-23.9s-2.45-11.81-.44-18.15c2-6.34 6.26-15.34 12.46-19.89S35.06.01 38.94-1.14c3.89-1.15-.94-.19-1.42.53" class="J"/><path d="M20.96 3.3C27.05-.14 37.45-2.15 44.68-1s14.05 6.46 19.68 11.19c5.62 4.73 11.7 10.61 14.08 17.2 2.39 6.6 1.88 15.32.24 22.37-1.65 7.04-4.45 15.25-10.09 19.91-5.64 4.65-16.53 7.09-23.76 8.02-7.23.92-13.46.11-19.62-2.48-6.15-2.58-12.85-7.08-17.3-13.03-4.46-5.94-9.01-15.37-9.44-22.63s-3.55-15.43 6.85-20.9C15.73 13.17 48.7 4.28 60.92 6.68c12.23 2.41 18.04 26.18 17.75 26.41M35.81 1.05c6.9-1.4 13.34 2.69 19.58 5.06s13.85 3.57 17.85 9.14c4.01 5.58 5.93 16.51 6.17 24.3.25 7.79-1.05 17.12-4.72 22.43-3.67 5.32-10.32 6.67-17.29 9.47s-17.61 8.23-24.52 7.33-11.92-7.74-16.96-12.74c-5.03-5-11.04-11.08-13.27-17.26s-1.55-12.85-.1-19.81 3.7-17.04 8.81-21.96S29.49.5 33.21-.55c3.73-1.06-.02.2.51 1.23" class="G H I K"/></g><g transform="matrix(1 0 0 1 723.5 218.5)" class="B C D E F"><text x="14.5" y="32" style="white-space:pre">G</text></g><g transform="matrix(1 0 0 1 1186 184)"><path d="M60.57 7.04c5.96 3.08 11.17 10.53 14.4 16.97s5.62 14.88 4.97 21.69-4.4 13.9-8.87 19.16C66.6 70.13 60 75.25 53.12 77.28c-6.88 2.02-15.9 2.13-23.31-.27-7.42-2.4-16.44-8.57-21.18-14.13-4.74-5.55-6.64-12.43-7.26-19.21-.63-6.78.58-15.28 3.52-21.46 2.93-6.19 8-12.14 14.1-15.66 6.1-3.51 13.31-7.82 22.5-5.44S68.1 14.37 74.15 20.84c6.04 6.47 3.82 18.62 3.61 19.07M17.05 11.79c4.72-4.29 8.64-8.58 15.43-9.99C39.28.39 50.95.78 57.83 3.33c6.88 2.54 11.82 7.29 15.94 13.71s8.49 17.24 8.79 24.8c.31 7.57-2.17 15.3-6.95 20.6-4.77 5.3-14.97 9.18-21.7 11.21s-11.73 1.85-18.67.97-17.13-1.84-22.98-6.26C6.42 63.95 2.13 55.43.17 48.13s-1.94-17.2.33-23.56c2.28-6.36 10.83-12.39 13.33-14.59 2.5-2.19.73.95 1.66 1.42" class="J"/><path d="M38.5.41c7.04-.79 14.78.85 20.99 4.48 6.21 3.62 12.59 11.38 16.28 17.26 3.7 5.88 6.49 11.13 5.89 18.02-.61 6.89-4.93 17.24-9.5 23.32-4.56 6.08-11.34 11.15-17.91 13.16s-14.35.68-21.5-1.11c-7.16-1.78-16.13-5.17-21.44-9.61S2.03 55.72.89 48.9 2.15 31.56 4.47 25c2.31-6.55 3.39-11.28 10.31-15.42C21.69 5.43 39.64.97 45.98.15c6.33-.81 6.69 3.8 6.81 4.56m-28.3-3.16c5.97-2.5 18-1.39 25.76.46C58.02 3.86 66.72 8 71.07 12.66s4.09 10.17 5.29 17.31c1.2 7.13 4.53 18.51 1.9 25.48-2.62 6.96-11.37 12.38-17.67 16.29-6.31 3.92-13.51 7.42-20.16 7.21-6.64-.2-13.29-4.62-19.74-8.44C14.25 66.68 5.34 61.95 1.76 56S-1.85 41.37-.8 34.81c1.05-6.57 4-12.29 8.85-18.22C12.9 10.67 25.09 1.57 28.3-.72c3.2-2.3-.63 2.93-1 3.57" class="G H I K"/></g><g transform="matrix(1 0 0 1 1211.5 200.5)" class="B C D E F"><text x="14.5" y="32" style="white-space:pre">G</text></g><g transform="matrix(1 0 0 1 1172 68)"><path d="M14.4 10.82c4.59-4.59 12.48-7.32 19.56-8.38 7.09-1.06 16.28-.29 22.94 2.03s13.46 6.07 17.05 11.89c3.58 5.82 4.59 15.62 4.47 23.03-.13 7.41-1.6 15.54-5.22 21.43-3.63 5.89-10.23 10.9-16.54 13.94s-14.46 5.5-21.34 4.3c-6.89-1.2-14.35-6.51-19.95-11.5S4.09 55.45 1.71 49.12c-2.37-6.33-5.2-11.41-.6-19.55C5.72 21.43 22.09 5.07 29.35.27c7.26-4.81 14.98-.73 15.3.44M6.9 15.8c3.01-5.36 9.58-8.41 16.69-10.5 7.12-2.09 18.4-2.67 26.01-2.03s14.98 1.09 19.66 5.87c4.69 4.78 7.49 15.79 8.43 22.79.94 7.01-.68 13.12-2.78 19.23-2.09 6.11-4.42 13.23-9.78 17.44-5.37 4.21-14.73 7.12-22.42 7.82-7.68.71-17.64-.65-23.7-3.6S9.2 64.33 6.36 58.73c-2.84-5.59-4.73-12.68-4.39-19.46.35-6.78 5.43-17.49 6.46-21.22s-.7-1.08-.27-1.15" class="J"/><path d="M45.87 1.98c6.58.08 11.88 2.63 17.39 6.79s12.9 11.32 15.67 18.18c2.76 6.85 3.12 16.24.93 22.94-2.18 6.7-8.51 12.67-14.04 17.25s-12.59 8.57-19.14 10.22c-6.54 1.64-13.51 2.52-20.13-.38C19.93 74.09 11.08 66.09 6.97 60 2.86 53.9 2.19 47.47 1.9 40.42S1.67 23.55 5.23 17.7c3.56-5.84 7.81-10.88 18.04-12.35s33.91-.52 43.34 3.51c9.42 4.02 13.97 20.09 13.19 20.63M51.04-1.56c6.33 1.07 11.92 10.3 16.97 15.57 5.06 5.27 11.78 9.56 13.39 16.07 1.61 6.5-.71 15.96-3.73 22.96-3.01 7-7.85 15.34-14.37 19.05-6.52 3.72-17.23 3.37-24.75 3.23-7.51-.14-14.5-.76-20.34-4.08S6.2 61.33 3.5 55.39 1.54 42.46 2.02 35.58c.48-6.87.05-15.43 4.37-21.42C10.7 8.17 21.03 1.91 27.93-.33S43.86.02 47.77.71c3.91.7 3.57 1.99 3.62 3.13" class="G H I K"/></g><g transform="matrix(1 0 0 1 1197.5 84.5)" class="B C D E F"><text x="14.5" y="32" style="white-space:pre">G</text></g><g transform="matrix(1 0 0 1 520 172)"><path d="M46.04.91c6.37-.13 12.94 2.25 18.45 6.51s12.06 12.16 14.62 19.04 2.68 15.26.72 22.25c-1.96 6.98-7.16 14.66-12.48 19.64S55.32 77.53 47.9 78.59c-7.41 1.06-17.96-.84-25.05-3.86C15.77 71.7 9.03 66.1 5.39 60.42S1.15 47.8 1.01 40.65C.86 33.5 1 23.39 4.53 17.54c3.52-5.86 6.38-11 17.62-12.03s40.15.19 49.83 5.84 9.13 27.38 8.24 28.08M20.85 7.75c4.73-4.59 10.21-8.24 17.32-8.98 7.11-.73 19.11.48 25.35 4.56 6.23 4.09 9.58 13.26 12.06 19.97 2.49 6.71 3.97 13.84 2.85 20.29s-4.93 12.77-9.58 18.42c-4.64 5.65-11.67 12.77-18.28 15.49-6.61 2.73-14.98 2.86-21.38.86-6.41-2.01-12.58-7.24-17.07-12.87s-8.5-13.83-9.88-20.9C.85 37.51 1.28 29.46 3.8 23.04 6.33 16.62 14.54 8.99 17.4 6.05c2.86-2.93 3.14-1.44 3.56-.61" class="J"/><path d="M9.9 14.83C14.09 8.96 22.94 2.47 29.72.15c6.78-2.31 14.14-1.69 20.85.77 6.71 2.45 14.25 8.66 19.39 13.98 5.15 5.31 10.6 10.94 11.47 17.91.88 6.97-2.97 17.49-6.24 23.9-3.26 6.42-7.28 10.82-13.33 14.59-6.05 3.76-15.97 7.8-22.97 7.99s-13.05-3.2-19.01-6.86C13.92 68.78 6.4 64.05 3.12 57.35-.17 50.64-7.04 41.58.17 32.2 7.38 22.83 33.52 2 46.37 1.09c12.84-.9 30.84 25.46 30.86 25.69M16.17 6.91C21.24 2.75 31.25 1.46 39.01 1s17.9-.38 23.72 3.18c5.81 3.56 8.53 11.45 11.17 18.18 2.63 6.72 5.39 14.8 4.64 22.17S73.8 61.74 69.4 66.6c-4.39 4.86-10.38 5.47-17.22 7.08-6.83 1.61-16.31 4.62-23.79 2.59-7.47-2.04-16.27-9.61-21.06-14.79C2.55 56.31 0 51.96-.31 45.22c-.3-6.74 2.25-17.36 5.84-24.19 3.58-6.83 13.2-14.04 15.68-16.8 2.47-2.77-1.06-.73-.84.2" class="G H I K"/></g><g transform="matrix(1 0 0 1 545.5 188.5)" class="B C D E F"><text x="14.5" y="32" style="white-space:pre">G</text></g><g transform="matrix(1 0 0 1 758 62)"><path d="M18.91 6.63C24.7 2.7 33.64.26 41.04.56c7.4.29 16.1 4.12 22.28 7.84s12.13 8.44 14.78 14.47c2.66 6.04 2.71 14.44 1.17 21.73-1.55 7.3-5.64 16.91-10.41 22.05s-11.13 7.31-18.24 8.79c-7.11 1.47-17.72 1.74-24.42.06-6.7-1.69-11.13-4.93-15.77-10.17C5.78 60.1-.68 51.47-1.68 44.09c-.99-7.38-1.71-15.58 6.15-23.06C12.32 13.56 34.47.4 45.45-.74 56.44-1.89 70.17 13.17 70.4 14.17M14.96 5.79c5.68-4.68 17.36-6.72 24.89-6.95C47.38-1.4 54.5.64 60.13 4.41c5.63 3.76 10.03 10.37 13.47 17.01s7.35 15.36 7.19 22.84c-.17 7.49-3.53 16.43-8.18 22.06-4.66 5.63-12.56 9.97-19.76 11.72s-16.39 1.1-23.46-1.22c-7.07-2.31-14.12-7.79-18.96-12.68-4.85-4.9-8.67-9.82-10.09-16.7s-1.62-17.52 1.55-24.56C5.05 15.83 16.68 8.23 19.33 5.17c2.66-3.06-1.17-1.91-1.53-.68" class="J"/><path d="M64.82 8.85c6.2 4.18 12.71 13.6 14.98 20.07 2.26 6.46.44 12.25-1.39 18.71-1.82 6.46-4.22 15.33-9.54 20.05-5.33 4.71-15.22 6.85-22.42 8.25s-14.28 2.74-20.79.13c-6.52-2.6-14.33-9.74-18.3-15.77-3.98-6.03-5.02-13.45-5.55-20.43-.54-6.98-1.19-15.57 2.34-21.45 3.52-5.88 11.82-10.87 18.8-13.84C29.93 1.61 36.99-3.59 46.03.63c9.05 4.22 26.24 19.78 31.18 29.29s-.93 27.34-1.55 27.76M19.25 1.75c5.51-3.86 16.04-3.57 23.52-2.58C50.25.17 58 3 64.12 7.71c6.11 4.71 13.35 12.98 15.34 19.72 1.99 6.73-1.45 14.43-3.4 20.69-1.96 6.25-3.18 12.09-8.35 16.84S51.92 74.6 45.03 76.61c-6.88 2.01-12.13 2.45-18.61.39-6.48-2.07-15.58-6.99-20.26-12.78-4.68-5.8-7.32-14.85-7.83-22-.52-7.14.8-14.85 4.75-20.89S18.69 8.63 22.05 5.99s.48-1.04 1.19-.51" class="G H I K"/></g><g transform="matrix(1 0 0 1 783.5 78.5)" class="B C D E F"><text x="14.5" y="32" style="white-space:pre">G</text></g><g transform="matrix(1 0 0 1 822 208)"><path d="M31.57 2.3c6.2-2.25 13.48-2.35 19.85-.36s13.47 6.68 18.36 12.31c4.89 5.64 10.24 14.63 11 21.5s-2.94 13.3-6.43 19.72c-3.48 6.41-8.84 15.32-14.49 18.75-5.66 3.44-12.48 2.37-19.44 1.86-6.95-.51-15.98-1.15-22.28-4.9C11.83 67.42 5.7 59.81 2.59 53.56-.51 47.32-2.06 40.29-.49 33.71c1.57-6.59 3.6-14.14 12.5-19.66S43.46.41 52.9.59c9.45.17 16.45 13.79 15.77 14.52M45.91-1.83c6.9 1.02 15.21 7.99 20.76 13.54s10.29 13 12.54 19.78c2.25 6.79 3.06 14.61.98 20.94-2.08 6.34-7.46 12.8-13.45 17.06-5.99 4.25-14.85 7.81-22.48 8.5-7.63.68-17.2-.94-23.29-4.39-6.1-3.45-9.7-10.55-13.28-16.33S-.21 45.79-.52 38.93c-.3-6.85 2.61-16.3 6.4-22.78C9.66 9.66 14.81 2.84 22.18.04c7.37-2.79 24.09-1 27.92-.67 3.82.33-3.9 1.58-4.96 2.67" class="J"/><path d="M69.12 15.61c4.53 4.73 9.49 11.04 10.42 17.91s-1.98 16.83-4.82 23.31c-2.85 6.48-6.29 11.76-12.25 15.59s-16.08 7.78-23.51 7.37c-7.44-.41-15.1-5.75-21.08-9.82C11.9 65.91 5.87 61.31 3.07 55.4c-2.8-5.92-3.22-13.55-2-20.91s4.83-17.88 9.32-23.26c4.48-5.37 10.5-7.11 17.58-8.99C35.06.36 44.49-3.94 52.92-.04c8.43 3.89 21.16 18.72 25.64 25.67s2.23 15.95 1.24 16.02M28.33 3.27c6.81-2.79 17.4-6.23 24.42-4.52C59.76.47 66.29 8.18 70.41 13.53s6.18 10.18 7.06 17.32c.88 7.15.58 18.97-1.79 25.58-2.37 6.6-6.88 10.77-12.44 14.08s-13.62 5.92-20.92 5.76-16.69-3.28-22.87-6.72S8.14 61.44 5.23 55.63 1.16 41.24 1.99 34.69c.84-6.56 3.55-13.16 8.23-18.39S26.8 5.92 30.09 3.32c3.3-2.6.34-3.2-.08-2.63" class="G H I K"/></g><g transform="matrix(1 0 0 1 847.5 224.5)" class="B C D E F"><text x="14.5" y="32" style="white-space:pre">G</text></g><g transform="matrix(1 0 0 1 362 218)"><path d="M15.53 8.89C20.8 4.44 30.72-.48 37.78-1.26 44.85-2.04 51.45.31 57.93 4.2S73.3 15.68 76.65 22.08s2.09 13.91 1.37 20.53-1.67 13.91-5.69 19.19c-4.02 5.29-11.96 9.77-18.45 12.53s-13.75 5.15-20.47 4.05c-6.73-1.1-14.27-5.37-19.87-10.65C7.93 62.44 1.41 54-.22 46.66S-4 31.29 3.75 23.67 34.91 1.98 46.28.94C57.66-.11 72.16 17.1 71.98 17.41M31.94 3.54c6.46-1.95 14.99-1.6 21.51.25s13.2 5.88 17.61 10.88c4.42 5.01 8.13 11.83 8.89 19.15s-.83 18.41-4.31 24.76c-3.48 6.36-10.68 10.36-16.59 13.36-5.9 3-11.8 5.24-18.83 4.64-7.04-.6-16.72-4.92-23.38-8.22-6.67-3.3-13.68-5.21-16.6-11.58-2.92-6.38-2.75-18.8-.91-26.66s6.6-15.66 11.94-20.48C16.62 4.82 28.28 2.6 31.41 1.2c3.12-1.4-1.16-.75-1.39.02" class="J"/><path d="M39.23 1.22c6.93-.75 14.71 0 21.05 3.26 6.34 3.27 14.01 10.05 16.99 16.33 2.99 6.28 1.79 14.22.93 21.35-.87 7.13-2.2 15.76-6.13 21.43S61.85 74.13 54.63 76.17c-7.21 2.04-18.74 1.12-25.86-.35-7.11-1.48-11.89-3.74-16.85-8.51S.7 54.17-.98 47.17s-.2-14.96 2.83-21.86c3.02-6.89 6.04-15.97 15.3-19.49C26.4 2.3 48.01 1.89 57.37 4.2c9.37 2.31 16.06 14.63 15.98 15.49M57.4 1.76c6.43 2.29 10.06 9.61 14.01 16.25s9.63 16.04 9.69 23.59c.06 7.54-4.8 15.93-9.31 21.66-4.5 5.74-10.96 10.11-17.72 12.76-6.76 2.64-16.1 4.21-22.84 3.12-6.73-1.09-12.8-4.74-17.55-9.68-4.75-4.93-9.46-13.11-10.94-19.95s-.18-14.49 2.08-21.09c2.25-6.61 6.65-13.44 11.44-18.52C21.06 4.81 26.49-.89 33.6-2.08c7.1-1.19 21.07 3.83 25.29 4.82s.43.23.03 1.12" class="G H I K"/></g><g transform="matrix(1 0 0 1 387.5 234.5)" class="B C D E F"><text x="14.5" y="32" style="white-space:pre">G</text></g><g transform="matrix(1 0 0 1 1036 124)"><path d="M55.71 4.97c7.04 2.07 15.4 5.04 19.62 10.66 4.22 5.63 6 15.8 5.69 23.1s-3.35 14.47-7.53 20.68C69.3 65.63 62.15 72.68 55.9 76S42.79 80.75 36 79.35c-6.78-1.4-14.98-7.15-20.82-11.75C9.33 62.99 3.53 58.33.94 51.73c-2.6-6.61-3.48-16.68-1.33-23.79 2.14-7.11 8.6-14.15 14.21-18.89 5.6-4.74 9.77-10.85 19.42-9.53S63.92 10.44 71.7 16.97s8.29 21.02 8.23 21.72M52.09 1.95c6.25 1.43 12.66 6.69 17.63 11.81 4.97 5.11 11.19 11.6 12.17 18.86.97 7.26-2.62 18.17-6.32 24.69-3.7 6.51-9.39 11.43-15.88 14.4-6.48 2.97-16.53 3.7-23.05 3.45-6.51-.26-10.14-1.66-16.02-4.98-5.89-3.32-15.48-8.94-19.31-14.93s-5.14-13.94-3.66-21.02C-.88 27.15 5 18.44 10.15 12.8S21.48 2.47 28.57.39C35.66-1.7 48.59.16 52.7.3c4.11.15 1.34.33.52.97" class="J"/><path d="M48.06-.8c6.86.63 14.38 7.12 19.64 12.57 5.26 5.44 10.23 13.64 11.93 20.08 1.71 6.45 1.07 12.09-1.69 18.58-2.76 6.5-9.28 16.1-14.87 20.39s-11.77 5.07-18.66 5.33-16.25-.8-22.7-3.76C15.26 69.44 9.54 64.68 5.69 58.4c-3.86-6.28-7.37-16.5-7.11-23.7s4.19-14.1 8.67-19.52C11.73 9.77 14.1 1.44 25.46 2.2S67 11.86 75.39 19.74c8.39 7.89 1.17 29.83.41 29.78M10.22 13.6C14.52 7.53 22.56 2.9 29.28.45s14.37-3.58 21.25-1.56S65.51 6.9 70.56 12.57c5.05 5.66 9.11 13.03 10.27 20.33 1.16 7.29-.58 16.85-3.3 23.45s-7.25 12.81-13.02 16.14c-5.76 3.33-13.78 3.56-21.58 3.86s-18.62.86-25.22-2.07S6.38 65.14 3.33 58.79C.29 52.43-1.54 43.13-.57 36.17s7.81-15.36 9.7-19.14c1.9-3.78 1.27-3.23 1.67-3.53" class="G H I K"/></g><g transform="matrix(1 0 0 1 1061.5 140.5)" class="B C D E F"><text x="14.5" y="32" style="white-space:pre">G</text></g><g transform="matrix(1 0 0 1 326 443)"><path d="M52.18 16.85C63.21 11.18 79.72 6.82 96.66 3.82s38.4-5.09 57.14-5c18.74.1 37.74 3.16 55.29 5.58s35.26 5.1 50 8.93c14.74 3.82 28.07 8.22 38.41 14.04 10.35 5.81 19.27 13.33 23.66 20.83 4.38 7.51 4.55 16.5 2.66 24.21-1.9 7.72-5.92 15.16-14.04 22.1-8.11 6.94-21.14 14.18-34.63 19.53-13.49 5.36-29.34 9.77-46.29 12.6-16.96 2.83-36.88 4.16-55.43 4.38-18.56.23-37.74-1.06-55.9-3.05s-38.24-4.48-53.08-8.88c-14.84-4.39-25.8-10.79-35.96-17.5C18.34 94.88 8.33 85.95 3.51 78.83c-4.82-7.13-6-12.99-3.92-19.98 2.07-7-2.53-12.68 16.37-22.02S84.41 8.57 112.98 2.81s73.72-1.65 74.4-.53M79.83 12.36c13.62-4.1 30.58-9.16 48.7-11.05 18.13-1.89 41.59-1.55 60.06-.28 18.46 1.27 34.85 4.5 50.74 7.92 15.89 3.41 32.44 7.03 44.6 12.56 12.17 5.53 21.73 13.32 28.4 20.62 6.66 7.31 10.28 16.08 11.61 23.19 1.33 7.1 1.8 12.39-3.65 19.43-5.45 7.05-17.18 16.86-29.05 22.81-11.87 5.96-26.33 9.51-42.19 12.92-15.86 3.4-34.84 5.85-52.97 7.52-18.12 1.67-37.54 3.8-55.78 2.5-18.23-1.29-36.98-6.38-53.63-10.26-16.65-3.89-33.54-8.16-46.26-13.05C27.7 102.3 17.04 97.42 10.4 90.9 3.76 84.37 1.02 75.51.57 68.06s1.01-15.05 7.12-21.87c6.12-6.82 17.89-12.8 29.57-19.05 11.68-6.26 33.67-16.2 40.52-18.48 6.85-2.29-.33 3.55.59 4.78" class="M"/><path d="M199.88 1.63c17.74.46 35.62 2.97 51.15 7.34 15.54 4.38 30.44 12.8 42.06 18.91 11.63 6.1 22.47 10.79 27.69 17.72 5.22 6.94 5.17 16.48 3.63 23.89-1.53 7.4-5.5 14.13-12.84 20.54s-18.7 12.72-31.19 17.92-27.44 9.91-43.75 13.29-35.55 6.11-54.1 6.98c-18.56.87-39.08-.33-57.22-1.76s-35.78-3.12-51.6-6.81c-15.83-3.7-32.46-9.49-43.36-15.37-10.9-5.89-16.94-12.86-22.06-19.95-5.13-7.09-9.35-15.02-8.67-22.59s5.42-16.06 12.77-22.85c7.35-6.78 18.52-12.49 31.34-17.87 12.82-5.37 28.7-11.21 45.58-14.36 16.89-3.16 29.83-4.6 55.73-4.57 25.9.04 77.57 1.74 99.68 4.77 22.12 3.03 34.6 12.37 33 13.4m-226.67-.55C61.96 13.8 79.14 5.78 95.89 2.49s36.67-3.05 55.67-2.52 40.54 4.06 58.33 5.72c17.8 1.67 33.94-.07 48.43 4.26 14.49 4.34 28.42 15.32 38.51 21.76 10.08 6.44 16.83 10.33 21.99 16.89 5.17 6.56 11.15 14.48 8.99 22.46-2.16 7.99-12.61 18.71-21.95 25.45-9.34 6.75-20.61 10.43-34.11 15.03-13.49 4.59-30.39 9.54-46.86 12.55-16.47 3.02-34.01 5.37-51.96 5.55-17.95.19-38.26-2.38-55.74-4.43-17.49-2.05-33.66-3.66-49.18-7.89-15.53-4.22-33.57-11.2-43.97-17.45C13.64 93.61 9.9 87.31 5.63 79.8c-4.28-7.52-9.14-18.19-7.24-25.03C.28 47.93 8.52 45.28 17 38.74c8.48-6.55 26.53-20.06 32.27-23.27s-.13 3.04 2.15 4" class="G H I L"/></g><g transform="matrix(1 0 0 1 425.5 485.5)" class="B C D E F"><text x="63.5" y="32" style="white-space:pre">Thread</text></g><g transform="matrix(1 0 0 1 743 460)"><path d="M170.48.32c17.48-.93 37.36 2.29 54.74 5 17.39 2.72 35.43 6.56 49.57 11.28 14.15 4.71 27.12 10.22 35.28 16.99 8.17 6.78 12.02 15.76 13.71 23.66 1.68 7.9.26 16.32-3.59 23.75-3.86 7.42-9.64 15.09-19.54 20.8s-24.98 9.31-39.85 13.45-31.77 8.95-49.35 11.39c-17.59 2.45-37.49 3.28-56.15 3.27-18.66 0-38.6-.43-55.83-3.32-17.24-2.9-33.96-8.4-47.58-14.05-13.61-5.65-25.49-13.03-34.1-19.87C9.18 85.84 2.39 78.35.24 71.51c-2.15-6.83.52-12.64 4.65-19.85 4.12-7.2 9.8-16.69 20.12-23.4 10.31-6.71 26.79-12.92 41.76-16.87 14.97-3.96 28.97-4.87 48.05-6.86 19.07-1.99 53.16-4.67 66.39-5.06 13.22-.39 12.82 1.53 12.95 2.72M55.68 14.18C67.1 8.76 85.14 6.03 102.67 3.6c17.53-2.42 39.1-4.27 58.21-3.98 19.1.28 39.42 3.58 56.43 5.68s31.23 2.4 45.62 6.91c14.38 4.51 30.67 13.48 40.67 20.14 10 6.65 16.1 12.41 19.32 19.8 3.22 7.38 3.08 17.25 0 24.5s-9.88 12.45-18.5 18.99c-8.61 6.54-19.45 14.96-33.19 20.23-13.75 5.27-31.68 9.2-49.28 11.39-17.59 2.19-37.18 2.01-56.31 1.74-19.13-.28-41.29-1.38-58.47-3.41s-30.12-4.43-44.59-8.77c-14.46-4.34-32.59-10.37-42.2-17.27S7.99 83.27 4.95 75.44-.88 59.31 2.14 52.58s12.24-11.85 20.93-17.53c8.7-5.68 25.46-13.42 31.23-16.57 5.78-3.14 1.48-2.33 3.42-2.3" class="M"/><path d="M201.71.13c17.84 1 35.42 6.33 51.1 10.82s31.79 9.82 42.96 16.12 18.88 14.3 24.06 21.69c5.18 7.38 8.16 15.34 7.01 22.62-1.16 7.29-6.42 14.52-13.95 21.08-7.53 6.57-17.99 12.82-31.23 18.3-13.24 5.47-31.6 11.26-48.22 14.54-16.61 3.29-33.06 4.91-51.47 5.17-18.42.27-40.45-1.88-59.01-3.57-18.56-1.7-36.86-2.82-52.36-6.59s-29.79-9.78-40.63-16.03S10.23 90.04 5.54 82.81.71 68.21 1.83 60.91c1.12-7.31 3.35-15 10.45-21.94s19.3-14.6 32.15-19.71c12.85-5.1 27.77-7.63 44.94-10.93 17.16-3.29 35.02-8.58 58.05-8.85 23.04-.26 63.09 5.37 80.14 7.27 17.06 1.9 23.14 3.45 22.2 4.12m-101.12-8.4c18.18-1.86 42.56-2.69 60.83-.68 18.27 2 34.06 8.24 48.79 12.7 14.74 4.45 29.21 8.4 39.64 14.03 10.43 5.62 18.28 12.38 22.96 19.72 4.67 7.35 6.77 17.19 5.1 24.34-1.68 7.14-6.83 12.24-15.15 18.54-8.33 6.31-21.17 13.47-34.8 19.29s-30.3 12.22-46.99 15.64c-16.69 3.41-34.73 4.34-53.15 4.86s-39.75.03-57.36-1.75c-17.6-1.79-33.34-4.19-48.27-8.94-14.93-4.76-30.35-13.52-41.31-19.6S9.58 90.6 4.47 83.73c-5.11-6.88-8.64-16.64-6.21-24.35s12.01-15.27 20.79-21.92c8.78-6.66 19.44-12.76 31.9-18S77.34 9.5 93.83 6.02c16.48-3.49 46.96-6.47 56.04-7.47 9.08-1.01-2.35.58-1.54 1.44" class="G H I L"/></g><g transform="matrix(1 0 0 1 842.5 502.5)" class="B C D E F"><text x="63.5" y="32" style="white-space:pre">Thread</text></g><g transform="matrix(1 0 0 1 1129 464)"><path d="M25.69 30.3c8-6.22 26.5-11.41 41.71-16.31C82.61 9.1 99.11 3.33 116.92.93c17.82-2.4 38.64-2.09 57.38-1.34 18.74.76 38.15 2.51 55.07 5.87 16.91 3.36 33.13 9.16 46.44 14.28s25.22 10.4 33.43 16.44c8.22 6.05 14 12.71 15.87 19.84 1.87 7.14-.37 15.25-4.65 22.97-4.29 7.72-10.71 17.19-21.08 23.37s-26.33 9.81-41.12 13.71c-14.79 3.89-29.9 7.06-47.62 9.64-17.71 2.59-39.57 6.23-58.68 5.87-19.1-.36-39.19-4.75-55.94-8.04-16.76-3.3-31.61-6.76-44.6-11.75-13-4.99-24.74-11.54-33.38-18.21S1.86 79.15-.42 71.76c-2.29-7.38-6.66-12.27 4.75-22.5C15.73 39.03 48.06 18.01 68 10.38c19.95-7.64 54.3-8.18 56-6.94m127.78 7.57c16.7 3.25 29.78 8.02 40.75 14.03 10.97 6 19.7 14.98 25.08 21.99 5.39 7 7.68 12.58 7.23 20.05-.45 7.46-3.06 17.48-9.93 24.74s-18.44 13.81-31.28 18.8-28.69 8.14-45.75 11.15c-17.07 3-38.58 5.54-56.63 6.88s-33.51 2.44-51.68 1.15c-18.18-1.3-41.67-4.38-57.37-8.92-15.71-4.54-26.06-11.88-36.85-18.33-10.8-6.44-22.46-13.86-27.91-20.35C2 75.71 2.12 70.22 2.65 63.61s1.33-13.85 7.97-21.07c6.64-7.23 19.1-16.05 31.87-22.29S70.94 8.13 87.22 5.1c16.27-3.02 33.83-2.57 52.92-2.97 19.08-.41 42.86-.8 61.6.56s42.65 6.35 50.85 7.62c8.19 1.26.1-.46-1.69-.03" class="M"/><path d="M290.99 25.45c13.03 4.64 21.94 12.2 27.56 19.35 5.61 7.15 6.46 16.12 6.13 23.56-.34 7.43-1.46 14.66-8.14 21.05-6.67 6.38-19.12 11.59-31.9 17.25s-28.39 12.76-44.75 16.69c-16.37 3.92-35.18 6-53.44 6.87-18.26.86-38.35-.13-56.11-1.69-17.76-1.55-34.43-3.88-50.45-7.64-16.03-3.76-33.65-8.97-45.71-14.91C22.13 100.03 13.55 92 7.54 85.22c-6.01-6.79-10.29-12.5-9.41-19.94.89-7.45 7.67-17.78 14.72-24.73s15.58-11.46 27.58-16.98S68.41 11.31 84.84 7.43s35.87-5.89 54.17-7.15 37.42-1.73 55.65-.42c18.22 1.3 33.37 1 53.71 8.25 20.33 7.25 56.02 26.34 68.3 35.25 12.29 8.9 7.92 18.02 5.39 18.16M174.25 1.31c17.94-.79 38.39-.44 55.12 2.16 16.74 2.6 32.2 7.7 45.29 13.46s24.8 14.09 33.27 21.09c8.48 7.01 15.43 13.61 17.58 20.94 2.15 7.32-.56 15.58-4.67 22.99-4.11 7.42-9.85 15.78-19.99 21.51-10.13 5.73-25.38 8.44-40.83 12.86-15.45 4.43-33.53 11.3-51.87 13.68-18.34 2.39-40.24 1.45-58.18.64-17.94-.82-33.2-2.58-49.48-5.53s-33.93-7-48.19-12.18-28.7-11.82-37.38-18.89S2.36 78.15.23 70.5c-2.14-7.65-3.15-14.96 1.86-22.38 5-7.42 17.43-15.79 28.18-22.13 10.74-6.34 21.79-12.05 36.31-15.93 14.53-3.89 32.54-5.42 50.82-7.38 18.28-1.97 49.49-3.8 58.86-4.42 9.38-.62-2.03-.82-2.63.7" class="G H I L"/></g><g transform="matrix(1 0 0 1 1228.5 506.5)" class="B C D E F"><text x="63.5" y="32" style="white-space:pre">Thread</text></g><g transform="matrix(1 0 0 1 330 769)"><path d="M33.61 3.12L261.8-.72l19.64 2.44 7.91 10.17.82 20.77 1.72 76.19-2.6 17.82-11.78 9.58-14 6.93-229.93-2.25-23.76-1.52-2.13-11.95-10.73-6.64 6.26-95.15L5.39 8.11l11.86-9.46 18.61 3.09" class="N"/><path d="M32 0c52.96-2.51 103.93 1.36 230 0M32 0c85.29.99 174.11 2.54 230 0m0 0c20.76 2.04 33.27 12.1 32 32M262 0c22.79-2.34 30.95 8.64 32 32m0 0c-4.2 22-.54 37.23 0 78m0-78c-.5 21.73-.19 44.59 0 78m0 0c-2.85 23.78-7.37 31-32 32m32-32c3.75 22.23-7.98 32.6-32 32m0 0c-53.61-4.31-104.85.46-230 0m230 0c-86.29-.64-176.62.24-230 0m0 0c-22.8-3.3-35.65-12.05-32-32m32 32c-24.94-2.4-36.07-6.13-32-32m0 0c-1.76-33.66-.64-56.53 0-78m0 78c-.99-19.29.68-41.68 0-78m0 0C-1.7 8.92 13.56 3.78 32 0M0 32C.87 8.78 7.09-1.72 32 0" class="G H I L"/></g><g transform="matrix(1 0 0 1 437.5 817.5)" class="B C D E F"><text x="39.5" y="32" style="white-space:pre">Core</text></g><g transform="matrix(1 0 0 1 1089 778)"><path d="M32.13-3.6l230.04.09 18.95 4.58 4.97 12.96 10.44 20.18-2.83 77.65-1.49 20.3-10.72 5.55-20.2 6.3-228.1-4-24.08.57-8.33-7.59-4.01-16.04L-.02 24.1 5.13 7.47l11.15-5.43 19.03.16" class="N"/><path d="M32 0c75.01-1.11 153.02 1.77 230 0M32 0c55.93-2.17 115.2-.15 230 0m0 0c24.27 2.24 31.6 14.2 32 32M262 0c22.47 1.21 35.55 10.48 32 32m0 0c-1.47 32.19-.99 55.8 0 78m0-78c.05 24.43-2.25 48.33 0 78m0 0c-.29 18.05-12.73 35.47-32 32m32-32c1.51 21.36-7.27 34.35-32 32m0 0c-80.25.77-156.77-2.01-230 0m230 0c-72.18 1.11-143.65 1.82-230 0m0 0c-23.75.45-30.34-9.96-32-32m32 32c-17.85-2.45-30.39-9.77-32-32m0 0c-1.51-17.53-2.79-46.09 0-78m0 78c.96-21.37-2.13-41.31 0-78m0 0C2.92 14.18 11.04 3.82 32 0M0 32C3.98 7.47 6.07.19 32 0" class="G H I L"/></g><g transform="matrix(1 0 0 1 1196.5 826.5)" class="B C D E F"><text x="39.5" y="32" style="white-space:pre">Core</text></g><g transform="matrix(1 0 0 1 717 776)"><path d="M28.57-3.41l234.96 5.94 20.18 1.67 7.65 11.01 5.3 16.78-2.45 77.3-2.7 21.4-12 3.42-14.43 4.17-229.59-.01-23.54-1.29-7.85-10.35-4.13-10.85.57-87.97L10.2 9.42l9.07-7.28 10.22-3.28" class="N"/><path d="M32 0c62 3.49 118.72 1.02 230 0M32 0c86.31-3.04 172.23-2.46 230 0m0 0c22.39 3.09 31.84 13.89 32 32M262 0c24.59-2.83 29.04 13.55 32 32m0 0c-4.45 18.68 1.1 40.68 0 78m0-78c-.46 18.23 2.91 39.19 0 78m0 0c.02 24.29-8.62 33.78-32 32m32-32c3.03 21.39-12.02 32.97-32 32m0 0c-77.73 2.67-160.42-1.87-230 0m230 0c-91.38-1.66-182.85-1.08-230 0m0 0C8.54 143.4.78 130.16 0 110m32 32c-22.31-3.28-34.11-6.56-32-32m0 0c2.65-18.93 4.31-35.2 0-78m0 78c1.07-16.62 1.22-31.88 0-78m0 0C-2.78 6.67 10.83.65 32 0M0 32C-2.85 6.49 11.94 4.56 32 0" class="G H I L"/></g><g transform="matrix(1 0 0 1 824.5 824.5)" class="B C D E F"><text x="39.5" y="32" style="white-space:pre">Core</text></g><g transform="matrix(1 0 0 1 126.5 321)" class="B C D E F"><text x="97.5" y="32" style="white-space:pre">User-space</text></g><g transform="matrix(1 0 0 1 91 619)" class="B C D E F"><text x="109" y="32" style="white-space:pre">Kernel-space</text></g><g transform="matrix(1 0 0 1 10 843)" class="B C D E F"><text x="92" y="32" style="white-space:pre">CPU cores</text></g></svg>