<svg version="1.1"
    xmlns="http://www.w3.org/2000/svg" viewBox="0 0 1110.8993710691757 727.0999999999995" width="2221.7987421383514" height="1454.199999999999" filter="invert(93%) hue-rotate(180deg)">
    <!-- svg-source:excalidraw -->

    <defs>
        <style class="style-fonts">
      @font-face {
        font-family: "Virgil";
        src: url("https://excalidraw.com/Virgil.woff2");
      }
      @font-face {
        font-family: "Cascadia";
        src: url("https://excalidraw.com/Cascadia.woff2");
      }
        </style>
    </defs>
    <rect x="0" y="0" width="1110.8993710691757" height="727.0999999999995" fill="#e3fafc"></rect>
    <g stroke-linecap="round" transform="translate(10 90.4333333333334) rotate(0 212.63312368972674 313.33333333333303)">
        <path d="M30.45 0.85 L392.48 0.4 L406.23 1.63 L424.46 15.74 L423.41 35.35 L425.77 593.49 L424.25 611.37 L413.25 619.68 L390.45 625.36 L33.18 628.63 L15.12 623.32 L3.31 617.32 L3.86 590.89 L0.28 32.39 L3.15 17.34 L11.2 5.26 L15.45 4.26 L31.85 -2.3" stroke="none" stroke-width="0" fill="#40c057"></path>
        <path d="M32 0 M32 0 C122.49 3.35, 208.13 1.24, 393.27 0 M32 0 C162.52 -0.29, 292.68 1.61, 393.27 0 M393.27 0 C414.14 -3.7, 428.85 9.74, 425.27 32 M393.27 0 C413.68 -4.34, 427.21 12.79, 425.27 32 M425.27 32 C421.56 238.33, 422.38 448.4, 425.27 594.67 M425.27 32 C421.51 162.52, 420.83 293.65, 425.27 594.67 M425.27 594.67 C423.7 619.97, 412.65 629.64, 393.27 626.67 M425.27 594.67 C422.47 619.92, 411.44 629.49, 393.27 626.67 M393.27 626.67 C295.15 629.75, 198.8 629.87, 32 626.67 M393.27 626.67 C302.06 628.93, 209.72 627.15, 32 626.67 M32 626.67 C10.27 629.78, -3.79 615.49, 0 594.67 M32 626.67 C10.5 626.91, 1.62 613.6, 0 594.67 M0 594.67 C0.95 454.84, -0.04 315.86, 0 32 M0 594.67 C4.35 471.64, 3.52 347.27, 0 32 M0 32 C1.96 7.27, 12.07 -1.4, 32 0 M0 32 C-0.32 10.5, 6.09 -3.64, 32 0" stroke="#000000" stroke-width="4" fill="none"></path>
    </g>
    <g stroke-linecap="round" transform="translate(44.683438155134354 439.63249475890916) rotate(0 185.24109014675014 113.3123689727463)">
        <path d="M30.2 -0.72 L335.74 2.66 L354.17 5.99 L368.08 10.44 L367.22 31.67 L373.66 197.86 L362.37 211.59 L359.88 224.97 L336.85 229.5 L32.3 226.05 L13.09 222.3 L-0.84 210.54 L-0.36 196.6 L0.41 22.08 L10.81 5.2 L14.68 5.98 L32.07 3.07" stroke="none" stroke-width="0" fill="#7950f2"></path>
        <path d="M32 0 M32 0 C124.15 -2.81, 219.63 1.5, 338.48 0 M32 0 C133.57 -3.18, 235.75 -3.22, 338.48 0 M338.48 0 C363.44 -3.44, 374.03 8.77, 370.48 32 M338.48 0 C358.7 1.2, 372.42 10.1, 370.48 32 M370.48 32 C371.63 69.59, 371.41 101.79, 370.48 194.62 M370.48 32 C371.76 87.27, 372.42 143.46, 370.48 194.62 M370.48 194.62 C370.25 214.46, 359.53 227.96, 338.48 226.62 M370.48 194.62 C375.06 211.7, 363.17 229.91, 338.48 226.62 M338.48 226.62 C234.45 226.2, 131.31 225.72, 32 226.62 M338.48 226.62 C243.76 226.29, 146.34 224.79, 32 226.62 M32 226.62 C10.94 227.81, -1.2 214.63, 0 194.62 M32 226.62 C6.61 226.2, 0.01 212.79, 0 194.62 M0 194.62 C4.4 131.3, -0.45 69.9, 0 32 M0 194.62 C1.81 146.43, 2.77 100.48, 0 32 M0 32 C-0.57 13.88, 13.93 -3.92, 32 0 M0 32 C-3.39 6.66, 7.73 4.34, 32 0" stroke="#000000" stroke-width="4" fill="none"></path>
    </g>
    <g transform="translate(129.32599343993388 552.7477987421371) rotate(0 53.69706735670934 12.769811320754798)">
        <text x="53.69706735670936" y="0" font-family="Virgil, Segoe UI Emoji" font-size="21.283018867924508px" fill="#ffff" text-anchor="middle" style="white-space: pre;" direction="ltr" dominant-baseline="text-before-edge">i int  = 10</text>
    </g>
    <g transform="translate(141.740684845161 463.37882599580644) rotate(0 47.982585595088494 12.769811320754798)">
        <text x="47.982585595088885" y="0" font-family="Virgil, Segoe UI Emoji" font-size="21.283018867924508px" fill="#ffff" text-anchor="middle" style="white-space: pre;" direction="ltr" dominant-baseline="text-before-edge">func someFunc</text>
    </g>
    <g stroke-linecap="round" transform="translate(675.6331236897222 84.93333333333248) rotate(0 212.63312368972674 313.33333333333303)">
        <path d="M28.83 1.89 L396.26 -0.47 L408.84 5.38 L420.45 13.09 L428.46 30.41 L425.39 593.37 L419.29 609.34 L410.1 621.57 L392.02 623.21 L30.64 625.57 L20.36 621.76 L2.17 610.3 L-1.88 596.75 L2.38 28.68 L-0.35 21.95 L7.02 8.83 L14.86 1.82 L28.17 -0.44" stroke="none" stroke-width="0" fill="#40c057"></path>
        <path d="M32 0 M32 0 C178 5.99, 321.78 4.91, 393.27 0 M32 0 C159.04 3.73, 286.58 2.7, 393.27 0 M393.27 0 C412.89 1.82, 428.43 7.61, 425.27 32 M393.27 0 C418.66 0.13, 420.94 9.61, 425.27 32 M425.27 32 C425.39 217.32, 423.27 405.74, 425.27 594.67 M425.27 32 C424.21 221.59, 425.05 411.53, 425.27 594.67 M425.27 594.67 C426.07 613.02, 417.9 623.17, 393.27 626.67 M425.27 594.67 C421.17 618.49, 411.46 627.23, 393.27 626.67 M393.27 626.67 C290.38 628.13, 193.4 632.08, 32 626.67 M393.27 626.67 C267.29 624.69, 139.34 624.89, 32 626.67 M32 626.67 C11.38 626.54, -3.16 617.37, 0 594.67 M32 626.67 C14.1 623.54, 0.92 618.78, 0 594.67 M0 594.67 C2.45 408, 1.27 218.77, 0 32 M0 594.67 C3.46 392.43, 3.48 189.44, 0 32 M0 32 C-2.99 9.68, 12.68 -3.59, 32 0 M0 32 C-3.71 11.11, 15.16 -0.32, 32 0" stroke="#000000" stroke-width="4" fill="none"></path>
    </g>
    <g transform="translate(124.7462049600199 18.266666666666424) rotate(0 83.5200424194336 21.59999999999991)">
        <text x="83.5200424194336" y="0" font-family="Virgil, Segoe UI Emoji" font-size="36px" fill="#000000" text-anchor="middle" style="white-space: pre;" direction="ltr" dominant-baseline="text-before-edge">on running</text>
    </g>
    <g transform="translate(705.868857649637 10) rotate(0 179.06405639648438 21.59999999999991)">
        <text x="179.06405639648438" y="0" font-family="Virgil, Segoe UI Emoji" font-size="36px" fill="#000000" text-anchor="middle" style="white-space: pre;" direction="ltr" dominant-baseline="text-before-edge">After function exits</text>
    </g>
</svg>